  0
SECTION
  2
HEADER
  9
$ACADVER
  1
AC1009
  9
$EXTMIN
 10
0.0
 20
0.0
 30
0.0
  9
$EXTMAX
 10
1000.0
 20
1000.0
 30
0.0
  9
$FILLMODE
 70
 0
  9
$SPLFRAME
 70
 1
  0
ENDSEC
  0
SECTION
  2
TABLES
  0
TABLE
  2
LAYER
 70
1
  0
LAYER
  2
0
 70
     0
 62
     7
  6
CONTINUOUS
  0
ENDTAB
  0
ENDSEC
  0
SECTION
  2
ENTITIES
  0
LINE
  8
0
 62
     0
 10
245.746
 20
76.4575
 30
0.0
 11
245.901
 21
76.4508
 31
0.0
  0
LINE
  8
0
 62
     0
 10
245.901
 20
76.4508
 30
0.0
 11
246.057
 21
76.4328
 31
0.0
  0
LINE
  8
0
 62
     0
 10
246.057
 20
76.4328
 30
0.0
 11
246.211
 21
76.4025
 31
0.0
  0
LINE
  8
0
 62
     0
 10
246.211
 20
76.4025
 30
0.0
 11
246.363
 21
76.3598
 31
0.0
  0
LINE
  8
0
 62
     0
 10
246.363
 20
76.3598
 30
0.0
 11
246.511
 21
76.3048
 31
0.0
  0
LINE
  8
0
 62
     0
 10
246.511
 20
76.3048
 30
0.0
 11
246.652
 21
76.2399
 31
0.0
  0
LINE
  8
0
 62
     0
 10
246.652
 20
76.2399
 30
0.0
 11
246.79
 21
76.163
 31
0.0
  0
LINE
  8
0
 62
     0
 10
246.79
 20
76.163
 30
0.0
 11
246.921
 21
76.0758
 31
0.0
  0
LINE
  8
0
 62
     0
 10
246.921
 20
76.0758
 30
0.0
 11
247.044
 21
75.9781
 31
0.0
  0
LINE
  8
0
 62
     0
 10
247.044
 20
75.9781
 30
0.0
 11
247.159
 21
75.8719
 31
0.0
  0
LINE
  8
0
 62
     0
 10
247.159
 20
75.8719
 30
0.0
 11
247.265
 21
75.7562
 31
0.0
  0
LINE
  8
0
 62
     0
 10
247.265
 20
75.7562
 30
0.0
 11
247.364
 21
75.6338
 31
0.0
  0
LINE
  8
0
 62
     0
 10
247.364
 20
75.6338
 30
0.0
 11
247.45
 21
75.5026
 31
0.0
  0
LINE
  8
0
 62
     0
 10
247.45
 20
75.5026
 30
0.0
 11
247.527
 21
75.365
 31
0.0
  0
LINE
  8
0
 62
     0
 10
247.527
 20
75.365
 30
0.0
 11
247.592
 21
75.2228
 31
0.0
  0
LINE
  8
0
 62
     0
 10
247.592
 20
75.2228
 30
0.0
 11
247.647
 21
75.0768
 31
0.0
  0
LINE
  8
0
 62
     0
 10
247.647
 20
75.0768
 30
0.0
 11
247.69
 21
74.924
 31
0.0
  0
LINE
  8
0
 62
     0
 10
247.69
 20
74.924
 30
0.0
 11
247.72
 21
74.7709
 31
0.0
  0
LINE
  8
0
 62
     0
 10
247.72
 20
74.7709
 30
0.0
 11
247.738
 21
74.6139
 31
0.0
  0
LINE
  8
0
 62
     0
 10
247.738
 20
74.6139
 30
0.0
 11
247.745
 21
74.4569
 31
0.0
  0
LINE
  8
0
 62
     0
 10
247.745
 20
74.4569
 30
0.0
 11
247.745
 21
2.25585
 31
0.0
  0
LINE
  8
0
 62
     0
 10
247.745
 20
2.25585
 30
0.0
 11
247.738
 21
2.10013
 31
0.0
  0
LINE
  8
0
 62
     0
 10
247.738
 20
2.10013
 30
0.0
 11
247.72
 21
1.94441
 31
0.0
  0
LINE
  8
0
 62
     0
 10
247.72
 20
1.94441
 30
0.0
 11
247.69
 21
1.79007
 31
0.0
  0
LINE
  8
0
 62
     0
 10
247.69
 20
1.79007
 30
0.0
 11
247.647
 21
1.63849
 31
0.0
  0
LINE
  8
0
 62
     0
 10
247.647
 20
1.63849
 30
0.0
 11
247.592
 21
1.49104
 31
0.0
  0
LINE
  8
0
 62
     0
 10
247.592
 20
1.49104
 30
0.0
 11
247.527
 21
1.3491
 31
0.0
  0
LINE
  8
0
 62
     0
 10
247.527
 20
1.3491
 30
0.0
 11
247.45
 21
1.21267
 31
0.0
  0
LINE
  8
0
 62
     0
 10
247.45
 20
1.21267
 30
0.0
 11
247.364
 21
1.08176
 31
0.0
  0
LINE
  8
0
 62
     0
 10
247.364
 20
1.08176
 30
0.0
 11
247.265
 21
0.957735
 31
0.0
  0
LINE
  8
0
 62
     0
 10
247.265
 20
0.957735
 30
0.0
 11
247.159
 21
0.841982
 31
0.0
  0
LINE
  8
0
 62
     0
 10
247.159
 20
0.841982
 30
0.0
 11
247.044
 21
0.735873
 31
0.0
  0
LINE
  8
0
 62
     0
 10
247.044
 20
0.735873
 30
0.0
 11
246.921
 21
0.63803
 31
0.0
  0
LINE
  8
0
 62
     0
 10
246.921
 20
0.63803
 30
0.0
 11
246.79
 21
0.551215
 31
0.0
  0
LINE
  8
0
 62
     0
 10
246.79
 20
0.551215
 30
0.0
 11
246.652
 21
0.474045
 31
0.0
  0
LINE
  8
0
 62
     0
 10
246.652
 20
0.474045
 30
0.0
 11
246.511
 21
0.409279
 31
0.0
  0
LINE
  8
0
 62
     0
 10
246.511
 20
0.409279
 30
0.0
 11
246.363
 21
0.354157
 31
0.0
  0
LINE
  8
0
 62
     0
 10
246.363
 20
0.354157
 30
0.0
 11
246.211
 21
0.312815
 31
0.0
  0
LINE
  8
0
 62
     0
 10
246.211
 20
0.312815
 30
0.0
 11
246.057
 21
0.28112
 31
0.0
  0
LINE
  8
0
 62
     0
 10
246.057
 20
0.28112
 30
0.0
 11
245.901
 21
0.263205
 31
0.0
  0
LINE
  8
0
 62
     0
 10
245.901
 20
0.263205
 30
0.0
 11
245.746
 21
0.257693
 31
0.0
  0
LINE
  8
0
 62
     0
 10
245.746
 20
0.257693
 30
0.0
 11
2.09462
 21
0.256315
 31
0.0
  0
LINE
  8
0
 62
     0
 10
2.09462
 20
0.256315
 30
0.0
 11
1.93752
 21
0.263205
 31
0.0
  0
LINE
  8
0
 62
     0
 10
1.93752
 20
0.263205
 30
0.0
 11
1.7818
 21
0.28112
 31
0.0
  0
LINE
  8
0
 62
     0
 10
1.7818
 20
0.28112
 30
0.0
 11
1.62746
 21
0.312815
 31
0.0
  0
LINE
  8
0
 62
     0
 10
1.62746
 20
0.312815
 30
0.0
 11
1.47588
 21
0.354157
 31
0.0
  0
LINE
  8
0
 62
     0
 10
1.47588
 20
0.354157
 30
0.0
 11
1.32843
 21
0.409279
 31
0.0
  0
LINE
  8
0
 62
     0
 10
1.32843
 20
0.409279
 30
0.0
 11
1.18649
 21
0.474045
 31
0.0
  0
LINE
  8
0
 62
     0
 10
1.18649
 20
0.474045
 30
0.0
 11
1.05006
 21
0.551215
 31
0.0
  0
LINE
  8
0
 62
     0
 10
1.05006
 20
0.551215
 30
0.0
 11
0.919152
 21
0.63803
 31
0.0
  0
LINE
  8
0
 62
     0
 10
0.919152
 20
0.63803
 30
0.0
 11
0.795129
 21
0.735873
 31
0.0
  0
LINE
  8
0
 62
     0
 10
0.795129
 20
0.735873
 30
0.0
 11
0.679372
 21
0.841982
 31
0.0
  0
LINE
  8
0
 62
     0
 10
0.679372
 20
0.841982
 30
0.0
 11
0.573264
 21
0.957735
 31
0.0
  0
LINE
  8
0
 62
     0
 10
0.573264
 20
0.957735
 30
0.0
 11
0.475424
 21
1.08176
 31
0.0
  0
LINE
  8
0
 62
     0
 10
0.475424
 20
1.08176
 30
0.0
 11
0.388606
 21
1.21267
 31
0.0
  0
LINE
  8
0
 62
     0
 10
0.388606
 20
1.21267
 30
0.0
 11
0.311437
 21
1.3491
 31
0.0
  0
LINE
  8
0
 62
     0
 10
0.311437
 20
1.3491
 30
0.0
 11
0.246669
 21
1.49104
 31
0.0
  0
LINE
  8
0
 62
     0
 10
0.246669
 20
1.49104
 30
0.0
 11
0.191547
 21
1.63849
 31
0.0
  0
LINE
  8
0
 62
     0
 10
0.191547
 20
1.63849
 30
0.0
 11
0.148828
 21
1.79007
 31
0.0
  0
LINE
  8
0
 62
     0
 10
0.148828
 20
1.79007
 30
0.0
 11
0.118511
 21
1.94441
 31
0.0
  0
LINE
  8
0
 62
     0
 10
0.118511
 20
1.94441
 30
0.0
 11
0.100597
 21
2.10013
 31
0.0
  0
LINE
  8
0
 62
     0
 10
0.100597
 20
2.10013
 30
0.0
 11
0.0950846
 21
2.25585
 31
0.0
  0
LINE
  8
0
 62
     0
 10
0.0950846
 20
2.25585
 30
0.0
 11
0.0950846
 21
74.4569
 31
0.0
  0
LINE
  8
0
 62
     0
 10
0.0950846
 20
74.4569
 30
0.0
 11
0.100597
 21
74.6139
 31
0.0
  0
LINE
  8
0
 62
     0
 10
0.100597
 20
74.6139
 30
0.0
 11
0.118511
 21
74.7709
 31
0.0
  0
LINE
  8
0
 62
     0
 10
0.118511
 20
74.7709
 30
0.0
 11
0.148828
 21
74.924
 31
0.0
  0
LINE
  8
0
 62
     0
 10
0.148828
 20
74.924
 30
0.0
 11
0.191547
 21
75.0768
 31
0.0
  0
LINE
  8
0
 62
     0
 10
0.191547
 20
75.0768
 30
0.0
 11
0.246669
 21
75.2228
 31
0.0
  0
LINE
  8
0
 62
     0
 10
0.246669
 20
75.2228
 30
0.0
 11
0.311437
 21
75.365
 31
0.0
  0
LINE
  8
0
 62
     0
 10
0.311437
 20
75.365
 30
0.0
 11
0.388606
 21
75.5026
 31
0.0
  0
LINE
  8
0
 62
     0
 10
0.388606
 20
75.5026
 30
0.0
 11
0.475424
 21
75.6338
 31
0.0
  0
LINE
  8
0
 62
     0
 10
0.475424
 20
75.6338
 30
0.0
 11
0.573264
 21
75.7562
 31
0.0
  0
LINE
  8
0
 62
     0
 10
0.573264
 20
75.7562
 30
0.0
 11
0.679372
 21
75.8719
 31
0.0
  0
LINE
  8
0
 62
     0
 10
0.679372
 20
75.8719
 30
0.0
 11
0.795129
 21
75.9781
 31
0.0
  0
LINE
  8
0
 62
     0
 10
0.795129
 20
75.9781
 30
0.0
 11
0.919152
 21
76.0758
 31
0.0
  0
LINE
  8
0
 62
     0
 10
0.919152
 20
76.0758
 30
0.0
 11
1.05006
 21
76.163
 31
0.0
  0
LINE
  8
0
 62
     0
 10
1.05006
 20
76.163
 30
0.0
 11
1.18649
 21
76.2399
 31
0.0
  0
LINE
  8
0
 62
     0
 10
1.18649
 20
76.2399
 30
0.0
 11
1.32843
 21
76.3048
 31
0.0
  0
LINE
  8
0
 62
     0
 10
1.32843
 20
76.3048
 30
0.0
 11
1.47588
 21
76.3598
 31
0.0
  0
LINE
  8
0
 62
     0
 10
1.47588
 20
76.3598
 30
0.0
 11
1.62746
 21
76.4025
 31
0.0
  0
LINE
  8
0
 62
     0
 10
1.62746
 20
76.4025
 30
0.0
 11
1.7818
 21
76.4328
 31
0.0
  0
LINE
  8
0
 62
     0
 10
1.7818
 20
76.4328
 30
0.0
 11
1.93752
 21
76.4508
 31
0.0
  0
LINE
  8
0
 62
     0
 10
1.93752
 20
76.4508
 30
0.0
 11
2.09462
 21
76.4575
 31
0.0
  0
LINE
  8
0
 62
     0
 10
2.09462
 20
76.4575
 30
0.0
 11
245.746
 21
76.4575
 31
0.0
  0
LINE
  8
0
 62
     0
 10
135.97
 20
16.7817
 30
0.0
 11
135.97
 21
15.7827
 31
0.0
  0
LINE
  8
0
 62
     0
 10
135.97
 20
15.7827
 30
0.0
 11
135.169
 21
15.7827
 31
0.0
  0
LINE
  8
0
 62
     0
 10
135.169
 20
15.7827
 30
0.0
 11
135.169
 21
12.6835
 31
0.0
  0
LINE
  8
0
 62
     0
 10
135.169
 20
12.6835
 30
0.0
 11
135.97
 21
12.6835
 31
0.0
  0
LINE
  8
0
 62
     0
 10
135.97
 20
12.6835
 30
0.0
 11
135.97
 21
12.0826
 31
0.0
  0
LINE
  8
0
 62
     0
 10
135.97
 20
12.0826
 30
0.0
 11
134.444
 21
12.0826
 31
0.0
  0
LINE
  8
0
 62
     0
 10
134.444
 20
12.0826
 30
0.0
 11
134.444
 21
15.3128
 31
0.0
  0
LINE
  8
0
 62
     0
 10
134.444
 20
15.3128
 30
0.0
 11
132.719
 21
15.3128
 31
0.0
  0
LINE
  8
0
 62
     0
 10
132.719
 20
15.3128
 30
0.0
 11
132.719
 21
16.2333
 31
0.0
  0
LINE
  8
0
 62
     0
 10
132.719
 20
16.2333
 30
0.0
 11
129.42
 21
16.2333
 31
0.0
  0
LINE
  8
0
 62
     0
 10
129.42
 20
16.2333
 30
0.0
 11
129.42
 21
15.3128
 31
0.0
  0
LINE
  8
0
 62
     0
 10
129.42
 20
15.3128
 30
0.0
 11
127.695
 21
15.3128
 31
0.0
  0
LINE
  8
0
 62
     0
 10
127.695
 20
15.3128
 30
0.0
 11
127.695
 21
12.0826
 31
0.0
  0
LINE
  8
0
 62
     0
 10
127.695
 20
12.0826
 30
0.0
 11
126.869
 21
12.0826
 31
0.0
  0
LINE
  8
0
 62
     0
 10
126.869
 20
12.0826
 30
0.0
 11
126.869
 21
9.28247
 31
0.0
  0
LINE
  8
0
 62
     0
 10
126.869
 20
9.28247
 30
0.0
 11
127.695
 21
9.28247
 31
0.0
  0
LINE
  8
0
 62
     0
 10
127.695
 20
9.28247
 30
0.0
 11
127.695
 21
3.01239
 31
0.0
  0
LINE
  8
0
 62
     0
 10
127.695
 20
3.01239
 30
0.0
 11
129.42
 21
3.01239
 31
0.0
  0
LINE
  8
0
 62
     0
 10
129.42
 20
3.01239
 30
0.0
 11
129.42
 21
2.03261
 31
0.0
  0
LINE
  8
0
 62
     0
 10
129.42
 20
2.03261
 30
0.0
 11
132.719
 21
2.03261
 31
0.0
  0
LINE
  8
0
 62
     0
 10
132.719
 20
2.03261
 30
0.0
 11
132.719
 21
3.01239
 31
0.0
  0
LINE
  8
0
 62
     0
 10
132.719
 20
3.01239
 30
0.0
 11
134.444
 21
3.01239
 31
0.0
  0
LINE
  8
0
 62
     0
 10
134.444
 20
3.01239
 30
0.0
 11
134.444
 21
7.48273
 31
0.0
  0
LINE
  8
0
 62
     0
 10
134.444
 20
7.48273
 30
0.0
 11
135.97
 21
7.48273
 31
0.0
  0
LINE
  8
0
 62
     0
 10
135.97
 20
7.48273
 30
0.0
 11
135.97
 21
6.88192
 31
0.0
  0
LINE
  8
0
 62
     0
 10
135.97
 20
6.88192
 30
0.0
 11
135.169
 21
6.88192
 31
0.0
  0
LINE
  8
0
 62
     0
 10
135.169
 20
6.88192
 30
0.0
 11
135.169
 21
3.78273
 31
0.0
  0
LINE
  8
0
 62
     0
 10
135.169
 20
3.78273
 30
0.0
 11
135.97
 21
3.78273
 31
0.0
  0
LINE
  8
0
 62
     0
 10
135.97
 20
3.78273
 30
0.0
 11
135.97
 21
2.78226
 31
0.0
  0
LINE
  8
0
 62
     0
 10
135.97
 20
2.78226
 30
0.0
 11
149.969
 21
2.78226
 31
0.0
  0
LINE
  8
0
 62
     0
 10
149.969
 20
2.78226
 30
0.0
 11
149.969
 21
3.78273
 31
0.0
  0
LINE
  8
0
 62
     0
 10
149.969
 20
3.78273
 30
0.0
 11
150.77
 21
3.78273
 31
0.0
  0
LINE
  8
0
 62
     0
 10
150.77
 20
3.78273
 30
0.0
 11
150.77
 21
6.88192
 31
0.0
  0
LINE
  8
0
 62
     0
 10
150.77
 20
6.88192
 30
0.0
 11
149.969
 21
6.88192
 31
0.0
  0
LINE
  8
0
 62
     0
 10
149.969
 20
6.88192
 30
0.0
 11
149.969
 21
7.48273
 31
0.0
  0
LINE
  8
0
 62
     0
 10
149.969
 20
7.48273
 30
0.0
 11
151.495
 21
7.48273
 31
0.0
  0
LINE
  8
0
 62
     0
 10
151.495
 20
7.48273
 30
0.0
 11
151.495
 21
3.01239
 31
0.0
  0
LINE
  8
0
 62
     0
 10
151.495
 20
3.01239
 30
0.0
 11
153.22
 21
3.01239
 31
0.0
  0
LINE
  8
0
 62
     0
 10
153.22
 20
3.01239
 30
0.0
 11
153.22
 21
2.03261
 31
0.0
  0
LINE
  8
0
 62
     0
 10
153.22
 20
2.03261
 30
0.0
 11
156.519
 21
2.03261
 31
0.0
  0
LINE
  8
0
 62
     0
 10
156.519
 20
2.03261
 30
0.0
 11
156.519
 21
3.01239
 31
0.0
  0
LINE
  8
0
 62
     0
 10
156.519
 20
3.01239
 30
0.0
 11
158.244
 21
3.01239
 31
0.0
  0
LINE
  8
0
 62
     0
 10
158.244
 20
3.01239
 30
0.0
 11
158.244
 21
9.28247
 31
0.0
  0
LINE
  8
0
 62
     0
 10
158.244
 20
9.28247
 30
0.0
 11
159.07
 21
9.28247
 31
0.0
  0
LINE
  8
0
 62
     0
 10
159.07
 20
9.28247
 30
0.0
 11
159.07
 21
12.0826
 31
0.0
  0
LINE
  8
0
 62
     0
 10
159.07
 20
12.0826
 30
0.0
 11
158.244
 21
12.0826
 31
0.0
  0
LINE
  8
0
 62
     0
 10
158.244
 20
12.0826
 30
0.0
 11
158.244
 21
15.3128
 31
0.0
  0
LINE
  8
0
 62
     0
 10
158.244
 20
15.3128
 30
0.0
 11
156.519
 21
15.3128
 31
0.0
  0
LINE
  8
0
 62
     0
 10
156.519
 20
15.3128
 30
0.0
 11
156.519
 21
16.2333
 31
0.0
  0
LINE
  8
0
 62
     0
 10
156.519
 20
16.2333
 30
0.0
 11
153.22
 21
16.2333
 31
0.0
  0
LINE
  8
0
 62
     0
 10
153.22
 20
16.2333
 30
0.0
 11
153.22
 21
15.3128
 31
0.0
  0
LINE
  8
0
 62
     0
 10
153.22
 20
15.3128
 30
0.0
 11
151.495
 21
15.3128
 31
0.0
  0
LINE
  8
0
 62
     0
 10
151.495
 20
15.3128
 30
0.0
 11
151.495
 21
12.0826
 31
0.0
  0
LINE
  8
0
 62
     0
 10
151.495
 20
12.0826
 30
0.0
 11
149.969
 21
12.0826
 31
0.0
  0
LINE
  8
0
 62
     0
 10
149.969
 20
12.0826
 30
0.0
 11
149.969
 21
12.6835
 31
0.0
  0
LINE
  8
0
 62
     0
 10
149.969
 20
12.6835
 30
0.0
 11
150.77
 21
12.6835
 31
0.0
  0
LINE
  8
0
 62
     0
 10
150.77
 20
12.6835
 30
0.0
 11
150.77
 21
15.7827
 31
0.0
  0
LINE
  8
0
 62
     0
 10
150.77
 20
15.7827
 30
0.0
 11
149.969
 21
15.7827
 31
0.0
  0
LINE
  8
0
 62
     0
 10
149.969
 20
15.7827
 30
0.0
 11
149.969
 21
16.7817
 31
0.0
  0
LINE
  8
0
 62
     0
 10
149.969
 20
16.7817
 30
0.0
 11
135.97
 21
16.7817
 31
0.0
  0
LINE
  8
0
 62
     0
 10
97.8697
 20
16.7817
 30
0.0
 11
97.8697
 21
15.7827
 31
0.0
  0
LINE
  8
0
 62
     0
 10
97.8697
 20
15.7827
 30
0.0
 11
97.0689
 21
15.7827
 31
0.0
  0
LINE
  8
0
 62
     0
 10
97.0689
 20
15.7827
 30
0.0
 11
97.0689
 21
12.6835
 31
0.0
  0
LINE
  8
0
 62
     0
 10
97.0689
 20
12.6835
 30
0.0
 11
97.8697
 21
12.6835
 31
0.0
  0
LINE
  8
0
 62
     0
 10
97.8697
 20
12.6835
 30
0.0
 11
97.8697
 21
12.0826
 31
0.0
  0
LINE
  8
0
 62
     0
 10
97.8697
 20
12.0826
 30
0.0
 11
96.3443
 21
12.0826
 31
0.0
  0
LINE
  8
0
 62
     0
 10
96.3443
 20
12.0826
 30
0.0
 11
96.3443
 21
15.3128
 31
0.0
  0
LINE
  8
0
 62
     0
 10
96.3443
 20
15.3128
 30
0.0
 11
94.6189
 21
15.3128
 31
0.0
  0
LINE
  8
0
 62
     0
 10
94.6189
 20
15.3128
 30
0.0
 11
94.6189
 21
16.2333
 31
0.0
  0
LINE
  8
0
 62
     0
 10
94.6189
 20
16.2333
 30
0.0
 11
91.3197
 21
16.2333
 31
0.0
  0
LINE
  8
0
 62
     0
 10
91.3197
 20
16.2333
 30
0.0
 11
91.3197
 21
15.3128
 31
0.0
  0
LINE
  8
0
 62
     0
 10
91.3197
 20
15.3128
 30
0.0
 11
89.5946
 21
15.3128
 31
0.0
  0
LINE
  8
0
 62
     0
 10
89.5946
 20
15.3128
 30
0.0
 11
89.5946
 21
12.0826
 31
0.0
  0
LINE
  8
0
 62
     0
 10
89.5946
 20
12.0826
 30
0.0
 11
88.7691
 21
12.0826
 31
0.0
  0
LINE
  8
0
 62
     0
 10
88.7691
 20
12.0826
 30
0.0
 11
88.7691
 21
9.28247
 31
0.0
  0
LINE
  8
0
 62
     0
 10
88.7691
 20
9.28247
 30
0.0
 11
89.5946
 21
9.28247
 31
0.0
  0
LINE
  8
0
 62
     0
 10
89.5946
 20
9.28247
 30
0.0
 11
89.5946
 21
3.01239
 31
0.0
  0
LINE
  8
0
 62
     0
 10
89.5946
 20
3.01239
 30
0.0
 11
91.3197
 21
3.01239
 31
0.0
  0
LINE
  8
0
 62
     0
 10
91.3197
 20
3.01239
 30
0.0
 11
91.3197
 21
2.03261
 31
0.0
  0
LINE
  8
0
 62
     0
 10
91.3197
 20
2.03261
 30
0.0
 11
94.6189
 21
2.03261
 31
0.0
  0
LINE
  8
0
 62
     0
 10
94.6189
 20
2.03261
 30
0.0
 11
94.6189
 21
3.01239
 31
0.0
  0
LINE
  8
0
 62
     0
 10
94.6189
 20
3.01239
 30
0.0
 11
96.3443
 21
3.01239
 31
0.0
  0
LINE
  8
0
 62
     0
 10
96.3443
 20
3.01239
 30
0.0
 11
96.3443
 21
7.48273
 31
0.0
  0
LINE
  8
0
 62
     0
 10
96.3443
 20
7.48273
 30
0.0
 11
97.8697
 21
7.48273
 31
0.0
  0
LINE
  8
0
 62
     0
 10
97.8697
 20
7.48273
 30
0.0
 11
97.8697
 21
6.88192
 31
0.0
  0
LINE
  8
0
 62
     0
 10
97.8697
 20
6.88192
 30
0.0
 11
97.0689
 21
6.88192
 31
0.0
  0
LINE
  8
0
 62
     0
 10
97.0689
 20
6.88192
 30
0.0
 11
97.0689
 21
3.78273
 31
0.0
  0
LINE
  8
0
 62
     0
 10
97.0689
 20
3.78273
 30
0.0
 11
97.8697
 21
3.78273
 31
0.0
  0
LINE
  8
0
 62
     0
 10
97.8697
 20
3.78273
 30
0.0
 11
97.8697
 21
2.78226
 31
0.0
  0
LINE
  8
0
 62
     0
 10
97.8697
 20
2.78226
 30
0.0
 11
111.869
 21
2.78226
 31
0.0
  0
LINE
  8
0
 62
     0
 10
111.869
 20
2.78226
 30
0.0
 11
111.869
 21
3.78273
 31
0.0
  0
LINE
  8
0
 62
     0
 10
111.869
 20
3.78273
 30
0.0
 11
112.67
 21
3.78273
 31
0.0
  0
LINE
  8
0
 62
     0
 10
112.67
 20
3.78273
 30
0.0
 11
112.67
 21
6.88192
 31
0.0
  0
LINE
  8
0
 62
     0
 10
112.67
 20
6.88192
 30
0.0
 11
111.869
 21
6.88192
 31
0.0
  0
LINE
  8
0
 62
     0
 10
111.869
 20
6.88192
 30
0.0
 11
111.869
 21
7.48273
 31
0.0
  0
LINE
  8
0
 62
     0
 10
111.869
 20
7.48273
 30
0.0
 11
113.395
 21
7.48273
 31
0.0
  0
LINE
  8
0
 62
     0
 10
113.395
 20
7.48273
 30
0.0
 11
113.395
 21
3.01239
 31
0.0
  0
LINE
  8
0
 62
     0
 10
113.395
 20
3.01239
 30
0.0
 11
115.12
 21
3.01239
 31
0.0
  0
LINE
  8
0
 62
     0
 10
115.12
 20
3.01239
 30
0.0
 11
115.12
 21
2.03261
 31
0.0
  0
LINE
  8
0
 62
     0
 10
115.12
 20
2.03261
 30
0.0
 11
118.419
 21
2.03261
 31
0.0
  0
LINE
  8
0
 62
     0
 10
118.419
 20
2.03261
 30
0.0
 11
118.419
 21
3.01239
 31
0.0
  0
LINE
  8
0
 62
     0
 10
118.419
 20
3.01239
 30
0.0
 11
120.144
 21
3.01239
 31
0.0
  0
LINE
  8
0
 62
     0
 10
120.144
 20
3.01239
 30
0.0
 11
120.144
 21
9.28247
 31
0.0
  0
LINE
  8
0
 62
     0
 10
120.144
 20
9.28247
 30
0.0
 11
120.97
 21
9.28247
 31
0.0
  0
LINE
  8
0
 62
     0
 10
120.97
 20
9.28247
 30
0.0
 11
120.97
 21
12.0826
 31
0.0
  0
LINE
  8
0
 62
     0
 10
120.97
 20
12.0826
 30
0.0
 11
120.144
 21
12.0826
 31
0.0
  0
LINE
  8
0
 62
     0
 10
120.144
 20
12.0826
 30
0.0
 11
120.144
 21
15.3128
 31
0.0
  0
LINE
  8
0
 62
     0
 10
120.144
 20
15.3128
 30
0.0
 11
118.419
 21
15.3128
 31
0.0
  0
LINE
  8
0
 62
     0
 10
118.419
 20
15.3128
 30
0.0
 11
118.419
 21
16.2333
 31
0.0
  0
LINE
  8
0
 62
     0
 10
118.419
 20
16.2333
 30
0.0
 11
115.12
 21
16.2333
 31
0.0
  0
LINE
  8
0
 62
     0
 10
115.12
 20
16.2333
 30
0.0
 11
115.12
 21
15.3128
 31
0.0
  0
LINE
  8
0
 62
     0
 10
115.12
 20
15.3128
 30
0.0
 11
113.395
 21
15.3128
 31
0.0
  0
LINE
  8
0
 62
     0
 10
113.395
 20
15.3128
 30
0.0
 11
113.395
 21
12.0826
 31
0.0
  0
LINE
  8
0
 62
     0
 10
113.395
 20
12.0826
 30
0.0
 11
111.869
 21
12.0826
 31
0.0
  0
LINE
  8
0
 62
     0
 10
111.869
 20
12.0826
 30
0.0
 11
111.869
 21
12.6835
 31
0.0
  0
LINE
  8
0
 62
     0
 10
111.869
 20
12.6835
 30
0.0
 11
112.67
 21
12.6835
 31
0.0
  0
LINE
  8
0
 62
     0
 10
112.67
 20
12.6835
 30
0.0
 11
112.67
 21
15.7827
 31
0.0
  0
LINE
  8
0
 62
     0
 10
112.67
 20
15.7827
 30
0.0
 11
111.869
 21
15.7827
 31
0.0
  0
LINE
  8
0
 62
     0
 10
111.869
 20
15.7827
 30
0.0
 11
111.869
 21
16.7817
 31
0.0
  0
LINE
  8
0
 62
     0
 10
111.869
 20
16.7817
 30
0.0
 11
97.8697
 21
16.7817
 31
0.0
  0
LINE
  8
0
 62
     0
 10
202.645
 20
16.7817
 30
0.0
 11
202.645
 21
15.7827
 31
0.0
  0
LINE
  8
0
 62
     0
 10
202.645
 20
15.7827
 30
0.0
 11
201.844
 21
15.7827
 31
0.0
  0
LINE
  8
0
 62
     0
 10
201.844
 20
15.7827
 30
0.0
 11
201.844
 21
12.6835
 31
0.0
  0
LINE
  8
0
 62
     0
 10
201.844
 20
12.6835
 30
0.0
 11
202.645
 21
12.6835
 31
0.0
  0
LINE
  8
0
 62
     0
 10
202.645
 20
12.6835
 30
0.0
 11
202.645
 21
6.88192
 31
0.0
  0
LINE
  8
0
 62
     0
 10
202.645
 20
6.88192
 30
0.0
 11
201.844
 21
6.88192
 31
0.0
  0
LINE
  8
0
 62
     0
 10
201.844
 20
6.88192
 30
0.0
 11
201.844
 21
3.78273
 31
0.0
  0
LINE
  8
0
 62
     0
 10
201.844
 20
3.78273
 30
0.0
 11
202.645
 21
3.78273
 31
0.0
  0
LINE
  8
0
 62
     0
 10
202.645
 20
3.78273
 30
0.0
 11
202.645
 21
2.78226
 31
0.0
  0
LINE
  8
0
 62
     0
 10
202.645
 20
2.78226
 30
0.0
 11
216.644
 21
2.78226
 31
0.0
  0
LINE
  8
0
 62
     0
 10
216.644
 20
2.78226
 30
0.0
 11
216.644
 21
3.78273
 31
0.0
  0
LINE
  8
0
 62
     0
 10
216.644
 20
3.78273
 30
0.0
 11
217.445
 21
3.78273
 31
0.0
  0
LINE
  8
0
 62
     0
 10
217.445
 20
3.78273
 30
0.0
 11
217.445
 21
6.88192
 31
0.0
  0
LINE
  8
0
 62
     0
 10
217.445
 20
6.88192
 30
0.0
 11
216.644
 21
6.88192
 31
0.0
  0
LINE
  8
0
 62
     0
 10
216.644
 20
6.88192
 30
0.0
 11
216.644
 21
12.6835
 31
0.0
  0
LINE
  8
0
 62
     0
 10
216.644
 20
12.6835
 30
0.0
 11
217.445
 21
12.6835
 31
0.0
  0
LINE
  8
0
 62
     0
 10
217.445
 20
12.6835
 30
0.0
 11
217.445
 21
15.7827
 31
0.0
  0
LINE
  8
0
 62
     0
 10
217.445
 20
15.7827
 30
0.0
 11
216.644
 21
15.7827
 31
0.0
  0
LINE
  8
0
 62
     0
 10
216.644
 20
15.7827
 30
0.0
 11
216.644
 21
16.7817
 31
0.0
  0
LINE
  8
0
 62
     0
 10
216.644
 20
16.7817
 30
0.0
 11
202.645
 21
16.7817
 31
0.0
  0
LINE
  8
0
 62
     0
 10
183.595
 20
16.7817
 30
0.0
 11
183.595
 21
15.7827
 31
0.0
  0
LINE
  8
0
 62
     0
 10
183.595
 20
15.7827
 30
0.0
 11
182.794
 21
15.7827
 31
0.0
  0
LINE
  8
0
 62
     0
 10
182.794
 20
15.7827
 30
0.0
 11
182.794
 21
12.6835
 31
0.0
  0
LINE
  8
0
 62
     0
 10
182.794
 20
12.6835
 30
0.0
 11
183.595
 21
12.6835
 31
0.0
  0
LINE
  8
0
 62
     0
 10
183.595
 20
12.6835
 30
0.0
 11
183.595
 21
6.88192
 31
0.0
  0
LINE
  8
0
 62
     0
 10
183.595
 20
6.88192
 30
0.0
 11
182.794
 21
6.88192
 31
0.0
  0
LINE
  8
0
 62
     0
 10
182.794
 20
6.88192
 30
0.0
 11
182.794
 21
3.78273
 31
0.0
  0
LINE
  8
0
 62
     0
 10
182.794
 20
3.78273
 30
0.0
 11
183.595
 21
3.78273
 31
0.0
  0
LINE
  8
0
 62
     0
 10
183.595
 20
3.78273
 30
0.0
 11
183.595
 21
2.78226
 31
0.0
  0
LINE
  8
0
 62
     0
 10
183.595
 20
2.78226
 30
0.0
 11
197.594
 21
2.78226
 31
0.0
  0
LINE
  8
0
 62
     0
 10
197.594
 20
2.78226
 30
0.0
 11
197.594
 21
3.78273
 31
0.0
  0
LINE
  8
0
 62
     0
 10
197.594
 20
3.78273
 30
0.0
 11
198.395
 21
3.78273
 31
0.0
  0
LINE
  8
0
 62
     0
 10
198.395
 20
3.78273
 30
0.0
 11
198.395
 21
6.88192
 31
0.0
  0
LINE
  8
0
 62
     0
 10
198.395
 20
6.88192
 30
0.0
 11
197.594
 21
6.88192
 31
0.0
  0
LINE
  8
0
 62
     0
 10
197.594
 20
6.88192
 30
0.0
 11
197.594
 21
12.6835
 31
0.0
  0
LINE
  8
0
 62
     0
 10
197.594
 20
12.6835
 30
0.0
 11
198.395
 21
12.6835
 31
0.0
  0
LINE
  8
0
 62
     0
 10
198.395
 20
12.6835
 30
0.0
 11
198.395
 21
15.7827
 31
0.0
  0
LINE
  8
0
 62
     0
 10
198.395
 20
15.7827
 30
0.0
 11
197.594
 21
15.7827
 31
0.0
  0
LINE
  8
0
 62
     0
 10
197.594
 20
15.7827
 30
0.0
 11
197.594
 21
16.7817
 31
0.0
  0
LINE
  8
0
 62
     0
 10
197.594
 20
16.7817
 30
0.0
 11
183.595
 21
16.7817
 31
0.0
  0
LINE
  8
0
 62
     0
 10
164.545
 20
16.7817
 30
0.0
 11
164.545
 21
15.7827
 31
0.0
  0
LINE
  8
0
 62
     0
 10
164.545
 20
15.7827
 30
0.0
 11
163.744
 21
15.7827
 31
0.0
  0
LINE
  8
0
 62
     0
 10
163.744
 20
15.7827
 30
0.0
 11
163.744
 21
12.6835
 31
0.0
  0
LINE
  8
0
 62
     0
 10
163.744
 20
12.6835
 30
0.0
 11
164.545
 21
12.6835
 31
0.0
  0
LINE
  8
0
 62
     0
 10
164.545
 20
12.6835
 30
0.0
 11
164.545
 21
6.88192
 31
0.0
  0
LINE
  8
0
 62
     0
 10
164.545
 20
6.88192
 30
0.0
 11
163.744
 21
6.88192
 31
0.0
  0
LINE
  8
0
 62
     0
 10
163.744
 20
6.88192
 30
0.0
 11
163.744
 21
3.78273
 31
0.0
  0
LINE
  8
0
 62
     0
 10
163.744
 20
3.78273
 30
0.0
 11
164.545
 21
3.78273
 31
0.0
  0
LINE
  8
0
 62
     0
 10
164.545
 20
3.78273
 30
0.0
 11
164.545
 21
2.78226
 31
0.0
  0
LINE
  8
0
 62
     0
 10
164.545
 20
2.78226
 30
0.0
 11
178.544
 21
2.78226
 31
0.0
  0
LINE
  8
0
 62
     0
 10
178.544
 20
2.78226
 30
0.0
 11
178.544
 21
3.78273
 31
0.0
  0
LINE
  8
0
 62
     0
 10
178.544
 20
3.78273
 30
0.0
 11
179.345
 21
3.78273
 31
0.0
  0
LINE
  8
0
 62
     0
 10
179.345
 20
3.78273
 30
0.0
 11
179.345
 21
6.88192
 31
0.0
  0
LINE
  8
0
 62
     0
 10
179.345
 20
6.88192
 30
0.0
 11
178.544
 21
6.88192
 31
0.0
  0
LINE
  8
0
 62
     0
 10
178.544
 20
6.88192
 30
0.0
 11
178.544
 21
12.6835
 31
0.0
  0
LINE
  8
0
 62
     0
 10
178.544
 20
12.6835
 30
0.0
 11
179.345
 21
12.6835
 31
0.0
  0
LINE
  8
0
 62
     0
 10
179.345
 20
12.6835
 30
0.0
 11
179.345
 21
15.7827
 31
0.0
  0
LINE
  8
0
 62
     0
 10
179.345
 20
15.7827
 30
0.0
 11
178.544
 21
15.7827
 31
0.0
  0
LINE
  8
0
 62
     0
 10
178.544
 20
15.7827
 30
0.0
 11
178.544
 21
16.7817
 31
0.0
  0
LINE
  8
0
 62
     0
 10
178.544
 20
16.7817
 30
0.0
 11
164.545
 21
16.7817
 31
0.0
  0
LINE
  8
0
 62
     0
 10
69.2947
 20
16.7817
 30
0.0
 11
69.2947
 21
15.7827
 31
0.0
  0
LINE
  8
0
 62
     0
 10
69.2947
 20
15.7827
 30
0.0
 11
68.4939
 21
15.7827
 31
0.0
  0
LINE
  8
0
 62
     0
 10
68.4939
 20
15.7827
 30
0.0
 11
68.4939
 21
12.6835
 31
0.0
  0
LINE
  8
0
 62
     0
 10
68.4939
 20
12.6835
 30
0.0
 11
69.2947
 21
12.6835
 31
0.0
  0
LINE
  8
0
 62
     0
 10
69.2947
 20
12.6835
 30
0.0
 11
69.2947
 21
6.88192
 31
0.0
  0
LINE
  8
0
 62
     0
 10
69.2947
 20
6.88192
 30
0.0
 11
68.4939
 21
6.88192
 31
0.0
  0
LINE
  8
0
 62
     0
 10
68.4939
 20
6.88192
 30
0.0
 11
68.4939
 21
3.78273
 31
0.0
  0
LINE
  8
0
 62
     0
 10
68.4939
 20
3.78273
 30
0.0
 11
69.2947
 21
3.78273
 31
0.0
  0
LINE
  8
0
 62
     0
 10
69.2947
 20
3.78273
 30
0.0
 11
69.2947
 21
2.78226
 31
0.0
  0
LINE
  8
0
 62
     0
 10
69.2947
 20
2.78226
 30
0.0
 11
83.294
 21
2.78226
 31
0.0
  0
LINE
  8
0
 62
     0
 10
83.294
 20
2.78226
 30
0.0
 11
83.294
 21
3.78273
 31
0.0
  0
LINE
  8
0
 62
     0
 10
83.294
 20
3.78273
 30
0.0
 11
84.0948
 21
3.78273
 31
0.0
  0
LINE
  8
0
 62
     0
 10
84.0948
 20
3.78273
 30
0.0
 11
84.0948
 21
6.88192
 31
0.0
  0
LINE
  8
0
 62
     0
 10
84.0948
 20
6.88192
 30
0.0
 11
83.294
 21
6.88192
 31
0.0
  0
LINE
  8
0
 62
     0
 10
83.294
 20
6.88192
 30
0.0
 11
83.294
 21
12.6835
 31
0.0
  0
LINE
  8
0
 62
     0
 10
83.294
 20
12.6835
 30
0.0
 11
84.0948
 21
12.6835
 31
0.0
  0
LINE
  8
0
 62
     0
 10
84.0948
 20
12.6835
 30
0.0
 11
84.0948
 21
15.7827
 31
0.0
  0
LINE
  8
0
 62
     0
 10
84.0948
 20
15.7827
 30
0.0
 11
83.294
 21
15.7827
 31
0.0
  0
LINE
  8
0
 62
     0
 10
83.294
 20
15.7827
 30
0.0
 11
83.294
 21
16.7817
 31
0.0
  0
LINE
  8
0
 62
     0
 10
83.294
 20
16.7817
 30
0.0
 11
69.2947
 21
16.7817
 31
0.0
  0
LINE
  8
0
 62
     0
 10
50.2447
 20
16.7817
 30
0.0
 11
50.2447
 21
15.7827
 31
0.0
  0
LINE
  8
0
 62
     0
 10
50.2447
 20
15.7827
 30
0.0
 11
49.4439
 21
15.7827
 31
0.0
  0
LINE
  8
0
 62
     0
 10
49.4439
 20
15.7827
 30
0.0
 11
49.4439
 21
12.6835
 31
0.0
  0
LINE
  8
0
 62
     0
 10
49.4439
 20
12.6835
 30
0.0
 11
50.2447
 21
12.6835
 31
0.0
  0
LINE
  8
0
 62
     0
 10
50.2447
 20
12.6835
 30
0.0
 11
50.2447
 21
6.88192
 31
0.0
  0
LINE
  8
0
 62
     0
 10
50.2447
 20
6.88192
 30
0.0
 11
49.4439
 21
6.88192
 31
0.0
  0
LINE
  8
0
 62
     0
 10
49.4439
 20
6.88192
 30
0.0
 11
49.4439
 21
3.78273
 31
0.0
  0
LINE
  8
0
 62
     0
 10
49.4439
 20
3.78273
 30
0.0
 11
50.2447
 21
3.78273
 31
0.0
  0
LINE
  8
0
 62
     0
 10
50.2447
 20
3.78273
 30
0.0
 11
50.2447
 21
2.78226
 31
0.0
  0
LINE
  8
0
 62
     0
 10
50.2447
 20
2.78226
 30
0.0
 11
64.244
 21
2.78226
 31
0.0
  0
LINE
  8
0
 62
     0
 10
64.244
 20
2.78226
 30
0.0
 11
64.244
 21
3.78273
 31
0.0
  0
LINE
  8
0
 62
     0
 10
64.244
 20
3.78273
 30
0.0
 11
65.0448
 21
3.78273
 31
0.0
  0
LINE
  8
0
 62
     0
 10
65.0448
 20
3.78273
 30
0.0
 11
65.0448
 21
6.88192
 31
0.0
  0
LINE
  8
0
 62
     0
 10
65.0448
 20
6.88192
 30
0.0
 11
64.244
 21
6.88192
 31
0.0
  0
LINE
  8
0
 62
     0
 10
64.244
 20
6.88192
 30
0.0
 11
64.244
 21
12.6835
 31
0.0
  0
LINE
  8
0
 62
     0
 10
64.244
 20
12.6835
 30
0.0
 11
65.0448
 21
12.6835
 31
0.0
  0
LINE
  8
0
 62
     0
 10
65.0448
 20
12.6835
 30
0.0
 11
65.0448
 21
15.7827
 31
0.0
  0
LINE
  8
0
 62
     0
 10
65.0448
 20
15.7827
 30
0.0
 11
64.244
 21
15.7827
 31
0.0
  0
LINE
  8
0
 62
     0
 10
64.244
 20
15.7827
 30
0.0
 11
64.244
 21
16.7817
 31
0.0
  0
LINE
  8
0
 62
     0
 10
64.244
 20
16.7817
 30
0.0
 11
50.2447
 21
16.7817
 31
0.0
  0
LINE
  8
0
 62
     0
 10
31.1947
 20
16.7817
 30
0.0
 11
31.1947
 21
15.7827
 31
0.0
  0
LINE
  8
0
 62
     0
 10
31.1947
 20
15.7827
 30
0.0
 11
30.394
 21
15.7827
 31
0.0
  0
LINE
  8
0
 62
     0
 10
30.394
 20
15.7827
 30
0.0
 11
30.394
 21
12.6835
 31
0.0
  0
LINE
  8
0
 62
     0
 10
30.394
 20
12.6835
 30
0.0
 11
31.1947
 21
12.6835
 31
0.0
  0
LINE
  8
0
 62
     0
 10
31.1947
 20
12.6835
 30
0.0
 11
31.1947
 21
6.88192
 31
0.0
  0
LINE
  8
0
 62
     0
 10
31.1947
 20
6.88192
 30
0.0
 11
30.394
 21
6.88192
 31
0.0
  0
LINE
  8
0
 62
     0
 10
30.394
 20
6.88192
 30
0.0
 11
30.394
 21
3.78273
 31
0.0
  0
LINE
  8
0
 62
     0
 10
30.394
 20
3.78273
 30
0.0
 11
31.1947
 21
3.78273
 31
0.0
  0
LINE
  8
0
 62
     0
 10
31.1947
 20
3.78273
 30
0.0
 11
31.1947
 21
2.78226
 31
0.0
  0
LINE
  8
0
 62
     0
 10
31.1947
 20
2.78226
 30
0.0
 11
45.194
 21
2.78226
 31
0.0
  0
LINE
  8
0
 62
     0
 10
45.194
 20
2.78226
 30
0.0
 11
45.194
 21
3.78273
 31
0.0
  0
LINE
  8
0
 62
     0
 10
45.194
 20
3.78273
 30
0.0
 11
45.9948
 21
3.78273
 31
0.0
  0
LINE
  8
0
 62
     0
 10
45.9948
 20
3.78273
 30
0.0
 11
45.9948
 21
6.88192
 31
0.0
  0
LINE
  8
0
 62
     0
 10
45.9948
 20
6.88192
 30
0.0
 11
45.194
 21
6.88192
 31
0.0
  0
LINE
  8
0
 62
     0
 10
45.194
 20
6.88192
 30
0.0
 11
45.194
 21
12.6835
 31
0.0
  0
LINE
  8
0
 62
     0
 10
45.194
 20
12.6835
 30
0.0
 11
45.9948
 21
12.6835
 31
0.0
  0
LINE
  8
0
 62
     0
 10
45.9948
 20
12.6835
 30
0.0
 11
45.9948
 21
15.7827
 31
0.0
  0
LINE
  8
0
 62
     0
 10
45.9948
 20
15.7827
 30
0.0
 11
45.194
 21
15.7827
 31
0.0
  0
LINE
  8
0
 62
     0
 10
45.194
 20
15.7827
 30
0.0
 11
45.194
 21
16.7817
 31
0.0
  0
LINE
  8
0
 62
     0
 10
45.194
 20
16.7817
 30
0.0
 11
31.1947
 21
16.7817
 31
0.0
  0
LINE
  8
0
 62
     0
 10
226.457
 20
35.8316
 30
0.0
 11
226.457
 21
34.8327
 31
0.0
  0
LINE
  8
0
 62
     0
 10
226.457
 20
34.8327
 30
0.0
 11
225.656
 21
34.8327
 31
0.0
  0
LINE
  8
0
 62
     0
 10
225.656
 20
34.8327
 30
0.0
 11
225.656
 21
31.7321
 31
0.0
  0
LINE
  8
0
 62
     0
 10
225.656
 20
31.7321
 30
0.0
 11
226.457
 21
31.7321
 31
0.0
  0
LINE
  8
0
 62
     0
 10
226.457
 20
31.7321
 30
0.0
 11
226.457
 21
25.9319
 31
0.0
  0
LINE
  8
0
 62
     0
 10
226.457
 20
25.9319
 30
0.0
 11
225.656
 21
25.9319
 31
0.0
  0
LINE
  8
0
 62
     0
 10
225.656
 20
25.9319
 30
0.0
 11
225.656
 21
22.8327
 31
0.0
  0
LINE
  8
0
 62
     0
 10
225.656
 20
22.8327
 30
0.0
 11
226.457
 21
22.8327
 31
0.0
  0
LINE
  8
0
 62
     0
 10
226.457
 20
22.8327
 30
0.0
 11
226.457
 21
21.8323
 31
0.0
  0
LINE
  8
0
 62
     0
 10
226.457
 20
21.8323
 30
0.0
 11
240.457
 21
21.8323
 31
0.0
  0
LINE
  8
0
 62
     0
 10
240.457
 20
21.8323
 30
0.0
 11
240.457
 21
22.8327
 31
0.0
  0
LINE
  8
0
 62
     0
 10
240.457
 20
22.8327
 30
0.0
 11
241.256
 21
22.8327
 31
0.0
  0
LINE
  8
0
 62
     0
 10
241.256
 20
22.8327
 30
0.0
 11
241.256
 21
25.9319
 31
0.0
  0
LINE
  8
0
 62
     0
 10
241.256
 20
25.9319
 30
0.0
 11
240.457
 21
25.9319
 31
0.0
  0
LINE
  8
0
 62
     0
 10
240.457
 20
25.9319
 30
0.0
 11
240.457
 21
31.7321
 31
0.0
  0
LINE
  8
0
 62
     0
 10
240.457
 20
31.7321
 30
0.0
 11
241.256
 21
31.7321
 31
0.0
  0
LINE
  8
0
 62
     0
 10
241.256
 20
31.7321
 30
0.0
 11
241.256
 21
34.8327
 31
0.0
  0
LINE
  8
0
 62
     0
 10
241.256
 20
34.8327
 30
0.0
 11
240.457
 21
34.8327
 31
0.0
  0
LINE
  8
0
 62
     0
 10
240.457
 20
34.8327
 30
0.0
 11
240.457
 21
35.8316
 31
0.0
  0
LINE
  8
0
 62
     0
 10
240.457
 20
35.8316
 30
0.0
 11
226.457
 21
35.8316
 31
0.0
  0
LINE
  8
0
 62
     0
 10
202.645
 20
35.8316
 30
0.0
 11
202.645
 21
34.8327
 31
0.0
  0
LINE
  8
0
 62
     0
 10
202.645
 20
34.8327
 30
0.0
 11
201.844
 21
34.8327
 31
0.0
  0
LINE
  8
0
 62
     0
 10
201.844
 20
34.8327
 30
0.0
 11
201.844
 21
31.7321
 31
0.0
  0
LINE
  8
0
 62
     0
 10
201.844
 20
31.7321
 30
0.0
 11
202.645
 21
31.7321
 31
0.0
  0
LINE
  8
0
 62
     0
 10
202.645
 20
31.7321
 30
0.0
 11
202.645
 21
25.9319
 31
0.0
  0
LINE
  8
0
 62
     0
 10
202.645
 20
25.9319
 30
0.0
 11
201.844
 21
25.9319
 31
0.0
  0
LINE
  8
0
 62
     0
 10
201.844
 20
25.9319
 30
0.0
 11
201.844
 21
22.8327
 31
0.0
  0
LINE
  8
0
 62
     0
 10
201.844
 20
22.8327
 30
0.0
 11
202.645
 21
22.8327
 31
0.0
  0
LINE
  8
0
 62
     0
 10
202.645
 20
22.8327
 30
0.0
 11
202.645
 21
21.8323
 31
0.0
  0
LINE
  8
0
 62
     0
 10
202.645
 20
21.8323
 30
0.0
 11
216.644
 21
21.8323
 31
0.0
  0
LINE
  8
0
 62
     0
 10
216.644
 20
21.8323
 30
0.0
 11
216.644
 21
22.8327
 31
0.0
  0
LINE
  8
0
 62
     0
 10
216.644
 20
22.8327
 30
0.0
 11
217.445
 21
22.8327
 31
0.0
  0
LINE
  8
0
 62
     0
 10
217.445
 20
22.8327
 30
0.0
 11
217.445
 21
25.9319
 31
0.0
  0
LINE
  8
0
 62
     0
 10
217.445
 20
25.9319
 30
0.0
 11
216.644
 21
25.9319
 31
0.0
  0
LINE
  8
0
 62
     0
 10
216.644
 20
25.9319
 30
0.0
 11
216.644
 21
31.7321
 31
0.0
  0
LINE
  8
0
 62
     0
 10
216.644
 20
31.7321
 30
0.0
 11
217.445
 21
31.7321
 31
0.0
  0
LINE
  8
0
 62
     0
 10
217.445
 20
31.7321
 30
0.0
 11
217.445
 21
34.8327
 31
0.0
  0
LINE
  8
0
 62
     0
 10
217.445
 20
34.8327
 30
0.0
 11
216.644
 21
34.8327
 31
0.0
  0
LINE
  8
0
 62
     0
 10
216.644
 20
34.8327
 30
0.0
 11
216.644
 21
35.8316
 31
0.0
  0
LINE
  8
0
 62
     0
 10
216.644
 20
35.8316
 30
0.0
 11
202.645
 21
35.8316
 31
0.0
  0
LINE
  8
0
 62
     0
 10
183.595
 20
35.8316
 30
0.0
 11
183.595
 21
34.8327
 31
0.0
  0
LINE
  8
0
 62
     0
 10
183.595
 20
34.8327
 30
0.0
 11
182.794
 21
34.8327
 31
0.0
  0
LINE
  8
0
 62
     0
 10
182.794
 20
34.8327
 30
0.0
 11
182.794
 21
31.7321
 31
0.0
  0
LINE
  8
0
 62
     0
 10
182.794
 20
31.7321
 30
0.0
 11
183.595
 21
31.7321
 31
0.0
  0
LINE
  8
0
 62
     0
 10
183.595
 20
31.7321
 30
0.0
 11
183.595
 21
25.9319
 31
0.0
  0
LINE
  8
0
 62
     0
 10
183.595
 20
25.9319
 30
0.0
 11
182.794
 21
25.9319
 31
0.0
  0
LINE
  8
0
 62
     0
 10
182.794
 20
25.9319
 30
0.0
 11
182.794
 21
22.8327
 31
0.0
  0
LINE
  8
0
 62
     0
 10
182.794
 20
22.8327
 30
0.0
 11
183.595
 21
22.8327
 31
0.0
  0
LINE
  8
0
 62
     0
 10
183.595
 20
22.8327
 30
0.0
 11
183.595
 21
21.8323
 31
0.0
  0
LINE
  8
0
 62
     0
 10
183.595
 20
21.8323
 30
0.0
 11
197.594
 21
21.8323
 31
0.0
  0
LINE
  8
0
 62
     0
 10
197.594
 20
21.8323
 30
0.0
 11
197.594
 21
22.8327
 31
0.0
  0
LINE
  8
0
 62
     0
 10
197.594
 20
22.8327
 30
0.0
 11
198.395
 21
22.8327
 31
0.0
  0
LINE
  8
0
 62
     0
 10
198.395
 20
22.8327
 30
0.0
 11
198.395
 21
25.9319
 31
0.0
  0
LINE
  8
0
 62
     0
 10
198.395
 20
25.9319
 30
0.0
 11
197.594
 21
25.9319
 31
0.0
  0
LINE
  8
0
 62
     0
 10
197.594
 20
25.9319
 30
0.0
 11
197.594
 21
31.7321
 31
0.0
  0
LINE
  8
0
 62
     0
 10
197.594
 20
31.7321
 30
0.0
 11
198.395
 21
31.7321
 31
0.0
  0
LINE
  8
0
 62
     0
 10
198.395
 20
31.7321
 30
0.0
 11
198.395
 21
34.8327
 31
0.0
  0
LINE
  8
0
 62
     0
 10
198.395
 20
34.8327
 30
0.0
 11
197.594
 21
34.8327
 31
0.0
  0
LINE
  8
0
 62
     0
 10
197.594
 20
34.8327
 30
0.0
 11
197.594
 21
35.8316
 31
0.0
  0
LINE
  8
0
 62
     0
 10
197.594
 20
35.8316
 30
0.0
 11
183.595
 21
35.8316
 31
0.0
  0
LINE
  8
0
 62
     0
 10
164.545
 20
35.8316
 30
0.0
 11
164.545
 21
34.8327
 31
0.0
  0
LINE
  8
0
 62
     0
 10
164.545
 20
34.8327
 30
0.0
 11
163.744
 21
34.8327
 31
0.0
  0
LINE
  8
0
 62
     0
 10
163.744
 20
34.8327
 30
0.0
 11
163.744
 21
31.7321
 31
0.0
  0
LINE
  8
0
 62
     0
 10
163.744
 20
31.7321
 30
0.0
 11
164.545
 21
31.7321
 31
0.0
  0
LINE
  8
0
 62
     0
 10
164.545
 20
31.7321
 30
0.0
 11
164.545
 21
25.9319
 31
0.0
  0
LINE
  8
0
 62
     0
 10
164.545
 20
25.9319
 30
0.0
 11
163.744
 21
25.9319
 31
0.0
  0
LINE
  8
0
 62
     0
 10
163.744
 20
25.9319
 30
0.0
 11
163.744
 21
22.8327
 31
0.0
  0
LINE
  8
0
 62
     0
 10
163.744
 20
22.8327
 30
0.0
 11
164.545
 21
22.8327
 31
0.0
  0
LINE
  8
0
 62
     0
 10
164.545
 20
22.8327
 30
0.0
 11
164.545
 21
21.8323
 31
0.0
  0
LINE
  8
0
 62
     0
 10
164.545
 20
21.8323
 30
0.0
 11
178.544
 21
21.8323
 31
0.0
  0
LINE
  8
0
 62
     0
 10
178.544
 20
21.8323
 30
0.0
 11
178.544
 21
22.8327
 31
0.0
  0
LINE
  8
0
 62
     0
 10
178.544
 20
22.8327
 30
0.0
 11
179.345
 21
22.8327
 31
0.0
  0
LINE
  8
0
 62
     0
 10
179.345
 20
22.8327
 30
0.0
 11
179.345
 21
25.9319
 31
0.0
  0
LINE
  8
0
 62
     0
 10
179.345
 20
25.9319
 30
0.0
 11
178.544
 21
25.9319
 31
0.0
  0
LINE
  8
0
 62
     0
 10
178.544
 20
25.9319
 30
0.0
 11
178.544
 21
31.7321
 31
0.0
  0
LINE
  8
0
 62
     0
 10
178.544
 20
31.7321
 30
0.0
 11
179.345
 21
31.7321
 31
0.0
  0
LINE
  8
0
 62
     0
 10
179.345
 20
31.7321
 30
0.0
 11
179.345
 21
34.8327
 31
0.0
  0
LINE
  8
0
 62
     0
 10
179.345
 20
34.8327
 30
0.0
 11
178.544
 21
34.8327
 31
0.0
  0
LINE
  8
0
 62
     0
 10
178.544
 20
34.8327
 30
0.0
 11
178.544
 21
35.8316
 31
0.0
  0
LINE
  8
0
 62
     0
 10
178.544
 20
35.8316
 30
0.0
 11
164.545
 21
35.8316
 31
0.0
  0
LINE
  8
0
 62
     0
 10
145.495
 20
35.8316
 30
0.0
 11
145.495
 21
34.8327
 31
0.0
  0
LINE
  8
0
 62
     0
 10
145.495
 20
34.8327
 30
0.0
 11
144.694
 21
34.8327
 31
0.0
  0
LINE
  8
0
 62
     0
 10
144.694
 20
34.8327
 30
0.0
 11
144.694
 21
31.7321
 31
0.0
  0
LINE
  8
0
 62
     0
 10
144.694
 20
31.7321
 30
0.0
 11
145.495
 21
31.7321
 31
0.0
  0
LINE
  8
0
 62
     0
 10
145.495
 20
31.7321
 30
0.0
 11
145.495
 21
25.9319
 31
0.0
  0
LINE
  8
0
 62
     0
 10
145.495
 20
25.9319
 30
0.0
 11
144.694
 21
25.9319
 31
0.0
  0
LINE
  8
0
 62
     0
 10
144.694
 20
25.9319
 30
0.0
 11
144.694
 21
22.8327
 31
0.0
  0
LINE
  8
0
 62
     0
 10
144.694
 20
22.8327
 30
0.0
 11
145.495
 21
22.8327
 31
0.0
  0
LINE
  8
0
 62
     0
 10
145.495
 20
22.8327
 30
0.0
 11
145.495
 21
21.8323
 31
0.0
  0
LINE
  8
0
 62
     0
 10
145.495
 20
21.8323
 30
0.0
 11
159.494
 21
21.8323
 31
0.0
  0
LINE
  8
0
 62
     0
 10
159.494
 20
21.8323
 30
0.0
 11
159.494
 21
22.8327
 31
0.0
  0
LINE
  8
0
 62
     0
 10
159.494
 20
22.8327
 30
0.0
 11
160.295
 21
22.8327
 31
0.0
  0
LINE
  8
0
 62
     0
 10
160.295
 20
22.8327
 30
0.0
 11
160.295
 21
25.9319
 31
0.0
  0
LINE
  8
0
 62
     0
 10
160.295
 20
25.9319
 30
0.0
 11
159.494
 21
25.9319
 31
0.0
  0
LINE
  8
0
 62
     0
 10
159.494
 20
25.9319
 30
0.0
 11
159.494
 21
31.7321
 31
0.0
  0
LINE
  8
0
 62
     0
 10
159.494
 20
31.7321
 30
0.0
 11
160.295
 21
31.7321
 31
0.0
  0
LINE
  8
0
 62
     0
 10
160.295
 20
31.7321
 30
0.0
 11
160.295
 21
34.8327
 31
0.0
  0
LINE
  8
0
 62
     0
 10
160.295
 20
34.8327
 30
0.0
 11
159.494
 21
34.8327
 31
0.0
  0
LINE
  8
0
 62
     0
 10
159.494
 20
34.8327
 30
0.0
 11
159.494
 21
35.8316
 31
0.0
  0
LINE
  8
0
 62
     0
 10
159.494
 20
35.8316
 30
0.0
 11
145.495
 21
35.8316
 31
0.0
  0
LINE
  8
0
 62
     0
 10
126.445
 20
35.8316
 30
0.0
 11
126.445
 21
34.8327
 31
0.0
  0
LINE
  8
0
 62
     0
 10
126.445
 20
34.8327
 30
0.0
 11
125.644
 21
34.8327
 31
0.0
  0
LINE
  8
0
 62
     0
 10
125.644
 20
34.8327
 30
0.0
 11
125.644
 21
31.7321
 31
0.0
  0
LINE
  8
0
 62
     0
 10
125.644
 20
31.7321
 30
0.0
 11
126.445
 21
31.7321
 31
0.0
  0
LINE
  8
0
 62
     0
 10
126.445
 20
31.7321
 30
0.0
 11
126.445
 21
25.9319
 31
0.0
  0
LINE
  8
0
 62
     0
 10
126.445
 20
25.9319
 30
0.0
 11
125.644
 21
25.9319
 31
0.0
  0
LINE
  8
0
 62
     0
 10
125.644
 20
25.9319
 30
0.0
 11
125.644
 21
22.8327
 31
0.0
  0
LINE
  8
0
 62
     0
 10
125.644
 20
22.8327
 30
0.0
 11
126.445
 21
22.8327
 31
0.0
  0
LINE
  8
0
 62
     0
 10
126.445
 20
22.8327
 30
0.0
 11
126.445
 21
21.8323
 31
0.0
  0
LINE
  8
0
 62
     0
 10
126.445
 20
21.8323
 30
0.0
 11
140.444
 21
21.8323
 31
0.0
  0
LINE
  8
0
 62
     0
 10
140.444
 20
21.8323
 30
0.0
 11
140.444
 21
22.8327
 31
0.0
  0
LINE
  8
0
 62
     0
 10
140.444
 20
22.8327
 30
0.0
 11
141.245
 21
22.8327
 31
0.0
  0
LINE
  8
0
 62
     0
 10
141.245
 20
22.8327
 30
0.0
 11
141.245
 21
25.9319
 31
0.0
  0
LINE
  8
0
 62
     0
 10
141.245
 20
25.9319
 30
0.0
 11
140.444
 21
25.9319
 31
0.0
  0
LINE
  8
0
 62
     0
 10
140.444
 20
25.9319
 30
0.0
 11
140.444
 21
31.7321
 31
0.0
  0
LINE
  8
0
 62
     0
 10
140.444
 20
31.7321
 30
0.0
 11
141.245
 21
31.7321
 31
0.0
  0
LINE
  8
0
 62
     0
 10
141.245
 20
31.7321
 30
0.0
 11
141.245
 21
34.8327
 31
0.0
  0
LINE
  8
0
 62
     0
 10
141.245
 20
34.8327
 30
0.0
 11
140.444
 21
34.8327
 31
0.0
  0
LINE
  8
0
 62
     0
 10
140.444
 20
34.8327
 30
0.0
 11
140.444
 21
35.8316
 31
0.0
  0
LINE
  8
0
 62
     0
 10
140.444
 20
35.8316
 30
0.0
 11
126.445
 21
35.8316
 31
0.0
  0
LINE
  8
0
 62
     0
 10
107.395
 20
35.8316
 30
0.0
 11
107.395
 21
34.8327
 31
0.0
  0
LINE
  8
0
 62
     0
 10
107.395
 20
34.8327
 30
0.0
 11
106.594
 21
34.8327
 31
0.0
  0
LINE
  8
0
 62
     0
 10
106.594
 20
34.8327
 30
0.0
 11
106.594
 21
31.7321
 31
0.0
  0
LINE
  8
0
 62
     0
 10
106.594
 20
31.7321
 30
0.0
 11
107.395
 21
31.7321
 31
0.0
  0
LINE
  8
0
 62
     0
 10
107.395
 20
31.7321
 30
0.0
 11
107.395
 21
25.9319
 31
0.0
  0
LINE
  8
0
 62
     0
 10
107.395
 20
25.9319
 30
0.0
 11
106.594
 21
25.9319
 31
0.0
  0
LINE
  8
0
 62
     0
 10
106.594
 20
25.9319
 30
0.0
 11
106.594
 21
22.8327
 31
0.0
  0
LINE
  8
0
 62
     0
 10
106.594
 20
22.8327
 30
0.0
 11
107.395
 21
22.8327
 31
0.0
  0
LINE
  8
0
 62
     0
 10
107.395
 20
22.8327
 30
0.0
 11
107.395
 21
21.8323
 31
0.0
  0
LINE
  8
0
 62
     0
 10
107.395
 20
21.8323
 30
0.0
 11
121.394
 21
21.8323
 31
0.0
  0
LINE
  8
0
 62
     0
 10
121.394
 20
21.8323
 30
0.0
 11
121.394
 21
22.8327
 31
0.0
  0
LINE
  8
0
 62
     0
 10
121.394
 20
22.8327
 30
0.0
 11
122.195
 21
22.8327
 31
0.0
  0
LINE
  8
0
 62
     0
 10
122.195
 20
22.8327
 30
0.0
 11
122.195
 21
25.9319
 31
0.0
  0
LINE
  8
0
 62
     0
 10
122.195
 20
25.9319
 30
0.0
 11
121.394
 21
25.9319
 31
0.0
  0
LINE
  8
0
 62
     0
 10
121.394
 20
25.9319
 30
0.0
 11
121.394
 21
31.7321
 31
0.0
  0
LINE
  8
0
 62
     0
 10
121.394
 20
31.7321
 30
0.0
 11
122.195
 21
31.7321
 31
0.0
  0
LINE
  8
0
 62
     0
 10
122.195
 20
31.7321
 30
0.0
 11
122.195
 21
34.8327
 31
0.0
  0
LINE
  8
0
 62
     0
 10
122.195
 20
34.8327
 30
0.0
 11
121.394
 21
34.8327
 31
0.0
  0
LINE
  8
0
 62
     0
 10
121.394
 20
34.8327
 30
0.0
 11
121.394
 21
35.8316
 31
0.0
  0
LINE
  8
0
 62
     0
 10
121.394
 20
35.8316
 30
0.0
 11
107.395
 21
35.8316
 31
0.0
  0
LINE
  8
0
 62
     0
 10
88.3447
 20
35.8316
 30
0.0
 11
88.3447
 21
34.8327
 31
0.0
  0
LINE
  8
0
 62
     0
 10
88.3447
 20
34.8327
 30
0.0
 11
87.5439
 21
34.8327
 31
0.0
  0
LINE
  8
0
 62
     0
 10
87.5439
 20
34.8327
 30
0.0
 11
87.5439
 21
31.7321
 31
0.0
  0
LINE
  8
0
 62
     0
 10
87.5439
 20
31.7321
 30
0.0
 11
88.3447
 21
31.7321
 31
0.0
  0
LINE
  8
0
 62
     0
 10
88.3447
 20
31.7321
 30
0.0
 11
88.3447
 21
25.9319
 31
0.0
  0
LINE
  8
0
 62
     0
 10
88.3447
 20
25.9319
 30
0.0
 11
87.5439
 21
25.9319
 31
0.0
  0
LINE
  8
0
 62
     0
 10
87.5439
 20
25.9319
 30
0.0
 11
87.5439
 21
22.8327
 31
0.0
  0
LINE
  8
0
 62
     0
 10
87.5439
 20
22.8327
 30
0.0
 11
88.3447
 21
22.8327
 31
0.0
  0
LINE
  8
0
 62
     0
 10
88.3447
 20
22.8327
 30
0.0
 11
88.3447
 21
21.8323
 31
0.0
  0
LINE
  8
0
 62
     0
 10
88.3447
 20
21.8323
 30
0.0
 11
102.344
 21
21.8323
 31
0.0
  0
LINE
  8
0
 62
     0
 10
102.344
 20
21.8323
 30
0.0
 11
102.344
 21
22.8327
 31
0.0
  0
LINE
  8
0
 62
     0
 10
102.344
 20
22.8327
 30
0.0
 11
103.145
 21
22.8327
 31
0.0
  0
LINE
  8
0
 62
     0
 10
103.145
 20
22.8327
 30
0.0
 11
103.145
 21
25.9319
 31
0.0
  0
LINE
  8
0
 62
     0
 10
103.145
 20
25.9319
 30
0.0
 11
102.344
 21
25.9319
 31
0.0
  0
LINE
  8
0
 62
     0
 10
102.344
 20
25.9319
 30
0.0
 11
102.344
 21
31.7321
 31
0.0
  0
LINE
  8
0
 62
     0
 10
102.344
 20
31.7321
 30
0.0
 11
103.145
 21
31.7321
 31
0.0
  0
LINE
  8
0
 62
     0
 10
103.145
 20
31.7321
 30
0.0
 11
103.145
 21
34.8327
 31
0.0
  0
LINE
  8
0
 62
     0
 10
103.145
 20
34.8327
 30
0.0
 11
102.344
 21
34.8327
 31
0.0
  0
LINE
  8
0
 62
     0
 10
102.344
 20
34.8327
 30
0.0
 11
102.344
 21
35.8316
 31
0.0
  0
LINE
  8
0
 62
     0
 10
102.344
 20
35.8316
 30
0.0
 11
88.3447
 21
35.8316
 31
0.0
  0
LINE
  8
0
 62
     0
 10
69.2947
 20
35.8316
 30
0.0
 11
69.2947
 21
34.8327
 31
0.0
  0
LINE
  8
0
 62
     0
 10
69.2947
 20
34.8327
 30
0.0
 11
68.4939
 21
34.8327
 31
0.0
  0
LINE
  8
0
 62
     0
 10
68.4939
 20
34.8327
 30
0.0
 11
68.4939
 21
31.7321
 31
0.0
  0
LINE
  8
0
 62
     0
 10
68.4939
 20
31.7321
 30
0.0
 11
69.2947
 21
31.7321
 31
0.0
  0
LINE
  8
0
 62
     0
 10
69.2947
 20
31.7321
 30
0.0
 11
69.2947
 21
25.9319
 31
0.0
  0
LINE
  8
0
 62
     0
 10
69.2947
 20
25.9319
 30
0.0
 11
68.4939
 21
25.9319
 31
0.0
  0
LINE
  8
0
 62
     0
 10
68.4939
 20
25.9319
 30
0.0
 11
68.4939
 21
22.8327
 31
0.0
  0
LINE
  8
0
 62
     0
 10
68.4939
 20
22.8327
 30
0.0
 11
69.2947
 21
22.8327
 31
0.0
  0
LINE
  8
0
 62
     0
 10
69.2947
 20
22.8327
 30
0.0
 11
69.2947
 21
21.8323
 31
0.0
  0
LINE
  8
0
 62
     0
 10
69.2947
 20
21.8323
 30
0.0
 11
83.294
 21
21.8323
 31
0.0
  0
LINE
  8
0
 62
     0
 10
83.294
 20
21.8323
 30
0.0
 11
83.294
 21
22.8327
 31
0.0
  0
LINE
  8
0
 62
     0
 10
83.294
 20
22.8327
 30
0.0
 11
84.0948
 21
22.8327
 31
0.0
  0
LINE
  8
0
 62
     0
 10
84.0948
 20
22.8327
 30
0.0
 11
84.0948
 21
25.9319
 31
0.0
  0
LINE
  8
0
 62
     0
 10
84.0948
 20
25.9319
 30
0.0
 11
83.294
 21
25.9319
 31
0.0
  0
LINE
  8
0
 62
     0
 10
83.294
 20
25.9319
 30
0.0
 11
83.294
 21
31.7321
 31
0.0
  0
LINE
  8
0
 62
     0
 10
83.294
 20
31.7321
 30
0.0
 11
84.0948
 21
31.7321
 31
0.0
  0
LINE
  8
0
 62
     0
 10
84.0948
 20
31.7321
 30
0.0
 11
84.0948
 21
34.8327
 31
0.0
  0
LINE
  8
0
 62
     0
 10
84.0948
 20
34.8327
 30
0.0
 11
83.294
 21
34.8327
 31
0.0
  0
LINE
  8
0
 62
     0
 10
83.294
 20
34.8327
 30
0.0
 11
83.294
 21
35.8316
 31
0.0
  0
LINE
  8
0
 62
     0
 10
83.294
 20
35.8316
 30
0.0
 11
69.2947
 21
35.8316
 31
0.0
  0
LINE
  8
0
 62
     0
 10
50.2447
 20
35.8316
 30
0.0
 11
50.2447
 21
34.8327
 31
0.0
  0
LINE
  8
0
 62
     0
 10
50.2447
 20
34.8327
 30
0.0
 11
49.4439
 21
34.8327
 31
0.0
  0
LINE
  8
0
 62
     0
 10
49.4439
 20
34.8327
 30
0.0
 11
49.4439
 21
31.7321
 31
0.0
  0
LINE
  8
0
 62
     0
 10
49.4439
 20
31.7321
 30
0.0
 11
50.2447
 21
31.7321
 31
0.0
  0
LINE
  8
0
 62
     0
 10
50.2447
 20
31.7321
 30
0.0
 11
50.2447
 21
25.9319
 31
0.0
  0
LINE
  8
0
 62
     0
 10
50.2447
 20
25.9319
 30
0.0
 11
49.4439
 21
25.9319
 31
0.0
  0
LINE
  8
0
 62
     0
 10
49.4439
 20
25.9319
 30
0.0
 11
49.4439
 21
22.8327
 31
0.0
  0
LINE
  8
0
 62
     0
 10
49.4439
 20
22.8327
 30
0.0
 11
50.2447
 21
22.8327
 31
0.0
  0
LINE
  8
0
 62
     0
 10
50.2447
 20
22.8327
 30
0.0
 11
50.2447
 21
21.8323
 31
0.0
  0
LINE
  8
0
 62
     0
 10
50.2447
 20
21.8323
 30
0.0
 11
64.244
 21
21.8323
 31
0.0
  0
LINE
  8
0
 62
     0
 10
64.244
 20
21.8323
 30
0.0
 11
64.244
 21
22.8327
 31
0.0
  0
LINE
  8
0
 62
     0
 10
64.244
 20
22.8327
 30
0.0
 11
65.0448
 21
22.8327
 31
0.0
  0
LINE
  8
0
 62
     0
 10
65.0448
 20
22.8327
 30
0.0
 11
65.0448
 21
25.9319
 31
0.0
  0
LINE
  8
0
 62
     0
 10
65.0448
 20
25.9319
 30
0.0
 11
64.244
 21
25.9319
 31
0.0
  0
LINE
  8
0
 62
     0
 10
64.244
 20
25.9319
 30
0.0
 11
64.244
 21
31.7321
 31
0.0
  0
LINE
  8
0
 62
     0
 10
64.244
 20
31.7321
 30
0.0
 11
65.0448
 21
31.7321
 31
0.0
  0
LINE
  8
0
 62
     0
 10
65.0448
 20
31.7321
 30
0.0
 11
65.0448
 21
34.8327
 31
0.0
  0
LINE
  8
0
 62
     0
 10
65.0448
 20
34.8327
 30
0.0
 11
64.244
 21
34.8327
 31
0.0
  0
LINE
  8
0
 62
     0
 10
64.244
 20
34.8327
 30
0.0
 11
64.244
 21
35.8316
 31
0.0
  0
LINE
  8
0
 62
     0
 10
64.244
 20
35.8316
 30
0.0
 11
50.2447
 21
35.8316
 31
0.0
  0
LINE
  8
0
 62
     0
 10
31.1947
 20
35.8316
 30
0.0
 11
31.1947
 21
34.8327
 31
0.0
  0
LINE
  8
0
 62
     0
 10
31.1947
 20
34.8327
 30
0.0
 11
30.394
 21
34.8327
 31
0.0
  0
LINE
  8
0
 62
     0
 10
30.394
 20
34.8327
 30
0.0
 11
30.394
 21
31.7321
 31
0.0
  0
LINE
  8
0
 62
     0
 10
30.394
 20
31.7321
 30
0.0
 11
31.1947
 21
31.7321
 31
0.0
  0
LINE
  8
0
 62
     0
 10
31.1947
 20
31.7321
 30
0.0
 11
31.1947
 21
25.9319
 31
0.0
  0
LINE
  8
0
 62
     0
 10
31.1947
 20
25.9319
 30
0.0
 11
30.394
 21
25.9319
 31
0.0
  0
LINE
  8
0
 62
     0
 10
30.394
 20
25.9319
 30
0.0
 11
30.394
 21
22.8327
 31
0.0
  0
LINE
  8
0
 62
     0
 10
30.394
 20
22.8327
 30
0.0
 11
31.1947
 21
22.8327
 31
0.0
  0
LINE
  8
0
 62
     0
 10
31.1947
 20
22.8327
 30
0.0
 11
31.1947
 21
21.8323
 31
0.0
  0
LINE
  8
0
 62
     0
 10
31.1947
 20
21.8323
 30
0.0
 11
45.194
 21
21.8323
 31
0.0
  0
LINE
  8
0
 62
     0
 10
45.194
 20
21.8323
 30
0.0
 11
45.194
 21
22.8327
 31
0.0
  0
LINE
  8
0
 62
     0
 10
45.194
 20
22.8327
 30
0.0
 11
45.9948
 21
22.8327
 31
0.0
  0
LINE
  8
0
 62
     0
 10
45.9948
 20
22.8327
 30
0.0
 11
45.9948
 21
25.9319
 31
0.0
  0
LINE
  8
0
 62
     0
 10
45.9948
 20
25.9319
 30
0.0
 11
45.194
 21
25.9319
 31
0.0
  0
LINE
  8
0
 62
     0
 10
45.194
 20
25.9319
 30
0.0
 11
45.194
 21
31.7321
 31
0.0
  0
LINE
  8
0
 62
     0
 10
45.194
 20
31.7321
 30
0.0
 11
45.9948
 21
31.7321
 31
0.0
  0
LINE
  8
0
 62
     0
 10
45.9948
 20
31.7321
 30
0.0
 11
45.9948
 21
34.8327
 31
0.0
  0
LINE
  8
0
 62
     0
 10
45.9948
 20
34.8327
 30
0.0
 11
45.194
 21
34.8327
 31
0.0
  0
LINE
  8
0
 62
     0
 10
45.194
 20
34.8327
 30
0.0
 11
45.194
 21
35.8316
 31
0.0
  0
LINE
  8
0
 62
     0
 10
45.194
 20
35.8316
 30
0.0
 11
31.1947
 21
35.8316
 31
0.0
  0
LINE
  8
0
 62
     0
 10
7.38216
 20
35.8316
 30
0.0
 11
7.38216
 21
34.8327
 31
0.0
  0
LINE
  8
0
 62
     0
 10
7.38216
 20
34.8327
 30
0.0
 11
6.58153
 21
34.8327
 31
0.0
  0
LINE
  8
0
 62
     0
 10
6.58153
 20
34.8327
 30
0.0
 11
6.58153
 21
31.7321
 31
0.0
  0
LINE
  8
0
 62
     0
 10
6.58153
 20
31.7321
 30
0.0
 11
7.38216
 21
31.7321
 31
0.0
  0
LINE
  8
0
 62
     0
 10
7.38216
 20
31.7321
 30
0.0
 11
7.38216
 21
25.9319
 31
0.0
  0
LINE
  8
0
 62
     0
 10
7.38216
 20
25.9319
 30
0.0
 11
6.58153
 21
25.9319
 31
0.0
  0
LINE
  8
0
 62
     0
 10
6.58153
 20
25.9319
 30
0.0
 11
6.58153
 21
22.8327
 31
0.0
  0
LINE
  8
0
 62
     0
 10
6.58153
 20
22.8327
 30
0.0
 11
7.38216
 21
22.8327
 31
0.0
  0
LINE
  8
0
 62
     0
 10
7.38216
 20
22.8327
 30
0.0
 11
7.38216
 21
21.8323
 31
0.0
  0
LINE
  8
0
 62
     0
 10
7.38216
 20
21.8323
 30
0.0
 11
21.3817
 21
21.8323
 31
0.0
  0
LINE
  8
0
 62
     0
 10
21.3817
 20
21.8323
 30
0.0
 11
21.3817
 21
22.8327
 31
0.0
  0
LINE
  8
0
 62
     0
 10
21.3817
 20
22.8327
 30
0.0
 11
22.1809
 21
22.8327
 31
0.0
  0
LINE
  8
0
 62
     0
 10
22.1809
 20
22.8327
 30
0.0
 11
22.1809
 21
25.9319
 31
0.0
  0
LINE
  8
0
 62
     0
 10
22.1809
 20
25.9319
 30
0.0
 11
21.3817
 21
25.9319
 31
0.0
  0
LINE
  8
0
 62
     0
 10
21.3817
 20
25.9319
 30
0.0
 11
21.3817
 21
31.7321
 31
0.0
  0
LINE
  8
0
 62
     0
 10
21.3817
 20
31.7321
 30
0.0
 11
22.1809
 21
31.7321
 31
0.0
  0
LINE
  8
0
 62
     0
 10
22.1809
 20
31.7321
 30
0.0
 11
22.1809
 21
34.8327
 31
0.0
  0
LINE
  8
0
 62
     0
 10
22.1809
 20
34.8327
 30
0.0
 11
21.3817
 21
34.8327
 31
0.0
  0
LINE
  8
0
 62
     0
 10
21.3817
 20
34.8327
 30
0.0
 11
21.3817
 21
35.8316
 31
0.0
  0
LINE
  8
0
 62
     0
 10
21.3817
 20
35.8316
 30
0.0
 11
7.38216
 21
35.8316
 31
0.0
  0
LINE
  8
0
 62
     0
 10
226.457
 20
54.8816
 30
0.0
 11
226.457
 21
53.8826
 31
0.0
  0
LINE
  8
0
 62
     0
 10
226.457
 20
53.8826
 30
0.0
 11
225.656
 21
53.8826
 31
0.0
  0
LINE
  8
0
 62
     0
 10
225.656
 20
53.8826
 30
0.0
 11
225.656
 21
50.782
 31
0.0
  0
LINE
  8
0
 62
     0
 10
225.656
 20
50.782
 30
0.0
 11
226.457
 21
50.782
 31
0.0
  0
LINE
  8
0
 62
     0
 10
226.457
 20
50.782
 30
0.0
 11
226.457
 21
44.982
 31
0.0
  0
LINE
  8
0
 62
     0
 10
226.457
 20
44.982
 30
0.0
 11
225.656
 21
44.982
 31
0.0
  0
LINE
  8
0
 62
     0
 10
225.656
 20
44.982
 30
0.0
 11
225.656
 21
41.8828
 31
0.0
  0
LINE
  8
0
 62
     0
 10
225.656
 20
41.8828
 30
0.0
 11
226.457
 21
41.8828
 31
0.0
  0
LINE
  8
0
 62
     0
 10
226.457
 20
41.8828
 30
0.0
 11
226.457
 21
40.8824
 31
0.0
  0
LINE
  8
0
 62
     0
 10
226.457
 20
40.8824
 30
0.0
 11
240.457
 21
40.8824
 31
0.0
  0
LINE
  8
0
 62
     0
 10
240.457
 20
40.8824
 30
0.0
 11
240.457
 21
41.8828
 31
0.0
  0
LINE
  8
0
 62
     0
 10
240.457
 20
41.8828
 30
0.0
 11
241.256
 21
41.8828
 31
0.0
  0
LINE
  8
0
 62
     0
 10
241.256
 20
41.8828
 30
0.0
 11
241.256
 21
44.982
 31
0.0
  0
LINE
  8
0
 62
     0
 10
241.256
 20
44.982
 30
0.0
 11
240.457
 21
44.982
 31
0.0
  0
LINE
  8
0
 62
     0
 10
240.457
 20
44.982
 30
0.0
 11
240.457
 21
50.782
 31
0.0
  0
LINE
  8
0
 62
     0
 10
240.457
 20
50.782
 30
0.0
 11
241.256
 21
50.782
 31
0.0
  0
LINE
  8
0
 62
     0
 10
241.256
 20
50.782
 30
0.0
 11
241.256
 21
53.8826
 31
0.0
  0
LINE
  8
0
 62
     0
 10
241.256
 20
53.8826
 30
0.0
 11
240.457
 21
53.8826
 31
0.0
  0
LINE
  8
0
 62
     0
 10
240.457
 20
53.8826
 30
0.0
 11
240.457
 21
54.8816
 31
0.0
  0
LINE
  8
0
 62
     0
 10
240.457
 20
54.8816
 30
0.0
 11
226.457
 21
54.8816
 31
0.0
  0
LINE
  8
0
 62
     0
 10
202.645
 20
54.8816
 30
0.0
 11
202.645
 21
53.8826
 31
0.0
  0
LINE
  8
0
 62
     0
 10
202.645
 20
53.8826
 30
0.0
 11
201.844
 21
53.8826
 31
0.0
  0
LINE
  8
0
 62
     0
 10
201.844
 20
53.8826
 30
0.0
 11
201.844
 21
50.782
 31
0.0
  0
LINE
  8
0
 62
     0
 10
201.844
 20
50.782
 30
0.0
 11
202.645
 21
50.782
 31
0.0
  0
LINE
  8
0
 62
     0
 10
202.645
 20
50.782
 30
0.0
 11
202.645
 21
44.982
 31
0.0
  0
LINE
  8
0
 62
     0
 10
202.645
 20
44.982
 30
0.0
 11
201.844
 21
44.982
 31
0.0
  0
LINE
  8
0
 62
     0
 10
201.844
 20
44.982
 30
0.0
 11
201.844
 21
41.8828
 31
0.0
  0
LINE
  8
0
 62
     0
 10
201.844
 20
41.8828
 30
0.0
 11
202.645
 21
41.8828
 31
0.0
  0
LINE
  8
0
 62
     0
 10
202.645
 20
41.8828
 30
0.0
 11
202.645
 21
40.8824
 31
0.0
  0
LINE
  8
0
 62
     0
 10
202.645
 20
40.8824
 30
0.0
 11
216.644
 21
40.8824
 31
0.0
  0
LINE
  8
0
 62
     0
 10
216.644
 20
40.8824
 30
0.0
 11
216.644
 21
41.8828
 31
0.0
  0
LINE
  8
0
 62
     0
 10
216.644
 20
41.8828
 30
0.0
 11
217.445
 21
41.8828
 31
0.0
  0
LINE
  8
0
 62
     0
 10
217.445
 20
41.8828
 30
0.0
 11
217.445
 21
44.982
 31
0.0
  0
LINE
  8
0
 62
     0
 10
217.445
 20
44.982
 30
0.0
 11
216.644
 21
44.982
 31
0.0
  0
LINE
  8
0
 62
     0
 10
216.644
 20
44.982
 30
0.0
 11
216.644
 21
50.782
 31
0.0
  0
LINE
  8
0
 62
     0
 10
216.644
 20
50.782
 30
0.0
 11
217.445
 21
50.782
 31
0.0
  0
LINE
  8
0
 62
     0
 10
217.445
 20
50.782
 30
0.0
 11
217.445
 21
53.8826
 31
0.0
  0
LINE
  8
0
 62
     0
 10
217.445
 20
53.8826
 30
0.0
 11
216.644
 21
53.8826
 31
0.0
  0
LINE
  8
0
 62
     0
 10
216.644
 20
53.8826
 30
0.0
 11
216.644
 21
54.8816
 31
0.0
  0
LINE
  8
0
 62
     0
 10
216.644
 20
54.8816
 30
0.0
 11
202.645
 21
54.8816
 31
0.0
  0
LINE
  8
0
 62
     0
 10
183.595
 20
54.8816
 30
0.0
 11
183.595
 21
53.8826
 31
0.0
  0
LINE
  8
0
 62
     0
 10
183.595
 20
53.8826
 30
0.0
 11
182.794
 21
53.8826
 31
0.0
  0
LINE
  8
0
 62
     0
 10
182.794
 20
53.8826
 30
0.0
 11
182.794
 21
50.782
 31
0.0
  0
LINE
  8
0
 62
     0
 10
182.794
 20
50.782
 30
0.0
 11
183.595
 21
50.782
 31
0.0
  0
LINE
  8
0
 62
     0
 10
183.595
 20
50.782
 30
0.0
 11
183.595
 21
44.982
 31
0.0
  0
LINE
  8
0
 62
     0
 10
183.595
 20
44.982
 30
0.0
 11
182.794
 21
44.982
 31
0.0
  0
LINE
  8
0
 62
     0
 10
182.794
 20
44.982
 30
0.0
 11
182.794
 21
41.8828
 31
0.0
  0
LINE
  8
0
 62
     0
 10
182.794
 20
41.8828
 30
0.0
 11
183.595
 21
41.8828
 31
0.0
  0
LINE
  8
0
 62
     0
 10
183.595
 20
41.8828
 30
0.0
 11
183.595
 21
40.8824
 31
0.0
  0
LINE
  8
0
 62
     0
 10
183.595
 20
40.8824
 30
0.0
 11
197.594
 21
40.8824
 31
0.0
  0
LINE
  8
0
 62
     0
 10
197.594
 20
40.8824
 30
0.0
 11
197.594
 21
41.8828
 31
0.0
  0
LINE
  8
0
 62
     0
 10
197.594
 20
41.8828
 30
0.0
 11
198.395
 21
41.8828
 31
0.0
  0
LINE
  8
0
 62
     0
 10
198.395
 20
41.8828
 30
0.0
 11
198.395
 21
44.982
 31
0.0
  0
LINE
  8
0
 62
     0
 10
198.395
 20
44.982
 30
0.0
 11
197.594
 21
44.982
 31
0.0
  0
LINE
  8
0
 62
     0
 10
197.594
 20
44.982
 30
0.0
 11
197.594
 21
50.782
 31
0.0
  0
LINE
  8
0
 62
     0
 10
197.594
 20
50.782
 30
0.0
 11
198.395
 21
50.782
 31
0.0
  0
LINE
  8
0
 62
     0
 10
198.395
 20
50.782
 30
0.0
 11
198.395
 21
53.8826
 31
0.0
  0
LINE
  8
0
 62
     0
 10
198.395
 20
53.8826
 30
0.0
 11
197.594
 21
53.8826
 31
0.0
  0
LINE
  8
0
 62
     0
 10
197.594
 20
53.8826
 30
0.0
 11
197.594
 21
54.8816
 31
0.0
  0
LINE
  8
0
 62
     0
 10
197.594
 20
54.8816
 30
0.0
 11
183.595
 21
54.8816
 31
0.0
  0
LINE
  8
0
 62
     0
 10
164.545
 20
54.8816
 30
0.0
 11
164.545
 21
53.8826
 31
0.0
  0
LINE
  8
0
 62
     0
 10
164.545
 20
53.8826
 30
0.0
 11
163.744
 21
53.8826
 31
0.0
  0
LINE
  8
0
 62
     0
 10
163.744
 20
53.8826
 30
0.0
 11
163.744
 21
50.782
 31
0.0
  0
LINE
  8
0
 62
     0
 10
163.744
 20
50.782
 30
0.0
 11
164.545
 21
50.782
 31
0.0
  0
LINE
  8
0
 62
     0
 10
164.545
 20
50.782
 30
0.0
 11
164.545
 21
44.982
 31
0.0
  0
LINE
  8
0
 62
     0
 10
164.545
 20
44.982
 30
0.0
 11
163.744
 21
44.982
 31
0.0
  0
LINE
  8
0
 62
     0
 10
163.744
 20
44.982
 30
0.0
 11
163.744
 21
41.8828
 31
0.0
  0
LINE
  8
0
 62
     0
 10
163.744
 20
41.8828
 30
0.0
 11
164.545
 21
41.8828
 31
0.0
  0
LINE
  8
0
 62
     0
 10
164.545
 20
41.8828
 30
0.0
 11
164.545
 21
40.8824
 31
0.0
  0
LINE
  8
0
 62
     0
 10
164.545
 20
40.8824
 30
0.0
 11
178.544
 21
40.8824
 31
0.0
  0
LINE
  8
0
 62
     0
 10
178.544
 20
40.8824
 30
0.0
 11
178.544
 21
41.8828
 31
0.0
  0
LINE
  8
0
 62
     0
 10
178.544
 20
41.8828
 30
0.0
 11
179.345
 21
41.8828
 31
0.0
  0
LINE
  8
0
 62
     0
 10
179.345
 20
41.8828
 30
0.0
 11
179.345
 21
44.982
 31
0.0
  0
LINE
  8
0
 62
     0
 10
179.345
 20
44.982
 30
0.0
 11
178.544
 21
44.982
 31
0.0
  0
LINE
  8
0
 62
     0
 10
178.544
 20
44.982
 30
0.0
 11
178.544
 21
50.782
 31
0.0
  0
LINE
  8
0
 62
     0
 10
178.544
 20
50.782
 30
0.0
 11
179.345
 21
50.782
 31
0.0
  0
LINE
  8
0
 62
     0
 10
179.345
 20
50.782
 30
0.0
 11
179.345
 21
53.8826
 31
0.0
  0
LINE
  8
0
 62
     0
 10
179.345
 20
53.8826
 30
0.0
 11
178.544
 21
53.8826
 31
0.0
  0
LINE
  8
0
 62
     0
 10
178.544
 20
53.8826
 30
0.0
 11
178.544
 21
54.8816
 31
0.0
  0
LINE
  8
0
 62
     0
 10
178.544
 20
54.8816
 30
0.0
 11
164.545
 21
54.8816
 31
0.0
  0
LINE
  8
0
 62
     0
 10
145.495
 20
54.8816
 30
0.0
 11
145.495
 21
53.8826
 31
0.0
  0
LINE
  8
0
 62
     0
 10
145.495
 20
53.8826
 30
0.0
 11
144.694
 21
53.8826
 31
0.0
  0
LINE
  8
0
 62
     0
 10
144.694
 20
53.8826
 30
0.0
 11
144.694
 21
50.782
 31
0.0
  0
LINE
  8
0
 62
     0
 10
144.694
 20
50.782
 30
0.0
 11
145.495
 21
50.782
 31
0.0
  0
LINE
  8
0
 62
     0
 10
145.495
 20
50.782
 30
0.0
 11
145.495
 21
44.982
 31
0.0
  0
LINE
  8
0
 62
     0
 10
145.495
 20
44.982
 30
0.0
 11
144.694
 21
44.982
 31
0.0
  0
LINE
  8
0
 62
     0
 10
144.694
 20
44.982
 30
0.0
 11
144.694
 21
41.8828
 31
0.0
  0
LINE
  8
0
 62
     0
 10
144.694
 20
41.8828
 30
0.0
 11
145.495
 21
41.8828
 31
0.0
  0
LINE
  8
0
 62
     0
 10
145.495
 20
41.8828
 30
0.0
 11
145.495
 21
40.8824
 31
0.0
  0
LINE
  8
0
 62
     0
 10
145.495
 20
40.8824
 30
0.0
 11
159.494
 21
40.8824
 31
0.0
  0
LINE
  8
0
 62
     0
 10
159.494
 20
40.8824
 30
0.0
 11
159.494
 21
41.8828
 31
0.0
  0
LINE
  8
0
 62
     0
 10
159.494
 20
41.8828
 30
0.0
 11
160.295
 21
41.8828
 31
0.0
  0
LINE
  8
0
 62
     0
 10
160.295
 20
41.8828
 30
0.0
 11
160.295
 21
44.982
 31
0.0
  0
LINE
  8
0
 62
     0
 10
160.295
 20
44.982
 30
0.0
 11
159.494
 21
44.982
 31
0.0
  0
LINE
  8
0
 62
     0
 10
159.494
 20
44.982
 30
0.0
 11
159.494
 21
50.782
 31
0.0
  0
LINE
  8
0
 62
     0
 10
159.494
 20
50.782
 30
0.0
 11
160.295
 21
50.782
 31
0.0
  0
LINE
  8
0
 62
     0
 10
160.295
 20
50.782
 30
0.0
 11
160.295
 21
53.8826
 31
0.0
  0
LINE
  8
0
 62
     0
 10
160.295
 20
53.8826
 30
0.0
 11
159.494
 21
53.8826
 31
0.0
  0
LINE
  8
0
 62
     0
 10
159.494
 20
53.8826
 30
0.0
 11
159.494
 21
54.8816
 31
0.0
  0
LINE
  8
0
 62
     0
 10
159.494
 20
54.8816
 30
0.0
 11
145.495
 21
54.8816
 31
0.0
  0
LINE
  8
0
 62
     0
 10
126.445
 20
54.8816
 30
0.0
 11
126.445
 21
53.8826
 31
0.0
  0
LINE
  8
0
 62
     0
 10
126.445
 20
53.8826
 30
0.0
 11
125.644
 21
53.8826
 31
0.0
  0
LINE
  8
0
 62
     0
 10
125.644
 20
53.8826
 30
0.0
 11
125.644
 21
50.782
 31
0.0
  0
LINE
  8
0
 62
     0
 10
125.644
 20
50.782
 30
0.0
 11
126.445
 21
50.782
 31
0.0
  0
LINE
  8
0
 62
     0
 10
126.445
 20
50.782
 30
0.0
 11
126.445
 21
44.982
 31
0.0
  0
LINE
  8
0
 62
     0
 10
126.445
 20
44.982
 30
0.0
 11
125.644
 21
44.982
 31
0.0
  0
LINE
  8
0
 62
     0
 10
125.644
 20
44.982
 30
0.0
 11
125.644
 21
41.8828
 31
0.0
  0
LINE
  8
0
 62
     0
 10
125.644
 20
41.8828
 30
0.0
 11
126.445
 21
41.8828
 31
0.0
  0
LINE
  8
0
 62
     0
 10
126.445
 20
41.8828
 30
0.0
 11
126.445
 21
40.8824
 31
0.0
  0
LINE
  8
0
 62
     0
 10
126.445
 20
40.8824
 30
0.0
 11
140.444
 21
40.8824
 31
0.0
  0
LINE
  8
0
 62
     0
 10
140.444
 20
40.8824
 30
0.0
 11
140.444
 21
41.8828
 31
0.0
  0
LINE
  8
0
 62
     0
 10
140.444
 20
41.8828
 30
0.0
 11
141.245
 21
41.8828
 31
0.0
  0
LINE
  8
0
 62
     0
 10
141.245
 20
41.8828
 30
0.0
 11
141.245
 21
44.982
 31
0.0
  0
LINE
  8
0
 62
     0
 10
141.245
 20
44.982
 30
0.0
 11
140.444
 21
44.982
 31
0.0
  0
LINE
  8
0
 62
     0
 10
140.444
 20
44.982
 30
0.0
 11
140.444
 21
50.782
 31
0.0
  0
LINE
  8
0
 62
     0
 10
140.444
 20
50.782
 30
0.0
 11
141.245
 21
50.782
 31
0.0
  0
LINE
  8
0
 62
     0
 10
141.245
 20
50.782
 30
0.0
 11
141.245
 21
53.8826
 31
0.0
  0
LINE
  8
0
 62
     0
 10
141.245
 20
53.8826
 30
0.0
 11
140.444
 21
53.8826
 31
0.0
  0
LINE
  8
0
 62
     0
 10
140.444
 20
53.8826
 30
0.0
 11
140.444
 21
54.8816
 31
0.0
  0
LINE
  8
0
 62
     0
 10
140.444
 20
54.8816
 30
0.0
 11
126.445
 21
54.8816
 31
0.0
  0
LINE
  8
0
 62
     0
 10
107.395
 20
54.8816
 30
0.0
 11
107.395
 21
53.8826
 31
0.0
  0
LINE
  8
0
 62
     0
 10
107.395
 20
53.8826
 30
0.0
 11
106.594
 21
53.8826
 31
0.0
  0
LINE
  8
0
 62
     0
 10
106.594
 20
53.8826
 30
0.0
 11
106.594
 21
50.782
 31
0.0
  0
LINE
  8
0
 62
     0
 10
106.594
 20
50.782
 30
0.0
 11
107.395
 21
50.782
 31
0.0
  0
LINE
  8
0
 62
     0
 10
107.395
 20
50.782
 30
0.0
 11
107.395
 21
44.982
 31
0.0
  0
LINE
  8
0
 62
     0
 10
107.395
 20
44.982
 30
0.0
 11
106.594
 21
44.982
 31
0.0
  0
LINE
  8
0
 62
     0
 10
106.594
 20
44.982
 30
0.0
 11
106.594
 21
41.8828
 31
0.0
  0
LINE
  8
0
 62
     0
 10
106.594
 20
41.8828
 30
0.0
 11
107.395
 21
41.8828
 31
0.0
  0
LINE
  8
0
 62
     0
 10
107.395
 20
41.8828
 30
0.0
 11
107.395
 21
40.8824
 31
0.0
  0
LINE
  8
0
 62
     0
 10
107.395
 20
40.8824
 30
0.0
 11
121.394
 21
40.8824
 31
0.0
  0
LINE
  8
0
 62
     0
 10
121.394
 20
40.8824
 30
0.0
 11
121.394
 21
41.8828
 31
0.0
  0
LINE
  8
0
 62
     0
 10
121.394
 20
41.8828
 30
0.0
 11
122.195
 21
41.8828
 31
0.0
  0
LINE
  8
0
 62
     0
 10
122.195
 20
41.8828
 30
0.0
 11
122.195
 21
44.982
 31
0.0
  0
LINE
  8
0
 62
     0
 10
122.195
 20
44.982
 30
0.0
 11
121.394
 21
44.982
 31
0.0
  0
LINE
  8
0
 62
     0
 10
121.394
 20
44.982
 30
0.0
 11
121.394
 21
50.782
 31
0.0
  0
LINE
  8
0
 62
     0
 10
121.394
 20
50.782
 30
0.0
 11
122.195
 21
50.782
 31
0.0
  0
LINE
  8
0
 62
     0
 10
122.195
 20
50.782
 30
0.0
 11
122.195
 21
53.8826
 31
0.0
  0
LINE
  8
0
 62
     0
 10
122.195
 20
53.8826
 30
0.0
 11
121.394
 21
53.8826
 31
0.0
  0
LINE
  8
0
 62
     0
 10
121.394
 20
53.8826
 30
0.0
 11
121.394
 21
54.8816
 31
0.0
  0
LINE
  8
0
 62
     0
 10
121.394
 20
54.8816
 30
0.0
 11
107.395
 21
54.8816
 31
0.0
  0
LINE
  8
0
 62
     0
 10
88.3447
 20
54.8816
 30
0.0
 11
88.3447
 21
53.8826
 31
0.0
  0
LINE
  8
0
 62
     0
 10
88.3447
 20
53.8826
 30
0.0
 11
87.5439
 21
53.8826
 31
0.0
  0
LINE
  8
0
 62
     0
 10
87.5439
 20
53.8826
 30
0.0
 11
87.5439
 21
50.782
 31
0.0
  0
LINE
  8
0
 62
     0
 10
87.5439
 20
50.782
 30
0.0
 11
88.3447
 21
50.782
 31
0.0
  0
LINE
  8
0
 62
     0
 10
88.3447
 20
50.782
 30
0.0
 11
88.3447
 21
44.982
 31
0.0
  0
LINE
  8
0
 62
     0
 10
88.3447
 20
44.982
 30
0.0
 11
87.5439
 21
44.982
 31
0.0
  0
LINE
  8
0
 62
     0
 10
87.5439
 20
44.982
 30
0.0
 11
87.5439
 21
41.8828
 31
0.0
  0
LINE
  8
0
 62
     0
 10
87.5439
 20
41.8828
 30
0.0
 11
88.3447
 21
41.8828
 31
0.0
  0
LINE
  8
0
 62
     0
 10
88.3447
 20
41.8828
 30
0.0
 11
88.3447
 21
40.8824
 31
0.0
  0
LINE
  8
0
 62
     0
 10
88.3447
 20
40.8824
 30
0.0
 11
102.344
 21
40.8824
 31
0.0
  0
LINE
  8
0
 62
     0
 10
102.344
 20
40.8824
 30
0.0
 11
102.344
 21
41.8828
 31
0.0
  0
LINE
  8
0
 62
     0
 10
102.344
 20
41.8828
 30
0.0
 11
103.145
 21
41.8828
 31
0.0
  0
LINE
  8
0
 62
     0
 10
103.145
 20
41.8828
 30
0.0
 11
103.145
 21
44.982
 31
0.0
  0
LINE
  8
0
 62
     0
 10
103.145
 20
44.982
 30
0.0
 11
102.344
 21
44.982
 31
0.0
  0
LINE
  8
0
 62
     0
 10
102.344
 20
44.982
 30
0.0
 11
102.344
 21
50.782
 31
0.0
  0
LINE
  8
0
 62
     0
 10
102.344
 20
50.782
 30
0.0
 11
103.145
 21
50.782
 31
0.0
  0
LINE
  8
0
 62
     0
 10
103.145
 20
50.782
 30
0.0
 11
103.145
 21
53.8826
 31
0.0
  0
LINE
  8
0
 62
     0
 10
103.145
 20
53.8826
 30
0.0
 11
102.344
 21
53.8826
 31
0.0
  0
LINE
  8
0
 62
     0
 10
102.344
 20
53.8826
 30
0.0
 11
102.344
 21
54.8816
 31
0.0
  0
LINE
  8
0
 62
     0
 10
102.344
 20
54.8816
 30
0.0
 11
88.3447
 21
54.8816
 31
0.0
  0
LINE
  8
0
 62
     0
 10
69.2947
 20
54.8816
 30
0.0
 11
69.2947
 21
53.8826
 31
0.0
  0
LINE
  8
0
 62
     0
 10
69.2947
 20
53.8826
 30
0.0
 11
68.4939
 21
53.8826
 31
0.0
  0
LINE
  8
0
 62
     0
 10
68.4939
 20
53.8826
 30
0.0
 11
68.4939
 21
50.782
 31
0.0
  0
LINE
  8
0
 62
     0
 10
68.4939
 20
50.782
 30
0.0
 11
69.2947
 21
50.782
 31
0.0
  0
LINE
  8
0
 62
     0
 10
69.2947
 20
50.782
 30
0.0
 11
69.2947
 21
44.982
 31
0.0
  0
LINE
  8
0
 62
     0
 10
69.2947
 20
44.982
 30
0.0
 11
68.4939
 21
44.982
 31
0.0
  0
LINE
  8
0
 62
     0
 10
68.4939
 20
44.982
 30
0.0
 11
68.4939
 21
41.8828
 31
0.0
  0
LINE
  8
0
 62
     0
 10
68.4939
 20
41.8828
 30
0.0
 11
69.2947
 21
41.8828
 31
0.0
  0
LINE
  8
0
 62
     0
 10
69.2947
 20
41.8828
 30
0.0
 11
69.2947
 21
40.8824
 31
0.0
  0
LINE
  8
0
 62
     0
 10
69.2947
 20
40.8824
 30
0.0
 11
83.294
 21
40.8824
 31
0.0
  0
LINE
  8
0
 62
     0
 10
83.294
 20
40.8824
 30
0.0
 11
83.294
 21
41.8828
 31
0.0
  0
LINE
  8
0
 62
     0
 10
83.294
 20
41.8828
 30
0.0
 11
84.0948
 21
41.8828
 31
0.0
  0
LINE
  8
0
 62
     0
 10
84.0948
 20
41.8828
 30
0.0
 11
84.0948
 21
44.982
 31
0.0
  0
LINE
  8
0
 62
     0
 10
84.0948
 20
44.982
 30
0.0
 11
83.294
 21
44.982
 31
0.0
  0
LINE
  8
0
 62
     0
 10
83.294
 20
44.982
 30
0.0
 11
83.294
 21
50.782
 31
0.0
  0
LINE
  8
0
 62
     0
 10
83.294
 20
50.782
 30
0.0
 11
84.0948
 21
50.782
 31
0.0
  0
LINE
  8
0
 62
     0
 10
84.0948
 20
50.782
 30
0.0
 11
84.0948
 21
53.8826
 31
0.0
  0
LINE
  8
0
 62
     0
 10
84.0948
 20
53.8826
 30
0.0
 11
83.294
 21
53.8826
 31
0.0
  0
LINE
  8
0
 62
     0
 10
83.294
 20
53.8826
 30
0.0
 11
83.294
 21
54.8816
 31
0.0
  0
LINE
  8
0
 62
     0
 10
83.294
 20
54.8816
 30
0.0
 11
69.2947
 21
54.8816
 31
0.0
  0
LINE
  8
0
 62
     0
 10
50.2447
 20
54.8816
 30
0.0
 11
50.2447
 21
53.8826
 31
0.0
  0
LINE
  8
0
 62
     0
 10
50.2447
 20
53.8826
 30
0.0
 11
49.4439
 21
53.8826
 31
0.0
  0
LINE
  8
0
 62
     0
 10
49.4439
 20
53.8826
 30
0.0
 11
49.4439
 21
50.782
 31
0.0
  0
LINE
  8
0
 62
     0
 10
49.4439
 20
50.782
 30
0.0
 11
50.2447
 21
50.782
 31
0.0
  0
LINE
  8
0
 62
     0
 10
50.2447
 20
50.782
 30
0.0
 11
50.2447
 21
44.982
 31
0.0
  0
LINE
  8
0
 62
     0
 10
50.2447
 20
44.982
 30
0.0
 11
49.4439
 21
44.982
 31
0.0
  0
LINE
  8
0
 62
     0
 10
49.4439
 20
44.982
 30
0.0
 11
49.4439
 21
41.8828
 31
0.0
  0
LINE
  8
0
 62
     0
 10
49.4439
 20
41.8828
 30
0.0
 11
50.2447
 21
41.8828
 31
0.0
  0
LINE
  8
0
 62
     0
 10
50.2447
 20
41.8828
 30
0.0
 11
50.2447
 21
40.8824
 31
0.0
  0
LINE
  8
0
 62
     0
 10
50.2447
 20
40.8824
 30
0.0
 11
64.244
 21
40.8824
 31
0.0
  0
LINE
  8
0
 62
     0
 10
64.244
 20
40.8824
 30
0.0
 11
64.244
 21
41.8828
 31
0.0
  0
LINE
  8
0
 62
     0
 10
64.244
 20
41.8828
 30
0.0
 11
65.0448
 21
41.8828
 31
0.0
  0
LINE
  8
0
 62
     0
 10
65.0448
 20
41.8828
 30
0.0
 11
65.0448
 21
44.982
 31
0.0
  0
LINE
  8
0
 62
     0
 10
65.0448
 20
44.982
 30
0.0
 11
64.244
 21
44.982
 31
0.0
  0
LINE
  8
0
 62
     0
 10
64.244
 20
44.982
 30
0.0
 11
64.244
 21
50.782
 31
0.0
  0
LINE
  8
0
 62
     0
 10
64.244
 20
50.782
 30
0.0
 11
65.0448
 21
50.782
 31
0.0
  0
LINE
  8
0
 62
     0
 10
65.0448
 20
50.782
 30
0.0
 11
65.0448
 21
53.8826
 31
0.0
  0
LINE
  8
0
 62
     0
 10
65.0448
 20
53.8826
 30
0.0
 11
64.244
 21
53.8826
 31
0.0
  0
LINE
  8
0
 62
     0
 10
64.244
 20
53.8826
 30
0.0
 11
64.244
 21
54.8816
 31
0.0
  0
LINE
  8
0
 62
     0
 10
64.244
 20
54.8816
 30
0.0
 11
50.2447
 21
54.8816
 31
0.0
  0
LINE
  8
0
 62
     0
 10
31.1947
 20
54.8816
 30
0.0
 11
31.1947
 21
53.8826
 31
0.0
  0
LINE
  8
0
 62
     0
 10
31.1947
 20
53.8826
 30
0.0
 11
30.394
 21
53.8826
 31
0.0
  0
LINE
  8
0
 62
     0
 10
30.394
 20
53.8826
 30
0.0
 11
30.394
 21
50.782
 31
0.0
  0
LINE
  8
0
 62
     0
 10
30.394
 20
50.782
 30
0.0
 11
31.1947
 21
50.782
 31
0.0
  0
LINE
  8
0
 62
     0
 10
31.1947
 20
50.782
 30
0.0
 11
31.1947
 21
44.982
 31
0.0
  0
LINE
  8
0
 62
     0
 10
31.1947
 20
44.982
 30
0.0
 11
30.394
 21
44.982
 31
0.0
  0
LINE
  8
0
 62
     0
 10
30.394
 20
44.982
 30
0.0
 11
30.394
 21
41.8828
 31
0.0
  0
LINE
  8
0
 62
     0
 10
30.394
 20
41.8828
 30
0.0
 11
31.1947
 21
41.8828
 31
0.0
  0
LINE
  8
0
 62
     0
 10
31.1947
 20
41.8828
 30
0.0
 11
31.1947
 21
40.8824
 31
0.0
  0
LINE
  8
0
 62
     0
 10
31.1947
 20
40.8824
 30
0.0
 11
45.194
 21
40.8824
 31
0.0
  0
LINE
  8
0
 62
     0
 10
45.194
 20
40.8824
 30
0.0
 11
45.194
 21
41.8828
 31
0.0
  0
LINE
  8
0
 62
     0
 10
45.194
 20
41.8828
 30
0.0
 11
45.9948
 21
41.8828
 31
0.0
  0
LINE
  8
0
 62
     0
 10
45.9948
 20
41.8828
 30
0.0
 11
45.9948
 21
44.982
 31
0.0
  0
LINE
  8
0
 62
     0
 10
45.9948
 20
44.982
 30
0.0
 11
45.194
 21
44.982
 31
0.0
  0
LINE
  8
0
 62
     0
 10
45.194
 20
44.982
 30
0.0
 11
45.194
 21
50.782
 31
0.0
  0
LINE
  8
0
 62
     0
 10
45.194
 20
50.782
 30
0.0
 11
45.9948
 21
50.782
 31
0.0
  0
LINE
  8
0
 62
     0
 10
45.9948
 20
50.782
 30
0.0
 11
45.9948
 21
53.8826
 31
0.0
  0
LINE
  8
0
 62
     0
 10
45.9948
 20
53.8826
 30
0.0
 11
45.194
 21
53.8826
 31
0.0
  0
LINE
  8
0
 62
     0
 10
45.194
 20
53.8826
 30
0.0
 11
45.194
 21
54.8816
 31
0.0
  0
LINE
  8
0
 62
     0
 10
45.194
 20
54.8816
 30
0.0
 11
31.1947
 21
54.8816
 31
0.0
  0
LINE
  8
0
 62
     0
 10
7.38216
 20
54.8816
 30
0.0
 11
7.38216
 21
53.8826
 31
0.0
  0
LINE
  8
0
 62
     0
 10
7.38216
 20
53.8826
 30
0.0
 11
6.58153
 21
53.8826
 31
0.0
  0
LINE
  8
0
 62
     0
 10
6.58153
 20
53.8826
 30
0.0
 11
6.58153
 21
50.782
 31
0.0
  0
LINE
  8
0
 62
     0
 10
6.58153
 20
50.782
 30
0.0
 11
7.38216
 21
50.782
 31
0.0
  0
LINE
  8
0
 62
     0
 10
7.38216
 20
50.782
 30
0.0
 11
7.38216
 21
44.982
 31
0.0
  0
LINE
  8
0
 62
     0
 10
7.38216
 20
44.982
 30
0.0
 11
6.58153
 21
44.982
 31
0.0
  0
LINE
  8
0
 62
     0
 10
6.58153
 20
44.982
 30
0.0
 11
6.58153
 21
41.8828
 31
0.0
  0
LINE
  8
0
 62
     0
 10
6.58153
 20
41.8828
 30
0.0
 11
7.38216
 21
41.8828
 31
0.0
  0
LINE
  8
0
 62
     0
 10
7.38216
 20
41.8828
 30
0.0
 11
7.38216
 21
40.8824
 31
0.0
  0
LINE
  8
0
 62
     0
 10
7.38216
 20
40.8824
 30
0.0
 11
21.3817
 21
40.8824
 31
0.0
  0
LINE
  8
0
 62
     0
 10
21.3817
 20
40.8824
 30
0.0
 11
21.3817
 21
41.8828
 31
0.0
  0
LINE
  8
0
 62
     0
 10
21.3817
 20
41.8828
 30
0.0
 11
22.1809
 21
41.8828
 31
0.0
  0
LINE
  8
0
 62
     0
 10
22.1809
 20
41.8828
 30
0.0
 11
22.1809
 21
44.982
 31
0.0
  0
LINE
  8
0
 62
     0
 10
22.1809
 20
44.982
 30
0.0
 11
21.3817
 21
44.982
 31
0.0
  0
LINE
  8
0
 62
     0
 10
21.3817
 20
44.982
 30
0.0
 11
21.3817
 21
50.782
 31
0.0
  0
LINE
  8
0
 62
     0
 10
21.3817
 20
50.782
 30
0.0
 11
22.1809
 21
50.782
 31
0.0
  0
LINE
  8
0
 62
     0
 10
22.1809
 20
50.782
 30
0.0
 11
22.1809
 21
53.8826
 31
0.0
  0
LINE
  8
0
 62
     0
 10
22.1809
 20
53.8826
 30
0.0
 11
21.3817
 21
53.8826
 31
0.0
  0
LINE
  8
0
 62
     0
 10
21.3817
 20
53.8826
 30
0.0
 11
21.3817
 21
54.8816
 31
0.0
  0
LINE
  8
0
 62
     0
 10
21.3817
 20
54.8816
 30
0.0
 11
7.38216
 21
54.8816
 31
0.0
  0
LINE
  8
0
 62
     0
 10
226.457
 20
73.9316
 30
0.0
 11
226.457
 21
72.9326
 31
0.0
  0
LINE
  8
0
 62
     0
 10
226.457
 20
72.9326
 30
0.0
 11
225.656
 21
72.9326
 31
0.0
  0
LINE
  8
0
 62
     0
 10
225.656
 20
72.9326
 30
0.0
 11
225.656
 21
69.832
 31
0.0
  0
LINE
  8
0
 62
     0
 10
225.656
 20
69.832
 30
0.0
 11
226.457
 21
69.832
 31
0.0
  0
LINE
  8
0
 62
     0
 10
226.457
 20
69.832
 30
0.0
 11
226.457
 21
64.032
 31
0.0
  0
LINE
  8
0
 62
     0
 10
226.457
 20
64.032
 30
0.0
 11
225.656
 21
64.032
 31
0.0
  0
LINE
  8
0
 62
     0
 10
225.656
 20
64.032
 30
0.0
 11
225.656
 21
60.9328
 31
0.0
  0
LINE
  8
0
 62
     0
 10
225.656
 20
60.9328
 30
0.0
 11
226.457
 21
60.9328
 31
0.0
  0
LINE
  8
0
 62
     0
 10
226.457
 20
60.9328
 30
0.0
 11
226.457
 21
59.9324
 31
0.0
  0
LINE
  8
0
 62
     0
 10
226.457
 20
59.9324
 30
0.0
 11
240.457
 21
59.9324
 31
0.0
  0
LINE
  8
0
 62
     0
 10
240.457
 20
59.9324
 30
0.0
 11
240.457
 21
60.9328
 31
0.0
  0
LINE
  8
0
 62
     0
 10
240.457
 20
60.9328
 30
0.0
 11
241.256
 21
60.9328
 31
0.0
  0
LINE
  8
0
 62
     0
 10
241.256
 20
60.9328
 30
0.0
 11
241.256
 21
64.032
 31
0.0
  0
LINE
  8
0
 62
     0
 10
241.256
 20
64.032
 30
0.0
 11
240.457
 21
64.032
 31
0.0
  0
LINE
  8
0
 62
     0
 10
240.457
 20
64.032
 30
0.0
 11
240.457
 21
69.832
 31
0.0
  0
LINE
  8
0
 62
     0
 10
240.457
 20
69.832
 30
0.0
 11
241.256
 21
69.832
 31
0.0
  0
LINE
  8
0
 62
     0
 10
241.256
 20
69.832
 30
0.0
 11
241.256
 21
72.9326
 31
0.0
  0
LINE
  8
0
 62
     0
 10
241.256
 20
72.9326
 30
0.0
 11
240.457
 21
72.9326
 31
0.0
  0
LINE
  8
0
 62
     0
 10
240.457
 20
72.9326
 30
0.0
 11
240.457
 21
73.9316
 31
0.0
  0
LINE
  8
0
 62
     0
 10
240.457
 20
73.9316
 30
0.0
 11
226.457
 21
73.9316
 31
0.0
  0
LINE
  8
0
 62
     0
 10
202.645
 20
73.9316
 30
0.0
 11
202.645
 21
72.9326
 31
0.0
  0
LINE
  8
0
 62
     0
 10
202.645
 20
72.9326
 30
0.0
 11
201.844
 21
72.9326
 31
0.0
  0
LINE
  8
0
 62
     0
 10
201.844
 20
72.9326
 30
0.0
 11
201.844
 21
69.832
 31
0.0
  0
LINE
  8
0
 62
     0
 10
201.844
 20
69.832
 30
0.0
 11
202.645
 21
69.832
 31
0.0
  0
LINE
  8
0
 62
     0
 10
202.645
 20
69.832
 30
0.0
 11
202.645
 21
64.032
 31
0.0
  0
LINE
  8
0
 62
     0
 10
202.645
 20
64.032
 30
0.0
 11
201.844
 21
64.032
 31
0.0
  0
LINE
  8
0
 62
     0
 10
201.844
 20
64.032
 30
0.0
 11
201.844
 21
60.9328
 31
0.0
  0
LINE
  8
0
 62
     0
 10
201.844
 20
60.9328
 30
0.0
 11
202.645
 21
60.9328
 31
0.0
  0
LINE
  8
0
 62
     0
 10
202.645
 20
60.9328
 30
0.0
 11
202.645
 21
59.9324
 31
0.0
  0
LINE
  8
0
 62
     0
 10
202.645
 20
59.9324
 30
0.0
 11
216.644
 21
59.9324
 31
0.0
  0
LINE
  8
0
 62
     0
 10
216.644
 20
59.9324
 30
0.0
 11
216.644
 21
60.9328
 31
0.0
  0
LINE
  8
0
 62
     0
 10
216.644
 20
60.9328
 30
0.0
 11
217.445
 21
60.9328
 31
0.0
  0
LINE
  8
0
 62
     0
 10
217.445
 20
60.9328
 30
0.0
 11
217.445
 21
64.032
 31
0.0
  0
LINE
  8
0
 62
     0
 10
217.445
 20
64.032
 30
0.0
 11
216.644
 21
64.032
 31
0.0
  0
LINE
  8
0
 62
     0
 10
216.644
 20
64.032
 30
0.0
 11
216.644
 21
69.832
 31
0.0
  0
LINE
  8
0
 62
     0
 10
216.644
 20
69.832
 30
0.0
 11
217.445
 21
69.832
 31
0.0
  0
LINE
  8
0
 62
     0
 10
217.445
 20
69.832
 30
0.0
 11
217.445
 21
72.9326
 31
0.0
  0
LINE
  8
0
 62
     0
 10
217.445
 20
72.9326
 30
0.0
 11
216.644
 21
72.9326
 31
0.0
  0
LINE
  8
0
 62
     0
 10
216.644
 20
72.9326
 30
0.0
 11
216.644
 21
73.9316
 31
0.0
  0
LINE
  8
0
 62
     0
 10
216.644
 20
73.9316
 30
0.0
 11
202.645
 21
73.9316
 31
0.0
  0
LINE
  8
0
 62
     0
 10
183.595
 20
73.9316
 30
0.0
 11
183.595
 21
72.9326
 31
0.0
  0
LINE
  8
0
 62
     0
 10
183.595
 20
72.9326
 30
0.0
 11
182.794
 21
72.9326
 31
0.0
  0
LINE
  8
0
 62
     0
 10
182.794
 20
72.9326
 30
0.0
 11
182.794
 21
69.832
 31
0.0
  0
LINE
  8
0
 62
     0
 10
182.794
 20
69.832
 30
0.0
 11
183.595
 21
69.832
 31
0.0
  0
LINE
  8
0
 62
     0
 10
183.595
 20
69.832
 30
0.0
 11
183.595
 21
64.032
 31
0.0
  0
LINE
  8
0
 62
     0
 10
183.595
 20
64.032
 30
0.0
 11
182.794
 21
64.032
 31
0.0
  0
LINE
  8
0
 62
     0
 10
182.794
 20
64.032
 30
0.0
 11
182.794
 21
60.9328
 31
0.0
  0
LINE
  8
0
 62
     0
 10
182.794
 20
60.9328
 30
0.0
 11
183.595
 21
60.9328
 31
0.0
  0
LINE
  8
0
 62
     0
 10
183.595
 20
60.9328
 30
0.0
 11
183.595
 21
59.9324
 31
0.0
  0
LINE
  8
0
 62
     0
 10
183.595
 20
59.9324
 30
0.0
 11
197.594
 21
59.9324
 31
0.0
  0
LINE
  8
0
 62
     0
 10
197.594
 20
59.9324
 30
0.0
 11
197.594
 21
60.9328
 31
0.0
  0
LINE
  8
0
 62
     0
 10
197.594
 20
60.9328
 30
0.0
 11
198.395
 21
60.9328
 31
0.0
  0
LINE
  8
0
 62
     0
 10
198.395
 20
60.9328
 30
0.0
 11
198.395
 21
64.032
 31
0.0
  0
LINE
  8
0
 62
     0
 10
198.395
 20
64.032
 30
0.0
 11
197.594
 21
64.032
 31
0.0
  0
LINE
  8
0
 62
     0
 10
197.594
 20
64.032
 30
0.0
 11
197.594
 21
69.832
 31
0.0
  0
LINE
  8
0
 62
     0
 10
197.594
 20
69.832
 30
0.0
 11
198.395
 21
69.832
 31
0.0
  0
LINE
  8
0
 62
     0
 10
198.395
 20
69.832
 30
0.0
 11
198.395
 21
72.9326
 31
0.0
  0
LINE
  8
0
 62
     0
 10
198.395
 20
72.9326
 30
0.0
 11
197.594
 21
72.9326
 31
0.0
  0
LINE
  8
0
 62
     0
 10
197.594
 20
72.9326
 30
0.0
 11
197.594
 21
73.9316
 31
0.0
  0
LINE
  8
0
 62
     0
 10
197.594
 20
73.9316
 30
0.0
 11
183.595
 21
73.9316
 31
0.0
  0
LINE
  8
0
 62
     0
 10
164.545
 20
73.9316
 30
0.0
 11
164.545
 21
72.9326
 31
0.0
  0
LINE
  8
0
 62
     0
 10
164.545
 20
72.9326
 30
0.0
 11
163.744
 21
72.9326
 31
0.0
  0
LINE
  8
0
 62
     0
 10
163.744
 20
72.9326
 30
0.0
 11
163.744
 21
69.832
 31
0.0
  0
LINE
  8
0
 62
     0
 10
163.744
 20
69.832
 30
0.0
 11
164.545
 21
69.832
 31
0.0
  0
LINE
  8
0
 62
     0
 10
164.545
 20
69.832
 30
0.0
 11
164.545
 21
64.032
 31
0.0
  0
LINE
  8
0
 62
     0
 10
164.545
 20
64.032
 30
0.0
 11
163.744
 21
64.032
 31
0.0
  0
LINE
  8
0
 62
     0
 10
163.744
 20
64.032
 30
0.0
 11
163.744
 21
60.9328
 31
0.0
  0
LINE
  8
0
 62
     0
 10
163.744
 20
60.9328
 30
0.0
 11
164.545
 21
60.9328
 31
0.0
  0
LINE
  8
0
 62
     0
 10
164.545
 20
60.9328
 30
0.0
 11
164.545
 21
59.9324
 31
0.0
  0
LINE
  8
0
 62
     0
 10
164.545
 20
59.9324
 30
0.0
 11
178.544
 21
59.9324
 31
0.0
  0
LINE
  8
0
 62
     0
 10
178.544
 20
59.9324
 30
0.0
 11
178.544
 21
60.9328
 31
0.0
  0
LINE
  8
0
 62
     0
 10
178.544
 20
60.9328
 30
0.0
 11
179.345
 21
60.9328
 31
0.0
  0
LINE
  8
0
 62
     0
 10
179.345
 20
60.9328
 30
0.0
 11
179.345
 21
64.032
 31
0.0
  0
LINE
  8
0
 62
     0
 10
179.345
 20
64.032
 30
0.0
 11
178.544
 21
64.032
 31
0.0
  0
LINE
  8
0
 62
     0
 10
178.544
 20
64.032
 30
0.0
 11
178.544
 21
69.832
 31
0.0
  0
LINE
  8
0
 62
     0
 10
178.544
 20
69.832
 30
0.0
 11
179.345
 21
69.832
 31
0.0
  0
LINE
  8
0
 62
     0
 10
179.345
 20
69.832
 30
0.0
 11
179.345
 21
72.9326
 31
0.0
  0
LINE
  8
0
 62
     0
 10
179.345
 20
72.9326
 30
0.0
 11
178.544
 21
72.9326
 31
0.0
  0
LINE
  8
0
 62
     0
 10
178.544
 20
72.9326
 30
0.0
 11
178.544
 21
73.9316
 31
0.0
  0
LINE
  8
0
 62
     0
 10
178.544
 20
73.9316
 30
0.0
 11
164.545
 21
73.9316
 31
0.0
  0
LINE
  8
0
 62
     0
 10
145.495
 20
73.9316
 30
0.0
 11
145.495
 21
72.9326
 31
0.0
  0
LINE
  8
0
 62
     0
 10
145.495
 20
72.9326
 30
0.0
 11
144.694
 21
72.9326
 31
0.0
  0
LINE
  8
0
 62
     0
 10
144.694
 20
72.9326
 30
0.0
 11
144.694
 21
69.832
 31
0.0
  0
LINE
  8
0
 62
     0
 10
144.694
 20
69.832
 30
0.0
 11
145.495
 21
69.832
 31
0.0
  0
LINE
  8
0
 62
     0
 10
145.495
 20
69.832
 30
0.0
 11
145.495
 21
64.032
 31
0.0
  0
LINE
  8
0
 62
     0
 10
145.495
 20
64.032
 30
0.0
 11
144.694
 21
64.032
 31
0.0
  0
LINE
  8
0
 62
     0
 10
144.694
 20
64.032
 30
0.0
 11
144.694
 21
60.9328
 31
0.0
  0
LINE
  8
0
 62
     0
 10
144.694
 20
60.9328
 30
0.0
 11
145.495
 21
60.9328
 31
0.0
  0
LINE
  8
0
 62
     0
 10
145.495
 20
60.9328
 30
0.0
 11
145.495
 21
59.9324
 31
0.0
  0
LINE
  8
0
 62
     0
 10
145.495
 20
59.9324
 30
0.0
 11
159.494
 21
59.9324
 31
0.0
  0
LINE
  8
0
 62
     0
 10
159.494
 20
59.9324
 30
0.0
 11
159.494
 21
60.9328
 31
0.0
  0
LINE
  8
0
 62
     0
 10
159.494
 20
60.9328
 30
0.0
 11
160.295
 21
60.9328
 31
0.0
  0
LINE
  8
0
 62
     0
 10
160.295
 20
60.9328
 30
0.0
 11
160.295
 21
64.032
 31
0.0
  0
LINE
  8
0
 62
     0
 10
160.295
 20
64.032
 30
0.0
 11
159.494
 21
64.032
 31
0.0
  0
LINE
  8
0
 62
     0
 10
159.494
 20
64.032
 30
0.0
 11
159.494
 21
69.832
 31
0.0
  0
LINE
  8
0
 62
     0
 10
159.494
 20
69.832
 30
0.0
 11
160.295
 21
69.832
 31
0.0
  0
LINE
  8
0
 62
     0
 10
160.295
 20
69.832
 30
0.0
 11
160.295
 21
72.9326
 31
0.0
  0
LINE
  8
0
 62
     0
 10
160.295
 20
72.9326
 30
0.0
 11
159.494
 21
72.9326
 31
0.0
  0
LINE
  8
0
 62
     0
 10
159.494
 20
72.9326
 30
0.0
 11
159.494
 21
73.9316
 31
0.0
  0
LINE
  8
0
 62
     0
 10
159.494
 20
73.9316
 30
0.0
 11
145.495
 21
73.9316
 31
0.0
  0
LINE
  8
0
 62
     0
 10
126.445
 20
73.9316
 30
0.0
 11
126.445
 21
72.9326
 31
0.0
  0
LINE
  8
0
 62
     0
 10
126.445
 20
72.9326
 30
0.0
 11
125.644
 21
72.9326
 31
0.0
  0
LINE
  8
0
 62
     0
 10
125.644
 20
72.9326
 30
0.0
 11
125.644
 21
69.832
 31
0.0
  0
LINE
  8
0
 62
     0
 10
125.644
 20
69.832
 30
0.0
 11
126.445
 21
69.832
 31
0.0
  0
LINE
  8
0
 62
     0
 10
126.445
 20
69.832
 30
0.0
 11
126.445
 21
64.032
 31
0.0
  0
LINE
  8
0
 62
     0
 10
126.445
 20
64.032
 30
0.0
 11
125.644
 21
64.032
 31
0.0
  0
LINE
  8
0
 62
     0
 10
125.644
 20
64.032
 30
0.0
 11
125.644
 21
60.9328
 31
0.0
  0
LINE
  8
0
 62
     0
 10
125.644
 20
60.9328
 30
0.0
 11
126.445
 21
60.9328
 31
0.0
  0
LINE
  8
0
 62
     0
 10
126.445
 20
60.9328
 30
0.0
 11
126.445
 21
59.9324
 31
0.0
  0
LINE
  8
0
 62
     0
 10
126.445
 20
59.9324
 30
0.0
 11
140.444
 21
59.9324
 31
0.0
  0
LINE
  8
0
 62
     0
 10
140.444
 20
59.9324
 30
0.0
 11
140.444
 21
60.9328
 31
0.0
  0
LINE
  8
0
 62
     0
 10
140.444
 20
60.9328
 30
0.0
 11
141.245
 21
60.9328
 31
0.0
  0
LINE
  8
0
 62
     0
 10
141.245
 20
60.9328
 30
0.0
 11
141.245
 21
64.032
 31
0.0
  0
LINE
  8
0
 62
     0
 10
141.245
 20
64.032
 30
0.0
 11
140.444
 21
64.032
 31
0.0
  0
LINE
  8
0
 62
     0
 10
140.444
 20
64.032
 30
0.0
 11
140.444
 21
69.832
 31
0.0
  0
LINE
  8
0
 62
     0
 10
140.444
 20
69.832
 30
0.0
 11
141.245
 21
69.832
 31
0.0
  0
LINE
  8
0
 62
     0
 10
141.245
 20
69.832
 30
0.0
 11
141.245
 21
72.9326
 31
0.0
  0
LINE
  8
0
 62
     0
 10
141.245
 20
72.9326
 30
0.0
 11
140.444
 21
72.9326
 31
0.0
  0
LINE
  8
0
 62
     0
 10
140.444
 20
72.9326
 30
0.0
 11
140.444
 21
73.9316
 31
0.0
  0
LINE
  8
0
 62
     0
 10
140.444
 20
73.9316
 30
0.0
 11
126.445
 21
73.9316
 31
0.0
  0
LINE
  8
0
 62
     0
 10
107.395
 20
73.9316
 30
0.0
 11
107.395
 21
72.9326
 31
0.0
  0
LINE
  8
0
 62
     0
 10
107.395
 20
72.9326
 30
0.0
 11
106.594
 21
72.9326
 31
0.0
  0
LINE
  8
0
 62
     0
 10
106.594
 20
72.9326
 30
0.0
 11
106.594
 21
69.832
 31
0.0
  0
LINE
  8
0
 62
     0
 10
106.594
 20
69.832
 30
0.0
 11
107.395
 21
69.832
 31
0.0
  0
LINE
  8
0
 62
     0
 10
107.395
 20
69.832
 30
0.0
 11
107.395
 21
64.032
 31
0.0
  0
LINE
  8
0
 62
     0
 10
107.395
 20
64.032
 30
0.0
 11
106.594
 21
64.032
 31
0.0
  0
LINE
  8
0
 62
     0
 10
106.594
 20
64.032
 30
0.0
 11
106.594
 21
60.9328
 31
0.0
  0
LINE
  8
0
 62
     0
 10
106.594
 20
60.9328
 30
0.0
 11
107.395
 21
60.9328
 31
0.0
  0
LINE
  8
0
 62
     0
 10
107.395
 20
60.9328
 30
0.0
 11
107.395
 21
59.9324
 31
0.0
  0
LINE
  8
0
 62
     0
 10
107.395
 20
59.9324
 30
0.0
 11
121.394
 21
59.9324
 31
0.0
  0
LINE
  8
0
 62
     0
 10
121.394
 20
59.9324
 30
0.0
 11
121.394
 21
60.9328
 31
0.0
  0
LINE
  8
0
 62
     0
 10
121.394
 20
60.9328
 30
0.0
 11
122.195
 21
60.9328
 31
0.0
  0
LINE
  8
0
 62
     0
 10
122.195
 20
60.9328
 30
0.0
 11
122.195
 21
64.032
 31
0.0
  0
LINE
  8
0
 62
     0
 10
122.195
 20
64.032
 30
0.0
 11
121.394
 21
64.032
 31
0.0
  0
LINE
  8
0
 62
     0
 10
121.394
 20
64.032
 30
0.0
 11
121.394
 21
69.832
 31
0.0
  0
LINE
  8
0
 62
     0
 10
121.394
 20
69.832
 30
0.0
 11
122.195
 21
69.832
 31
0.0
  0
LINE
  8
0
 62
     0
 10
122.195
 20
69.832
 30
0.0
 11
122.195
 21
72.9326
 31
0.0
  0
LINE
  8
0
 62
     0
 10
122.195
 20
72.9326
 30
0.0
 11
121.394
 21
72.9326
 31
0.0
  0
LINE
  8
0
 62
     0
 10
121.394
 20
72.9326
 30
0.0
 11
121.394
 21
73.9316
 31
0.0
  0
LINE
  8
0
 62
     0
 10
121.394
 20
73.9316
 30
0.0
 11
107.395
 21
73.9316
 31
0.0
  0
LINE
  8
0
 62
     0
 10
88.3447
 20
73.9316
 30
0.0
 11
88.3447
 21
72.9326
 31
0.0
  0
LINE
  8
0
 62
     0
 10
88.3447
 20
72.9326
 30
0.0
 11
87.5439
 21
72.9326
 31
0.0
  0
LINE
  8
0
 62
     0
 10
87.5439
 20
72.9326
 30
0.0
 11
87.5439
 21
69.832
 31
0.0
  0
LINE
  8
0
 62
     0
 10
87.5439
 20
69.832
 30
0.0
 11
88.3447
 21
69.832
 31
0.0
  0
LINE
  8
0
 62
     0
 10
88.3447
 20
69.832
 30
0.0
 11
88.3447
 21
64.032
 31
0.0
  0
LINE
  8
0
 62
     0
 10
88.3447
 20
64.032
 30
0.0
 11
87.5439
 21
64.032
 31
0.0
  0
LINE
  8
0
 62
     0
 10
87.5439
 20
64.032
 30
0.0
 11
87.5439
 21
60.9328
 31
0.0
  0
LINE
  8
0
 62
     0
 10
87.5439
 20
60.9328
 30
0.0
 11
88.3447
 21
60.9328
 31
0.0
  0
LINE
  8
0
 62
     0
 10
88.3447
 20
60.9328
 30
0.0
 11
88.3447
 21
59.9324
 31
0.0
  0
LINE
  8
0
 62
     0
 10
88.3447
 20
59.9324
 30
0.0
 11
102.344
 21
59.9324
 31
0.0
  0
LINE
  8
0
 62
     0
 10
102.344
 20
59.9324
 30
0.0
 11
102.344
 21
60.9328
 31
0.0
  0
LINE
  8
0
 62
     0
 10
102.344
 20
60.9328
 30
0.0
 11
103.145
 21
60.9328
 31
0.0
  0
LINE
  8
0
 62
     0
 10
103.145
 20
60.9328
 30
0.0
 11
103.145
 21
64.032
 31
0.0
  0
LINE
  8
0
 62
     0
 10
103.145
 20
64.032
 30
0.0
 11
102.344
 21
64.032
 31
0.0
  0
LINE
  8
0
 62
     0
 10
102.344
 20
64.032
 30
0.0
 11
102.344
 21
69.832
 31
0.0
  0
LINE
  8
0
 62
     0
 10
102.344
 20
69.832
 30
0.0
 11
103.145
 21
69.832
 31
0.0
  0
LINE
  8
0
 62
     0
 10
103.145
 20
69.832
 30
0.0
 11
103.145
 21
72.9326
 31
0.0
  0
LINE
  8
0
 62
     0
 10
103.145
 20
72.9326
 30
0.0
 11
102.344
 21
72.9326
 31
0.0
  0
LINE
  8
0
 62
     0
 10
102.344
 20
72.9326
 30
0.0
 11
102.344
 21
73.9316
 31
0.0
  0
LINE
  8
0
 62
     0
 10
102.344
 20
73.9316
 30
0.0
 11
88.3447
 21
73.9316
 31
0.0
  0
LINE
  8
0
 62
     0
 10
69.2947
 20
73.9316
 30
0.0
 11
69.2947
 21
72.9326
 31
0.0
  0
LINE
  8
0
 62
     0
 10
69.2947
 20
72.9326
 30
0.0
 11
68.4939
 21
72.9326
 31
0.0
  0
LINE
  8
0
 62
     0
 10
68.4939
 20
72.9326
 30
0.0
 11
68.4939
 21
69.832
 31
0.0
  0
LINE
  8
0
 62
     0
 10
68.4939
 20
69.832
 30
0.0
 11
69.2947
 21
69.832
 31
0.0
  0
LINE
  8
0
 62
     0
 10
69.2947
 20
69.832
 30
0.0
 11
69.2947
 21
64.032
 31
0.0
  0
LINE
  8
0
 62
     0
 10
69.2947
 20
64.032
 30
0.0
 11
68.4939
 21
64.032
 31
0.0
  0
LINE
  8
0
 62
     0
 10
68.4939
 20
64.032
 30
0.0
 11
68.4939
 21
60.9328
 31
0.0
  0
LINE
  8
0
 62
     0
 10
68.4939
 20
60.9328
 30
0.0
 11
69.2947
 21
60.9328
 31
0.0
  0
LINE
  8
0
 62
     0
 10
69.2947
 20
60.9328
 30
0.0
 11
69.2947
 21
59.9324
 31
0.0
  0
LINE
  8
0
 62
     0
 10
69.2947
 20
59.9324
 30
0.0
 11
83.294
 21
59.9324
 31
0.0
  0
LINE
  8
0
 62
     0
 10
83.294
 20
59.9324
 30
0.0
 11
83.294
 21
60.9328
 31
0.0
  0
LINE
  8
0
 62
     0
 10
83.294
 20
60.9328
 30
0.0
 11
84.0948
 21
60.9328
 31
0.0
  0
LINE
  8
0
 62
     0
 10
84.0948
 20
60.9328
 30
0.0
 11
84.0948
 21
64.032
 31
0.0
  0
LINE
  8
0
 62
     0
 10
84.0948
 20
64.032
 30
0.0
 11
83.294
 21
64.032
 31
0.0
  0
LINE
  8
0
 62
     0
 10
83.294
 20
64.032
 30
0.0
 11
83.294
 21
69.832
 31
0.0
  0
LINE
  8
0
 62
     0
 10
83.294
 20
69.832
 30
0.0
 11
84.0948
 21
69.832
 31
0.0
  0
LINE
  8
0
 62
     0
 10
84.0948
 20
69.832
 30
0.0
 11
84.0948
 21
72.9326
 31
0.0
  0
LINE
  8
0
 62
     0
 10
84.0948
 20
72.9326
 30
0.0
 11
83.294
 21
72.9326
 31
0.0
  0
LINE
  8
0
 62
     0
 10
83.294
 20
72.9326
 30
0.0
 11
83.294
 21
73.9316
 31
0.0
  0
LINE
  8
0
 62
     0
 10
83.294
 20
73.9316
 30
0.0
 11
69.2947
 21
73.9316
 31
0.0
  0
LINE
  8
0
 62
     0
 10
50.2447
 20
73.9316
 30
0.0
 11
50.2447
 21
72.9326
 31
0.0
  0
LINE
  8
0
 62
     0
 10
50.2447
 20
72.9326
 30
0.0
 11
49.4439
 21
72.9326
 31
0.0
  0
LINE
  8
0
 62
     0
 10
49.4439
 20
72.9326
 30
0.0
 11
49.4439
 21
69.832
 31
0.0
  0
LINE
  8
0
 62
     0
 10
49.4439
 20
69.832
 30
0.0
 11
50.2447
 21
69.832
 31
0.0
  0
LINE
  8
0
 62
     0
 10
50.2447
 20
69.832
 30
0.0
 11
50.2447
 21
64.032
 31
0.0
  0
LINE
  8
0
 62
     0
 10
50.2447
 20
64.032
 30
0.0
 11
49.4439
 21
64.032
 31
0.0
  0
LINE
  8
0
 62
     0
 10
49.4439
 20
64.032
 30
0.0
 11
49.4439
 21
60.9328
 31
0.0
  0
LINE
  8
0
 62
     0
 10
49.4439
 20
60.9328
 30
0.0
 11
50.2447
 21
60.9328
 31
0.0
  0
LINE
  8
0
 62
     0
 10
50.2447
 20
60.9328
 30
0.0
 11
50.2447
 21
59.9324
 31
0.0
  0
LINE
  8
0
 62
     0
 10
50.2447
 20
59.9324
 30
0.0
 11
64.244
 21
59.9324
 31
0.0
  0
LINE
  8
0
 62
     0
 10
64.244
 20
59.9324
 30
0.0
 11
64.244
 21
60.9328
 31
0.0
  0
LINE
  8
0
 62
     0
 10
64.244
 20
60.9328
 30
0.0
 11
65.0448
 21
60.9328
 31
0.0
  0
LINE
  8
0
 62
     0
 10
65.0448
 20
60.9328
 30
0.0
 11
65.0448
 21
64.032
 31
0.0
  0
LINE
  8
0
 62
     0
 10
65.0448
 20
64.032
 30
0.0
 11
64.244
 21
64.032
 31
0.0
  0
LINE
  8
0
 62
     0
 10
64.244
 20
64.032
 30
0.0
 11
64.244
 21
69.832
 31
0.0
  0
LINE
  8
0
 62
     0
 10
64.244
 20
69.832
 30
0.0
 11
65.0448
 21
69.832
 31
0.0
  0
LINE
  8
0
 62
     0
 10
65.0448
 20
69.832
 30
0.0
 11
65.0448
 21
72.9326
 31
0.0
  0
LINE
  8
0
 62
     0
 10
65.0448
 20
72.9326
 30
0.0
 11
64.244
 21
72.9326
 31
0.0
  0
LINE
  8
0
 62
     0
 10
64.244
 20
72.9326
 30
0.0
 11
64.244
 21
73.9316
 31
0.0
  0
LINE
  8
0
 62
     0
 10
64.244
 20
73.9316
 30
0.0
 11
50.2447
 21
73.9316
 31
0.0
  0
LINE
  8
0
 62
     0
 10
31.1947
 20
73.9316
 30
0.0
 11
31.1947
 21
72.9326
 31
0.0
  0
LINE
  8
0
 62
     0
 10
31.1947
 20
72.9326
 30
0.0
 11
30.394
 21
72.9326
 31
0.0
  0
LINE
  8
0
 62
     0
 10
30.394
 20
72.9326
 30
0.0
 11
30.394
 21
69.832
 31
0.0
  0
LINE
  8
0
 62
     0
 10
30.394
 20
69.832
 30
0.0
 11
31.1947
 21
69.832
 31
0.0
  0
LINE
  8
0
 62
     0
 10
31.1947
 20
69.832
 30
0.0
 11
31.1947
 21
64.032
 31
0.0
  0
LINE
  8
0
 62
     0
 10
31.1947
 20
64.032
 30
0.0
 11
30.394
 21
64.032
 31
0.0
  0
LINE
  8
0
 62
     0
 10
30.394
 20
64.032
 30
0.0
 11
30.394
 21
60.9328
 31
0.0
  0
LINE
  8
0
 62
     0
 10
30.394
 20
60.9328
 30
0.0
 11
31.1947
 21
60.9328
 31
0.0
  0
LINE
  8
0
 62
     0
 10
31.1947
 20
60.9328
 30
0.0
 11
31.1947
 21
59.9324
 31
0.0
  0
LINE
  8
0
 62
     0
 10
31.1947
 20
59.9324
 30
0.0
 11
45.194
 21
59.9324
 31
0.0
  0
LINE
  8
0
 62
     0
 10
45.194
 20
59.9324
 30
0.0
 11
45.194
 21
60.9328
 31
0.0
  0
LINE
  8
0
 62
     0
 10
45.194
 20
60.9328
 30
0.0
 11
45.9948
 21
60.9328
 31
0.0
  0
LINE
  8
0
 62
     0
 10
45.9948
 20
60.9328
 30
0.0
 11
45.9948
 21
64.032
 31
0.0
  0
LINE
  8
0
 62
     0
 10
45.9948
 20
64.032
 30
0.0
 11
45.194
 21
64.032
 31
0.0
  0
LINE
  8
0
 62
     0
 10
45.194
 20
64.032
 30
0.0
 11
45.194
 21
69.832
 31
0.0
  0
LINE
  8
0
 62
     0
 10
45.194
 20
69.832
 30
0.0
 11
45.9948
 21
69.832
 31
0.0
  0
LINE
  8
0
 62
     0
 10
45.9948
 20
69.832
 30
0.0
 11
45.9948
 21
72.9326
 31
0.0
  0
LINE
  8
0
 62
     0
 10
45.9948
 20
72.9326
 30
0.0
 11
45.194
 21
72.9326
 31
0.0
  0
LINE
  8
0
 62
     0
 10
45.194
 20
72.9326
 30
0.0
 11
45.194
 21
73.9316
 31
0.0
  0
LINE
  8
0
 62
     0
 10
45.194
 20
73.9316
 30
0.0
 11
31.1947
 21
73.9316
 31
0.0
  0
LINE
  8
0
 62
     0
 10
7.38216
 20
73.9316
 30
0.0
 11
7.38216
 21
72.9326
 31
0.0
  0
LINE
  8
0
 62
     0
 10
7.38216
 20
72.9326
 30
0.0
 11
6.58153
 21
72.9326
 31
0.0
  0
LINE
  8
0
 62
     0
 10
6.58153
 20
72.9326
 30
0.0
 11
6.58153
 21
69.832
 31
0.0
  0
LINE
  8
0
 62
     0
 10
6.58153
 20
69.832
 30
0.0
 11
7.38216
 21
69.832
 31
0.0
  0
LINE
  8
0
 62
     0
 10
7.38216
 20
69.832
 30
0.0
 11
7.38216
 21
64.032
 31
0.0
  0
LINE
  8
0
 62
     0
 10
7.38216
 20
64.032
 30
0.0
 11
6.58153
 21
64.032
 31
0.0
  0
LINE
  8
0
 62
     0
 10
6.58153
 20
64.032
 30
0.0
 11
6.58153
 21
60.9328
 31
0.0
  0
LINE
  8
0
 62
     0
 10
6.58153
 20
60.9328
 30
0.0
 11
7.38216
 21
60.9328
 31
0.0
  0
LINE
  8
0
 62
     0
 10
7.38216
 20
60.9328
 30
0.0
 11
7.38216
 21
59.9324
 31
0.0
  0
LINE
  8
0
 62
     0
 10
7.38216
 20
59.9324
 30
0.0
 11
21.3817
 21
59.9324
 31
0.0
  0
LINE
  8
0
 62
     0
 10
21.3817
 20
59.9324
 30
0.0
 11
21.3817
 21
60.9328
 31
0.0
  0
LINE
  8
0
 62
     0
 10
21.3817
 20
60.9328
 30
0.0
 11
22.1809
 21
60.9328
 31
0.0
  0
LINE
  8
0
 62
     0
 10
22.1809
 20
60.9328
 30
0.0
 11
22.1809
 21
64.032
 31
0.0
  0
LINE
  8
0
 62
     0
 10
22.1809
 20
64.032
 30
0.0
 11
21.3817
 21
64.032
 31
0.0
  0
LINE
  8
0
 62
     0
 10
21.3817
 20
64.032
 30
0.0
 11
21.3817
 21
69.832
 31
0.0
  0
LINE
  8
0
 62
     0
 10
21.3817
 20
69.832
 30
0.0
 11
22.1809
 21
69.832
 31
0.0
  0
LINE
  8
0
 62
     0
 10
22.1809
 20
69.832
 30
0.0
 11
22.1809
 21
72.9326
 31
0.0
  0
LINE
  8
0
 62
     0
 10
22.1809
 20
72.9326
 30
0.0
 11
21.3817
 21
72.9326
 31
0.0
  0
LINE
  8
0
 62
     0
 10
21.3817
 20
72.9326
 30
0.0
 11
21.3817
 21
73.9316
 31
0.0
  0
LINE
  8
0
 62
     0
 10
21.3817
 20
73.9316
 30
0.0
 11
7.38216
 21
73.9316
 31
0.0
  0
ENDSEC
  0
EOF
