G04 #@! TF.GenerationSoftware,KiCad,Pcbnew,5.1.4+dfsg1-1*
G04 #@! TF.CreationDate,2020-03-28T17:11:53+01:00*
G04 #@! TF.ProjectId,roni4x4ergo,726f6e69-3478-4346-9572-676f2e6b6963,rev?*
G04 #@! TF.SameCoordinates,Original*
G04 #@! TF.FileFunction,Legend,Bot*
G04 #@! TF.FilePolarity,Positive*
%FSLAX46Y46*%
G04 Gerber Fmt 4.6, Leading zero omitted, Abs format (unit mm)*
G04 Created by KiCad (PCBNEW 5.1.4+dfsg1-1) date 2020-03-28 17:11:53*
%MOMM*%
%LPD*%
G04 APERTURE LIST*
%ADD10C,0.150000*%
%ADD11C,0.152400*%
%ADD12R,1.702000X1.702000*%
%ADD13R,1.052000X1.402000*%
%ADD14R,1.499000X1.499000*%
%ADD15C,1.499000*%
%ADD16C,4.089800*%
%ADD17C,3.150000*%
%ADD18C,4.502000*%
%ADD19R,1.245000X0.737000*%
%ADD20C,2.102000*%
%ADD21R,1.402000X1.052000*%
%ADD22C,2.388000*%
%ADD23C,1.803800*%
%ADD24C,1.626000*%
G04 APERTURE END LIST*
D10*
X84131900Y-59127500D02*
X84631900Y-60027500D01*
X84631900Y-60027500D02*
X83631900Y-60027500D01*
X83631900Y-60027500D02*
X84131900Y-59127500D01*
X84631900Y-59027500D02*
X83631900Y-59027500D01*
X84881900Y-62227500D02*
X84881900Y-56827500D01*
X84881900Y-56827500D02*
X83381900Y-56827500D01*
X83381900Y-56827500D02*
X83381900Y-62227500D01*
X83381900Y-62227500D02*
X84881900Y-62227500D01*
X78875146Y-51744690D02*
X78875146Y-49458690D01*
X78875146Y-49458690D02*
X77097146Y-49458690D01*
X77097146Y-49458690D02*
X77097146Y-51744690D01*
X77097146Y-51744690D02*
X78875146Y-51744690D01*
X75509642Y-51744690D02*
X77287642Y-51744690D01*
X75509642Y-49458690D02*
X75509642Y-51744690D01*
X77287642Y-49458690D02*
X75509642Y-49458690D01*
X77287642Y-51744690D02*
X77287642Y-49458690D01*
X75501700Y-51744690D02*
X75501700Y-49458690D01*
X75501700Y-49458690D02*
X73723700Y-49458690D01*
X73723700Y-49458690D02*
X73723700Y-51744690D01*
X73723700Y-51744690D02*
X75501700Y-51744690D01*
X71937758Y-51744690D02*
X73715758Y-51744690D01*
X71937758Y-49458690D02*
X71937758Y-51744690D01*
X73715758Y-49458690D02*
X71937758Y-49458690D01*
X73715758Y-51744690D02*
X73715758Y-49458690D01*
X83240782Y-70993176D02*
X83240782Y-68707176D01*
X83240782Y-68707176D02*
X81462782Y-68707176D01*
X81462782Y-68707176D02*
X81462782Y-70993176D01*
X81462782Y-70993176D02*
X83240782Y-70993176D01*
X79676840Y-70993176D02*
X81454840Y-70993176D01*
X79676840Y-68707176D02*
X79676840Y-70993176D01*
X81454840Y-68707176D02*
X79676840Y-68707176D01*
X81454840Y-70993176D02*
X81454840Y-68707176D01*
X79668898Y-70993176D02*
X79668898Y-68707176D01*
X79668898Y-68707176D02*
X77890898Y-68707176D01*
X77890898Y-68707176D02*
X77890898Y-70993176D01*
X77890898Y-70993176D02*
X79668898Y-70993176D01*
X76104956Y-70993176D02*
X77882956Y-70993176D01*
X76104956Y-68707176D02*
X76104956Y-70993176D01*
X77882956Y-68707176D02*
X76104956Y-68707176D01*
X77882956Y-70993176D02*
X77882956Y-68707176D01*
X141779980Y-31400832D02*
X140001980Y-31400832D01*
X141779980Y-33686832D02*
X141779980Y-31400832D01*
X140001980Y-33686832D02*
X141779980Y-33686832D01*
X140001980Y-31400832D02*
X140001980Y-33686832D01*
X138216038Y-31400832D02*
X138216038Y-33686832D01*
X138216038Y-33686832D02*
X139994038Y-33686832D01*
X139994038Y-33686832D02*
X139994038Y-31400832D01*
X139994038Y-31400832D02*
X138216038Y-31400832D01*
X136430096Y-31400832D02*
X136430096Y-33686832D01*
X136430096Y-33686832D02*
X138208096Y-33686832D01*
X138208096Y-33686832D02*
X138208096Y-31400832D01*
X138208096Y-31400832D02*
X136430096Y-31400832D01*
X136422154Y-31400832D02*
X134644154Y-31400832D01*
X136422154Y-33686832D02*
X136422154Y-31400832D01*
X134644154Y-33686832D02*
X136422154Y-33686832D01*
X134644154Y-31400832D02*
X134644154Y-33686832D01*
X135636344Y-51943128D02*
X137414344Y-51943128D01*
X135636344Y-49657128D02*
X135636344Y-51943128D01*
X137414344Y-49657128D02*
X135636344Y-49657128D01*
X137414344Y-51943128D02*
X137414344Y-49657128D01*
X137422286Y-51943128D02*
X139200286Y-51943128D01*
X137422286Y-49657128D02*
X137422286Y-51943128D01*
X139200286Y-49657128D02*
X137422286Y-49657128D01*
X139200286Y-51943128D02*
X139200286Y-49657128D01*
X140986228Y-51943128D02*
X140986228Y-49657128D01*
X140986228Y-49657128D02*
X139208228Y-49657128D01*
X139208228Y-49657128D02*
X139208228Y-51943128D01*
X139208228Y-51943128D02*
X140986228Y-51943128D01*
X140994170Y-51943128D02*
X142772170Y-51943128D01*
X140994170Y-49657128D02*
X140994170Y-51943128D01*
X142772170Y-49657128D02*
X140994170Y-49657128D01*
X142772170Y-51943128D02*
X142772170Y-49657128D01*
X103012500Y-15786600D02*
X103012500Y-16036600D01*
X103012500Y-16036600D02*
X97012500Y-16036600D01*
X97012500Y-16036600D02*
X97012500Y-15786600D01*
X97012500Y-12786600D02*
X97012500Y-12536600D01*
X97012500Y-12536600D02*
X103012500Y-12536600D01*
X103012500Y-12536600D02*
X103012500Y-12786600D01*
X84131900Y-21029900D02*
X84631900Y-21929900D01*
X84631900Y-21929900D02*
X83631900Y-21929900D01*
X83631900Y-21929900D02*
X84131900Y-21029900D01*
X84631900Y-20929900D02*
X83631900Y-20929900D01*
X84881900Y-24129900D02*
X84881900Y-18729900D01*
X84881900Y-18729900D02*
X83381900Y-18729900D01*
X83381900Y-18729900D02*
X83381900Y-24129900D01*
X83381900Y-24129900D02*
X84881900Y-24129900D01*
X84131900Y-40078700D02*
X84631900Y-40978700D01*
X84631900Y-40978700D02*
X83631900Y-40978700D01*
X83631900Y-40978700D02*
X84131900Y-40078700D01*
X84631900Y-39978700D02*
X83631900Y-39978700D01*
X84881900Y-43178700D02*
X84881900Y-37778700D01*
X84881900Y-37778700D02*
X83381900Y-37778700D01*
X83381900Y-37778700D02*
X83381900Y-43178700D01*
X83381900Y-43178700D02*
X84881900Y-43178700D01*
X77989258Y-87114282D02*
X77089258Y-87614282D01*
X77089258Y-87614282D02*
X77089258Y-86614282D01*
X77089258Y-86614282D02*
X77989258Y-87114282D01*
X78089258Y-87614282D02*
X78089258Y-86614282D01*
X74889258Y-87864282D02*
X80289258Y-87864282D01*
X80289258Y-87864282D02*
X80289258Y-86364282D01*
X80289258Y-86364282D02*
X74889258Y-86364282D01*
X74889258Y-86364282D02*
X74889258Y-87864282D01*
X110420750Y-24180450D02*
X111920750Y-24180450D01*
X110420750Y-18780450D02*
X110420750Y-24180450D01*
X111920750Y-18780450D02*
X110420750Y-18780450D01*
X111920750Y-24180450D02*
X111920750Y-18780450D01*
X111670750Y-20980450D02*
X110670750Y-20980450D01*
X110670750Y-21980450D02*
X111170750Y-21080450D01*
X111670750Y-21980450D02*
X110670750Y-21980450D01*
X111170750Y-21080450D02*
X111670750Y-21980450D01*
X110420750Y-43441300D02*
X111920750Y-43441300D01*
X110420750Y-38041300D02*
X110420750Y-43441300D01*
X111920750Y-38041300D02*
X110420750Y-38041300D01*
X111920750Y-43441300D02*
X111920750Y-38041300D01*
X111670750Y-40241300D02*
X110670750Y-40241300D01*
X110670750Y-41241300D02*
X111170750Y-40341300D01*
X111670750Y-41241300D02*
X110670750Y-41241300D01*
X111170750Y-40341300D02*
X111670750Y-41241300D01*
X107193200Y-62227500D02*
X108693200Y-62227500D01*
X107193200Y-56827500D02*
X107193200Y-62227500D01*
X108693200Y-56827500D02*
X107193200Y-56827500D01*
X108693200Y-62227500D02*
X108693200Y-56827500D01*
X108443200Y-59027500D02*
X107443200Y-59027500D01*
X107443200Y-60027500D02*
X107943200Y-59127500D01*
X108443200Y-60027500D02*
X107443200Y-60027500D01*
X107943200Y-59127500D02*
X108443200Y-60027500D01*
X106837776Y-86364282D02*
X106837776Y-87864282D01*
X112237776Y-86364282D02*
X106837776Y-86364282D01*
X112237776Y-87864282D02*
X112237776Y-86364282D01*
X106837776Y-87864282D02*
X112237776Y-87864282D01*
X110037776Y-87614282D02*
X110037776Y-86614282D01*
X109037776Y-86614282D02*
X109937776Y-87114282D01*
X109037776Y-87614282D02*
X109037776Y-86614282D01*
X109937776Y-87114282D02*
X109037776Y-87614282D01*
X126992000Y-23411150D02*
X127492000Y-24311150D01*
X127492000Y-24311150D02*
X126492000Y-24311150D01*
X126492000Y-24311150D02*
X126992000Y-23411150D01*
X127492000Y-23311150D02*
X126492000Y-23311150D01*
X127742000Y-26511150D02*
X127742000Y-21111150D01*
X127742000Y-21111150D02*
X126242000Y-21111150D01*
X126242000Y-21111150D02*
X126242000Y-26511150D01*
X126242000Y-26511150D02*
X127742000Y-26511150D01*
X126992000Y-40078700D02*
X127492000Y-40978700D01*
X127492000Y-40978700D02*
X126492000Y-40978700D01*
X126492000Y-40978700D02*
X126992000Y-40078700D01*
X127492000Y-39978700D02*
X126492000Y-39978700D01*
X127742000Y-43178700D02*
X127742000Y-37778700D01*
X127742000Y-37778700D02*
X126242000Y-37778700D01*
X126242000Y-37778700D02*
X126242000Y-43178700D01*
X126242000Y-43178700D02*
X127742000Y-43178700D01*
X126992000Y-59127500D02*
X127492000Y-60027500D01*
X127492000Y-60027500D02*
X126492000Y-60027500D01*
X126492000Y-60027500D02*
X126992000Y-59127500D01*
X127492000Y-59027500D02*
X126492000Y-59027500D01*
X127742000Y-62227500D02*
X127742000Y-56827500D01*
X127742000Y-56827500D02*
X126242000Y-56827500D01*
X126242000Y-56827500D02*
X126242000Y-62227500D01*
X126242000Y-62227500D02*
X127742000Y-62227500D01*
X111279966Y-59411094D02*
X109779966Y-59411094D01*
X111279966Y-64811094D02*
X111279966Y-59411094D01*
X109779966Y-64811094D02*
X111279966Y-64811094D01*
X109779966Y-59411094D02*
X109779966Y-64811094D01*
X110029966Y-62611094D02*
X111029966Y-62611094D01*
X111029966Y-61611094D02*
X110529966Y-62511094D01*
X110029966Y-61611094D02*
X111029966Y-61611094D01*
X110529966Y-62511094D02*
X110029966Y-61611094D01*
X129416800Y-26511150D02*
X130916800Y-26511150D01*
X129416800Y-21111150D02*
X129416800Y-26511150D01*
X130916800Y-21111150D02*
X129416800Y-21111150D01*
X130916800Y-26511150D02*
X130916800Y-21111150D01*
X130666800Y-23311150D02*
X129666800Y-23311150D01*
X129666800Y-24311150D02*
X130166800Y-23411150D01*
X130666800Y-24311150D02*
X129666800Y-24311150D01*
X130166800Y-23411150D02*
X130666800Y-24311150D01*
X129416800Y-43178700D02*
X130916800Y-43178700D01*
X129416800Y-37778700D02*
X129416800Y-43178700D01*
X130916800Y-37778700D02*
X129416800Y-37778700D01*
X130916800Y-43178700D02*
X130916800Y-37778700D01*
X130666800Y-39978700D02*
X129666800Y-39978700D01*
X129666800Y-40978700D02*
X130166800Y-40078700D01*
X130666800Y-40978700D02*
X129666800Y-40978700D01*
X130166800Y-40078700D02*
X130666800Y-40978700D01*
X129416800Y-62227500D02*
X130916800Y-62227500D01*
X129416800Y-56827500D02*
X129416800Y-62227500D01*
X130916800Y-56827500D02*
X129416800Y-56827500D01*
X130916800Y-62227500D02*
X130916800Y-56827500D01*
X130666800Y-59027500D02*
X129666800Y-59027500D01*
X129666800Y-60027500D02*
X130166800Y-59127500D01*
X130666800Y-60027500D02*
X129666800Y-60027500D01*
X130166800Y-59127500D02*
X130666800Y-60027500D01*
X131362832Y-87114282D02*
X132262832Y-86614282D01*
X132262832Y-86614282D02*
X132262832Y-87614282D01*
X132262832Y-87614282D02*
X131362832Y-87114282D01*
X131262832Y-86614282D02*
X131262832Y-87614282D01*
X134462832Y-86364282D02*
X129062832Y-86364282D01*
X129062832Y-86364282D02*
X129062832Y-87864282D01*
X129062832Y-87864282D02*
X134462832Y-87864282D01*
X134462832Y-87864282D02*
X134462832Y-86364282D01*
X83194900Y-28223600D02*
X83194900Y-29223600D01*
X83194900Y-15223600D02*
X83194900Y-16223600D01*
X82194900Y-15223600D02*
X83194900Y-15223600D01*
X69194900Y-16223600D02*
X69194900Y-15223600D01*
X69194900Y-15223600D02*
X70194900Y-15223600D01*
X69194900Y-29223600D02*
X69194900Y-28223600D01*
X70194900Y-29223600D02*
X69194900Y-29223600D01*
X83194900Y-29223600D02*
X82194900Y-29223600D01*
X83194900Y-48272400D02*
X82194900Y-48272400D01*
X70194900Y-48272400D02*
X69194900Y-48272400D01*
X69194900Y-48272400D02*
X69194900Y-47272400D01*
X69194900Y-34272400D02*
X70194900Y-34272400D01*
X69194900Y-35272400D02*
X69194900Y-34272400D01*
X82194900Y-34272400D02*
X83194900Y-34272400D01*
X83194900Y-34272400D02*
X83194900Y-35272400D01*
X83194900Y-47272400D02*
X83194900Y-48272400D01*
X83194900Y-66321200D02*
X83194900Y-67321200D01*
X83194900Y-53321200D02*
X83194900Y-54321200D01*
X82194900Y-53321200D02*
X83194900Y-53321200D01*
X69194900Y-54321200D02*
X69194900Y-53321200D01*
X69194900Y-53321200D02*
X70194900Y-53321200D01*
X69194900Y-67321200D02*
X69194900Y-66321200D01*
X70194900Y-67321200D02*
X69194900Y-67321200D01*
X83194900Y-67321200D02*
X82194900Y-67321200D01*
X83194900Y-85370000D02*
X83194900Y-86370000D01*
X83194900Y-72370000D02*
X83194900Y-73370000D01*
X82194900Y-72370000D02*
X83194900Y-72370000D01*
X69194900Y-73370000D02*
X69194900Y-72370000D01*
X69194900Y-72370000D02*
X70194900Y-72370000D01*
X69194900Y-86370000D02*
X69194900Y-85370000D01*
X70194900Y-86370000D02*
X69194900Y-86370000D01*
X83194900Y-86370000D02*
X82194900Y-86370000D01*
X107006200Y-28223600D02*
X107006200Y-29223600D01*
X107006200Y-15223600D02*
X107006200Y-16223600D01*
X106006200Y-15223600D02*
X107006200Y-15223600D01*
X93006200Y-16223600D02*
X93006200Y-15223600D01*
X93006200Y-15223600D02*
X94006200Y-15223600D01*
X93006200Y-29223600D02*
X93006200Y-28223600D01*
X94006200Y-29223600D02*
X93006200Y-29223600D01*
X107006200Y-29223600D02*
X106006200Y-29223600D01*
X107006200Y-48272400D02*
X106006200Y-48272400D01*
X94006200Y-48272400D02*
X93006200Y-48272400D01*
X93006200Y-48272400D02*
X93006200Y-47272400D01*
X93006200Y-34272400D02*
X94006200Y-34272400D01*
X93006200Y-35272400D02*
X93006200Y-34272400D01*
X106006200Y-34272400D02*
X107006200Y-34272400D01*
X107006200Y-34272400D02*
X107006200Y-35272400D01*
X107006200Y-47272400D02*
X107006200Y-48272400D01*
X107006200Y-67321200D02*
X106006200Y-67321200D01*
X94006200Y-67321200D02*
X93006200Y-67321200D01*
X93006200Y-67321200D02*
X93006200Y-66321200D01*
X93006200Y-53321200D02*
X94006200Y-53321200D01*
X93006200Y-54321200D02*
X93006200Y-53321200D01*
X106006200Y-53321200D02*
X107006200Y-53321200D01*
X107006200Y-53321200D02*
X107006200Y-54321200D01*
X107006200Y-66321200D02*
X107006200Y-67321200D01*
X107006200Y-86370000D02*
X106006200Y-86370000D01*
X94006200Y-86370000D02*
X93006200Y-86370000D01*
X93006200Y-86370000D02*
X93006200Y-85370000D01*
X93006200Y-72370000D02*
X94006200Y-72370000D01*
X93006200Y-73370000D02*
X93006200Y-72370000D01*
X106006200Y-72370000D02*
X107006200Y-72370000D01*
X107006200Y-72370000D02*
X107006200Y-73370000D01*
X107006200Y-85370000D02*
X107006200Y-86370000D01*
X126055000Y-29223600D02*
X125055000Y-29223600D01*
X113055000Y-29223600D02*
X112055000Y-29223600D01*
X112055000Y-29223600D02*
X112055000Y-28223600D01*
X112055000Y-15223600D02*
X113055000Y-15223600D01*
X112055000Y-16223600D02*
X112055000Y-15223600D01*
X125055000Y-15223600D02*
X126055000Y-15223600D01*
X126055000Y-15223600D02*
X126055000Y-16223600D01*
X126055000Y-28223600D02*
X126055000Y-29223600D01*
X126055000Y-47272400D02*
X126055000Y-48272400D01*
X126055000Y-34272400D02*
X126055000Y-35272400D01*
X125055000Y-34272400D02*
X126055000Y-34272400D01*
X112055000Y-35272400D02*
X112055000Y-34272400D01*
X112055000Y-34272400D02*
X113055000Y-34272400D01*
X112055000Y-48272400D02*
X112055000Y-47272400D01*
X113055000Y-48272400D02*
X112055000Y-48272400D01*
X126055000Y-48272400D02*
X125055000Y-48272400D01*
X126055000Y-66321200D02*
X126055000Y-67321200D01*
X126055000Y-53321200D02*
X126055000Y-54321200D01*
X125055000Y-53321200D02*
X126055000Y-53321200D01*
X112055000Y-54321200D02*
X112055000Y-53321200D01*
X112055000Y-53321200D02*
X113055000Y-53321200D01*
X112055000Y-67321200D02*
X112055000Y-66321200D01*
X113055000Y-67321200D02*
X112055000Y-67321200D01*
X126055000Y-67321200D02*
X125055000Y-67321200D01*
X126055000Y-85370000D02*
X126055000Y-86370000D01*
X126055000Y-72370000D02*
X126055000Y-73370000D01*
X125055000Y-72370000D02*
X126055000Y-72370000D01*
X112055000Y-73370000D02*
X112055000Y-72370000D01*
X112055000Y-72370000D02*
X113055000Y-72370000D01*
X112055000Y-86370000D02*
X112055000Y-85370000D01*
X113055000Y-86370000D02*
X112055000Y-86370000D01*
X126055000Y-86370000D02*
X125055000Y-86370000D01*
X145103800Y-28223600D02*
X145103800Y-29223600D01*
X145103800Y-15223600D02*
X145103800Y-16223600D01*
X144103800Y-15223600D02*
X145103800Y-15223600D01*
X131103800Y-16223600D02*
X131103800Y-15223600D01*
X131103800Y-15223600D02*
X132103800Y-15223600D01*
X131103800Y-29223600D02*
X131103800Y-28223600D01*
X132103800Y-29223600D02*
X131103800Y-29223600D01*
X145103800Y-29223600D02*
X144103800Y-29223600D01*
X145103800Y-48272400D02*
X144103800Y-48272400D01*
X132103800Y-48272400D02*
X131103800Y-48272400D01*
X131103800Y-48272400D02*
X131103800Y-47272400D01*
X131103800Y-34272400D02*
X132103800Y-34272400D01*
X131103800Y-35272400D02*
X131103800Y-34272400D01*
X144103800Y-34272400D02*
X145103800Y-34272400D01*
X145103800Y-34272400D02*
X145103800Y-35272400D01*
X145103800Y-47272400D02*
X145103800Y-48272400D01*
X145103800Y-67321200D02*
X144103800Y-67321200D01*
X132103800Y-67321200D02*
X131103800Y-67321200D01*
X131103800Y-67321200D02*
X131103800Y-66321200D01*
X131103800Y-53321200D02*
X132103800Y-53321200D01*
X131103800Y-54321200D02*
X131103800Y-53321200D01*
X144103800Y-53321200D02*
X145103800Y-53321200D01*
X145103800Y-53321200D02*
X145103800Y-54321200D01*
X145103800Y-66321200D02*
X145103800Y-67321200D01*
X145103800Y-86370000D02*
X144103800Y-86370000D01*
X132103800Y-86370000D02*
X131103800Y-86370000D01*
X131103800Y-86370000D02*
X131103800Y-85370000D01*
X131103800Y-72370000D02*
X132103800Y-72370000D01*
X131103800Y-73370000D02*
X131103800Y-72370000D01*
X144103800Y-72370000D02*
X145103800Y-72370000D01*
X145103800Y-72370000D02*
X145103800Y-73370000D01*
X145103800Y-85370000D02*
X145103800Y-86370000D01*
X102537776Y-73375200D02*
X102537776Y-72375200D01*
X102537776Y-86375200D02*
X102537776Y-85375200D01*
X103537776Y-86375200D02*
X102537776Y-86375200D01*
X116537776Y-85375200D02*
X116537776Y-86375200D01*
X116537776Y-86375200D02*
X115537776Y-86375200D01*
X116537776Y-72375200D02*
X116537776Y-73375200D01*
X115537776Y-72375200D02*
X116537776Y-72375200D01*
X102537776Y-72375200D02*
X103537776Y-72375200D01*
X121587824Y-73375200D02*
X121587824Y-72375200D01*
X121587824Y-86375200D02*
X121587824Y-85375200D01*
X122587824Y-86375200D02*
X121587824Y-86375200D01*
X135587824Y-85375200D02*
X135587824Y-86375200D01*
X135587824Y-86375200D02*
X134587824Y-86375200D01*
X135587824Y-72375200D02*
X135587824Y-73375200D01*
X134587824Y-72375200D02*
X135587824Y-72375200D01*
X121587824Y-72375200D02*
X122587824Y-72375200D01*
D11*
X77414041Y-52337356D02*
X77994612Y-52337356D01*
X78110726Y-52298651D01*
X78188136Y-52221242D01*
X78226841Y-52105128D01*
X78226841Y-52027718D01*
X78226841Y-52724404D02*
X77414041Y-52724404D01*
X77414041Y-53034042D01*
X77452746Y-53111451D01*
X77491450Y-53150156D01*
X77568860Y-53188861D01*
X77684974Y-53188861D01*
X77762384Y-53150156D01*
X77801088Y-53111451D01*
X77839793Y-53034042D01*
X77839793Y-52724404D01*
X77414041Y-53924251D02*
X77414041Y-53537204D01*
X77801088Y-53498499D01*
X77762384Y-53537204D01*
X77723679Y-53614613D01*
X77723679Y-53808137D01*
X77762384Y-53885547D01*
X77801088Y-53924251D01*
X77878498Y-53962956D01*
X78072022Y-53962956D01*
X78149431Y-53924251D01*
X78188136Y-53885547D01*
X78226841Y-53808137D01*
X78226841Y-53614613D01*
X78188136Y-53537204D01*
X78149431Y-53498499D01*
X75826537Y-52337356D02*
X76407108Y-52337356D01*
X76523222Y-52298651D01*
X76600632Y-52221242D01*
X76639337Y-52105128D01*
X76639337Y-52027718D01*
X76639337Y-52724404D02*
X75826537Y-52724404D01*
X75826537Y-53034042D01*
X75865242Y-53111451D01*
X75903946Y-53150156D01*
X75981356Y-53188861D01*
X76097470Y-53188861D01*
X76174880Y-53150156D01*
X76213584Y-53111451D01*
X76252289Y-53034042D01*
X76252289Y-52724404D01*
X75826537Y-53885547D02*
X75826537Y-53730728D01*
X75865242Y-53653318D01*
X75903946Y-53614613D01*
X76020061Y-53537204D01*
X76174880Y-53498499D01*
X76484518Y-53498499D01*
X76561927Y-53537204D01*
X76600632Y-53575909D01*
X76639337Y-53653318D01*
X76639337Y-53808137D01*
X76600632Y-53885547D01*
X76561927Y-53924251D01*
X76484518Y-53962956D01*
X76290994Y-53962956D01*
X76213584Y-53924251D01*
X76174880Y-53885547D01*
X76136175Y-53808137D01*
X76136175Y-53653318D01*
X76174880Y-53575909D01*
X76213584Y-53537204D01*
X76290994Y-53498499D01*
X74040595Y-52337356D02*
X74621166Y-52337356D01*
X74737280Y-52298651D01*
X74814690Y-52221242D01*
X74853395Y-52105128D01*
X74853395Y-52027718D01*
X74853395Y-52724404D02*
X74040595Y-52724404D01*
X74040595Y-53034042D01*
X74079300Y-53111451D01*
X74118004Y-53150156D01*
X74195414Y-53188861D01*
X74311528Y-53188861D01*
X74388938Y-53150156D01*
X74427642Y-53111451D01*
X74466347Y-53034042D01*
X74466347Y-52724404D01*
X74040595Y-53459794D02*
X74040595Y-54001661D01*
X74853395Y-53653318D01*
X72254653Y-52337356D02*
X72835224Y-52337356D01*
X72951338Y-52298651D01*
X73028748Y-52221242D01*
X73067453Y-52105128D01*
X73067453Y-52027718D01*
X73067453Y-52724404D02*
X72254653Y-52724404D01*
X72254653Y-53034042D01*
X72293358Y-53111451D01*
X72332062Y-53150156D01*
X72409472Y-53188861D01*
X72525586Y-53188861D01*
X72602996Y-53150156D01*
X72641700Y-53111451D01*
X72680405Y-53034042D01*
X72680405Y-52724404D01*
X72602996Y-53653318D02*
X72564291Y-53575909D01*
X72525586Y-53537204D01*
X72448177Y-53498499D01*
X72409472Y-53498499D01*
X72332062Y-53537204D01*
X72293358Y-53575909D01*
X72254653Y-53653318D01*
X72254653Y-53808137D01*
X72293358Y-53885547D01*
X72332062Y-53924251D01*
X72409472Y-53962956D01*
X72448177Y-53962956D01*
X72525586Y-53924251D01*
X72564291Y-53885547D01*
X72602996Y-53808137D01*
X72602996Y-53653318D01*
X72641700Y-53575909D01*
X72680405Y-53537204D01*
X72757815Y-53498499D01*
X72912634Y-53498499D01*
X72990043Y-53537204D01*
X73028748Y-53575909D01*
X73067453Y-53653318D01*
X73067453Y-53808137D01*
X73028748Y-53885547D01*
X72990043Y-53924251D01*
X72912634Y-53962956D01*
X72757815Y-53962956D01*
X72680405Y-53924251D01*
X72641700Y-53885547D01*
X72602996Y-53808137D01*
X81779677Y-71198795D02*
X82360248Y-71198795D01*
X82476362Y-71160090D01*
X82553772Y-71082680D01*
X82592477Y-70966566D01*
X82592477Y-70889156D01*
X82592477Y-71585842D02*
X81779677Y-71585842D01*
X81779677Y-71895480D01*
X81818382Y-71972890D01*
X81857086Y-72011595D01*
X81934496Y-72050299D01*
X82050610Y-72050299D01*
X82128020Y-72011595D01*
X82166724Y-71972890D01*
X82205429Y-71895480D01*
X82205429Y-71585842D01*
X82592477Y-72824395D02*
X82592477Y-72359937D01*
X82592477Y-72592166D02*
X81779677Y-72592166D01*
X81895791Y-72514756D01*
X81973201Y-72437347D01*
X82011905Y-72359937D01*
X81779677Y-73095328D02*
X81779677Y-73598490D01*
X82089315Y-73327556D01*
X82089315Y-73443671D01*
X82128020Y-73521080D01*
X82166724Y-73559785D01*
X82244134Y-73598490D01*
X82437658Y-73598490D01*
X82515067Y-73559785D01*
X82553772Y-73521080D01*
X82592477Y-73443671D01*
X82592477Y-73211442D01*
X82553772Y-73134033D01*
X82515067Y-73095328D01*
X79993735Y-71198795D02*
X80574306Y-71198795D01*
X80690420Y-71160090D01*
X80767830Y-71082680D01*
X80806535Y-70966566D01*
X80806535Y-70889156D01*
X80806535Y-71585842D02*
X79993735Y-71585842D01*
X79993735Y-71895480D01*
X80032440Y-71972890D01*
X80071144Y-72011595D01*
X80148554Y-72050299D01*
X80264668Y-72050299D01*
X80342078Y-72011595D01*
X80380782Y-71972890D01*
X80419487Y-71895480D01*
X80419487Y-71585842D01*
X80806535Y-72824395D02*
X80806535Y-72359937D01*
X80806535Y-72592166D02*
X79993735Y-72592166D01*
X80109849Y-72514756D01*
X80187259Y-72437347D01*
X80225963Y-72359937D01*
X80264668Y-73521080D02*
X80806535Y-73521080D01*
X79955030Y-73327556D02*
X80535601Y-73134033D01*
X80535601Y-73637195D01*
X78207793Y-71198795D02*
X78788364Y-71198795D01*
X78904478Y-71160090D01*
X78981888Y-71082680D01*
X79020593Y-70966566D01*
X79020593Y-70889156D01*
X79020593Y-71585842D02*
X78207793Y-71585842D01*
X78207793Y-71895480D01*
X78246498Y-71972890D01*
X78285202Y-72011595D01*
X78362612Y-72050299D01*
X78478726Y-72050299D01*
X78556136Y-72011595D01*
X78594840Y-71972890D01*
X78633545Y-71895480D01*
X78633545Y-71585842D01*
X79020593Y-72824395D02*
X79020593Y-72359937D01*
X79020593Y-72592166D02*
X78207793Y-72592166D01*
X78323907Y-72514756D01*
X78401317Y-72437347D01*
X78440021Y-72359937D01*
X78207793Y-73559785D02*
X78207793Y-73172737D01*
X78594840Y-73134033D01*
X78556136Y-73172737D01*
X78517431Y-73250147D01*
X78517431Y-73443671D01*
X78556136Y-73521080D01*
X78594840Y-73559785D01*
X78672250Y-73598490D01*
X78865774Y-73598490D01*
X78943183Y-73559785D01*
X78981888Y-73521080D01*
X79020593Y-73443671D01*
X79020593Y-73250147D01*
X78981888Y-73172737D01*
X78943183Y-73134033D01*
X76421851Y-71198795D02*
X77002422Y-71198795D01*
X77118536Y-71160090D01*
X77195946Y-71082680D01*
X77234651Y-70966566D01*
X77234651Y-70889156D01*
X77234651Y-71585842D02*
X76421851Y-71585842D01*
X76421851Y-71895480D01*
X76460556Y-71972890D01*
X76499260Y-72011595D01*
X76576670Y-72050299D01*
X76692784Y-72050299D01*
X76770194Y-72011595D01*
X76808898Y-71972890D01*
X76847603Y-71895480D01*
X76847603Y-71585842D01*
X77234651Y-72824395D02*
X77234651Y-72359937D01*
X77234651Y-72592166D02*
X76421851Y-72592166D01*
X76537965Y-72514756D01*
X76615375Y-72437347D01*
X76654079Y-72359937D01*
X76421851Y-73521080D02*
X76421851Y-73366261D01*
X76460556Y-73288852D01*
X76499260Y-73250147D01*
X76615375Y-73172737D01*
X76770194Y-73134033D01*
X77079832Y-73134033D01*
X77157241Y-73172737D01*
X77195946Y-73211442D01*
X77234651Y-73288852D01*
X77234651Y-73443671D01*
X77195946Y-73521080D01*
X77157241Y-73559785D01*
X77079832Y-73598490D01*
X76886308Y-73598490D01*
X76808898Y-73559785D01*
X76770194Y-73521080D01*
X76731489Y-73443671D01*
X76731489Y-73288852D01*
X76770194Y-73211442D01*
X76808898Y-73172737D01*
X76886308Y-73134033D01*
X140572875Y-29066451D02*
X141153446Y-29066451D01*
X141269560Y-29027746D01*
X141346970Y-28950336D01*
X141385675Y-28834222D01*
X141385675Y-28756812D01*
X141385675Y-29453498D02*
X140572875Y-29453498D01*
X140572875Y-29763136D01*
X140611580Y-29840546D01*
X140650284Y-29879251D01*
X140727694Y-29917955D01*
X140843808Y-29917955D01*
X140921218Y-29879251D01*
X140959922Y-29840546D01*
X140998627Y-29763136D01*
X140998627Y-29453498D01*
X140650284Y-30227593D02*
X140611580Y-30266298D01*
X140572875Y-30343708D01*
X140572875Y-30537232D01*
X140611580Y-30614641D01*
X140650284Y-30653346D01*
X140727694Y-30692051D01*
X140805103Y-30692051D01*
X140921218Y-30653346D01*
X141385675Y-30188889D01*
X141385675Y-30692051D01*
X141385675Y-31466146D02*
X141385675Y-31001689D01*
X141385675Y-31233917D02*
X140572875Y-31233917D01*
X140688989Y-31156508D01*
X140766399Y-31079098D01*
X140805103Y-31001689D01*
X138786933Y-29066451D02*
X139367504Y-29066451D01*
X139483618Y-29027746D01*
X139561028Y-28950336D01*
X139599733Y-28834222D01*
X139599733Y-28756812D01*
X139599733Y-29453498D02*
X138786933Y-29453498D01*
X138786933Y-29763136D01*
X138825638Y-29840546D01*
X138864342Y-29879251D01*
X138941752Y-29917955D01*
X139057866Y-29917955D01*
X139135276Y-29879251D01*
X139173980Y-29840546D01*
X139212685Y-29763136D01*
X139212685Y-29453498D01*
X138864342Y-30227593D02*
X138825638Y-30266298D01*
X138786933Y-30343708D01*
X138786933Y-30537232D01*
X138825638Y-30614641D01*
X138864342Y-30653346D01*
X138941752Y-30692051D01*
X139019161Y-30692051D01*
X139135276Y-30653346D01*
X139599733Y-30188889D01*
X139599733Y-30692051D01*
X138864342Y-31001689D02*
X138825638Y-31040393D01*
X138786933Y-31117803D01*
X138786933Y-31311327D01*
X138825638Y-31388736D01*
X138864342Y-31427441D01*
X138941752Y-31466146D01*
X139019161Y-31466146D01*
X139135276Y-31427441D01*
X139599733Y-30962984D01*
X139599733Y-31466146D01*
X137000991Y-29066451D02*
X137581562Y-29066451D01*
X137697676Y-29027746D01*
X137775086Y-28950336D01*
X137813791Y-28834222D01*
X137813791Y-28756812D01*
X137813791Y-29453498D02*
X137000991Y-29453498D01*
X137000991Y-29763136D01*
X137039696Y-29840546D01*
X137078400Y-29879251D01*
X137155810Y-29917955D01*
X137271924Y-29917955D01*
X137349334Y-29879251D01*
X137388038Y-29840546D01*
X137426743Y-29763136D01*
X137426743Y-29453498D01*
X137078400Y-30227593D02*
X137039696Y-30266298D01*
X137000991Y-30343708D01*
X137000991Y-30537232D01*
X137039696Y-30614641D01*
X137078400Y-30653346D01*
X137155810Y-30692051D01*
X137233219Y-30692051D01*
X137349334Y-30653346D01*
X137813791Y-30188889D01*
X137813791Y-30692051D01*
X137000991Y-30962984D02*
X137000991Y-31466146D01*
X137310629Y-31195212D01*
X137310629Y-31311327D01*
X137349334Y-31388736D01*
X137388038Y-31427441D01*
X137465448Y-31466146D01*
X137658972Y-31466146D01*
X137736381Y-31427441D01*
X137775086Y-31388736D01*
X137813791Y-31311327D01*
X137813791Y-31079098D01*
X137775086Y-31001689D01*
X137736381Y-30962984D01*
X135215049Y-29066451D02*
X135795620Y-29066451D01*
X135911734Y-29027746D01*
X135989144Y-28950336D01*
X136027849Y-28834222D01*
X136027849Y-28756812D01*
X136027849Y-29453498D02*
X135215049Y-29453498D01*
X135215049Y-29763136D01*
X135253754Y-29840546D01*
X135292458Y-29879251D01*
X135369868Y-29917955D01*
X135485982Y-29917955D01*
X135563392Y-29879251D01*
X135602096Y-29840546D01*
X135640801Y-29763136D01*
X135640801Y-29453498D01*
X135292458Y-30227593D02*
X135253754Y-30266298D01*
X135215049Y-30343708D01*
X135215049Y-30537232D01*
X135253754Y-30614641D01*
X135292458Y-30653346D01*
X135369868Y-30692051D01*
X135447277Y-30692051D01*
X135563392Y-30653346D01*
X136027849Y-30188889D01*
X136027849Y-30692051D01*
X135485982Y-31388736D02*
X136027849Y-31388736D01*
X135176344Y-31195212D02*
X135756915Y-31001689D01*
X135756915Y-31504851D01*
X135953239Y-52148747D02*
X136533810Y-52148747D01*
X136649924Y-52110042D01*
X136727334Y-52032632D01*
X136766039Y-51916518D01*
X136766039Y-51839108D01*
X136766039Y-52535794D02*
X135953239Y-52535794D01*
X135953239Y-52845432D01*
X135991944Y-52922842D01*
X136030648Y-52961547D01*
X136108058Y-53000251D01*
X136224172Y-53000251D01*
X136301582Y-52961547D01*
X136340286Y-52922842D01*
X136378991Y-52845432D01*
X136378991Y-52535794D01*
X136030648Y-53309889D02*
X135991944Y-53348594D01*
X135953239Y-53426004D01*
X135953239Y-53619528D01*
X135991944Y-53696937D01*
X136030648Y-53735642D01*
X136108058Y-53774347D01*
X136185467Y-53774347D01*
X136301582Y-53735642D01*
X136766039Y-53271185D01*
X136766039Y-53774347D01*
X136766039Y-54161394D02*
X136766039Y-54316213D01*
X136727334Y-54393623D01*
X136688629Y-54432328D01*
X136572515Y-54509737D01*
X136417696Y-54548442D01*
X136108058Y-54548442D01*
X136030648Y-54509737D01*
X135991944Y-54471032D01*
X135953239Y-54393623D01*
X135953239Y-54238804D01*
X135991944Y-54161394D01*
X136030648Y-54122689D01*
X136108058Y-54083985D01*
X136301582Y-54083985D01*
X136378991Y-54122689D01*
X136417696Y-54161394D01*
X136456401Y-54238804D01*
X136456401Y-54393623D01*
X136417696Y-54471032D01*
X136378991Y-54509737D01*
X136301582Y-54548442D01*
X137739181Y-52148747D02*
X138319752Y-52148747D01*
X138435866Y-52110042D01*
X138513276Y-52032632D01*
X138551981Y-51916518D01*
X138551981Y-51839108D01*
X138551981Y-52535794D02*
X137739181Y-52535794D01*
X137739181Y-52845432D01*
X137777886Y-52922842D01*
X137816590Y-52961547D01*
X137894000Y-53000251D01*
X138010114Y-53000251D01*
X138087524Y-52961547D01*
X138126228Y-52922842D01*
X138164933Y-52845432D01*
X138164933Y-52535794D01*
X137739181Y-53271185D02*
X137739181Y-53774347D01*
X138048819Y-53503413D01*
X138048819Y-53619528D01*
X138087524Y-53696937D01*
X138126228Y-53735642D01*
X138203638Y-53774347D01*
X138397162Y-53774347D01*
X138474571Y-53735642D01*
X138513276Y-53696937D01*
X138551981Y-53619528D01*
X138551981Y-53387299D01*
X138513276Y-53309889D01*
X138474571Y-53271185D01*
X137739181Y-54277508D02*
X137739181Y-54354918D01*
X137777886Y-54432328D01*
X137816590Y-54471032D01*
X137894000Y-54509737D01*
X138048819Y-54548442D01*
X138242343Y-54548442D01*
X138397162Y-54509737D01*
X138474571Y-54471032D01*
X138513276Y-54432328D01*
X138551981Y-54354918D01*
X138551981Y-54277508D01*
X138513276Y-54200099D01*
X138474571Y-54161394D01*
X138397162Y-54122689D01*
X138242343Y-54083985D01*
X138048819Y-54083985D01*
X137894000Y-54122689D01*
X137816590Y-54161394D01*
X137777886Y-54200099D01*
X137739181Y-54277508D01*
X139525123Y-52148747D02*
X140105694Y-52148747D01*
X140221808Y-52110042D01*
X140299218Y-52032632D01*
X140337923Y-51916518D01*
X140337923Y-51839108D01*
X140337923Y-52535794D02*
X139525123Y-52535794D01*
X139525123Y-52845432D01*
X139563828Y-52922842D01*
X139602532Y-52961547D01*
X139679942Y-53000251D01*
X139796056Y-53000251D01*
X139873466Y-52961547D01*
X139912170Y-52922842D01*
X139950875Y-52845432D01*
X139950875Y-52535794D01*
X139525123Y-53271185D02*
X139525123Y-53774347D01*
X139834761Y-53503413D01*
X139834761Y-53619528D01*
X139873466Y-53696937D01*
X139912170Y-53735642D01*
X139989580Y-53774347D01*
X140183104Y-53774347D01*
X140260513Y-53735642D01*
X140299218Y-53696937D01*
X140337923Y-53619528D01*
X140337923Y-53387299D01*
X140299218Y-53309889D01*
X140260513Y-53271185D01*
X140337923Y-54548442D02*
X140337923Y-54083985D01*
X140337923Y-54316213D02*
X139525123Y-54316213D01*
X139641237Y-54238804D01*
X139718647Y-54161394D01*
X139757351Y-54083985D01*
X141311065Y-52148747D02*
X141891636Y-52148747D01*
X142007750Y-52110042D01*
X142085160Y-52032632D01*
X142123865Y-51916518D01*
X142123865Y-51839108D01*
X142123865Y-52535794D02*
X141311065Y-52535794D01*
X141311065Y-52845432D01*
X141349770Y-52922842D01*
X141388474Y-52961547D01*
X141465884Y-53000251D01*
X141581998Y-53000251D01*
X141659408Y-52961547D01*
X141698112Y-52922842D01*
X141736817Y-52845432D01*
X141736817Y-52535794D01*
X141311065Y-53271185D02*
X141311065Y-53774347D01*
X141620703Y-53503413D01*
X141620703Y-53619528D01*
X141659408Y-53696937D01*
X141698112Y-53735642D01*
X141775522Y-53774347D01*
X141969046Y-53774347D01*
X142046455Y-53735642D01*
X142085160Y-53696937D01*
X142123865Y-53619528D01*
X142123865Y-53387299D01*
X142085160Y-53309889D01*
X142046455Y-53271185D01*
X141388474Y-54083985D02*
X141349770Y-54122689D01*
X141311065Y-54200099D01*
X141311065Y-54393623D01*
X141349770Y-54471032D01*
X141388474Y-54509737D01*
X141465884Y-54548442D01*
X141543293Y-54548442D01*
X141659408Y-54509737D01*
X142123865Y-54045280D01*
X142123865Y-54548442D01*
D10*
X101591880Y-14738980D02*
X101925214Y-14262790D01*
X102163309Y-14738980D02*
X102163309Y-13738980D01*
X101782357Y-13738980D01*
X101687119Y-13786600D01*
X101639500Y-13834219D01*
X101591880Y-13929457D01*
X101591880Y-14072314D01*
X101639500Y-14167552D01*
X101687119Y-14215171D01*
X101782357Y-14262790D01*
X102163309Y-14262790D01*
X101163309Y-14215171D02*
X100829976Y-14215171D01*
X100687119Y-14738980D02*
X101163309Y-14738980D01*
X101163309Y-13738980D01*
X100687119Y-13738980D01*
X100306166Y-14691361D02*
X100163309Y-14738980D01*
X99925214Y-14738980D01*
X99829976Y-14691361D01*
X99782357Y-14643742D01*
X99734738Y-14548504D01*
X99734738Y-14453266D01*
X99782357Y-14358028D01*
X99829976Y-14310409D01*
X99925214Y-14262790D01*
X100115690Y-14215171D01*
X100210928Y-14167552D01*
X100258547Y-14119933D01*
X100306166Y-14024695D01*
X100306166Y-13929457D01*
X100258547Y-13834219D01*
X100210928Y-13786600D01*
X100115690Y-13738980D01*
X99877595Y-13738980D01*
X99734738Y-13786600D01*
X99306166Y-14215171D02*
X98972833Y-14215171D01*
X98829976Y-14738980D02*
X99306166Y-14738980D01*
X99306166Y-13738980D01*
X98829976Y-13738980D01*
X98544261Y-13738980D02*
X97972833Y-13738980D01*
X98258547Y-14738980D02*
X98258547Y-13738980D01*
X77528233Y-30883361D02*
X77385376Y-30930980D01*
X77147280Y-30930980D01*
X77052042Y-30883361D01*
X77004423Y-30835742D01*
X76956804Y-30740504D01*
X76956804Y-30645266D01*
X77004423Y-30550028D01*
X77052042Y-30502409D01*
X77147280Y-30454790D01*
X77337757Y-30407171D01*
X77432995Y-30359552D01*
X77480614Y-30311933D01*
X77528233Y-30216695D01*
X77528233Y-30121457D01*
X77480614Y-30026219D01*
X77432995Y-29978600D01*
X77337757Y-29930980D01*
X77099661Y-29930980D01*
X76956804Y-29978600D01*
X76623471Y-29930980D02*
X76385376Y-30930980D01*
X76194900Y-30216695D01*
X76004423Y-30930980D01*
X75766328Y-29930980D01*
X74861566Y-30930980D02*
X75432995Y-30930980D01*
X75147280Y-30930980D02*
X75147280Y-29930980D01*
X75242519Y-30073838D01*
X75337757Y-30169076D01*
X75432995Y-30216695D01*
X77528233Y-49932161D02*
X77385376Y-49979780D01*
X77147280Y-49979780D01*
X77052042Y-49932161D01*
X77004423Y-49884542D01*
X76956804Y-49789304D01*
X76956804Y-49694066D01*
X77004423Y-49598828D01*
X77052042Y-49551209D01*
X77147280Y-49503590D01*
X77337757Y-49455971D01*
X77432995Y-49408352D01*
X77480614Y-49360733D01*
X77528233Y-49265495D01*
X77528233Y-49170257D01*
X77480614Y-49075019D01*
X77432995Y-49027400D01*
X77337757Y-48979780D01*
X77099661Y-48979780D01*
X76956804Y-49027400D01*
X76623471Y-48979780D02*
X76385376Y-49979780D01*
X76194900Y-49265495D01*
X76004423Y-49979780D01*
X75766328Y-48979780D01*
X75432995Y-49075019D02*
X75385376Y-49027400D01*
X75290138Y-48979780D01*
X75052042Y-48979780D01*
X74956804Y-49027400D01*
X74909185Y-49075019D01*
X74861566Y-49170257D01*
X74861566Y-49265495D01*
X74909185Y-49408352D01*
X75480614Y-49979780D01*
X74861566Y-49979780D01*
X77528233Y-68980961D02*
X77385376Y-69028580D01*
X77147280Y-69028580D01*
X77052042Y-68980961D01*
X77004423Y-68933342D01*
X76956804Y-68838104D01*
X76956804Y-68742866D01*
X77004423Y-68647628D01*
X77052042Y-68600009D01*
X77147280Y-68552390D01*
X77337757Y-68504771D01*
X77432995Y-68457152D01*
X77480614Y-68409533D01*
X77528233Y-68314295D01*
X77528233Y-68219057D01*
X77480614Y-68123819D01*
X77432995Y-68076200D01*
X77337757Y-68028580D01*
X77099661Y-68028580D01*
X76956804Y-68076200D01*
X76623471Y-68028580D02*
X76385376Y-69028580D01*
X76194900Y-68314295D01*
X76004423Y-69028580D01*
X75766328Y-68028580D01*
X75480614Y-68028580D02*
X74861566Y-68028580D01*
X75194900Y-68409533D01*
X75052042Y-68409533D01*
X74956804Y-68457152D01*
X74909185Y-68504771D01*
X74861566Y-68600009D01*
X74861566Y-68838104D01*
X74909185Y-68933342D01*
X74956804Y-68980961D01*
X75052042Y-69028580D01*
X75337757Y-69028580D01*
X75432995Y-68980961D01*
X75480614Y-68933342D01*
X77528233Y-88029761D02*
X77385376Y-88077380D01*
X77147280Y-88077380D01*
X77052042Y-88029761D01*
X77004423Y-87982142D01*
X76956804Y-87886904D01*
X76956804Y-87791666D01*
X77004423Y-87696428D01*
X77052042Y-87648809D01*
X77147280Y-87601190D01*
X77337757Y-87553571D01*
X77432995Y-87505952D01*
X77480614Y-87458333D01*
X77528233Y-87363095D01*
X77528233Y-87267857D01*
X77480614Y-87172619D01*
X77432995Y-87125000D01*
X77337757Y-87077380D01*
X77099661Y-87077380D01*
X76956804Y-87125000D01*
X76623471Y-87077380D02*
X76385376Y-88077380D01*
X76194900Y-87363095D01*
X76004423Y-88077380D01*
X75766328Y-87077380D01*
X74956804Y-87410714D02*
X74956804Y-88077380D01*
X75194900Y-87029761D02*
X75432995Y-87744047D01*
X74813947Y-87744047D01*
X101339533Y-30883361D02*
X101196676Y-30930980D01*
X100958580Y-30930980D01*
X100863342Y-30883361D01*
X100815723Y-30835742D01*
X100768104Y-30740504D01*
X100768104Y-30645266D01*
X100815723Y-30550028D01*
X100863342Y-30502409D01*
X100958580Y-30454790D01*
X101149057Y-30407171D01*
X101244295Y-30359552D01*
X101291914Y-30311933D01*
X101339533Y-30216695D01*
X101339533Y-30121457D01*
X101291914Y-30026219D01*
X101244295Y-29978600D01*
X101149057Y-29930980D01*
X100910961Y-29930980D01*
X100768104Y-29978600D01*
X100434771Y-29930980D02*
X100196676Y-30930980D01*
X100006200Y-30216695D01*
X99815723Y-30930980D01*
X99577628Y-29930980D01*
X98720485Y-29930980D02*
X99196676Y-29930980D01*
X99244295Y-30407171D01*
X99196676Y-30359552D01*
X99101438Y-30311933D01*
X98863342Y-30311933D01*
X98768104Y-30359552D01*
X98720485Y-30407171D01*
X98672866Y-30502409D01*
X98672866Y-30740504D01*
X98720485Y-30835742D01*
X98768104Y-30883361D01*
X98863342Y-30930980D01*
X99101438Y-30930980D01*
X99196676Y-30883361D01*
X99244295Y-30835742D01*
X101339533Y-49932161D02*
X101196676Y-49979780D01*
X100958580Y-49979780D01*
X100863342Y-49932161D01*
X100815723Y-49884542D01*
X100768104Y-49789304D01*
X100768104Y-49694066D01*
X100815723Y-49598828D01*
X100863342Y-49551209D01*
X100958580Y-49503590D01*
X101149057Y-49455971D01*
X101244295Y-49408352D01*
X101291914Y-49360733D01*
X101339533Y-49265495D01*
X101339533Y-49170257D01*
X101291914Y-49075019D01*
X101244295Y-49027400D01*
X101149057Y-48979780D01*
X100910961Y-48979780D01*
X100768104Y-49027400D01*
X100434771Y-48979780D02*
X100196676Y-49979780D01*
X100006200Y-49265495D01*
X99815723Y-49979780D01*
X99577628Y-48979780D01*
X98768104Y-48979780D02*
X98958580Y-48979780D01*
X99053819Y-49027400D01*
X99101438Y-49075019D01*
X99196676Y-49217876D01*
X99244295Y-49408352D01*
X99244295Y-49789304D01*
X99196676Y-49884542D01*
X99149057Y-49932161D01*
X99053819Y-49979780D01*
X98863342Y-49979780D01*
X98768104Y-49932161D01*
X98720485Y-49884542D01*
X98672866Y-49789304D01*
X98672866Y-49551209D01*
X98720485Y-49455971D01*
X98768104Y-49408352D01*
X98863342Y-49360733D01*
X99053819Y-49360733D01*
X99149057Y-49408352D01*
X99196676Y-49455971D01*
X99244295Y-49551209D01*
X101339533Y-68980961D02*
X101196676Y-69028580D01*
X100958580Y-69028580D01*
X100863342Y-68980961D01*
X100815723Y-68933342D01*
X100768104Y-68838104D01*
X100768104Y-68742866D01*
X100815723Y-68647628D01*
X100863342Y-68600009D01*
X100958580Y-68552390D01*
X101149057Y-68504771D01*
X101244295Y-68457152D01*
X101291914Y-68409533D01*
X101339533Y-68314295D01*
X101339533Y-68219057D01*
X101291914Y-68123819D01*
X101244295Y-68076200D01*
X101149057Y-68028580D01*
X100910961Y-68028580D01*
X100768104Y-68076200D01*
X100434771Y-68028580D02*
X100196676Y-69028580D01*
X100006200Y-68314295D01*
X99815723Y-69028580D01*
X99577628Y-68028580D01*
X99291914Y-68028580D02*
X98625247Y-68028580D01*
X99053819Y-69028580D01*
X101339533Y-88029761D02*
X101196676Y-88077380D01*
X100958580Y-88077380D01*
X100863342Y-88029761D01*
X100815723Y-87982142D01*
X100768104Y-87886904D01*
X100768104Y-87791666D01*
X100815723Y-87696428D01*
X100863342Y-87648809D01*
X100958580Y-87601190D01*
X101149057Y-87553571D01*
X101244295Y-87505952D01*
X101291914Y-87458333D01*
X101339533Y-87363095D01*
X101339533Y-87267857D01*
X101291914Y-87172619D01*
X101244295Y-87125000D01*
X101149057Y-87077380D01*
X100910961Y-87077380D01*
X100768104Y-87125000D01*
X100434771Y-87077380D02*
X100196676Y-88077380D01*
X100006200Y-87363095D01*
X99815723Y-88077380D01*
X99577628Y-87077380D01*
X99053819Y-87505952D02*
X99149057Y-87458333D01*
X99196676Y-87410714D01*
X99244295Y-87315476D01*
X99244295Y-87267857D01*
X99196676Y-87172619D01*
X99149057Y-87125000D01*
X99053819Y-87077380D01*
X98863342Y-87077380D01*
X98768104Y-87125000D01*
X98720485Y-87172619D01*
X98672866Y-87267857D01*
X98672866Y-87315476D01*
X98720485Y-87410714D01*
X98768104Y-87458333D01*
X98863342Y-87505952D01*
X99053819Y-87505952D01*
X99149057Y-87553571D01*
X99196676Y-87601190D01*
X99244295Y-87696428D01*
X99244295Y-87886904D01*
X99196676Y-87982142D01*
X99149057Y-88029761D01*
X99053819Y-88077380D01*
X98863342Y-88077380D01*
X98768104Y-88029761D01*
X98720485Y-87982142D01*
X98672866Y-87886904D01*
X98672866Y-87696428D01*
X98720485Y-87601190D01*
X98768104Y-87553571D01*
X98863342Y-87505952D01*
X120388333Y-30883361D02*
X120245476Y-30930980D01*
X120007380Y-30930980D01*
X119912142Y-30883361D01*
X119864523Y-30835742D01*
X119816904Y-30740504D01*
X119816904Y-30645266D01*
X119864523Y-30550028D01*
X119912142Y-30502409D01*
X120007380Y-30454790D01*
X120197857Y-30407171D01*
X120293095Y-30359552D01*
X120340714Y-30311933D01*
X120388333Y-30216695D01*
X120388333Y-30121457D01*
X120340714Y-30026219D01*
X120293095Y-29978600D01*
X120197857Y-29930980D01*
X119959761Y-29930980D01*
X119816904Y-29978600D01*
X119483571Y-29930980D02*
X119245476Y-30930980D01*
X119055000Y-30216695D01*
X118864523Y-30930980D01*
X118626428Y-29930980D01*
X118197857Y-30930980D02*
X118007380Y-30930980D01*
X117912142Y-30883361D01*
X117864523Y-30835742D01*
X117769285Y-30692885D01*
X117721666Y-30502409D01*
X117721666Y-30121457D01*
X117769285Y-30026219D01*
X117816904Y-29978600D01*
X117912142Y-29930980D01*
X118102619Y-29930980D01*
X118197857Y-29978600D01*
X118245476Y-30026219D01*
X118293095Y-30121457D01*
X118293095Y-30359552D01*
X118245476Y-30454790D01*
X118197857Y-30502409D01*
X118102619Y-30550028D01*
X117912142Y-30550028D01*
X117816904Y-30502409D01*
X117769285Y-30454790D01*
X117721666Y-30359552D01*
X120864523Y-49932161D02*
X120721666Y-49979780D01*
X120483571Y-49979780D01*
X120388333Y-49932161D01*
X120340714Y-49884542D01*
X120293095Y-49789304D01*
X120293095Y-49694066D01*
X120340714Y-49598828D01*
X120388333Y-49551209D01*
X120483571Y-49503590D01*
X120674047Y-49455971D01*
X120769285Y-49408352D01*
X120816904Y-49360733D01*
X120864523Y-49265495D01*
X120864523Y-49170257D01*
X120816904Y-49075019D01*
X120769285Y-49027400D01*
X120674047Y-48979780D01*
X120435952Y-48979780D01*
X120293095Y-49027400D01*
X119959761Y-48979780D02*
X119721666Y-49979780D01*
X119531190Y-49265495D01*
X119340714Y-49979780D01*
X119102619Y-48979780D01*
X118197857Y-49979780D02*
X118769285Y-49979780D01*
X118483571Y-49979780D02*
X118483571Y-48979780D01*
X118578809Y-49122638D01*
X118674047Y-49217876D01*
X118769285Y-49265495D01*
X117578809Y-48979780D02*
X117483571Y-48979780D01*
X117388333Y-49027400D01*
X117340714Y-49075019D01*
X117293095Y-49170257D01*
X117245476Y-49360733D01*
X117245476Y-49598828D01*
X117293095Y-49789304D01*
X117340714Y-49884542D01*
X117388333Y-49932161D01*
X117483571Y-49979780D01*
X117578809Y-49979780D01*
X117674047Y-49932161D01*
X117721666Y-49884542D01*
X117769285Y-49789304D01*
X117816904Y-49598828D01*
X117816904Y-49360733D01*
X117769285Y-49170257D01*
X117721666Y-49075019D01*
X117674047Y-49027400D01*
X117578809Y-48979780D01*
X120864523Y-68980961D02*
X120721666Y-69028580D01*
X120483571Y-69028580D01*
X120388333Y-68980961D01*
X120340714Y-68933342D01*
X120293095Y-68838104D01*
X120293095Y-68742866D01*
X120340714Y-68647628D01*
X120388333Y-68600009D01*
X120483571Y-68552390D01*
X120674047Y-68504771D01*
X120769285Y-68457152D01*
X120816904Y-68409533D01*
X120864523Y-68314295D01*
X120864523Y-68219057D01*
X120816904Y-68123819D01*
X120769285Y-68076200D01*
X120674047Y-68028580D01*
X120435952Y-68028580D01*
X120293095Y-68076200D01*
X119959761Y-68028580D02*
X119721666Y-69028580D01*
X119531190Y-68314295D01*
X119340714Y-69028580D01*
X119102619Y-68028580D01*
X118197857Y-69028580D02*
X118769285Y-69028580D01*
X118483571Y-69028580D02*
X118483571Y-68028580D01*
X118578809Y-68171438D01*
X118674047Y-68266676D01*
X118769285Y-68314295D01*
X117245476Y-69028580D02*
X117816904Y-69028580D01*
X117531190Y-69028580D02*
X117531190Y-68028580D01*
X117626428Y-68171438D01*
X117721666Y-68266676D01*
X117816904Y-68314295D01*
X120864523Y-88029761D02*
X120721666Y-88077380D01*
X120483571Y-88077380D01*
X120388333Y-88029761D01*
X120340714Y-87982142D01*
X120293095Y-87886904D01*
X120293095Y-87791666D01*
X120340714Y-87696428D01*
X120388333Y-87648809D01*
X120483571Y-87601190D01*
X120674047Y-87553571D01*
X120769285Y-87505952D01*
X120816904Y-87458333D01*
X120864523Y-87363095D01*
X120864523Y-87267857D01*
X120816904Y-87172619D01*
X120769285Y-87125000D01*
X120674047Y-87077380D01*
X120435952Y-87077380D01*
X120293095Y-87125000D01*
X119959761Y-87077380D02*
X119721666Y-88077380D01*
X119531190Y-87363095D01*
X119340714Y-88077380D01*
X119102619Y-87077380D01*
X118197857Y-88077380D02*
X118769285Y-88077380D01*
X118483571Y-88077380D02*
X118483571Y-87077380D01*
X118578809Y-87220238D01*
X118674047Y-87315476D01*
X118769285Y-87363095D01*
X117816904Y-87172619D02*
X117769285Y-87125000D01*
X117674047Y-87077380D01*
X117435952Y-87077380D01*
X117340714Y-87125000D01*
X117293095Y-87172619D01*
X117245476Y-87267857D01*
X117245476Y-87363095D01*
X117293095Y-87505952D01*
X117864523Y-88077380D01*
X117245476Y-88077380D01*
X139913323Y-30883361D02*
X139770466Y-30930980D01*
X139532371Y-30930980D01*
X139437133Y-30883361D01*
X139389514Y-30835742D01*
X139341895Y-30740504D01*
X139341895Y-30645266D01*
X139389514Y-30550028D01*
X139437133Y-30502409D01*
X139532371Y-30454790D01*
X139722847Y-30407171D01*
X139818085Y-30359552D01*
X139865704Y-30311933D01*
X139913323Y-30216695D01*
X139913323Y-30121457D01*
X139865704Y-30026219D01*
X139818085Y-29978600D01*
X139722847Y-29930980D01*
X139484752Y-29930980D01*
X139341895Y-29978600D01*
X139008561Y-29930980D02*
X138770466Y-30930980D01*
X138579990Y-30216695D01*
X138389514Y-30930980D01*
X138151419Y-29930980D01*
X137246657Y-30930980D02*
X137818085Y-30930980D01*
X137532371Y-30930980D02*
X137532371Y-29930980D01*
X137627609Y-30073838D01*
X137722847Y-30169076D01*
X137818085Y-30216695D01*
X136913323Y-29930980D02*
X136294276Y-29930980D01*
X136627609Y-30311933D01*
X136484752Y-30311933D01*
X136389514Y-30359552D01*
X136341895Y-30407171D01*
X136294276Y-30502409D01*
X136294276Y-30740504D01*
X136341895Y-30835742D01*
X136389514Y-30883361D01*
X136484752Y-30930980D01*
X136770466Y-30930980D01*
X136865704Y-30883361D01*
X136913323Y-30835742D01*
X139913323Y-49932161D02*
X139770466Y-49979780D01*
X139532371Y-49979780D01*
X139437133Y-49932161D01*
X139389514Y-49884542D01*
X139341895Y-49789304D01*
X139341895Y-49694066D01*
X139389514Y-49598828D01*
X139437133Y-49551209D01*
X139532371Y-49503590D01*
X139722847Y-49455971D01*
X139818085Y-49408352D01*
X139865704Y-49360733D01*
X139913323Y-49265495D01*
X139913323Y-49170257D01*
X139865704Y-49075019D01*
X139818085Y-49027400D01*
X139722847Y-48979780D01*
X139484752Y-48979780D01*
X139341895Y-49027400D01*
X139008561Y-48979780D02*
X138770466Y-49979780D01*
X138579990Y-49265495D01*
X138389514Y-49979780D01*
X138151419Y-48979780D01*
X137246657Y-49979780D02*
X137818085Y-49979780D01*
X137532371Y-49979780D02*
X137532371Y-48979780D01*
X137627609Y-49122638D01*
X137722847Y-49217876D01*
X137818085Y-49265495D01*
X136389514Y-49313114D02*
X136389514Y-49979780D01*
X136627609Y-48932161D02*
X136865704Y-49646447D01*
X136246657Y-49646447D01*
X139913323Y-68980961D02*
X139770466Y-69028580D01*
X139532371Y-69028580D01*
X139437133Y-68980961D01*
X139389514Y-68933342D01*
X139341895Y-68838104D01*
X139341895Y-68742866D01*
X139389514Y-68647628D01*
X139437133Y-68600009D01*
X139532371Y-68552390D01*
X139722847Y-68504771D01*
X139818085Y-68457152D01*
X139865704Y-68409533D01*
X139913323Y-68314295D01*
X139913323Y-68219057D01*
X139865704Y-68123819D01*
X139818085Y-68076200D01*
X139722847Y-68028580D01*
X139484752Y-68028580D01*
X139341895Y-68076200D01*
X139008561Y-68028580D02*
X138770466Y-69028580D01*
X138579990Y-68314295D01*
X138389514Y-69028580D01*
X138151419Y-68028580D01*
X137246657Y-69028580D02*
X137818085Y-69028580D01*
X137532371Y-69028580D02*
X137532371Y-68028580D01*
X137627609Y-68171438D01*
X137722847Y-68266676D01*
X137818085Y-68314295D01*
X136341895Y-68028580D02*
X136818085Y-68028580D01*
X136865704Y-68504771D01*
X136818085Y-68457152D01*
X136722847Y-68409533D01*
X136484752Y-68409533D01*
X136389514Y-68457152D01*
X136341895Y-68504771D01*
X136294276Y-68600009D01*
X136294276Y-68838104D01*
X136341895Y-68933342D01*
X136389514Y-68980961D01*
X136484752Y-69028580D01*
X136722847Y-69028580D01*
X136818085Y-68980961D01*
X136865704Y-68933342D01*
X139913323Y-88029761D02*
X139770466Y-88077380D01*
X139532371Y-88077380D01*
X139437133Y-88029761D01*
X139389514Y-87982142D01*
X139341895Y-87886904D01*
X139341895Y-87791666D01*
X139389514Y-87696428D01*
X139437133Y-87648809D01*
X139532371Y-87601190D01*
X139722847Y-87553571D01*
X139818085Y-87505952D01*
X139865704Y-87458333D01*
X139913323Y-87363095D01*
X139913323Y-87267857D01*
X139865704Y-87172619D01*
X139818085Y-87125000D01*
X139722847Y-87077380D01*
X139484752Y-87077380D01*
X139341895Y-87125000D01*
X139008561Y-87077380D02*
X138770466Y-88077380D01*
X138579990Y-87363095D01*
X138389514Y-88077380D01*
X138151419Y-87077380D01*
X137246657Y-88077380D02*
X137818085Y-88077380D01*
X137532371Y-88077380D02*
X137532371Y-87077380D01*
X137627609Y-87220238D01*
X137722847Y-87315476D01*
X137818085Y-87363095D01*
X136389514Y-87077380D02*
X136579990Y-87077380D01*
X136675228Y-87125000D01*
X136722847Y-87172619D01*
X136818085Y-87315476D01*
X136865704Y-87505952D01*
X136865704Y-87886904D01*
X136818085Y-87982142D01*
X136770466Y-88029761D01*
X136675228Y-88077380D01*
X136484752Y-88077380D01*
X136389514Y-88029761D01*
X136341895Y-87982142D01*
X136294276Y-87886904D01*
X136294276Y-87648809D01*
X136341895Y-87553571D01*
X136389514Y-87505952D01*
X136484752Y-87458333D01*
X136675228Y-87458333D01*
X136770466Y-87505952D01*
X136818085Y-87553571D01*
X136865704Y-87648809D01*
X111347299Y-71524961D02*
X111204442Y-71572580D01*
X110966347Y-71572580D01*
X110871109Y-71524961D01*
X110823490Y-71477342D01*
X110775871Y-71382104D01*
X110775871Y-71286866D01*
X110823490Y-71191628D01*
X110871109Y-71144009D01*
X110966347Y-71096390D01*
X111156823Y-71048771D01*
X111252061Y-71001152D01*
X111299680Y-70953533D01*
X111347299Y-70858295D01*
X111347299Y-70763057D01*
X111299680Y-70667819D01*
X111252061Y-70620200D01*
X111156823Y-70572580D01*
X110918728Y-70572580D01*
X110775871Y-70620200D01*
X110442537Y-70572580D02*
X110204442Y-71572580D01*
X110013966Y-70858295D01*
X109823490Y-71572580D01*
X109585395Y-70572580D01*
X108680633Y-71572580D02*
X109252061Y-71572580D01*
X108966347Y-71572580D02*
X108966347Y-70572580D01*
X109061585Y-70715438D01*
X109156823Y-70810676D01*
X109252061Y-70858295D01*
X108204442Y-71572580D02*
X108013966Y-71572580D01*
X107918728Y-71524961D01*
X107871109Y-71477342D01*
X107775871Y-71334485D01*
X107728252Y-71144009D01*
X107728252Y-70763057D01*
X107775871Y-70667819D01*
X107823490Y-70620200D01*
X107918728Y-70572580D01*
X108109204Y-70572580D01*
X108204442Y-70620200D01*
X108252061Y-70667819D01*
X108299680Y-70763057D01*
X108299680Y-71001152D01*
X108252061Y-71096390D01*
X108204442Y-71144009D01*
X108109204Y-71191628D01*
X107918728Y-71191628D01*
X107823490Y-71144009D01*
X107775871Y-71096390D01*
X107728252Y-71001152D01*
X130397347Y-71524961D02*
X130254490Y-71572580D01*
X130016395Y-71572580D01*
X129921157Y-71524961D01*
X129873538Y-71477342D01*
X129825919Y-71382104D01*
X129825919Y-71286866D01*
X129873538Y-71191628D01*
X129921157Y-71144009D01*
X130016395Y-71096390D01*
X130206871Y-71048771D01*
X130302109Y-71001152D01*
X130349728Y-70953533D01*
X130397347Y-70858295D01*
X130397347Y-70763057D01*
X130349728Y-70667819D01*
X130302109Y-70620200D01*
X130206871Y-70572580D01*
X129968776Y-70572580D01*
X129825919Y-70620200D01*
X129492585Y-70572580D02*
X129254490Y-71572580D01*
X129064014Y-70858295D01*
X128873538Y-71572580D01*
X128635443Y-70572580D01*
X128302109Y-70667819D02*
X128254490Y-70620200D01*
X128159252Y-70572580D01*
X127921157Y-70572580D01*
X127825919Y-70620200D01*
X127778300Y-70667819D01*
X127730681Y-70763057D01*
X127730681Y-70858295D01*
X127778300Y-71001152D01*
X128349728Y-71572580D01*
X127730681Y-71572580D01*
X127111633Y-70572580D02*
X127016395Y-70572580D01*
X126921157Y-70620200D01*
X126873538Y-70667819D01*
X126825919Y-70763057D01*
X126778300Y-70953533D01*
X126778300Y-71191628D01*
X126825919Y-71382104D01*
X126873538Y-71477342D01*
X126921157Y-71524961D01*
X127016395Y-71572580D01*
X127111633Y-71572580D01*
X127206871Y-71524961D01*
X127254490Y-71477342D01*
X127302109Y-71382104D01*
X127349728Y-71191628D01*
X127349728Y-70953533D01*
X127302109Y-70763057D01*
X127254490Y-70667819D01*
X127206871Y-70620200D01*
X127111633Y-70572580D01*
%LPC*%
D12*
X63207050Y-25219350D03*
X63207050Y-23219350D03*
X63207050Y-21219350D03*
X63207050Y-19219350D03*
D13*
X84131900Y-61302500D03*
X84131900Y-57752500D03*
D14*
X84131900Y-55717500D03*
D15*
X84131900Y-63337500D03*
D16*
X97637776Y-71120200D03*
X121437776Y-71120200D03*
D17*
X97637776Y-86360200D03*
X121437776Y-86360200D03*
D16*
X116687824Y-71120200D03*
X140487824Y-71120200D03*
D17*
X116687824Y-86360200D03*
X140487824Y-86360200D03*
D18*
X145058178Y-31551642D03*
D12*
X63207050Y-44438700D03*
X63207050Y-42438700D03*
X63207050Y-40438700D03*
X63207050Y-38438700D03*
X63207050Y-63658050D03*
X63207050Y-61658050D03*
X63207050Y-59658050D03*
X63207050Y-57658050D03*
X63207050Y-82877400D03*
X63207050Y-80877400D03*
X63207050Y-78877400D03*
X63207050Y-76877400D03*
X146348025Y-25219350D03*
X146348025Y-23219350D03*
X146348025Y-21219350D03*
X146348025Y-19219350D03*
X146348025Y-44438700D03*
X146348025Y-42438700D03*
X146348025Y-40438700D03*
X146348025Y-38438700D03*
X146348025Y-63658050D03*
X146348025Y-61658050D03*
X146348025Y-59658050D03*
X146348025Y-57658050D03*
X146348025Y-82877400D03*
X146348025Y-80877400D03*
X146348025Y-78877400D03*
X146348025Y-76877400D03*
D18*
X64492374Y-69850176D03*
X145058178Y-69850176D03*
X64492374Y-31551642D03*
D19*
X77986146Y-51102070D03*
X77986146Y-50101310D03*
X76398642Y-50101310D03*
X76398642Y-51102070D03*
X74612700Y-51102070D03*
X74612700Y-50101310D03*
X72826758Y-50101310D03*
X72826758Y-51102070D03*
X82351782Y-70350556D03*
X82351782Y-69349796D03*
X80565840Y-69349796D03*
X80565840Y-70350556D03*
X78779898Y-70350556D03*
X78779898Y-69349796D03*
X76993956Y-69349796D03*
X76993956Y-70350556D03*
X140890980Y-33044212D03*
X140890980Y-32043452D03*
X139105038Y-32043452D03*
X139105038Y-33044212D03*
X137319096Y-32043452D03*
X137319096Y-33044212D03*
X135533154Y-33044212D03*
X135533154Y-32043452D03*
X136525344Y-50299748D03*
X136525344Y-51300508D03*
X138311286Y-50299748D03*
X138311286Y-51300508D03*
X140097228Y-51300508D03*
X140097228Y-50299748D03*
X141883170Y-50299748D03*
X141883170Y-51300508D03*
D20*
X103262500Y-14286600D03*
X96762500Y-14286600D03*
D13*
X84131900Y-23204900D03*
X84131900Y-19654900D03*
D14*
X84131900Y-17619900D03*
D15*
X84131900Y-25239900D03*
D13*
X84131900Y-42253700D03*
X84131900Y-38703700D03*
D14*
X84131900Y-36668700D03*
D15*
X84131900Y-44288700D03*
D21*
X75814258Y-87114282D03*
X79364258Y-87114282D03*
D14*
X81399258Y-87114282D03*
D15*
X73779258Y-87114282D03*
X111170750Y-25290450D03*
D14*
X111170750Y-17670450D03*
D13*
X111170750Y-19705450D03*
X111170750Y-23255450D03*
D15*
X111170750Y-44551300D03*
D14*
X111170750Y-36931300D03*
D13*
X111170750Y-38966300D03*
X111170750Y-42516300D03*
D15*
X107943200Y-63337500D03*
D14*
X107943200Y-55717500D03*
D13*
X107943200Y-57752500D03*
X107943200Y-61302500D03*
D15*
X105727776Y-87114282D03*
D14*
X113347776Y-87114282D03*
D21*
X111312776Y-87114282D03*
X107762776Y-87114282D03*
D13*
X126992000Y-25586150D03*
X126992000Y-22036150D03*
D14*
X126992000Y-20001150D03*
D15*
X126992000Y-27621150D03*
D13*
X126992000Y-42253700D03*
X126992000Y-38703700D03*
D14*
X126992000Y-36668700D03*
D15*
X126992000Y-44288700D03*
D13*
X126992000Y-61302500D03*
X126992000Y-57752500D03*
D14*
X126992000Y-55717500D03*
D15*
X126992000Y-63337500D03*
X110529966Y-58301094D03*
D14*
X110529966Y-65921094D03*
D13*
X110529966Y-63886094D03*
X110529966Y-60336094D03*
D15*
X130166800Y-27621150D03*
D14*
X130166800Y-20001150D03*
D13*
X130166800Y-22036150D03*
X130166800Y-25586150D03*
D15*
X130166800Y-44288700D03*
D14*
X130166800Y-36668700D03*
D13*
X130166800Y-38703700D03*
X130166800Y-42253700D03*
D15*
X130166800Y-63337500D03*
D14*
X130166800Y-55717500D03*
D13*
X130166800Y-57752500D03*
X130166800Y-61302500D03*
D21*
X133537832Y-87114282D03*
X129987832Y-87114282D03*
D14*
X127952832Y-87114282D03*
D15*
X135572832Y-87114282D03*
D22*
X72384900Y-24763600D03*
X78734900Y-27303600D03*
X73654900Y-27303600D03*
D16*
X76194900Y-22223600D03*
D22*
X80004900Y-24763600D03*
D23*
X71114900Y-22223600D03*
X81274900Y-22223600D03*
X81274900Y-41272400D03*
X71114900Y-41272400D03*
D22*
X80004900Y-43812400D03*
D16*
X76194900Y-41272400D03*
D22*
X73654900Y-46352400D03*
X78734900Y-46352400D03*
X72384900Y-43812400D03*
X72384900Y-62861200D03*
X78734900Y-65401200D03*
X73654900Y-65401200D03*
D16*
X76194900Y-60321200D03*
D22*
X80004900Y-62861200D03*
D23*
X71114900Y-60321200D03*
X81274900Y-60321200D03*
D22*
X72384900Y-81910000D03*
X78734900Y-84450000D03*
X73654900Y-84450000D03*
D16*
X76194900Y-79370000D03*
D22*
X80004900Y-81910000D03*
D23*
X71114900Y-79370000D03*
X81274900Y-79370000D03*
D22*
X96196200Y-24763600D03*
X102546200Y-27303600D03*
X97466200Y-27303600D03*
D16*
X100006200Y-22223600D03*
D22*
X103816200Y-24763600D03*
D23*
X94926200Y-22223600D03*
X105086200Y-22223600D03*
X105086200Y-41272400D03*
X94926200Y-41272400D03*
D22*
X103816200Y-43812400D03*
D16*
X100006200Y-41272400D03*
D22*
X97466200Y-46352400D03*
X102546200Y-46352400D03*
X96196200Y-43812400D03*
D23*
X105086200Y-60321200D03*
X94926200Y-60321200D03*
D22*
X103816200Y-62861200D03*
D16*
X100006200Y-60321200D03*
D22*
X97466200Y-65401200D03*
X102546200Y-65401200D03*
X96196200Y-62861200D03*
D23*
X105086200Y-79370000D03*
X94926200Y-79370000D03*
D22*
X103816200Y-81910000D03*
D16*
X100006200Y-79370000D03*
D22*
X97466200Y-84450000D03*
X102546200Y-84450000D03*
X96196200Y-81910000D03*
D23*
X124135000Y-22223600D03*
X113975000Y-22223600D03*
D22*
X122865000Y-24763600D03*
D16*
X119055000Y-22223600D03*
D22*
X116515000Y-27303600D03*
X121595000Y-27303600D03*
X115245000Y-24763600D03*
X115245000Y-43812400D03*
X121595000Y-46352400D03*
X116515000Y-46352400D03*
D16*
X119055000Y-41272400D03*
D22*
X122865000Y-43812400D03*
D23*
X113975000Y-41272400D03*
X124135000Y-41272400D03*
D22*
X115245000Y-62861200D03*
X121595000Y-65401200D03*
X116515000Y-65401200D03*
D16*
X119055000Y-60321200D03*
D22*
X122865000Y-62861200D03*
D23*
X113975000Y-60321200D03*
X124135000Y-60321200D03*
D22*
X115245000Y-81910000D03*
X121595000Y-84450000D03*
X116515000Y-84450000D03*
D16*
X119055000Y-79370000D03*
D22*
X122865000Y-81910000D03*
D23*
X113975000Y-79370000D03*
X124135000Y-79370000D03*
D22*
X134293800Y-24763600D03*
X140643800Y-27303600D03*
X135563800Y-27303600D03*
D16*
X138103800Y-22223600D03*
D22*
X141913800Y-24763600D03*
D23*
X133023800Y-22223600D03*
X143183800Y-22223600D03*
X143183800Y-41272400D03*
X133023800Y-41272400D03*
D22*
X141913800Y-43812400D03*
D16*
X138103800Y-41272400D03*
D22*
X135563800Y-46352400D03*
X140643800Y-46352400D03*
X134293800Y-43812400D03*
D23*
X143183800Y-60321200D03*
X133023800Y-60321200D03*
D22*
X141913800Y-62861200D03*
D16*
X138103800Y-60321200D03*
D22*
X135563800Y-65401200D03*
X140643800Y-65401200D03*
X134293800Y-62861200D03*
D23*
X143183800Y-79370000D03*
X133023800Y-79370000D03*
D22*
X141913800Y-81910000D03*
D16*
X138103800Y-79370000D03*
D22*
X135563800Y-84450000D03*
X140643800Y-84450000D03*
X134293800Y-81910000D03*
D24*
X92442600Y-16476300D03*
X92442600Y-19016300D03*
X92442600Y-21556300D03*
X92442600Y-24096300D03*
X92442600Y-26636300D03*
X92442600Y-29176300D03*
X92442600Y-31716300D03*
X92442600Y-34256300D03*
X92442600Y-36796300D03*
X92442600Y-39336300D03*
X92442600Y-41876300D03*
X92442600Y-44416300D03*
X107662600Y-44416300D03*
X107662600Y-41876300D03*
X107662600Y-39336300D03*
X107662600Y-36796300D03*
X107662600Y-34256300D03*
X107662600Y-31716300D03*
X107662600Y-29176300D03*
X107662600Y-26636300D03*
X107662600Y-24096300D03*
X107662600Y-21556300D03*
X107662600Y-19016300D03*
X107662600Y-16476300D03*
D22*
X113347776Y-76835200D03*
X106997776Y-74295200D03*
X112077776Y-74295200D03*
D16*
X109537776Y-79375200D03*
D22*
X105727776Y-76835200D03*
D23*
X114617776Y-79375200D03*
X104457776Y-79375200D03*
D22*
X132397824Y-76835200D03*
X126047824Y-74295200D03*
X131127824Y-74295200D03*
D16*
X128587824Y-79375200D03*
D22*
X124777824Y-76835200D03*
D23*
X133667824Y-79375200D03*
X123507824Y-79375200D03*
M02*
