G04 #@! TF.GenerationSoftware,KiCad,Pcbnew,5.1.4+dfsg1-1*
G04 #@! TF.CreationDate,2020-03-28T17:11:53+01:00*
G04 #@! TF.ProjectId,roni4x4ergo,726f6e69-3478-4346-9572-676f2e6b6963,rev?*
G04 #@! TF.SameCoordinates,Original*
G04 #@! TF.FileFunction,Paste,Top*
G04 #@! TF.FilePolarity,Positive*
%FSLAX46Y46*%
G04 Gerber Fmt 4.6, Leading zero omitted, Abs format (unit mm)*
G04 Created by KiCad (PCBNEW 5.1.4+dfsg1-1) date 2020-03-28 17:11:53*
%MOMM*%
%LPD*%
G04 APERTURE LIST*
%ADD10R,0.950000X1.300000*%
%ADD11R,1.143000X0.635000*%
%ADD12R,1.300000X0.950000*%
G04 APERTURE END LIST*
D10*
X84131900Y-57752500D03*
X84131900Y-61302500D03*
D11*
X72826758Y-32440328D03*
X72826758Y-33441088D03*
X74612700Y-33441088D03*
X74612700Y-32440328D03*
X76398642Y-32440328D03*
X76398642Y-33441088D03*
X78184584Y-32440328D03*
X78184584Y-33441088D03*
X78184584Y-51102070D03*
X78184584Y-50101310D03*
X76398642Y-50101310D03*
X76398642Y-51102070D03*
X74612700Y-51102070D03*
X74612700Y-50101310D03*
X72826758Y-50101310D03*
X72826758Y-51102070D03*
X136525344Y-50299748D03*
X136525344Y-51300508D03*
X138311286Y-51300508D03*
X138311286Y-50299748D03*
X140097228Y-50299748D03*
X140097228Y-51300508D03*
X141883170Y-51300508D03*
X141883170Y-50299748D03*
X132159708Y-69349796D03*
X132159708Y-70350556D03*
X133747212Y-70350556D03*
X133747212Y-69349796D03*
X135334716Y-70350556D03*
X135334716Y-69349796D03*
X137120658Y-69349796D03*
X137120658Y-70350556D03*
D10*
X84131900Y-19654900D03*
X84131900Y-23204900D03*
X84131900Y-38703700D03*
X84131900Y-42253700D03*
D12*
X79364258Y-87114282D03*
X75814258Y-87114282D03*
D10*
X111170750Y-23255450D03*
X111170750Y-19705450D03*
X111170750Y-42516300D03*
X111170750Y-38966300D03*
X107943200Y-61302500D03*
X107943200Y-57752500D03*
D12*
X107762776Y-87114282D03*
X111312776Y-87114282D03*
D10*
X126992000Y-22036150D03*
X126992000Y-25586150D03*
X126992000Y-38703700D03*
X126992000Y-42253700D03*
X126992000Y-57752500D03*
X126992000Y-61302500D03*
X110529966Y-60336094D03*
X110529966Y-63886094D03*
X130166800Y-25586150D03*
X130166800Y-22036150D03*
X130166800Y-42253700D03*
X130166800Y-38703700D03*
X130166800Y-61302500D03*
X130166800Y-57752500D03*
D12*
X129987832Y-87114282D03*
X133537832Y-87114282D03*
M02*
