M48
INCH,TZ
T1C0.0670
T2C0.1200
T3C0.1570
%
G90
G05
T1
X52372Y-16249
X27998Y-23749
X37373Y-31248
X41373Y-31248
X48625Y-31250
X52625Y-31250
X44872Y-31248
X48872Y-31248
X27998Y-8749
X31998Y-8749
X37373Y-16249
X41373Y-16249
X52372Y-8749
X56372Y-8749
X52372Y-23749
X56372Y-23749
X56372Y-16249
X37373Y-23749
X41373Y-23749
X52372Y-31248
X56372Y-31248
X27998Y-31248
X31998Y-31248
X44872Y-16249
X48872Y-16249
X44872Y-8749
X48872Y-8749
X31998Y-23749
X44872Y-23749
X48872Y-23749
X27998Y-16249
X31998Y-16249
X37373Y-8749
X41373Y-8749
X41125Y-31250
X45125Y-31250
T2
X38440Y-34000
X47810Y-34000
X45940Y-34000
X55310Y-34000
T3
X54372Y-31248
X29998Y-31248
X46872Y-16249
X46872Y-8749
X29998Y-23749
X46872Y-23749
X29998Y-16249
X39373Y-8749
X43125Y-31250
X39373Y-31248
X50625Y-31250
X38440Y-28000
X47810Y-28000
X46872Y-31248
X29998Y-8749
X39373Y-16249
X54372Y-8749
X54372Y-23749
X54372Y-16249
X45940Y-28000
X55310Y-28000
X39373Y-23749
T0
M30
