M48
INCH,TZ
T1C0.0157
T2C0.0315
T3C0.0320
T4C0.0512
T5C0.0590
T6C0.0866
%
G90
G05
T1
X25000Y-19375
X28047Y-14297
X28125Y-14844
X28594Y-22109
X28672Y-12266
X28672Y-20625
X28750Y-29688
X29375Y-12266
X29375Y-20625
X30078Y-20625
X30102Y-12266
X30391Y-28359
X30781Y-12344
X30781Y-20595
X30859Y-21953
X31719Y-14844
X31962Y-11704
X32943Y-19372
X33125Y-32969
X33163Y-19698
X33335Y-20052
X33516Y-20402
X36250Y-27734
X36251Y-27294
X36484Y-26953
X36577Y-26548
X36875Y-28516
X37140Y-13990
X37994Y-11396
X38130Y-14837
X41134Y-11107
X42390Y-18249
X42422Y-32969
X43040Y-12572
X43047Y-27969
X46875Y-20859
X46875Y-29609
X46884Y-13946
X47910Y-12973
X50391Y-32969
X50738Y-28550
X51570Y-27384
X52264Y-28203
X52656Y-28240
X52801Y-13047
X53047Y-28281
X53750Y-20688
X54375Y-6563
X54455Y-20688
X55156Y-20703
X55869Y-20700
X56406Y-21484
X56641Y-29453
T2
X24885Y-7567
X24885Y-8354
X24885Y-9141
X24885Y-9929
X57617Y-22700
X57617Y-23487
X57617Y-24275
X57617Y-25062
X57617Y-30267
X57617Y-31054
X57617Y-31841
X57617Y-32629
X57617Y-15133
X57617Y-15921
X57617Y-16708
X57617Y-17496
X24885Y-22700
X24885Y-23487
X24885Y-24275
X24885Y-25062
X24885Y-15133
X24885Y-15921
X24885Y-16708
X24885Y-17496
X24885Y-30267
X24885Y-31054
X24885Y-31841
X24885Y-32629
X57617Y-7567
X57617Y-8354
X57617Y-9141
X57617Y-9929
T3
X51247Y-14436
X51247Y-17436
X29047Y-34297
X32047Y-34297
X43768Y-6957
X43768Y-9957
X36395Y-6487
X36395Y-7487
X36395Y-8487
X36395Y-9487
X36395Y-10487
X36395Y-11487
X36395Y-12487
X36395Y-13487
X36395Y-14487
X36395Y-15487
X36395Y-16487
X36395Y-17487
X42387Y-6487
X42387Y-7487
X42387Y-8487
X42387Y-9487
X42387Y-10487
X42387Y-11487
X42387Y-12487
X42387Y-13487
X42387Y-14487
X42387Y-15487
X42387Y-16487
X42387Y-17487
X41625Y-34297
X44625Y-34297
X33123Y-14436
X33123Y-17436
X43768Y-14540
X43768Y-17540
X33123Y-6937
X33123Y-9937
X49997Y-14436
X49997Y-17436
X33123Y-21936
X33123Y-24936
X43516Y-22953
X43516Y-25953
X42497Y-21936
X42497Y-24936
X50375Y-34297
X53375Y-34297
X51247Y-7874
X51247Y-10874
X49997Y-21936
X49997Y-24936
X51247Y-21936
X51247Y-24936
X49997Y-7874
X49997Y-10874
T4
X38095Y-5625
X40655Y-5625
T5
X41625Y-30250
X42125Y-29250
X44125Y-29250
X44625Y-30250
X37873Y-32248
X38373Y-33248
X40373Y-33248
X40873Y-32248
X49125Y-30250
X49625Y-29250
X51625Y-29250
X52125Y-30250
X45372Y-32248
X45872Y-33248
X47872Y-33248
X48372Y-32248
X28498Y-9749
X28998Y-10749
X30998Y-10749
X31498Y-9749
X37873Y-17249
X38373Y-18249
X40373Y-18249
X40873Y-17249
X52872Y-9749
X53372Y-10749
X55372Y-10749
X55872Y-9749
X52872Y-24749
X53372Y-25749
X55372Y-25749
X55872Y-24749
X52872Y-17249
X53372Y-18249
X55372Y-18249
X55872Y-17249
X37873Y-24749
X38373Y-25749
X40373Y-25749
X40873Y-24749
X52872Y-32248
X53372Y-33248
X55372Y-33248
X55872Y-32248
X28498Y-32248
X28998Y-33248
X30998Y-33248
X31498Y-32248
X45372Y-17249
X45872Y-18249
X47872Y-18249
X48372Y-17249
X45372Y-9749
X45872Y-10749
X47872Y-10749
X48372Y-9749
X28498Y-24749
X28998Y-25749
X30998Y-25749
X31498Y-24749
X45372Y-24749
X45872Y-25749
X47872Y-25749
X48372Y-24749
X28498Y-17249
X28998Y-18249
X30998Y-18249
X31498Y-17249
X37873Y-9749
X38373Y-10749
X40373Y-10749
X40873Y-9749
T6
X25391Y-12422
X57110Y-27500
X25391Y-27500
X57110Y-12422
T0
M30
