M48
INCH,TZ
T1C0.0670
T2C0.1200
T3C0.1570
%
G90
G05
T1
X29873Y-23749
X33873Y-23749
X48625Y-31250
X52625Y-31250
X37373Y-23749
X41373Y-23749
X52372Y-8749
X56372Y-8749
X44872Y-31248
X48872Y-31248
X37373Y-8749
X41373Y-8749
X41125Y-31250
X45125Y-31250
X52372Y-16249
X56372Y-16249
X52372Y-31248
X56372Y-31248
X37373Y-31248
X41373Y-31248
X29873Y-8749
X33873Y-8749
X37373Y-16249
X41373Y-16249
X44872Y-16249
X48872Y-16249
X33625Y-31250
X37625Y-31250
X29873Y-16249
X33873Y-16249
X44872Y-8749
X48872Y-8749
X44872Y-23749
X48872Y-23749
X52372Y-23749
X56372Y-23749
X29873Y-31248
X33873Y-31248
T2
X30940Y-34000
X40310Y-34000
X45940Y-34000
X55310Y-34000
X38440Y-34000
X47810Y-34000
T3
X46872Y-31248
X39373Y-8749
X43125Y-31250
X54372Y-16249
X54372Y-31248
X39373Y-31248
X31873Y-8749
X39373Y-16249
X30940Y-28000
X40310Y-28000
X46872Y-16249
X35625Y-31250
X31873Y-16249
X46872Y-8749
X45940Y-28000
X55310Y-28000
X38440Y-28000
X47810Y-28000
X46872Y-23749
X54372Y-23749
X31873Y-31248
X31873Y-23749
X50625Y-31250
X39373Y-23749
X54372Y-8749
T0
M30
