M48
INCH,TZ
T1C0.0157
T2C0.0315
T3C0.0320
T4C0.0512
T5C0.0590
T6C0.0866
%
G90
G05
T1
X28750Y-19375
X30469Y-22109
X30496Y-15859
X30547Y-12266
X30547Y-20625
X30625Y-29688
X31250Y-12266
X31250Y-20625
X31953Y-20625
X31977Y-12266
X32266Y-28359
X32656Y-12344
X32656Y-20595
X32734Y-21953
X33594Y-14844
X33672Y-11790
X34818Y-19372
X35000Y-32969
X35038Y-19698
X35210Y-20052
X35391Y-20402
X35938Y-28125
X36223Y-27656
X36400Y-27188
X36577Y-26719
X36875Y-28516
X37140Y-13990
X37994Y-11399
X38130Y-14837
X41134Y-11107
X42390Y-18249
X42422Y-32969
X43040Y-12572
X43047Y-27969
X46875Y-21484
X46875Y-29609
X46884Y-13946
X46884Y-19584
X47910Y-12973
X50391Y-32969
X50738Y-28550
X51485Y-27656
X52264Y-28203
X52656Y-28240
X52801Y-13047
X53047Y-28281
X53750Y-20688
X54375Y-6563
X54455Y-20688
X55156Y-20703
X55869Y-20700
X56406Y-21484
X56641Y-29453
T2
X57617Y-7567
X57617Y-8354
X57617Y-9141
X57617Y-9929
X28635Y-30267
X28635Y-31054
X28635Y-31841
X28635Y-32629
X57617Y-15133
X57617Y-15921
X57617Y-16708
X57617Y-17496
X28635Y-7567
X28635Y-8354
X28635Y-9141
X28635Y-9929
X57617Y-30267
X57617Y-31054
X57617Y-31841
X57617Y-32629
X28635Y-22700
X28635Y-23487
X28635Y-24275
X28635Y-25062
X57617Y-22700
X57617Y-23487
X57617Y-24275
X57617Y-25062
X28635Y-15133
X28635Y-15921
X28635Y-16708
X28635Y-17496
T3
X51247Y-14436
X51247Y-17436
X50375Y-34297
X53375Y-34297
X41625Y-34297
X44625Y-34297
X43768Y-14540
X43768Y-17540
X34125Y-34297
X37125Y-34297
X34998Y-21936
X34998Y-24936
X49997Y-7874
X49997Y-10874
X43516Y-22953
X43516Y-25953
X49997Y-21936
X49997Y-24936
X51247Y-21936
X51247Y-24936
X34998Y-6937
X34998Y-9937
X36395Y-6487
X36395Y-7487
X36395Y-8487
X36395Y-9487
X36395Y-10487
X36395Y-11487
X36395Y-12487
X36395Y-13487
X36395Y-14487
X36395Y-15487
X36395Y-16487
X36395Y-17487
X42387Y-6487
X42387Y-7487
X42387Y-8487
X42387Y-9487
X42387Y-10487
X42387Y-11487
X42387Y-12487
X42387Y-13487
X42387Y-14487
X42387Y-15487
X42387Y-16487
X42387Y-17487
X43768Y-6957
X43768Y-9957
X51247Y-7874
X51247Y-10874
X49997Y-14436
X49997Y-17436
X42497Y-21936
X42497Y-24936
X34998Y-14436
X34998Y-17436
T4
X38095Y-5625
X40655Y-5625
T5
X34125Y-30250
X34625Y-29250
X36625Y-29250
X37125Y-30250
X30373Y-17249
X30873Y-18249
X32873Y-18249
X33373Y-17249
X45372Y-9749
X45872Y-10749
X47872Y-10749
X48372Y-9749
X45372Y-24749
X45872Y-25749
X47872Y-25749
X48372Y-24749
X52872Y-24749
X53372Y-25749
X55372Y-25749
X55872Y-24749
X30373Y-32248
X30873Y-33248
X32873Y-33248
X33373Y-32248
X30373Y-24749
X30873Y-25749
X32873Y-25749
X33373Y-24749
X49125Y-30250
X49625Y-29250
X51625Y-29250
X52125Y-30250
X37873Y-24749
X38373Y-25749
X40373Y-25749
X40873Y-24749
X52872Y-9749
X53372Y-10749
X55372Y-10749
X55872Y-9749
X45372Y-32248
X45872Y-33248
X47872Y-33248
X48372Y-32248
X37873Y-9749
X38373Y-10749
X40373Y-10749
X40873Y-9749
X41625Y-30250
X42125Y-29250
X44125Y-29250
X44625Y-30250
X52872Y-17249
X53372Y-18249
X55372Y-18249
X55872Y-17249
X52872Y-32248
X53372Y-33248
X55372Y-33248
X55872Y-32248
X37873Y-32248
X38373Y-33248
X40373Y-33248
X40873Y-32248
X30373Y-9749
X30873Y-10749
X32873Y-10749
X33373Y-9749
X37873Y-17249
X38373Y-18249
X40373Y-18249
X40873Y-17249
X45372Y-17249
X45872Y-18249
X47872Y-18249
X48372Y-17249
T6
X57110Y-12422
X29141Y-27500
X57110Y-27500
X29141Y-12422
T0
M30
