G04 #@! TF.GenerationSoftware,KiCad,Pcbnew,5.1.4+dfsg1-1*
G04 #@! TF.CreationDate,2020-03-28T17:09:33+01:00*
G04 #@! TF.ProjectId,roni4x4ortho,726f6e69-3478-4346-9f72-74686f2e6b69,rev?*
G04 #@! TF.SameCoordinates,Original*
G04 #@! TF.FileFunction,Paste,Bot*
G04 #@! TF.FilePolarity,Positive*
%FSLAX46Y46*%
G04 Gerber Fmt 4.6, Leading zero omitted, Abs format (unit mm)*
G04 Created by KiCad (PCBNEW 5.1.4+dfsg1-1) date 2020-03-28 17:09:33*
%MOMM*%
%LPD*%
G04 APERTURE LIST*
%ADD10R,1.143000X0.635000*%
%ADD11R,0.950000X1.300000*%
%ADD12R,1.300000X0.950000*%
G04 APERTURE END LIST*
D10*
X82748646Y-51102070D03*
X82748646Y-50101310D03*
X81161142Y-50101310D03*
X81161142Y-51102070D03*
X79375200Y-51102070D03*
X79375200Y-50101310D03*
X77589258Y-50101310D03*
X77589258Y-51102070D03*
X87114282Y-70350556D03*
X87114282Y-69349796D03*
X85328340Y-69349796D03*
X85328340Y-70350556D03*
X83542398Y-70350556D03*
X83542398Y-69349796D03*
X81756456Y-69349796D03*
X81756456Y-70350556D03*
X140890980Y-33044212D03*
X140890980Y-32043452D03*
X139105038Y-32043452D03*
X139105038Y-33044212D03*
X137319096Y-32043452D03*
X137319096Y-33044212D03*
X135533154Y-33044212D03*
X135533154Y-32043452D03*
X136525344Y-50299748D03*
X136525344Y-51300508D03*
X138311286Y-50299748D03*
X138311286Y-51300508D03*
X140097228Y-51300508D03*
X140097228Y-50299748D03*
X141883170Y-50299748D03*
X141883170Y-51300508D03*
D11*
X88894400Y-23204900D03*
X88894400Y-19654900D03*
X88894400Y-42253700D03*
X88894400Y-38703700D03*
X88894400Y-61302500D03*
X88894400Y-57752500D03*
D12*
X88712728Y-87114282D03*
X92262728Y-87114282D03*
D11*
X111170750Y-19705450D03*
X111170750Y-23255450D03*
X111170750Y-38966300D03*
X111170750Y-42516300D03*
X107943200Y-57752500D03*
X107943200Y-61302500D03*
D12*
X111312776Y-87114282D03*
X107762776Y-87114282D03*
D11*
X126992000Y-25586150D03*
X126992000Y-22036150D03*
X126992000Y-42253700D03*
X126992000Y-38703700D03*
X126992000Y-61302500D03*
X126992000Y-57752500D03*
X110529966Y-63886094D03*
X110529966Y-60336094D03*
X130166800Y-22036150D03*
X130166800Y-25586150D03*
X130166800Y-38703700D03*
X130166800Y-42253700D03*
X130166800Y-57752500D03*
X130166800Y-61302500D03*
D12*
X133537832Y-87114282D03*
X129987832Y-87114282D03*
M02*
