G04 #@! TF.GenerationSoftware,KiCad,Pcbnew,5.1.4+dfsg1-1*
G04 #@! TF.CreationDate,2020-03-28T17:02:21+01:00*
G04 #@! TF.ProjectId,roni4x2split,726f6e69-3478-4327-9370-6c69742e6b69,rev?*
G04 #@! TF.SameCoordinates,Original*
G04 #@! TF.FileFunction,Legend,Top*
G04 #@! TF.FilePolarity,Positive*
%FSLAX46Y46*%
G04 Gerber Fmt 4.6, Leading zero omitted, Abs format (unit mm)*
G04 Created by KiCad (PCBNEW 5.1.4+dfsg1-1) date 2020-03-28 17:02:21*
%MOMM*%
%LPD*%
G04 APERTURE LIST*
%ADD10C,0.150000*%
%ADD11C,0.120000*%
%ADD12C,0.152400*%
%ADD13C,0.125000*%
%ADD14C,4.502000*%
%ADD15C,3.150000*%
%ADD16C,4.089800*%
%ADD17R,1.702000X1.702000*%
%ADD18C,2.102000*%
%ADD19R,1.052000X1.402000*%
%ADD20R,1.499000X1.499000*%
%ADD21C,1.499000*%
%ADD22C,1.803800*%
%ADD23C,2.388000*%
%ADD24C,1.302000*%
%ADD25O,2.602000X1.802000*%
%ADD26R,1.245000X0.737000*%
%ADD27C,1.626000*%
G04 APERTURE END LIST*
D10*
X110675024Y-14739916D02*
X110675024Y-14073250D01*
X110675024Y-14263726D02*
X110722643Y-14168488D01*
X110770262Y-14120869D01*
X110865500Y-14073250D01*
X110960738Y-14073250D01*
X111436929Y-14739916D02*
X111341691Y-14692297D01*
X111294071Y-14644678D01*
X111246452Y-14549440D01*
X111246452Y-14263726D01*
X111294071Y-14168488D01*
X111341691Y-14120869D01*
X111436929Y-14073250D01*
X111579786Y-14073250D01*
X111675024Y-14120869D01*
X111722643Y-14168488D01*
X111770262Y-14263726D01*
X111770262Y-14549440D01*
X111722643Y-14644678D01*
X111675024Y-14692297D01*
X111579786Y-14739916D01*
X111436929Y-14739916D01*
X112198833Y-14073250D02*
X112198833Y-14739916D01*
X112198833Y-14168488D02*
X112246452Y-14120869D01*
X112341691Y-14073250D01*
X112484548Y-14073250D01*
X112579786Y-14120869D01*
X112627405Y-14216107D01*
X112627405Y-14739916D01*
X113103595Y-14739916D02*
X113103595Y-14073250D01*
X113103595Y-13739916D02*
X113055976Y-13787536D01*
X113103595Y-13835155D01*
X113151214Y-13787536D01*
X113103595Y-13739916D01*
X113103595Y-13835155D01*
X114770262Y-14073250D02*
X114770262Y-14739916D01*
X114532167Y-13692297D02*
X114294071Y-14406583D01*
X114913119Y-14406583D01*
X115198833Y-14739916D02*
X115722643Y-14073250D01*
X115198833Y-14073250D02*
X115722643Y-14739916D01*
X116532167Y-14073250D02*
X116532167Y-14739916D01*
X116294071Y-13692297D02*
X116055976Y-14406583D01*
X116675024Y-14406583D01*
X117770262Y-14692297D02*
X117865500Y-14739916D01*
X118055976Y-14739916D01*
X118151214Y-14692297D01*
X118198833Y-14597059D01*
X118198833Y-14549440D01*
X118151214Y-14454202D01*
X118055976Y-14406583D01*
X117913119Y-14406583D01*
X117817881Y-14358964D01*
X117770262Y-14263726D01*
X117770262Y-14216107D01*
X117817881Y-14120869D01*
X117913119Y-14073250D01*
X118055976Y-14073250D01*
X118151214Y-14120869D01*
X118627405Y-14073250D02*
X118627405Y-15073250D01*
X118627405Y-14120869D02*
X118722643Y-14073250D01*
X118913119Y-14073250D01*
X119008357Y-14120869D01*
X119055976Y-14168488D01*
X119103595Y-14263726D01*
X119103595Y-14549440D01*
X119055976Y-14644678D01*
X119008357Y-14692297D01*
X118913119Y-14739916D01*
X118722643Y-14739916D01*
X118627405Y-14692297D01*
X119675024Y-14739916D02*
X119579786Y-14692297D01*
X119532167Y-14597059D01*
X119532167Y-13739916D01*
X120055976Y-14739916D02*
X120055976Y-14073250D01*
X120055976Y-13739916D02*
X120008357Y-13787536D01*
X120055976Y-13835155D01*
X120103595Y-13787536D01*
X120055976Y-13739916D01*
X120055976Y-13835155D01*
X120389310Y-14073250D02*
X120770262Y-14073250D01*
X120532167Y-13739916D02*
X120532167Y-14597059D01*
X120579786Y-14692297D01*
X120675024Y-14739916D01*
X120770262Y-14739916D01*
X121865500Y-14739916D02*
X121865500Y-14073250D01*
X121865500Y-14263726D02*
X121913119Y-14168488D01*
X121960738Y-14120869D01*
X122055976Y-14073250D01*
X122151214Y-14073250D01*
X122865500Y-14692297D02*
X122770262Y-14739916D01*
X122579786Y-14739916D01*
X122484548Y-14692297D01*
X122436929Y-14597059D01*
X122436929Y-14216107D01*
X122484548Y-14120869D01*
X122579786Y-14073250D01*
X122770262Y-14073250D01*
X122865500Y-14120869D01*
X122913119Y-14216107D01*
X122913119Y-14311345D01*
X122436929Y-14406583D01*
X123246452Y-14073250D02*
X123484548Y-14739916D01*
X123722643Y-14073250D01*
X124627405Y-14739916D02*
X124055976Y-14739916D01*
X124341691Y-14739916D02*
X124341691Y-13739916D01*
X124246452Y-13882774D01*
X124151214Y-13978012D01*
X124055976Y-14025631D01*
X126532167Y-13692297D02*
X125675024Y-14978012D01*
X127294071Y-14073250D02*
X127294071Y-14739916D01*
X126865500Y-14073250D02*
X126865500Y-14597059D01*
X126913119Y-14692297D01*
X127008357Y-14739916D01*
X127151214Y-14739916D01*
X127246452Y-14692297D01*
X127294071Y-14644678D01*
X128484548Y-13692297D02*
X127627405Y-14978012D01*
X128817881Y-14739916D02*
X128817881Y-13739916D01*
X128817881Y-14120869D02*
X128913119Y-14073250D01*
X129103595Y-14073250D01*
X129198833Y-14120869D01*
X129246452Y-14168488D01*
X129294071Y-14263726D01*
X129294071Y-14549440D01*
X129246452Y-14644678D01*
X129198833Y-14692297D01*
X129103595Y-14739916D01*
X128913119Y-14739916D01*
X128817881Y-14692297D01*
X130151214Y-14739916D02*
X130151214Y-14216107D01*
X130103595Y-14120869D01*
X130008357Y-14073250D01*
X129817881Y-14073250D01*
X129722643Y-14120869D01*
X130151214Y-14692297D02*
X130055976Y-14739916D01*
X129817881Y-14739916D01*
X129722643Y-14692297D01*
X129675024Y-14597059D01*
X129675024Y-14501821D01*
X129722643Y-14406583D01*
X129817881Y-14358964D01*
X130055976Y-14358964D01*
X130151214Y-14311345D01*
X130484548Y-14073250D02*
X130865500Y-14073250D01*
X130627405Y-13739916D02*
X130627405Y-14597059D01*
X130675024Y-14692297D01*
X130770262Y-14739916D01*
X130865500Y-14739916D01*
X131198833Y-14739916D02*
X131198833Y-13739916D01*
X131627405Y-14739916D02*
X131627405Y-14216107D01*
X131579786Y-14120869D01*
X131484548Y-14073250D01*
X131341691Y-14073250D01*
X131246452Y-14120869D01*
X131198833Y-14168488D01*
X132246452Y-14739916D02*
X132151214Y-14692297D01*
X132103595Y-14644678D01*
X132055976Y-14549440D01*
X132055976Y-14263726D01*
X132103595Y-14168488D01*
X132151214Y-14120869D01*
X132246452Y-14073250D01*
X132389310Y-14073250D01*
X132484548Y-14120869D01*
X132532167Y-14168488D01*
X132579786Y-14263726D01*
X132579786Y-14549440D01*
X132532167Y-14644678D01*
X132484548Y-14692297D01*
X132389310Y-14739916D01*
X132246452Y-14739916D01*
X133151214Y-14739916D02*
X133055976Y-14692297D01*
X133008357Y-14644678D01*
X132960738Y-14549440D01*
X132960738Y-14263726D01*
X133008357Y-14168488D01*
X133055976Y-14120869D01*
X133151214Y-14073250D01*
X133294071Y-14073250D01*
X133389310Y-14120869D01*
X133436929Y-14168488D01*
X133484548Y-14263726D01*
X133484548Y-14549440D01*
X133436929Y-14644678D01*
X133389310Y-14692297D01*
X133294071Y-14739916D01*
X133151214Y-14739916D01*
X133913119Y-14739916D02*
X133913119Y-14073250D01*
X133913119Y-14263726D02*
X133960738Y-14168488D01*
X134008357Y-14120869D01*
X134103595Y-14073250D01*
X134198833Y-14073250D01*
X134532167Y-14073250D02*
X134532167Y-14739916D01*
X134532167Y-14168488D02*
X134579786Y-14120869D01*
X134675024Y-14073250D01*
X134817881Y-14073250D01*
X134913119Y-14120869D01*
X134960738Y-14216107D01*
X134960738Y-14739916D01*
X136198833Y-14739916D02*
X136198833Y-14073250D01*
X136198833Y-14168488D02*
X136246452Y-14120869D01*
X136341691Y-14073250D01*
X136484548Y-14073250D01*
X136579786Y-14120869D01*
X136627405Y-14216107D01*
X136627405Y-14739916D01*
X136627405Y-14216107D02*
X136675024Y-14120869D01*
X136770262Y-14073250D01*
X136913119Y-14073250D01*
X137008357Y-14120869D01*
X137055976Y-14216107D01*
X137055976Y-14739916D01*
X137960738Y-14739916D02*
X137960738Y-14216107D01*
X137913119Y-14120869D01*
X137817881Y-14073250D01*
X137627405Y-14073250D01*
X137532167Y-14120869D01*
X137960738Y-14692297D02*
X137865500Y-14739916D01*
X137627405Y-14739916D01*
X137532167Y-14692297D01*
X137484548Y-14597059D01*
X137484548Y-14501821D01*
X137532167Y-14406583D01*
X137627405Y-14358964D01*
X137865500Y-14358964D01*
X137960738Y-14311345D01*
X138436929Y-14739916D02*
X138436929Y-14073250D01*
X138436929Y-14263726D02*
X138484548Y-14168488D01*
X138532167Y-14120869D01*
X138627405Y-14073250D01*
X138722643Y-14073250D01*
X139484548Y-14692297D02*
X139389310Y-14739916D01*
X139198833Y-14739916D01*
X139103595Y-14692297D01*
X139055976Y-14644678D01*
X139008357Y-14549440D01*
X139008357Y-14263726D01*
X139055976Y-14168488D01*
X139103595Y-14120869D01*
X139198833Y-14073250D01*
X139389310Y-14073250D01*
X139484548Y-14120869D01*
X139913119Y-14739916D02*
X139913119Y-13739916D01*
X140341691Y-14739916D02*
X140341691Y-14216107D01*
X140294071Y-14120869D01*
X140198833Y-14073250D01*
X140055976Y-14073250D01*
X139960738Y-14120869D01*
X139913119Y-14168488D01*
X141532167Y-13835155D02*
X141579786Y-13787536D01*
X141675024Y-13739916D01*
X141913119Y-13739916D01*
X142008357Y-13787536D01*
X142055976Y-13835155D01*
X142103595Y-13930393D01*
X142103595Y-14025631D01*
X142055976Y-14168488D01*
X141484548Y-14739916D01*
X142103595Y-14739916D01*
X142722643Y-13739916D02*
X142817881Y-13739916D01*
X142913119Y-13787536D01*
X142960738Y-13835155D01*
X143008357Y-13930393D01*
X143055976Y-14120869D01*
X143055976Y-14358964D01*
X143008357Y-14549440D01*
X142960738Y-14644678D01*
X142913119Y-14692297D01*
X142817881Y-14739916D01*
X142722643Y-14739916D01*
X142627405Y-14692297D01*
X142579786Y-14644678D01*
X142532167Y-14549440D01*
X142484548Y-14358964D01*
X142484548Y-14120869D01*
X142532167Y-13930393D01*
X142579786Y-13835155D01*
X142627405Y-13787536D01*
X142722643Y-13739916D01*
X143436929Y-13835155D02*
X143484548Y-13787536D01*
X143579786Y-13739916D01*
X143817881Y-13739916D01*
X143913119Y-13787536D01*
X143960738Y-13835155D01*
X144008357Y-13930393D01*
X144008357Y-14025631D01*
X143960738Y-14168488D01*
X143389310Y-14739916D01*
X144008357Y-14739916D01*
X144627405Y-13739916D02*
X144722643Y-13739916D01*
X144817881Y-13787536D01*
X144865500Y-13835155D01*
X144913119Y-13930393D01*
X144960738Y-14120869D01*
X144960738Y-14358964D01*
X144913119Y-14549440D01*
X144865500Y-14644678D01*
X144817881Y-14692297D01*
X144722643Y-14739916D01*
X144627405Y-14739916D01*
X144532167Y-14692297D01*
X144484548Y-14644678D01*
X144436929Y-14549440D01*
X144389310Y-14358964D01*
X144389310Y-14120869D01*
X144436929Y-13930393D01*
X144484548Y-13835155D01*
X144532167Y-13787536D01*
X144627405Y-13739916D01*
D11*
X145288025Y-18203350D02*
X147408025Y-18203350D01*
X147408025Y-18203350D02*
X147408025Y-26279350D01*
X145288025Y-18203350D02*
X145288025Y-26279350D01*
X145288025Y-26279350D02*
X147408025Y-26279350D01*
X145288025Y-37422700D02*
X147408025Y-37422700D01*
X147408025Y-37422700D02*
X147408025Y-45498700D01*
X145288025Y-37422700D02*
X145288025Y-45498700D01*
X145288025Y-45498700D02*
X147408025Y-45498700D01*
X145288025Y-56642050D02*
X147408025Y-56642050D01*
X147408025Y-56642050D02*
X147408025Y-64718050D01*
X145288025Y-56642050D02*
X145288025Y-64718050D01*
X145288025Y-64718050D02*
X147408025Y-64718050D01*
X145288025Y-75861400D02*
X147408025Y-75861400D01*
X147408025Y-75861400D02*
X147408025Y-83937400D01*
X145288025Y-75861400D02*
X145288025Y-83937400D01*
X145288025Y-83937400D02*
X147408025Y-83937400D01*
D10*
X97012500Y-16036600D02*
X103012500Y-16036600D01*
X103012500Y-16036600D02*
X103012500Y-15786600D01*
X97012500Y-16036600D02*
X97012500Y-15786600D01*
X97012500Y-12536600D02*
X97012500Y-12786600D01*
X97012500Y-12536600D02*
X103012500Y-12536600D01*
X103012500Y-12536600D02*
X103012500Y-12786600D01*
X126992000Y-23411150D02*
X127492000Y-24311150D01*
X127492000Y-24311150D02*
X126492000Y-24311150D01*
X126492000Y-24311150D02*
X126992000Y-23411150D01*
X127492000Y-23311150D02*
X126492000Y-23311150D01*
X127742000Y-26511150D02*
X127742000Y-21111150D01*
X127742000Y-21111150D02*
X126242000Y-21111150D01*
X126242000Y-21111150D02*
X126242000Y-26511150D01*
X126242000Y-26511150D02*
X127742000Y-26511150D01*
X126992000Y-40078700D02*
X127492000Y-40978700D01*
X127492000Y-40978700D02*
X126492000Y-40978700D01*
X126492000Y-40978700D02*
X126992000Y-40078700D01*
X127492000Y-39978700D02*
X126492000Y-39978700D01*
X127742000Y-43178700D02*
X127742000Y-37778700D01*
X127742000Y-37778700D02*
X126242000Y-37778700D01*
X126242000Y-37778700D02*
X126242000Y-43178700D01*
X126242000Y-43178700D02*
X127742000Y-43178700D01*
X126992000Y-59127500D02*
X127492000Y-60027500D01*
X127492000Y-60027500D02*
X126492000Y-60027500D01*
X126492000Y-60027500D02*
X126992000Y-59127500D01*
X127492000Y-59027500D02*
X126492000Y-59027500D01*
X127742000Y-62227500D02*
X127742000Y-56827500D01*
X127742000Y-56827500D02*
X126242000Y-56827500D01*
X126242000Y-56827500D02*
X126242000Y-62227500D01*
X126242000Y-62227500D02*
X127742000Y-62227500D01*
X116725296Y-81678324D02*
X118225296Y-81678324D01*
X116725296Y-76278324D02*
X116725296Y-81678324D01*
X118225296Y-76278324D02*
X116725296Y-76278324D01*
X118225296Y-81678324D02*
X118225296Y-76278324D01*
X117975296Y-78478324D02*
X116975296Y-78478324D01*
X116975296Y-79478324D02*
X117475296Y-78578324D01*
X117975296Y-79478324D02*
X116975296Y-79478324D01*
X117475296Y-78578324D02*
X117975296Y-79478324D01*
X129416800Y-26511150D02*
X130916800Y-26511150D01*
X129416800Y-21111150D02*
X129416800Y-26511150D01*
X130916800Y-21111150D02*
X129416800Y-21111150D01*
X130916800Y-26511150D02*
X130916800Y-21111150D01*
X130666800Y-23311150D02*
X129666800Y-23311150D01*
X129666800Y-24311150D02*
X130166800Y-23411150D01*
X130666800Y-24311150D02*
X129666800Y-24311150D01*
X130166800Y-23411150D02*
X130666800Y-24311150D01*
X129416800Y-43178700D02*
X130916800Y-43178700D01*
X129416800Y-37778700D02*
X129416800Y-43178700D01*
X130916800Y-37778700D02*
X129416800Y-37778700D01*
X130916800Y-43178700D02*
X130916800Y-37778700D01*
X130666800Y-39978700D02*
X129666800Y-39978700D01*
X129666800Y-40978700D02*
X130166800Y-40078700D01*
X130666800Y-40978700D02*
X129666800Y-40978700D01*
X130166800Y-40078700D02*
X130666800Y-40978700D01*
X129416800Y-62227500D02*
X130916800Y-62227500D01*
X129416800Y-56827500D02*
X129416800Y-62227500D01*
X130916800Y-56827500D02*
X129416800Y-56827500D01*
X130916800Y-62227500D02*
X130916800Y-56827500D01*
X130666800Y-59027500D02*
X129666800Y-59027500D01*
X129666800Y-60027500D02*
X130166800Y-59127500D01*
X130666800Y-60027500D02*
X129666800Y-60027500D01*
X130166800Y-59127500D02*
X130666800Y-60027500D01*
X120650304Y-78578324D02*
X121150304Y-79478324D01*
X121150304Y-79478324D02*
X120150304Y-79478324D01*
X120150304Y-79478324D02*
X120650304Y-78578324D01*
X121150304Y-78478324D02*
X120150304Y-78478324D01*
X121400304Y-81678324D02*
X121400304Y-76278324D01*
X121400304Y-76278324D02*
X119900304Y-76278324D01*
X119900304Y-76278324D02*
X119900304Y-81678324D01*
X119900304Y-81678324D02*
X121400304Y-81678324D01*
X126055000Y-28223600D02*
X126055000Y-29223600D01*
X126055000Y-15223600D02*
X126055000Y-16223600D01*
X112055000Y-29223600D02*
X112055000Y-28223600D01*
X113055000Y-29223600D02*
X112055000Y-29223600D01*
X112055000Y-15223600D02*
X113055000Y-15223600D01*
X112055000Y-16223600D02*
X112055000Y-15223600D01*
X125055000Y-15223600D02*
X126055000Y-15223600D01*
X126055000Y-29223600D02*
X125055000Y-29223600D01*
X126055000Y-48272400D02*
X125055000Y-48272400D01*
X125055000Y-34272400D02*
X126055000Y-34272400D01*
X112055000Y-35272400D02*
X112055000Y-34272400D01*
X112055000Y-34272400D02*
X113055000Y-34272400D01*
X113055000Y-48272400D02*
X112055000Y-48272400D01*
X112055000Y-48272400D02*
X112055000Y-47272400D01*
X126055000Y-34272400D02*
X126055000Y-35272400D01*
X126055000Y-47272400D02*
X126055000Y-48272400D01*
X126055000Y-67321200D02*
X125055000Y-67321200D01*
X125055000Y-53321200D02*
X126055000Y-53321200D01*
X112055000Y-54321200D02*
X112055000Y-53321200D01*
X112055000Y-53321200D02*
X113055000Y-53321200D01*
X113055000Y-67321200D02*
X112055000Y-67321200D01*
X112055000Y-67321200D02*
X112055000Y-66321200D01*
X126055000Y-53321200D02*
X126055000Y-54321200D01*
X126055000Y-66321200D02*
X126055000Y-67321200D01*
X102537776Y-72375200D02*
X103537776Y-72375200D01*
X103537776Y-86375200D02*
X102537776Y-86375200D01*
X116537776Y-85375200D02*
X116537776Y-86375200D01*
X116537776Y-86375200D02*
X115537776Y-86375200D01*
X115537776Y-72375200D02*
X116537776Y-72375200D01*
X116537776Y-72375200D02*
X116537776Y-73375200D01*
X102537776Y-86375200D02*
X102537776Y-85375200D01*
X102537776Y-73375200D02*
X102537776Y-72375200D01*
X145103800Y-29223600D02*
X144103800Y-29223600D01*
X144103800Y-15223600D02*
X145103800Y-15223600D01*
X131103800Y-16223600D02*
X131103800Y-15223600D01*
X131103800Y-15223600D02*
X132103800Y-15223600D01*
X132103800Y-29223600D02*
X131103800Y-29223600D01*
X131103800Y-29223600D02*
X131103800Y-28223600D01*
X145103800Y-15223600D02*
X145103800Y-16223600D01*
X145103800Y-28223600D02*
X145103800Y-29223600D01*
X145103800Y-47272400D02*
X145103800Y-48272400D01*
X145103800Y-34272400D02*
X145103800Y-35272400D01*
X131103800Y-48272400D02*
X131103800Y-47272400D01*
X132103800Y-48272400D02*
X131103800Y-48272400D01*
X131103800Y-34272400D02*
X132103800Y-34272400D01*
X131103800Y-35272400D02*
X131103800Y-34272400D01*
X144103800Y-34272400D02*
X145103800Y-34272400D01*
X145103800Y-48272400D02*
X144103800Y-48272400D01*
X145103800Y-66321200D02*
X145103800Y-67321200D01*
X145103800Y-53321200D02*
X145103800Y-54321200D01*
X131103800Y-67321200D02*
X131103800Y-66321200D01*
X132103800Y-67321200D02*
X131103800Y-67321200D01*
X131103800Y-53321200D02*
X132103800Y-53321200D01*
X131103800Y-54321200D02*
X131103800Y-53321200D01*
X144103800Y-53321200D02*
X145103800Y-53321200D01*
X145103800Y-67321200D02*
X144103800Y-67321200D01*
X145103800Y-85370000D02*
X145103800Y-86370000D01*
X145103800Y-72370000D02*
X145103800Y-73370000D01*
X131103800Y-86370000D02*
X131103800Y-85370000D01*
X132103800Y-86370000D02*
X131103800Y-86370000D01*
X131103800Y-72370000D02*
X132103800Y-72370000D01*
X131103800Y-73370000D02*
X131103800Y-72370000D01*
X144103800Y-72370000D02*
X145103800Y-72370000D01*
X145103800Y-86370000D02*
X144103800Y-86370000D01*
X121587824Y-72375200D02*
X122587824Y-72375200D01*
X122587824Y-86375200D02*
X121587824Y-86375200D01*
X135587824Y-85375200D02*
X135587824Y-86375200D01*
X135587824Y-86375200D02*
X134587824Y-86375200D01*
X134587824Y-72375200D02*
X135587824Y-72375200D01*
X135587824Y-72375200D02*
X135587824Y-73375200D01*
X121587824Y-86375200D02*
X121587824Y-85375200D01*
X121587824Y-73375200D02*
X121587824Y-72375200D01*
X107012752Y-86375200D02*
X106012752Y-86375200D01*
X106012752Y-72375200D02*
X107012752Y-72375200D01*
X93012752Y-73375200D02*
X93012752Y-72375200D01*
X93012752Y-72375200D02*
X94012752Y-72375200D01*
X94012752Y-86375200D02*
X93012752Y-86375200D01*
X93012752Y-86375200D02*
X93012752Y-85375200D01*
X107012752Y-72375200D02*
X107012752Y-73375200D01*
X107012752Y-85375200D02*
X107012752Y-86375200D01*
X90289290Y-62531400D02*
X90289290Y-56531400D01*
X90289290Y-56531400D02*
X102289290Y-56531400D01*
X102289290Y-56531400D02*
X102289290Y-62531400D01*
X102289290Y-62531400D02*
X90289290Y-62531400D01*
X94972430Y-53657632D02*
X105132430Y-53657632D01*
X94972430Y-51117632D02*
X105132430Y-51117632D01*
X105132430Y-51117632D02*
X105132430Y-53657632D01*
X94972430Y-53657632D02*
X94972430Y-51117632D01*
X103092512Y-50554062D02*
X103092512Y-48268062D01*
X103092512Y-48268062D02*
X104870512Y-48268062D01*
X104870512Y-48268062D02*
X104870512Y-50554062D01*
X104870512Y-50554062D02*
X103092512Y-50554062D01*
X102290818Y-50554062D02*
X100512818Y-50554062D01*
X102290818Y-48268062D02*
X102290818Y-50554062D01*
X100512818Y-48268062D02*
X102290818Y-48268062D01*
X100512818Y-50554062D02*
X100512818Y-48268062D01*
X97933124Y-50554062D02*
X97933124Y-48268062D01*
X97933124Y-48268062D02*
X99711124Y-48268062D01*
X99711124Y-48268062D02*
X99711124Y-50554062D01*
X99711124Y-50554062D02*
X97933124Y-50554062D01*
X97131430Y-50554062D02*
X95353430Y-50554062D01*
X97131430Y-48268062D02*
X97131430Y-50554062D01*
X95353430Y-48268062D02*
X97131430Y-48268062D01*
X95353430Y-50554062D02*
X95353430Y-48268062D01*
X107391342Y-45686300D02*
X107391342Y-15206300D01*
X109931342Y-45686300D02*
X107391342Y-45686300D01*
X109931342Y-15206300D02*
X109931342Y-45686300D01*
X107391342Y-15206300D02*
X109931342Y-15206300D01*
X92171342Y-45686300D02*
X92171342Y-15206300D01*
X94711342Y-45686300D02*
X92171342Y-45686300D01*
X94711342Y-15206300D02*
X94711342Y-45686300D01*
X92171342Y-15206300D02*
X94711342Y-15206300D01*
X91734088Y-67102556D02*
X91400755Y-66626366D01*
X91162660Y-67102556D02*
X91162660Y-66102556D01*
X91543612Y-66102556D01*
X91638850Y-66150176D01*
X91686469Y-66197795D01*
X91734088Y-66293033D01*
X91734088Y-66435890D01*
X91686469Y-66531128D01*
X91638850Y-66578747D01*
X91543612Y-66626366D01*
X91162660Y-66626366D01*
X92162660Y-66578747D02*
X92495993Y-66578747D01*
X92638850Y-67102556D02*
X92162660Y-67102556D01*
X92162660Y-66102556D01*
X92638850Y-66102556D01*
X93400755Y-66578747D02*
X93067422Y-66578747D01*
X93067422Y-67102556D02*
X93067422Y-66102556D01*
X93543612Y-66102556D01*
X94067422Y-66102556D02*
X94067422Y-66340652D01*
X93829326Y-66245414D02*
X94067422Y-66340652D01*
X94305517Y-66245414D01*
X93924564Y-66531128D02*
X94067422Y-66340652D01*
X94210279Y-66531128D01*
X94829326Y-66102556D02*
X94829326Y-66340652D01*
X94591231Y-66245414D02*
X94829326Y-66340652D01*
X95067422Y-66245414D01*
X94686469Y-66531128D02*
X94829326Y-66340652D01*
X94972183Y-66531128D01*
X143724844Y-29002460D02*
X143391511Y-28526270D01*
X143153416Y-29002460D02*
X143153416Y-28002460D01*
X143534368Y-28002460D01*
X143629606Y-28050080D01*
X143677225Y-28097699D01*
X143724844Y-28192937D01*
X143724844Y-28335794D01*
X143677225Y-28431032D01*
X143629606Y-28478651D01*
X143534368Y-28526270D01*
X143153416Y-28526270D01*
X144153416Y-28478651D02*
X144486749Y-28478651D01*
X144629606Y-29002460D02*
X144153416Y-29002460D01*
X144153416Y-28002460D01*
X144629606Y-28002460D01*
X145391511Y-28478651D02*
X145058178Y-28478651D01*
X145058178Y-29002460D02*
X145058178Y-28002460D01*
X145534368Y-28002460D01*
X146058178Y-28002460D02*
X146058178Y-28240556D01*
X145820082Y-28145318D02*
X146058178Y-28240556D01*
X146296273Y-28145318D01*
X145915320Y-28431032D02*
X146058178Y-28240556D01*
X146201035Y-28431032D01*
X146820082Y-28002460D02*
X146820082Y-28240556D01*
X146581987Y-28145318D02*
X146820082Y-28240556D01*
X147058178Y-28145318D01*
X146677225Y-28431032D02*
X146820082Y-28240556D01*
X146962939Y-28431032D01*
X143724844Y-67102556D02*
X143391511Y-66626366D01*
X143153416Y-67102556D02*
X143153416Y-66102556D01*
X143534368Y-66102556D01*
X143629606Y-66150176D01*
X143677225Y-66197795D01*
X143724844Y-66293033D01*
X143724844Y-66435890D01*
X143677225Y-66531128D01*
X143629606Y-66578747D01*
X143534368Y-66626366D01*
X143153416Y-66626366D01*
X144153416Y-66578747D02*
X144486749Y-66578747D01*
X144629606Y-67102556D02*
X144153416Y-67102556D01*
X144153416Y-66102556D01*
X144629606Y-66102556D01*
X145391511Y-66578747D02*
X145058178Y-66578747D01*
X145058178Y-67102556D02*
X145058178Y-66102556D01*
X145534368Y-66102556D01*
X146058178Y-66102556D02*
X146058178Y-66340652D01*
X145820082Y-66245414D02*
X146058178Y-66340652D01*
X146296273Y-66245414D01*
X145915320Y-66531128D02*
X146058178Y-66340652D01*
X146201035Y-66531128D01*
X146820082Y-66102556D02*
X146820082Y-66340652D01*
X146581987Y-66245414D02*
X146820082Y-66340652D01*
X147058178Y-66245414D01*
X146677225Y-66531128D02*
X146820082Y-66340652D01*
X146962939Y-66531128D01*
X146014691Y-16611730D02*
X146014691Y-17326016D01*
X145967072Y-17468873D01*
X145871834Y-17564111D01*
X145728977Y-17611730D01*
X145633739Y-17611730D01*
X146967072Y-16611730D02*
X146490882Y-16611730D01*
X146443263Y-17087921D01*
X146490882Y-17040302D01*
X146586120Y-16992683D01*
X146824215Y-16992683D01*
X146919453Y-17040302D01*
X146967072Y-17087921D01*
X147014691Y-17183159D01*
X147014691Y-17421254D01*
X146967072Y-17516492D01*
X146919453Y-17564111D01*
X146824215Y-17611730D01*
X146586120Y-17611730D01*
X146490882Y-17564111D01*
X146443263Y-17516492D01*
X146014691Y-35831080D02*
X146014691Y-36545366D01*
X145967072Y-36688223D01*
X145871834Y-36783461D01*
X145728977Y-36831080D01*
X145633739Y-36831080D01*
X146919453Y-35831080D02*
X146728977Y-35831080D01*
X146633739Y-35878700D01*
X146586120Y-35926319D01*
X146490882Y-36069176D01*
X146443263Y-36259652D01*
X146443263Y-36640604D01*
X146490882Y-36735842D01*
X146538501Y-36783461D01*
X146633739Y-36831080D01*
X146824215Y-36831080D01*
X146919453Y-36783461D01*
X146967072Y-36735842D01*
X147014691Y-36640604D01*
X147014691Y-36402509D01*
X146967072Y-36307271D01*
X146919453Y-36259652D01*
X146824215Y-36212033D01*
X146633739Y-36212033D01*
X146538501Y-36259652D01*
X146490882Y-36307271D01*
X146443263Y-36402509D01*
X146014691Y-55050430D02*
X146014691Y-55764716D01*
X145967072Y-55907573D01*
X145871834Y-56002811D01*
X145728977Y-56050430D01*
X145633739Y-56050430D01*
X146395644Y-55050430D02*
X147062310Y-55050430D01*
X146633739Y-56050430D01*
X146014691Y-74269780D02*
X146014691Y-74984066D01*
X145967072Y-75126923D01*
X145871834Y-75222161D01*
X145728977Y-75269780D01*
X145633739Y-75269780D01*
X146633739Y-74698352D02*
X146538501Y-74650733D01*
X146490882Y-74603114D01*
X146443263Y-74507876D01*
X146443263Y-74460257D01*
X146490882Y-74365019D01*
X146538501Y-74317400D01*
X146633739Y-74269780D01*
X146824215Y-74269780D01*
X146919453Y-74317400D01*
X146967072Y-74365019D01*
X147014691Y-74460257D01*
X147014691Y-74507876D01*
X146967072Y-74603114D01*
X146919453Y-74650733D01*
X146824215Y-74698352D01*
X146633739Y-74698352D01*
X146538501Y-74745971D01*
X146490882Y-74793590D01*
X146443263Y-74888828D01*
X146443263Y-75079304D01*
X146490882Y-75174542D01*
X146538501Y-75222161D01*
X146633739Y-75269780D01*
X146824215Y-75269780D01*
X146919453Y-75222161D01*
X146967072Y-75174542D01*
X147014691Y-75079304D01*
X147014691Y-74888828D01*
X146967072Y-74793590D01*
X146919453Y-74745971D01*
X146824215Y-74698352D01*
X98560119Y-14738980D02*
X98226785Y-14262790D01*
X97988690Y-14738980D02*
X97988690Y-13738980D01*
X98369642Y-13738980D01*
X98464880Y-13786600D01*
X98512500Y-13834219D01*
X98560119Y-13929457D01*
X98560119Y-14072314D01*
X98512500Y-14167552D01*
X98464880Y-14215171D01*
X98369642Y-14262790D01*
X97988690Y-14262790D01*
X98988690Y-14215171D02*
X99322023Y-14215171D01*
X99464880Y-14738980D02*
X98988690Y-14738980D01*
X98988690Y-13738980D01*
X99464880Y-13738980D01*
X99845833Y-14691361D02*
X99988690Y-14738980D01*
X100226785Y-14738980D01*
X100322023Y-14691361D01*
X100369642Y-14643742D01*
X100417261Y-14548504D01*
X100417261Y-14453266D01*
X100369642Y-14358028D01*
X100322023Y-14310409D01*
X100226785Y-14262790D01*
X100036309Y-14215171D01*
X99941071Y-14167552D01*
X99893452Y-14119933D01*
X99845833Y-14024695D01*
X99845833Y-13929457D01*
X99893452Y-13834219D01*
X99941071Y-13786600D01*
X100036309Y-13738980D01*
X100274404Y-13738980D01*
X100417261Y-13786600D01*
X100845833Y-14215171D02*
X101179166Y-14215171D01*
X101322023Y-14738980D02*
X100845833Y-14738980D01*
X100845833Y-13738980D01*
X101322023Y-13738980D01*
X101607738Y-13738980D02*
X102179166Y-13738980D01*
X101893452Y-14738980D02*
X101893452Y-13738980D01*
X117721666Y-30883361D02*
X117864523Y-30930980D01*
X118102619Y-30930980D01*
X118197857Y-30883361D01*
X118245476Y-30835742D01*
X118293095Y-30740504D01*
X118293095Y-30645266D01*
X118245476Y-30550028D01*
X118197857Y-30502409D01*
X118102619Y-30454790D01*
X117912142Y-30407171D01*
X117816904Y-30359552D01*
X117769285Y-30311933D01*
X117721666Y-30216695D01*
X117721666Y-30121457D01*
X117769285Y-30026219D01*
X117816904Y-29978600D01*
X117912142Y-29930980D01*
X118150238Y-29930980D01*
X118293095Y-29978600D01*
X118626428Y-29930980D02*
X118864523Y-30930980D01*
X119055000Y-30216695D01*
X119245476Y-30930980D01*
X119483571Y-29930980D01*
X119912142Y-30930980D02*
X120102619Y-30930980D01*
X120197857Y-30883361D01*
X120245476Y-30835742D01*
X120340714Y-30692885D01*
X120388333Y-30502409D01*
X120388333Y-30121457D01*
X120340714Y-30026219D01*
X120293095Y-29978600D01*
X120197857Y-29930980D01*
X120007380Y-29930980D01*
X119912142Y-29978600D01*
X119864523Y-30026219D01*
X119816904Y-30121457D01*
X119816904Y-30359552D01*
X119864523Y-30454790D01*
X119912142Y-30502409D01*
X120007380Y-30550028D01*
X120197857Y-30550028D01*
X120293095Y-30502409D01*
X120340714Y-30454790D01*
X120388333Y-30359552D01*
X117245476Y-49932161D02*
X117388333Y-49979780D01*
X117626428Y-49979780D01*
X117721666Y-49932161D01*
X117769285Y-49884542D01*
X117816904Y-49789304D01*
X117816904Y-49694066D01*
X117769285Y-49598828D01*
X117721666Y-49551209D01*
X117626428Y-49503590D01*
X117435952Y-49455971D01*
X117340714Y-49408352D01*
X117293095Y-49360733D01*
X117245476Y-49265495D01*
X117245476Y-49170257D01*
X117293095Y-49075019D01*
X117340714Y-49027400D01*
X117435952Y-48979780D01*
X117674047Y-48979780D01*
X117816904Y-49027400D01*
X118150238Y-48979780D02*
X118388333Y-49979780D01*
X118578809Y-49265495D01*
X118769285Y-49979780D01*
X119007380Y-48979780D01*
X119912142Y-49979780D02*
X119340714Y-49979780D01*
X119626428Y-49979780D02*
X119626428Y-48979780D01*
X119531190Y-49122638D01*
X119435952Y-49217876D01*
X119340714Y-49265495D01*
X120531190Y-48979780D02*
X120626428Y-48979780D01*
X120721666Y-49027400D01*
X120769285Y-49075019D01*
X120816904Y-49170257D01*
X120864523Y-49360733D01*
X120864523Y-49598828D01*
X120816904Y-49789304D01*
X120769285Y-49884542D01*
X120721666Y-49932161D01*
X120626428Y-49979780D01*
X120531190Y-49979780D01*
X120435952Y-49932161D01*
X120388333Y-49884542D01*
X120340714Y-49789304D01*
X120293095Y-49598828D01*
X120293095Y-49360733D01*
X120340714Y-49170257D01*
X120388333Y-49075019D01*
X120435952Y-49027400D01*
X120531190Y-48979780D01*
X117245476Y-68980961D02*
X117388333Y-69028580D01*
X117626428Y-69028580D01*
X117721666Y-68980961D01*
X117769285Y-68933342D01*
X117816904Y-68838104D01*
X117816904Y-68742866D01*
X117769285Y-68647628D01*
X117721666Y-68600009D01*
X117626428Y-68552390D01*
X117435952Y-68504771D01*
X117340714Y-68457152D01*
X117293095Y-68409533D01*
X117245476Y-68314295D01*
X117245476Y-68219057D01*
X117293095Y-68123819D01*
X117340714Y-68076200D01*
X117435952Y-68028580D01*
X117674047Y-68028580D01*
X117816904Y-68076200D01*
X118150238Y-68028580D02*
X118388333Y-69028580D01*
X118578809Y-68314295D01*
X118769285Y-69028580D01*
X119007380Y-68028580D01*
X119912142Y-69028580D02*
X119340714Y-69028580D01*
X119626428Y-69028580D02*
X119626428Y-68028580D01*
X119531190Y-68171438D01*
X119435952Y-68266676D01*
X119340714Y-68314295D01*
X120864523Y-69028580D02*
X120293095Y-69028580D01*
X120578809Y-69028580D02*
X120578809Y-68028580D01*
X120483571Y-68171438D01*
X120388333Y-68266676D01*
X120293095Y-68314295D01*
X107728252Y-71524961D02*
X107871109Y-71572580D01*
X108109204Y-71572580D01*
X108204442Y-71524961D01*
X108252061Y-71477342D01*
X108299680Y-71382104D01*
X108299680Y-71286866D01*
X108252061Y-71191628D01*
X108204442Y-71144009D01*
X108109204Y-71096390D01*
X107918728Y-71048771D01*
X107823490Y-71001152D01*
X107775871Y-70953533D01*
X107728252Y-70858295D01*
X107728252Y-70763057D01*
X107775871Y-70667819D01*
X107823490Y-70620200D01*
X107918728Y-70572580D01*
X108156823Y-70572580D01*
X108299680Y-70620200D01*
X108633014Y-70572580D02*
X108871109Y-71572580D01*
X109061585Y-70858295D01*
X109252061Y-71572580D01*
X109490156Y-70572580D01*
X110394918Y-71572580D02*
X109823490Y-71572580D01*
X110109204Y-71572580D02*
X110109204Y-70572580D01*
X110013966Y-70715438D01*
X109918728Y-70810676D01*
X109823490Y-70858295D01*
X110775871Y-70667819D02*
X110823490Y-70620200D01*
X110918728Y-70572580D01*
X111156823Y-70572580D01*
X111252061Y-70620200D01*
X111299680Y-70667819D01*
X111347299Y-70763057D01*
X111347299Y-70858295D01*
X111299680Y-71001152D01*
X110728252Y-71572580D01*
X111347299Y-71572580D01*
X136294276Y-30883361D02*
X136437133Y-30930980D01*
X136675228Y-30930980D01*
X136770466Y-30883361D01*
X136818085Y-30835742D01*
X136865704Y-30740504D01*
X136865704Y-30645266D01*
X136818085Y-30550028D01*
X136770466Y-30502409D01*
X136675228Y-30454790D01*
X136484752Y-30407171D01*
X136389514Y-30359552D01*
X136341895Y-30311933D01*
X136294276Y-30216695D01*
X136294276Y-30121457D01*
X136341895Y-30026219D01*
X136389514Y-29978600D01*
X136484752Y-29930980D01*
X136722847Y-29930980D01*
X136865704Y-29978600D01*
X137199038Y-29930980D02*
X137437133Y-30930980D01*
X137627609Y-30216695D01*
X137818085Y-30930980D01*
X138056180Y-29930980D01*
X138960942Y-30930980D02*
X138389514Y-30930980D01*
X138675228Y-30930980D02*
X138675228Y-29930980D01*
X138579990Y-30073838D01*
X138484752Y-30169076D01*
X138389514Y-30216695D01*
X139294276Y-29930980D02*
X139913323Y-29930980D01*
X139579990Y-30311933D01*
X139722847Y-30311933D01*
X139818085Y-30359552D01*
X139865704Y-30407171D01*
X139913323Y-30502409D01*
X139913323Y-30740504D01*
X139865704Y-30835742D01*
X139818085Y-30883361D01*
X139722847Y-30930980D01*
X139437133Y-30930980D01*
X139341895Y-30883361D01*
X139294276Y-30835742D01*
X136294276Y-49932161D02*
X136437133Y-49979780D01*
X136675228Y-49979780D01*
X136770466Y-49932161D01*
X136818085Y-49884542D01*
X136865704Y-49789304D01*
X136865704Y-49694066D01*
X136818085Y-49598828D01*
X136770466Y-49551209D01*
X136675228Y-49503590D01*
X136484752Y-49455971D01*
X136389514Y-49408352D01*
X136341895Y-49360733D01*
X136294276Y-49265495D01*
X136294276Y-49170257D01*
X136341895Y-49075019D01*
X136389514Y-49027400D01*
X136484752Y-48979780D01*
X136722847Y-48979780D01*
X136865704Y-49027400D01*
X137199038Y-48979780D02*
X137437133Y-49979780D01*
X137627609Y-49265495D01*
X137818085Y-49979780D01*
X138056180Y-48979780D01*
X138960942Y-49979780D02*
X138389514Y-49979780D01*
X138675228Y-49979780D02*
X138675228Y-48979780D01*
X138579990Y-49122638D01*
X138484752Y-49217876D01*
X138389514Y-49265495D01*
X139818085Y-49313114D02*
X139818085Y-49979780D01*
X139579990Y-48932161D02*
X139341895Y-49646447D01*
X139960942Y-49646447D01*
X136294276Y-68980961D02*
X136437133Y-69028580D01*
X136675228Y-69028580D01*
X136770466Y-68980961D01*
X136818085Y-68933342D01*
X136865704Y-68838104D01*
X136865704Y-68742866D01*
X136818085Y-68647628D01*
X136770466Y-68600009D01*
X136675228Y-68552390D01*
X136484752Y-68504771D01*
X136389514Y-68457152D01*
X136341895Y-68409533D01*
X136294276Y-68314295D01*
X136294276Y-68219057D01*
X136341895Y-68123819D01*
X136389514Y-68076200D01*
X136484752Y-68028580D01*
X136722847Y-68028580D01*
X136865704Y-68076200D01*
X137199038Y-68028580D02*
X137437133Y-69028580D01*
X137627609Y-68314295D01*
X137818085Y-69028580D01*
X138056180Y-68028580D01*
X138960942Y-69028580D02*
X138389514Y-69028580D01*
X138675228Y-69028580D02*
X138675228Y-68028580D01*
X138579990Y-68171438D01*
X138484752Y-68266676D01*
X138389514Y-68314295D01*
X139865704Y-68028580D02*
X139389514Y-68028580D01*
X139341895Y-68504771D01*
X139389514Y-68457152D01*
X139484752Y-68409533D01*
X139722847Y-68409533D01*
X139818085Y-68457152D01*
X139865704Y-68504771D01*
X139913323Y-68600009D01*
X139913323Y-68838104D01*
X139865704Y-68933342D01*
X139818085Y-68980961D01*
X139722847Y-69028580D01*
X139484752Y-69028580D01*
X139389514Y-68980961D01*
X139341895Y-68933342D01*
X136294276Y-88029761D02*
X136437133Y-88077380D01*
X136675228Y-88077380D01*
X136770466Y-88029761D01*
X136818085Y-87982142D01*
X136865704Y-87886904D01*
X136865704Y-87791666D01*
X136818085Y-87696428D01*
X136770466Y-87648809D01*
X136675228Y-87601190D01*
X136484752Y-87553571D01*
X136389514Y-87505952D01*
X136341895Y-87458333D01*
X136294276Y-87363095D01*
X136294276Y-87267857D01*
X136341895Y-87172619D01*
X136389514Y-87125000D01*
X136484752Y-87077380D01*
X136722847Y-87077380D01*
X136865704Y-87125000D01*
X137199038Y-87077380D02*
X137437133Y-88077380D01*
X137627609Y-87363095D01*
X137818085Y-88077380D01*
X138056180Y-87077380D01*
X138960942Y-88077380D02*
X138389514Y-88077380D01*
X138675228Y-88077380D02*
X138675228Y-87077380D01*
X138579990Y-87220238D01*
X138484752Y-87315476D01*
X138389514Y-87363095D01*
X139818085Y-87077380D02*
X139627609Y-87077380D01*
X139532371Y-87125000D01*
X139484752Y-87172619D01*
X139389514Y-87315476D01*
X139341895Y-87505952D01*
X139341895Y-87886904D01*
X139389514Y-87982142D01*
X139437133Y-88029761D01*
X139532371Y-88077380D01*
X139722847Y-88077380D01*
X139818085Y-88029761D01*
X139865704Y-87982142D01*
X139913323Y-87886904D01*
X139913323Y-87648809D01*
X139865704Y-87553571D01*
X139818085Y-87505952D01*
X139722847Y-87458333D01*
X139532371Y-87458333D01*
X139437133Y-87505952D01*
X139389514Y-87553571D01*
X139341895Y-87648809D01*
X126778300Y-71524961D02*
X126921157Y-71572580D01*
X127159252Y-71572580D01*
X127254490Y-71524961D01*
X127302109Y-71477342D01*
X127349728Y-71382104D01*
X127349728Y-71286866D01*
X127302109Y-71191628D01*
X127254490Y-71144009D01*
X127159252Y-71096390D01*
X126968776Y-71048771D01*
X126873538Y-71001152D01*
X126825919Y-70953533D01*
X126778300Y-70858295D01*
X126778300Y-70763057D01*
X126825919Y-70667819D01*
X126873538Y-70620200D01*
X126968776Y-70572580D01*
X127206871Y-70572580D01*
X127349728Y-70620200D01*
X127683062Y-70572580D02*
X127921157Y-71572580D01*
X128111633Y-70858295D01*
X128302109Y-71572580D01*
X128540204Y-70572580D01*
X129444966Y-71572580D02*
X128873538Y-71572580D01*
X129159252Y-71572580D02*
X129159252Y-70572580D01*
X129064014Y-70715438D01*
X128968776Y-70810676D01*
X128873538Y-70858295D01*
X129921157Y-71572580D02*
X130111633Y-71572580D01*
X130206871Y-71524961D01*
X130254490Y-71477342D01*
X130349728Y-71334485D01*
X130397347Y-71144009D01*
X130397347Y-70763057D01*
X130349728Y-70667819D01*
X130302109Y-70620200D01*
X130206871Y-70572580D01*
X130016395Y-70572580D01*
X129921157Y-70620200D01*
X129873538Y-70667819D01*
X129825919Y-70763057D01*
X129825919Y-71001152D01*
X129873538Y-71096390D01*
X129921157Y-71144009D01*
X130016395Y-71191628D01*
X130206871Y-71191628D01*
X130302109Y-71144009D01*
X130349728Y-71096390D01*
X130397347Y-71001152D01*
X98203228Y-88034961D02*
X98346085Y-88082580D01*
X98584180Y-88082580D01*
X98679418Y-88034961D01*
X98727037Y-87987342D01*
X98774656Y-87892104D01*
X98774656Y-87796866D01*
X98727037Y-87701628D01*
X98679418Y-87654009D01*
X98584180Y-87606390D01*
X98393704Y-87558771D01*
X98298466Y-87511152D01*
X98250847Y-87463533D01*
X98203228Y-87368295D01*
X98203228Y-87273057D01*
X98250847Y-87177819D01*
X98298466Y-87130200D01*
X98393704Y-87082580D01*
X98631799Y-87082580D01*
X98774656Y-87130200D01*
X99107990Y-87082580D02*
X99346085Y-88082580D01*
X99536561Y-87368295D01*
X99727037Y-88082580D01*
X99965132Y-87082580D01*
X100298466Y-87177819D02*
X100346085Y-87130200D01*
X100441323Y-87082580D01*
X100679418Y-87082580D01*
X100774656Y-87130200D01*
X100822275Y-87177819D01*
X100869894Y-87273057D01*
X100869894Y-87368295D01*
X100822275Y-87511152D01*
X100250847Y-88082580D01*
X100869894Y-88082580D01*
X101488942Y-87082580D02*
X101584180Y-87082580D01*
X101679418Y-87130200D01*
X101727037Y-87177819D01*
X101774656Y-87273057D01*
X101822275Y-87463533D01*
X101822275Y-87701628D01*
X101774656Y-87892104D01*
X101727037Y-87987342D01*
X101679418Y-88034961D01*
X101584180Y-88082580D01*
X101488942Y-88082580D01*
X101393704Y-88034961D01*
X101346085Y-87987342D01*
X101298466Y-87892104D01*
X101250847Y-87701628D01*
X101250847Y-87463533D01*
X101298466Y-87273057D01*
X101346085Y-87177819D01*
X101393704Y-87130200D01*
X101488942Y-87082580D01*
X96191670Y-62043304D02*
X96191670Y-61471876D01*
X97191670Y-61757590D02*
X96191670Y-61757590D01*
X97191670Y-60567114D02*
X96715480Y-60900447D01*
X97191670Y-61138542D02*
X96191670Y-61138542D01*
X96191670Y-60757590D01*
X96239290Y-60662352D01*
X96286909Y-60614733D01*
X96382147Y-60567114D01*
X96525004Y-60567114D01*
X96620242Y-60614733D01*
X96667861Y-60662352D01*
X96715480Y-60757590D01*
X96715480Y-61138542D01*
X97191670Y-59567114D02*
X96715480Y-59900447D01*
X97191670Y-60138542D02*
X96191670Y-60138542D01*
X96191670Y-59757590D01*
X96239290Y-59662352D01*
X96286909Y-59614733D01*
X96382147Y-59567114D01*
X96525004Y-59567114D01*
X96620242Y-59614733D01*
X96667861Y-59662352D01*
X96715480Y-59757590D01*
X96715480Y-60138542D01*
X97144051Y-59186161D02*
X97191670Y-59043304D01*
X97191670Y-58805209D01*
X97144051Y-58709971D01*
X97096432Y-58662352D01*
X97001194Y-58614733D01*
X96905956Y-58614733D01*
X96810718Y-58662352D01*
X96763099Y-58709971D01*
X96715480Y-58805209D01*
X96667861Y-58995685D01*
X96620242Y-59090923D01*
X96572623Y-59138542D01*
X96477385Y-59186161D01*
X96382147Y-59186161D01*
X96286909Y-59138542D01*
X96239290Y-59090923D01*
X96191670Y-58995685D01*
X96191670Y-58757590D01*
X96239290Y-58614733D01*
X98590049Y-49740012D02*
X98780525Y-49740012D01*
X98875763Y-49787632D01*
X98971001Y-49882870D01*
X99018620Y-50073346D01*
X99018620Y-50406679D01*
X98971001Y-50597155D01*
X98875763Y-50692393D01*
X98780525Y-50740012D01*
X98590049Y-50740012D01*
X98494810Y-50692393D01*
X98399572Y-50597155D01*
X98351953Y-50406679D01*
X98351953Y-50073346D01*
X98399572Y-49882870D01*
X98494810Y-49787632D01*
X98590049Y-49740012D01*
X99923382Y-50740012D02*
X99447191Y-50740012D01*
X99447191Y-49740012D01*
X100256715Y-50216203D02*
X100590049Y-50216203D01*
X100732906Y-50740012D02*
X100256715Y-50740012D01*
X100256715Y-49740012D01*
X100732906Y-49740012D01*
X101161477Y-50740012D02*
X101161477Y-49740012D01*
X101399572Y-49740012D01*
X101542430Y-49787632D01*
X101637668Y-49882870D01*
X101685287Y-49978108D01*
X101732906Y-50168584D01*
X101732906Y-50311441D01*
X101685287Y-50501917D01*
X101637668Y-50597155D01*
X101542430Y-50692393D01*
X101399572Y-50740012D01*
X101161477Y-50740012D01*
D12*
X103663407Y-52501395D02*
X104243978Y-52501395D01*
X104360092Y-52540100D01*
X104437502Y-52617509D01*
X104476207Y-52733623D01*
X104476207Y-52811033D01*
X104476207Y-52114347D02*
X103663407Y-52114347D01*
X103663407Y-51804709D01*
X103702112Y-51727300D01*
X103740816Y-51688595D01*
X103818226Y-51649890D01*
X103934340Y-51649890D01*
X104011750Y-51688595D01*
X104050454Y-51727300D01*
X104089159Y-51804709D01*
X104089159Y-52114347D01*
X103663407Y-50914500D02*
X103663407Y-51301547D01*
X104050454Y-51340252D01*
X104011750Y-51301547D01*
X103973045Y-51224138D01*
X103973045Y-51030614D01*
X104011750Y-50953204D01*
X104050454Y-50914500D01*
X104127864Y-50875795D01*
X104321388Y-50875795D01*
X104398797Y-50914500D01*
X104437502Y-50953204D01*
X104476207Y-51030614D01*
X104476207Y-51224138D01*
X104437502Y-51301547D01*
X104398797Y-51340252D01*
X101083713Y-52501395D02*
X101664284Y-52501395D01*
X101780398Y-52540100D01*
X101857808Y-52617509D01*
X101896513Y-52733623D01*
X101896513Y-52811033D01*
X101896513Y-52114347D02*
X101083713Y-52114347D01*
X101083713Y-51804709D01*
X101122418Y-51727300D01*
X101161122Y-51688595D01*
X101238532Y-51649890D01*
X101354646Y-51649890D01*
X101432056Y-51688595D01*
X101470760Y-51727300D01*
X101509465Y-51804709D01*
X101509465Y-52114347D01*
X101083713Y-50953204D02*
X101083713Y-51108023D01*
X101122418Y-51185433D01*
X101161122Y-51224138D01*
X101277237Y-51301547D01*
X101432056Y-51340252D01*
X101741694Y-51340252D01*
X101819103Y-51301547D01*
X101857808Y-51262842D01*
X101896513Y-51185433D01*
X101896513Y-51030614D01*
X101857808Y-50953204D01*
X101819103Y-50914500D01*
X101741694Y-50875795D01*
X101548170Y-50875795D01*
X101470760Y-50914500D01*
X101432056Y-50953204D01*
X101393351Y-51030614D01*
X101393351Y-51185433D01*
X101432056Y-51262842D01*
X101470760Y-51301547D01*
X101548170Y-51340252D01*
X98504019Y-52501395D02*
X99084590Y-52501395D01*
X99200704Y-52540100D01*
X99278114Y-52617509D01*
X99316819Y-52733623D01*
X99316819Y-52811033D01*
X99316819Y-52114347D02*
X98504019Y-52114347D01*
X98504019Y-51804709D01*
X98542724Y-51727300D01*
X98581428Y-51688595D01*
X98658838Y-51649890D01*
X98774952Y-51649890D01*
X98852362Y-51688595D01*
X98891066Y-51727300D01*
X98929771Y-51804709D01*
X98929771Y-52114347D01*
X98504019Y-51378957D02*
X98504019Y-50837090D01*
X99316819Y-51185433D01*
X95924325Y-52501395D02*
X96504896Y-52501395D01*
X96621010Y-52540100D01*
X96698420Y-52617509D01*
X96737125Y-52733623D01*
X96737125Y-52811033D01*
X96737125Y-52114347D02*
X95924325Y-52114347D01*
X95924325Y-51804709D01*
X95963030Y-51727300D01*
X96001734Y-51688595D01*
X96079144Y-51649890D01*
X96195258Y-51649890D01*
X96272668Y-51688595D01*
X96311372Y-51727300D01*
X96350077Y-51804709D01*
X96350077Y-52114347D01*
X96272668Y-51185433D02*
X96233963Y-51262842D01*
X96195258Y-51301547D01*
X96117849Y-51340252D01*
X96079144Y-51340252D01*
X96001734Y-51301547D01*
X95963030Y-51262842D01*
X95924325Y-51185433D01*
X95924325Y-51030614D01*
X95963030Y-50953204D01*
X96001734Y-50914500D01*
X96079144Y-50875795D01*
X96117849Y-50875795D01*
X96195258Y-50914500D01*
X96233963Y-50953204D01*
X96272668Y-51030614D01*
X96272668Y-51185433D01*
X96311372Y-51262842D01*
X96350077Y-51301547D01*
X96427487Y-51340252D01*
X96582306Y-51340252D01*
X96659715Y-51301547D01*
X96698420Y-51262842D01*
X96737125Y-51185433D01*
X96737125Y-51030614D01*
X96698420Y-50953204D01*
X96659715Y-50914500D01*
X96582306Y-50875795D01*
X96427487Y-50875795D01*
X96350077Y-50914500D01*
X96311372Y-50953204D01*
X96272668Y-51030614D01*
D13*
X105623989Y-34595585D02*
X105457322Y-34238442D01*
X105338275Y-34595585D02*
X105338275Y-33845585D01*
X105528751Y-33845585D01*
X105576370Y-33881300D01*
X105600180Y-33917014D01*
X105623989Y-33988442D01*
X105623989Y-34095585D01*
X105600180Y-34167014D01*
X105576370Y-34202728D01*
X105528751Y-34238442D01*
X105338275Y-34238442D01*
X105933513Y-33845585D02*
X106028751Y-33845585D01*
X106076370Y-33881300D01*
X106123989Y-33952728D01*
X106147799Y-34095585D01*
X106147799Y-34345585D01*
X106123989Y-34488442D01*
X106076370Y-34559871D01*
X106028751Y-34595585D01*
X105933513Y-34595585D01*
X105885894Y-34559871D01*
X105838275Y-34488442D01*
X105814465Y-34345585D01*
X105814465Y-34095585D01*
X105838275Y-33952728D01*
X105885894Y-33881300D01*
X105933513Y-33845585D01*
X106314465Y-33845585D02*
X106433513Y-34595585D01*
X106528751Y-34059871D01*
X106623989Y-34595585D01*
X106743037Y-33845585D01*
X107195418Y-34595585D02*
X106909703Y-34595585D01*
X107052561Y-34595585D02*
X107052561Y-33845585D01*
X107004942Y-33952728D01*
X106957322Y-34024157D01*
X106909703Y-34059871D01*
X90507322Y-37072157D02*
X90483513Y-37107871D01*
X90412084Y-37143585D01*
X90364465Y-37143585D01*
X90293037Y-37107871D01*
X90245418Y-37036442D01*
X90221608Y-36965014D01*
X90197799Y-36822157D01*
X90197799Y-36715014D01*
X90221608Y-36572157D01*
X90245418Y-36500728D01*
X90293037Y-36429300D01*
X90364465Y-36393585D01*
X90412084Y-36393585D01*
X90483513Y-36429300D01*
X90507322Y-36465014D01*
X90816846Y-36393585D02*
X90912084Y-36393585D01*
X90959703Y-36429300D01*
X91007322Y-36500728D01*
X91031132Y-36643585D01*
X91031132Y-36893585D01*
X91007322Y-37036442D01*
X90959703Y-37107871D01*
X90912084Y-37143585D01*
X90816846Y-37143585D01*
X90769227Y-37107871D01*
X90721608Y-37036442D01*
X90697799Y-36893585D01*
X90697799Y-36643585D01*
X90721608Y-36500728D01*
X90769227Y-36429300D01*
X90816846Y-36393585D01*
X91483513Y-37143585D02*
X91245418Y-37143585D01*
X91245418Y-36393585D01*
X91864465Y-36643585D02*
X91864465Y-37143585D01*
X91745418Y-36357871D02*
X91626370Y-36893585D01*
X91935894Y-36893585D01*
X105573989Y-37143585D02*
X105407322Y-36786442D01*
X105288275Y-37143585D02*
X105288275Y-36393585D01*
X105478751Y-36393585D01*
X105526370Y-36429300D01*
X105550180Y-36465014D01*
X105573989Y-36536442D01*
X105573989Y-36643585D01*
X105550180Y-36715014D01*
X105526370Y-36750728D01*
X105478751Y-36786442D01*
X105288275Y-36786442D01*
X105883513Y-36393585D02*
X105978751Y-36393585D01*
X106026370Y-36429300D01*
X106073989Y-36500728D01*
X106097799Y-36643585D01*
X106097799Y-36893585D01*
X106073989Y-37036442D01*
X106026370Y-37107871D01*
X105978751Y-37143585D01*
X105883513Y-37143585D01*
X105835894Y-37107871D01*
X105788275Y-37036442D01*
X105764465Y-36893585D01*
X105764465Y-36643585D01*
X105788275Y-36500728D01*
X105835894Y-36429300D01*
X105883513Y-36393585D01*
X106264465Y-36393585D02*
X106383513Y-37143585D01*
X106478751Y-36607871D01*
X106573989Y-37143585D01*
X106693037Y-36393585D01*
X106859703Y-36465014D02*
X106883513Y-36429300D01*
X106931132Y-36393585D01*
X107050180Y-36393585D01*
X107097799Y-36429300D01*
X107121608Y-36465014D01*
X107145418Y-36536442D01*
X107145418Y-36607871D01*
X107121608Y-36715014D01*
X106835894Y-37143585D01*
X107145418Y-37143585D01*
X90507322Y-39667657D02*
X90483513Y-39703371D01*
X90412084Y-39739085D01*
X90364465Y-39739085D01*
X90293037Y-39703371D01*
X90245418Y-39631942D01*
X90221608Y-39560514D01*
X90197799Y-39417657D01*
X90197799Y-39310514D01*
X90221608Y-39167657D01*
X90245418Y-39096228D01*
X90293037Y-39024800D01*
X90364465Y-38989085D01*
X90412084Y-38989085D01*
X90483513Y-39024800D01*
X90507322Y-39060514D01*
X90816846Y-38989085D02*
X90912084Y-38989085D01*
X90959703Y-39024800D01*
X91007322Y-39096228D01*
X91031132Y-39239085D01*
X91031132Y-39489085D01*
X91007322Y-39631942D01*
X90959703Y-39703371D01*
X90912084Y-39739085D01*
X90816846Y-39739085D01*
X90769227Y-39703371D01*
X90721608Y-39631942D01*
X90697799Y-39489085D01*
X90697799Y-39239085D01*
X90721608Y-39096228D01*
X90769227Y-39024800D01*
X90816846Y-38989085D01*
X91483513Y-39739085D02*
X91245418Y-39739085D01*
X91245418Y-38989085D01*
X91888275Y-38989085D02*
X91650180Y-38989085D01*
X91626370Y-39346228D01*
X91650180Y-39310514D01*
X91697799Y-39274800D01*
X91816846Y-39274800D01*
X91864465Y-39310514D01*
X91888275Y-39346228D01*
X91912084Y-39417657D01*
X91912084Y-39596228D01*
X91888275Y-39667657D01*
X91864465Y-39703371D01*
X91816846Y-39739085D01*
X91697799Y-39739085D01*
X91650180Y-39703371D01*
X91626370Y-39667657D01*
X105573989Y-39739085D02*
X105407322Y-39381942D01*
X105288275Y-39739085D02*
X105288275Y-38989085D01*
X105478751Y-38989085D01*
X105526370Y-39024800D01*
X105550180Y-39060514D01*
X105573989Y-39131942D01*
X105573989Y-39239085D01*
X105550180Y-39310514D01*
X105526370Y-39346228D01*
X105478751Y-39381942D01*
X105288275Y-39381942D01*
X105883513Y-38989085D02*
X105978751Y-38989085D01*
X106026370Y-39024800D01*
X106073989Y-39096228D01*
X106097799Y-39239085D01*
X106097799Y-39489085D01*
X106073989Y-39631942D01*
X106026370Y-39703371D01*
X105978751Y-39739085D01*
X105883513Y-39739085D01*
X105835894Y-39703371D01*
X105788275Y-39631942D01*
X105764465Y-39489085D01*
X105764465Y-39239085D01*
X105788275Y-39096228D01*
X105835894Y-39024800D01*
X105883513Y-38989085D01*
X106264465Y-38989085D02*
X106383513Y-39739085D01*
X106478751Y-39203371D01*
X106573989Y-39739085D01*
X106693037Y-38989085D01*
X106835894Y-38989085D02*
X107145418Y-38989085D01*
X106978751Y-39274800D01*
X107050180Y-39274800D01*
X107097799Y-39310514D01*
X107121608Y-39346228D01*
X107145418Y-39417657D01*
X107145418Y-39596228D01*
X107121608Y-39667657D01*
X107097799Y-39703371D01*
X107050180Y-39739085D01*
X106907322Y-39739085D01*
X106859703Y-39703371D01*
X106835894Y-39667657D01*
X90852561Y-41850728D02*
X90923989Y-41886442D01*
X90947799Y-41922157D01*
X90971608Y-41993585D01*
X90971608Y-42100728D01*
X90947799Y-42172157D01*
X90923989Y-42207871D01*
X90876370Y-42243585D01*
X90685894Y-42243585D01*
X90685894Y-41493585D01*
X90852561Y-41493585D01*
X90900180Y-41529300D01*
X90923989Y-41565014D01*
X90947799Y-41636442D01*
X90947799Y-41707871D01*
X90923989Y-41779300D01*
X90900180Y-41815014D01*
X90852561Y-41850728D01*
X90685894Y-41850728D01*
X91162084Y-41565014D02*
X91185894Y-41529300D01*
X91233513Y-41493585D01*
X91352561Y-41493585D01*
X91400180Y-41529300D01*
X91423989Y-41565014D01*
X91447799Y-41636442D01*
X91447799Y-41707871D01*
X91423989Y-41815014D01*
X91138275Y-42243585D01*
X91447799Y-42243585D01*
X106002561Y-41822728D02*
X106073989Y-41858442D01*
X106097799Y-41894157D01*
X106121608Y-41965585D01*
X106121608Y-42072728D01*
X106097799Y-42144157D01*
X106073989Y-42179871D01*
X106026370Y-42215585D01*
X105835894Y-42215585D01*
X105835894Y-41465585D01*
X106002561Y-41465585D01*
X106050180Y-41501300D01*
X106073989Y-41537014D01*
X106097799Y-41608442D01*
X106097799Y-41679871D01*
X106073989Y-41751300D01*
X106050180Y-41787014D01*
X106002561Y-41822728D01*
X105835894Y-41822728D01*
X106550180Y-41715585D02*
X106550180Y-42215585D01*
X106431132Y-41429871D02*
X106312084Y-41965585D01*
X106621608Y-41965585D01*
X106002561Y-44426228D02*
X106073989Y-44461942D01*
X106097799Y-44497657D01*
X106121608Y-44569085D01*
X106121608Y-44676228D01*
X106097799Y-44747657D01*
X106073989Y-44783371D01*
X106026370Y-44819085D01*
X105835894Y-44819085D01*
X105835894Y-44069085D01*
X106002561Y-44069085D01*
X106050180Y-44104800D01*
X106073989Y-44140514D01*
X106097799Y-44211942D01*
X106097799Y-44283371D01*
X106073989Y-44354800D01*
X106050180Y-44390514D01*
X106002561Y-44426228D01*
X105835894Y-44426228D01*
X106573989Y-44069085D02*
X106335894Y-44069085D01*
X106312084Y-44426228D01*
X106335894Y-44390514D01*
X106383513Y-44354800D01*
X106502561Y-44354800D01*
X106550180Y-44390514D01*
X106573989Y-44426228D01*
X106597799Y-44497657D01*
X106597799Y-44676228D01*
X106573989Y-44747657D01*
X106550180Y-44783371D01*
X106502561Y-44819085D01*
X106383513Y-44819085D01*
X106335894Y-44783371D01*
X106312084Y-44747657D01*
X90752561Y-44400728D02*
X90823989Y-44436442D01*
X90847799Y-44472157D01*
X90871608Y-44543585D01*
X90871608Y-44650728D01*
X90847799Y-44722157D01*
X90823989Y-44757871D01*
X90776370Y-44793585D01*
X90585894Y-44793585D01*
X90585894Y-44043585D01*
X90752561Y-44043585D01*
X90800180Y-44079300D01*
X90823989Y-44115014D01*
X90847799Y-44186442D01*
X90847799Y-44257871D01*
X90823989Y-44329300D01*
X90800180Y-44365014D01*
X90752561Y-44400728D01*
X90585894Y-44400728D01*
X91300180Y-44043585D02*
X91204942Y-44043585D01*
X91157322Y-44079300D01*
X91133513Y-44115014D01*
X91085894Y-44222157D01*
X91062084Y-44365014D01*
X91062084Y-44650728D01*
X91085894Y-44722157D01*
X91109703Y-44757871D01*
X91157322Y-44793585D01*
X91252561Y-44793585D01*
X91300180Y-44757871D01*
X91323989Y-44722157D01*
X91347799Y-44650728D01*
X91347799Y-44472157D01*
X91323989Y-44400728D01*
X91300180Y-44365014D01*
X91252561Y-44329300D01*
X91157322Y-44329300D01*
X91109703Y-44365014D01*
X91085894Y-44400728D01*
X91062084Y-44472157D01*
X90557322Y-26922157D02*
X90533513Y-26957871D01*
X90462084Y-26993585D01*
X90414465Y-26993585D01*
X90343037Y-26957871D01*
X90295418Y-26886442D01*
X90271608Y-26815014D01*
X90247799Y-26672157D01*
X90247799Y-26565014D01*
X90271608Y-26422157D01*
X90295418Y-26350728D01*
X90343037Y-26279300D01*
X90414465Y-26243585D01*
X90462084Y-26243585D01*
X90533513Y-26279300D01*
X90557322Y-26315014D01*
X90866846Y-26243585D02*
X90962084Y-26243585D01*
X91009703Y-26279300D01*
X91057322Y-26350728D01*
X91081132Y-26493585D01*
X91081132Y-26743585D01*
X91057322Y-26886442D01*
X91009703Y-26957871D01*
X90962084Y-26993585D01*
X90866846Y-26993585D01*
X90819227Y-26957871D01*
X90771608Y-26886442D01*
X90747799Y-26743585D01*
X90747799Y-26493585D01*
X90771608Y-26350728D01*
X90819227Y-26279300D01*
X90866846Y-26243585D01*
X91533513Y-26993585D02*
X91295418Y-26993585D01*
X91295418Y-26243585D01*
X91795418Y-26243585D02*
X91843037Y-26243585D01*
X91890656Y-26279300D01*
X91914465Y-26315014D01*
X91938275Y-26386442D01*
X91962084Y-26529300D01*
X91962084Y-26707871D01*
X91938275Y-26850728D01*
X91914465Y-26922157D01*
X91890656Y-26957871D01*
X91843037Y-26993585D01*
X91795418Y-26993585D01*
X91747799Y-26957871D01*
X91723989Y-26922157D01*
X91700180Y-26850728D01*
X91676370Y-26707871D01*
X91676370Y-26529300D01*
X91700180Y-26386442D01*
X91723989Y-26315014D01*
X91747799Y-26279300D01*
X91795418Y-26243585D01*
X105858799Y-26939871D02*
X105930227Y-26975585D01*
X106049275Y-26975585D01*
X106096894Y-26939871D01*
X106120703Y-26904157D01*
X106144513Y-26832728D01*
X106144513Y-26761300D01*
X106120703Y-26689871D01*
X106096894Y-26654157D01*
X106049275Y-26618442D01*
X105954037Y-26582728D01*
X105906418Y-26547014D01*
X105882608Y-26511300D01*
X105858799Y-26439871D01*
X105858799Y-26368442D01*
X105882608Y-26297014D01*
X105906418Y-26261300D01*
X105954037Y-26225585D01*
X106073084Y-26225585D01*
X106144513Y-26261300D01*
X106358799Y-26975585D02*
X106358799Y-26225585D01*
X106477846Y-26225585D01*
X106549275Y-26261300D01*
X106596894Y-26332728D01*
X106620703Y-26404157D01*
X106644513Y-26547014D01*
X106644513Y-26654157D01*
X106620703Y-26797014D01*
X106596894Y-26868442D01*
X106549275Y-26939871D01*
X106477846Y-26975585D01*
X106358799Y-26975585D01*
X106834989Y-26761300D02*
X107073084Y-26761300D01*
X106787370Y-26975585D02*
X106954037Y-26225585D01*
X107120703Y-26975585D01*
X90607322Y-29444157D02*
X90583513Y-29479871D01*
X90512084Y-29515585D01*
X90464465Y-29515585D01*
X90393037Y-29479871D01*
X90345418Y-29408442D01*
X90321608Y-29337014D01*
X90297799Y-29194157D01*
X90297799Y-29087014D01*
X90321608Y-28944157D01*
X90345418Y-28872728D01*
X90393037Y-28801300D01*
X90464465Y-28765585D01*
X90512084Y-28765585D01*
X90583513Y-28801300D01*
X90607322Y-28837014D01*
X90916846Y-28765585D02*
X91012084Y-28765585D01*
X91059703Y-28801300D01*
X91107322Y-28872728D01*
X91131132Y-29015585D01*
X91131132Y-29265585D01*
X91107322Y-29408442D01*
X91059703Y-29479871D01*
X91012084Y-29515585D01*
X90916846Y-29515585D01*
X90869227Y-29479871D01*
X90821608Y-29408442D01*
X90797799Y-29265585D01*
X90797799Y-29015585D01*
X90821608Y-28872728D01*
X90869227Y-28801300D01*
X90916846Y-28765585D01*
X91583513Y-29515585D02*
X91345418Y-29515585D01*
X91345418Y-28765585D01*
X92012084Y-29515585D02*
X91726370Y-29515585D01*
X91869227Y-29515585D02*
X91869227Y-28765585D01*
X91821608Y-28872728D01*
X91773989Y-28944157D01*
X91726370Y-28979871D01*
X105870703Y-29479871D02*
X105942132Y-29515585D01*
X106061180Y-29515585D01*
X106108799Y-29479871D01*
X106132608Y-29444157D01*
X106156418Y-29372728D01*
X106156418Y-29301300D01*
X106132608Y-29229871D01*
X106108799Y-29194157D01*
X106061180Y-29158442D01*
X105965942Y-29122728D01*
X105918322Y-29087014D01*
X105894513Y-29051300D01*
X105870703Y-28979871D01*
X105870703Y-28908442D01*
X105894513Y-28837014D01*
X105918322Y-28801300D01*
X105965942Y-28765585D01*
X106084989Y-28765585D01*
X106156418Y-28801300D01*
X106656418Y-29444157D02*
X106632608Y-29479871D01*
X106561180Y-29515585D01*
X106513561Y-29515585D01*
X106442132Y-29479871D01*
X106394513Y-29408442D01*
X106370703Y-29337014D01*
X106346894Y-29194157D01*
X106346894Y-29087014D01*
X106370703Y-28944157D01*
X106394513Y-28872728D01*
X106442132Y-28801300D01*
X106513561Y-28765585D01*
X106561180Y-28765585D01*
X106632608Y-28801300D01*
X106656418Y-28837014D01*
X107108799Y-29515585D02*
X106870703Y-29515585D01*
X106870703Y-28765585D01*
X90557322Y-31984157D02*
X90533513Y-32019871D01*
X90462084Y-32055585D01*
X90414465Y-32055585D01*
X90343037Y-32019871D01*
X90295418Y-31948442D01*
X90271608Y-31877014D01*
X90247799Y-31734157D01*
X90247799Y-31627014D01*
X90271608Y-31484157D01*
X90295418Y-31412728D01*
X90343037Y-31341300D01*
X90414465Y-31305585D01*
X90462084Y-31305585D01*
X90533513Y-31341300D01*
X90557322Y-31377014D01*
X90866846Y-31305585D02*
X90962084Y-31305585D01*
X91009703Y-31341300D01*
X91057322Y-31412728D01*
X91081132Y-31555585D01*
X91081132Y-31805585D01*
X91057322Y-31948442D01*
X91009703Y-32019871D01*
X90962084Y-32055585D01*
X90866846Y-32055585D01*
X90819227Y-32019871D01*
X90771608Y-31948442D01*
X90747799Y-31805585D01*
X90747799Y-31555585D01*
X90771608Y-31412728D01*
X90819227Y-31341300D01*
X90866846Y-31305585D01*
X91533513Y-32055585D02*
X91295418Y-32055585D01*
X91295418Y-31305585D01*
X91676370Y-31377014D02*
X91700180Y-31341300D01*
X91747799Y-31305585D01*
X91866846Y-31305585D01*
X91914465Y-31341300D01*
X91938275Y-31377014D01*
X91962084Y-31448442D01*
X91962084Y-31519871D01*
X91938275Y-31627014D01*
X91652561Y-32055585D01*
X91962084Y-32055585D01*
X105573989Y-32093585D02*
X105407322Y-31736442D01*
X105288275Y-32093585D02*
X105288275Y-31343585D01*
X105478751Y-31343585D01*
X105526370Y-31379300D01*
X105550180Y-31415014D01*
X105573989Y-31486442D01*
X105573989Y-31593585D01*
X105550180Y-31665014D01*
X105526370Y-31700728D01*
X105478751Y-31736442D01*
X105288275Y-31736442D01*
X105883513Y-31343585D02*
X105978751Y-31343585D01*
X106026370Y-31379300D01*
X106073989Y-31450728D01*
X106097799Y-31593585D01*
X106097799Y-31843585D01*
X106073989Y-31986442D01*
X106026370Y-32057871D01*
X105978751Y-32093585D01*
X105883513Y-32093585D01*
X105835894Y-32057871D01*
X105788275Y-31986442D01*
X105764465Y-31843585D01*
X105764465Y-31593585D01*
X105788275Y-31450728D01*
X105835894Y-31379300D01*
X105883513Y-31343585D01*
X106264465Y-31343585D02*
X106383513Y-32093585D01*
X106478751Y-31557871D01*
X106573989Y-32093585D01*
X106693037Y-31343585D01*
X106978751Y-31343585D02*
X107026370Y-31343585D01*
X107073989Y-31379300D01*
X107097799Y-31415014D01*
X107121608Y-31486442D01*
X107145418Y-31629300D01*
X107145418Y-31807871D01*
X107121608Y-31950728D01*
X107097799Y-32022157D01*
X107073989Y-32057871D01*
X107026370Y-32093585D01*
X106978751Y-32093585D01*
X106931132Y-32057871D01*
X106907322Y-32022157D01*
X106883513Y-31950728D01*
X106859703Y-31807871D01*
X106859703Y-31629300D01*
X106883513Y-31486442D01*
X106907322Y-31415014D01*
X106931132Y-31379300D01*
X106978751Y-31343585D01*
X90457322Y-34572157D02*
X90433513Y-34607871D01*
X90362084Y-34643585D01*
X90314465Y-34643585D01*
X90243037Y-34607871D01*
X90195418Y-34536442D01*
X90171608Y-34465014D01*
X90147799Y-34322157D01*
X90147799Y-34215014D01*
X90171608Y-34072157D01*
X90195418Y-34000728D01*
X90243037Y-33929300D01*
X90314465Y-33893585D01*
X90362084Y-33893585D01*
X90433513Y-33929300D01*
X90457322Y-33965014D01*
X90766846Y-33893585D02*
X90862084Y-33893585D01*
X90909703Y-33929300D01*
X90957322Y-34000728D01*
X90981132Y-34143585D01*
X90981132Y-34393585D01*
X90957322Y-34536442D01*
X90909703Y-34607871D01*
X90862084Y-34643585D01*
X90766846Y-34643585D01*
X90719227Y-34607871D01*
X90671608Y-34536442D01*
X90647799Y-34393585D01*
X90647799Y-34143585D01*
X90671608Y-34000728D01*
X90719227Y-33929300D01*
X90766846Y-33893585D01*
X91433513Y-34643585D02*
X91195418Y-34643585D01*
X91195418Y-33893585D01*
X91552561Y-33893585D02*
X91862084Y-33893585D01*
X91695418Y-34179300D01*
X91766846Y-34179300D01*
X91814465Y-34215014D01*
X91838275Y-34250728D01*
X91862084Y-34322157D01*
X91862084Y-34500728D01*
X91838275Y-34572157D01*
X91814465Y-34607871D01*
X91766846Y-34643585D01*
X91623989Y-34643585D01*
X91576370Y-34607871D01*
X91552561Y-34572157D01*
X106084989Y-23784800D02*
X106037370Y-23749085D01*
X105965942Y-23749085D01*
X105894513Y-23784800D01*
X105846894Y-23856228D01*
X105823084Y-23927657D01*
X105799275Y-24070514D01*
X105799275Y-24177657D01*
X105823084Y-24320514D01*
X105846894Y-24391942D01*
X105894513Y-24463371D01*
X105965942Y-24499085D01*
X106013561Y-24499085D01*
X106084989Y-24463371D01*
X106108799Y-24427657D01*
X106108799Y-24177657D01*
X106013561Y-24177657D01*
X106323084Y-24499085D02*
X106323084Y-23749085D01*
X106608799Y-24499085D01*
X106608799Y-23749085D01*
X106846894Y-24499085D02*
X106846894Y-23749085D01*
X106965942Y-23749085D01*
X107037370Y-23784800D01*
X107084989Y-23856228D01*
X107108799Y-23927657D01*
X107132608Y-24070514D01*
X107132608Y-24177657D01*
X107108799Y-24320514D01*
X107084989Y-24391942D01*
X107037370Y-24463371D01*
X106965942Y-24499085D01*
X106846894Y-24499085D01*
X90622775Y-23685585D02*
X90789442Y-24435585D01*
X90956108Y-23685585D01*
X91408489Y-24364157D02*
X91384680Y-24399871D01*
X91313251Y-24435585D01*
X91265632Y-24435585D01*
X91194203Y-24399871D01*
X91146584Y-24328442D01*
X91122775Y-24257014D01*
X91098965Y-24114157D01*
X91098965Y-24007014D01*
X91122775Y-23864157D01*
X91146584Y-23792728D01*
X91194203Y-23721300D01*
X91265632Y-23685585D01*
X91313251Y-23685585D01*
X91384680Y-23721300D01*
X91408489Y-23757014D01*
X91908489Y-24364157D02*
X91884680Y-24399871D01*
X91813251Y-24435585D01*
X91765632Y-24435585D01*
X91694203Y-24399871D01*
X91646584Y-24328442D01*
X91622775Y-24257014D01*
X91598965Y-24114157D01*
X91598965Y-24007014D01*
X91622775Y-23864157D01*
X91646584Y-23792728D01*
X91694203Y-23721300D01*
X91765632Y-23685585D01*
X91813251Y-23685585D01*
X91884680Y-23721300D01*
X91908489Y-23757014D01*
X106148489Y-21244800D02*
X106100870Y-21209085D01*
X106029442Y-21209085D01*
X105958013Y-21244800D01*
X105910394Y-21316228D01*
X105886584Y-21387657D01*
X105862775Y-21530514D01*
X105862775Y-21637657D01*
X105886584Y-21780514D01*
X105910394Y-21851942D01*
X105958013Y-21923371D01*
X106029442Y-21959085D01*
X106077061Y-21959085D01*
X106148489Y-21923371D01*
X106172299Y-21887657D01*
X106172299Y-21637657D01*
X106077061Y-21637657D01*
X106386584Y-21959085D02*
X106386584Y-21209085D01*
X106672299Y-21959085D01*
X106672299Y-21209085D01*
X106910394Y-21959085D02*
X106910394Y-21209085D01*
X107029442Y-21209085D01*
X107100870Y-21244800D01*
X107148489Y-21316228D01*
X107172299Y-21387657D01*
X107196108Y-21530514D01*
X107196108Y-21637657D01*
X107172299Y-21780514D01*
X107148489Y-21851942D01*
X107100870Y-21923371D01*
X107029442Y-21959085D01*
X106910394Y-21959085D01*
X91015632Y-21959085D02*
X90848965Y-21601942D01*
X90729918Y-21959085D02*
X90729918Y-21209085D01*
X90920394Y-21209085D01*
X90968013Y-21244800D01*
X90991822Y-21280514D01*
X91015632Y-21351942D01*
X91015632Y-21459085D01*
X90991822Y-21530514D01*
X90968013Y-21566228D01*
X90920394Y-21601942D01*
X90729918Y-21601942D01*
X91206108Y-21923371D02*
X91277537Y-21959085D01*
X91396584Y-21959085D01*
X91444203Y-21923371D01*
X91468013Y-21887657D01*
X91491822Y-21816228D01*
X91491822Y-21744800D01*
X91468013Y-21673371D01*
X91444203Y-21637657D01*
X91396584Y-21601942D01*
X91301346Y-21566228D01*
X91253727Y-21530514D01*
X91229918Y-21494800D01*
X91206108Y-21423371D01*
X91206108Y-21351942D01*
X91229918Y-21280514D01*
X91253727Y-21244800D01*
X91301346Y-21209085D01*
X91420394Y-21209085D01*
X91491822Y-21244800D01*
X91634680Y-21209085D02*
X91920394Y-21209085D01*
X91777537Y-21959085D02*
X91777537Y-21209085D01*
X105604942Y-19343585D02*
X105604942Y-18593585D01*
X105723989Y-18593585D01*
X105795418Y-18629300D01*
X105843037Y-18700728D01*
X105866846Y-18772157D01*
X105890656Y-18915014D01*
X105890656Y-19022157D01*
X105866846Y-19165014D01*
X105843037Y-19236442D01*
X105795418Y-19307871D01*
X105723989Y-19343585D01*
X105604942Y-19343585D01*
X106081132Y-19129300D02*
X106319227Y-19129300D01*
X106033513Y-19343585D02*
X106200180Y-18593585D01*
X106366846Y-19343585D01*
X106462084Y-18593585D02*
X106747799Y-18593585D01*
X106604942Y-19343585D02*
X106604942Y-18593585D01*
X106890656Y-19129300D02*
X107128751Y-19129300D01*
X106843037Y-19343585D02*
X107009703Y-18593585D01*
X107176370Y-19343585D01*
X90908489Y-18641300D02*
X90860870Y-18605585D01*
X90789442Y-18605585D01*
X90718013Y-18641300D01*
X90670394Y-18712728D01*
X90646584Y-18784157D01*
X90622775Y-18927014D01*
X90622775Y-19034157D01*
X90646584Y-19177014D01*
X90670394Y-19248442D01*
X90718013Y-19319871D01*
X90789442Y-19355585D01*
X90837061Y-19355585D01*
X90908489Y-19319871D01*
X90932299Y-19284157D01*
X90932299Y-19034157D01*
X90837061Y-19034157D01*
X91146584Y-19355585D02*
X91146584Y-18605585D01*
X91432299Y-19355585D01*
X91432299Y-18605585D01*
X91670394Y-19355585D02*
X91670394Y-18605585D01*
X91789442Y-18605585D01*
X91860870Y-18641300D01*
X91908489Y-18712728D01*
X91932299Y-18784157D01*
X91956108Y-18927014D01*
X91956108Y-19034157D01*
X91932299Y-19177014D01*
X91908489Y-19248442D01*
X91860870Y-19319871D01*
X91789442Y-19355585D01*
X91670394Y-19355585D01*
X106183513Y-16815585D02*
X105945418Y-16815585D01*
X105945418Y-16065585D01*
X106350180Y-16422728D02*
X106516846Y-16422728D01*
X106588275Y-16815585D02*
X106350180Y-16815585D01*
X106350180Y-16065585D01*
X106588275Y-16065585D01*
X106802561Y-16815585D02*
X106802561Y-16065585D01*
X106921608Y-16065585D01*
X106993037Y-16101300D01*
X107040656Y-16172728D01*
X107064465Y-16244157D01*
X107088275Y-16387014D01*
X107088275Y-16494157D01*
X107064465Y-16637014D01*
X107040656Y-16708442D01*
X106993037Y-16779871D01*
X106921608Y-16815585D01*
X106802561Y-16815585D01*
X90944203Y-16815585D02*
X90777537Y-16458442D01*
X90658489Y-16815585D02*
X90658489Y-16065585D01*
X90848965Y-16065585D01*
X90896584Y-16101300D01*
X90920394Y-16137014D01*
X90944203Y-16208442D01*
X90944203Y-16315585D01*
X90920394Y-16387014D01*
X90896584Y-16422728D01*
X90848965Y-16458442D01*
X90658489Y-16458442D01*
X91134680Y-16601300D02*
X91372775Y-16601300D01*
X91087061Y-16815585D02*
X91253727Y-16065585D01*
X91420394Y-16815585D01*
X91539442Y-16065585D02*
X91658489Y-16815585D01*
X91753727Y-16279871D01*
X91848965Y-16815585D01*
X91968013Y-16065585D01*
D10*
%LPC*%
D14*
X93067422Y-69850176D03*
X145058178Y-31750080D03*
X145058178Y-69850176D03*
D15*
X140487824Y-86360200D03*
X116687824Y-86360200D03*
D16*
X140487824Y-71120200D03*
X116687824Y-71120200D03*
D15*
X121437776Y-86360200D03*
X97637776Y-86360200D03*
D16*
X121437776Y-71120200D03*
X97637776Y-71120200D03*
D17*
X146348025Y-25219350D03*
X146348025Y-23219350D03*
X146348025Y-21219350D03*
X146348025Y-19219350D03*
X146348025Y-44438700D03*
X146348025Y-42438700D03*
X146348025Y-40438700D03*
X146348025Y-38438700D03*
X146348025Y-63658050D03*
X146348025Y-61658050D03*
X146348025Y-59658050D03*
X146348025Y-57658050D03*
X146348025Y-82877400D03*
X146348025Y-80877400D03*
X146348025Y-78877400D03*
X146348025Y-76877400D03*
D18*
X103262500Y-14286600D03*
X96762500Y-14286600D03*
D19*
X126992000Y-22036150D03*
D20*
X126992000Y-20001150D03*
D21*
X126992000Y-27621150D03*
D19*
X126992000Y-25586150D03*
X126992000Y-38703700D03*
D20*
X126992000Y-36668700D03*
D21*
X126992000Y-44288700D03*
D19*
X126992000Y-42253700D03*
X126992000Y-57752500D03*
D20*
X126992000Y-55717500D03*
D21*
X126992000Y-63337500D03*
D19*
X126992000Y-61302500D03*
X117475296Y-80753324D03*
D21*
X117475296Y-82788324D03*
D20*
X117475296Y-75168324D03*
D19*
X117475296Y-77203324D03*
X130166800Y-25586150D03*
D21*
X130166800Y-27621150D03*
D20*
X130166800Y-20001150D03*
D19*
X130166800Y-22036150D03*
X130166800Y-42253700D03*
D21*
X130166800Y-44288700D03*
D20*
X130166800Y-36668700D03*
D19*
X130166800Y-38703700D03*
X130166800Y-61302500D03*
D21*
X130166800Y-63337500D03*
D20*
X130166800Y-55717500D03*
D19*
X130166800Y-57752500D03*
X120650304Y-77203324D03*
D20*
X120650304Y-75168324D03*
D21*
X120650304Y-82788324D03*
D19*
X120650304Y-80753324D03*
D22*
X124135000Y-22223600D03*
X113975000Y-22223600D03*
D23*
X122865000Y-24763600D03*
D16*
X119055000Y-22223600D03*
D23*
X116515000Y-27303600D03*
X121595000Y-27303600D03*
X115245000Y-24763600D03*
X115245000Y-43812400D03*
X121595000Y-46352400D03*
X116515000Y-46352400D03*
D16*
X119055000Y-41272400D03*
D23*
X122865000Y-43812400D03*
D22*
X113975000Y-41272400D03*
X124135000Y-41272400D03*
D23*
X115245000Y-62861200D03*
X121595000Y-65401200D03*
X116515000Y-65401200D03*
D16*
X119055000Y-60321200D03*
D23*
X122865000Y-62861200D03*
D22*
X113975000Y-60321200D03*
X124135000Y-60321200D03*
D23*
X113347776Y-76835200D03*
X106997776Y-74295200D03*
X112077776Y-74295200D03*
D16*
X109537776Y-79375200D03*
D23*
X105727776Y-76835200D03*
D22*
X114617776Y-79375200D03*
X104457776Y-79375200D03*
D23*
X134293800Y-24763600D03*
X140643800Y-27303600D03*
X135563800Y-27303600D03*
D16*
X138103800Y-22223600D03*
D23*
X141913800Y-24763600D03*
D22*
X133023800Y-22223600D03*
X143183800Y-22223600D03*
X143183800Y-41272400D03*
X133023800Y-41272400D03*
D23*
X141913800Y-43812400D03*
D16*
X138103800Y-41272400D03*
D23*
X135563800Y-46352400D03*
X140643800Y-46352400D03*
X134293800Y-43812400D03*
D22*
X143183800Y-60321200D03*
X133023800Y-60321200D03*
D23*
X141913800Y-62861200D03*
D16*
X138103800Y-60321200D03*
D23*
X135563800Y-65401200D03*
X140643800Y-65401200D03*
X134293800Y-62861200D03*
D22*
X143183800Y-79370000D03*
X133023800Y-79370000D03*
D23*
X141913800Y-81910000D03*
D16*
X138103800Y-79370000D03*
D23*
X135563800Y-84450000D03*
X140643800Y-84450000D03*
X134293800Y-81910000D03*
X132397824Y-76835200D03*
X126047824Y-74295200D03*
X131127824Y-74295200D03*
D16*
X128587824Y-79375200D03*
D23*
X124777824Y-76835200D03*
D22*
X133667824Y-79375200D03*
X123507824Y-79375200D03*
D23*
X96202752Y-81915200D03*
X102552752Y-84455200D03*
X97472752Y-84455200D03*
D16*
X100012752Y-79375200D03*
D23*
X103822752Y-81915200D03*
D22*
X94932752Y-79375200D03*
X105092752Y-79375200D03*
D24*
X98789290Y-61281400D03*
X91789290Y-61281400D03*
D25*
X100589290Y-63381400D03*
X102089290Y-59181400D03*
X93589290Y-63381400D03*
X96589290Y-63381400D03*
D24*
X91789290Y-59531400D03*
X98789290Y-59531400D03*
D25*
X93589290Y-57431400D03*
X96589290Y-57431400D03*
X100589290Y-57431400D03*
X102089290Y-61631400D03*
D21*
X96242430Y-52387632D03*
X98782430Y-52387632D03*
X101322430Y-52387632D03*
X103862430Y-52387632D03*
D26*
X103981512Y-49911442D03*
X103981512Y-48910682D03*
X101401818Y-48910682D03*
X101401818Y-49911442D03*
X98822124Y-49911442D03*
X98822124Y-48910682D03*
X96242430Y-48910682D03*
X96242430Y-49911442D03*
D27*
X93441342Y-16476300D03*
X93441342Y-19016300D03*
X93441342Y-21556300D03*
X93441342Y-24096300D03*
X93441342Y-26636300D03*
X93441342Y-29176300D03*
X93441342Y-31716300D03*
X93441342Y-34256300D03*
X93441342Y-36796300D03*
X93441342Y-39336300D03*
X93441342Y-41876300D03*
X93441342Y-44416300D03*
X108661342Y-44416300D03*
X108661342Y-41876300D03*
X108661342Y-39336300D03*
X108661342Y-36796300D03*
X108661342Y-34256300D03*
X108661342Y-31716300D03*
X108661342Y-29176300D03*
X108661342Y-26636300D03*
X108661342Y-24096300D03*
X108661342Y-21556300D03*
X108661342Y-19016300D03*
X108661342Y-16476300D03*
X92114942Y-17746300D03*
X92114942Y-20286300D03*
X92114942Y-22826300D03*
X92114942Y-25366300D03*
X92114942Y-27906300D03*
X92114942Y-30446300D03*
X92114942Y-32986300D03*
X92114942Y-35526300D03*
X92114942Y-38066300D03*
X92114942Y-40606300D03*
X92114942Y-43146300D03*
X92114942Y-45686300D03*
X107354942Y-45686300D03*
X107354942Y-43146300D03*
X107354942Y-40606300D03*
X107354942Y-38066300D03*
X107354942Y-35526300D03*
X107354942Y-32986300D03*
X107354942Y-30446300D03*
X107354942Y-27906300D03*
X107354942Y-25366300D03*
X107354942Y-22826300D03*
X107354942Y-20286300D03*
X107354942Y-17746300D03*
M02*
