M48
INCH,TZ
T1C0.0157
T2C0.0315
T3C0.0320
T4C0.0394
T5C0.0512
T6C0.0590
T7C0.0866
%
G90
G05
T1
X38107Y-7987
X38940Y-9487
X39922Y-18750
X39956Y-11987
X40938Y-10938
X40938Y-18438
X41484Y-7500
X41560Y-6487
X41592Y-13487
X41607Y-14487
X41623Y-10487
X41623Y-15487
X41638Y-11487
X41638Y-16487
X41641Y-17491
X41654Y-12487
X41685Y-9487
X41748Y-8487
X44063Y-16328
X44063Y-17578
X45703Y-11641
X46016Y-11953
X46326Y-12264
X46641Y-12551
X46797Y-14688
X49453Y-12551
X50781Y-12266
X51250Y-11953
X54375Y-6563
X56250Y-29609
X56875Y-20000
T2
X57617Y-7567
X57617Y-8354
X57617Y-9141
X57617Y-9929
X57617Y-22700
X57617Y-23487
X57617Y-24275
X57617Y-25062
X57617Y-15133
X57617Y-15921
X57617Y-16708
X57617Y-17496
X57617Y-30267
X57617Y-31054
X57617Y-31841
X57617Y-32629
T3
X51247Y-14436
X51247Y-17436
X49997Y-14436
X49997Y-17436
X51247Y-7874
X51247Y-10874
X49997Y-21936
X49997Y-24936
X36266Y-6987
X36266Y-7987
X36266Y-8987
X36266Y-9987
X36266Y-10987
X36266Y-11987
X36266Y-12987
X36266Y-13987
X36266Y-14987
X36266Y-15987
X36266Y-16987
X36266Y-17987
X36788Y-6487
X36788Y-7487
X36788Y-8487
X36788Y-9487
X36788Y-10487
X36788Y-11487
X36788Y-12487
X36788Y-13487
X36788Y-14487
X36788Y-15487
X36788Y-16487
X36788Y-17487
X42266Y-6987
X42266Y-7987
X42266Y-8987
X42266Y-9987
X42266Y-10987
X42266Y-11987
X42266Y-12987
X42266Y-13987
X42266Y-14987
X42266Y-15987
X42266Y-16987
X42266Y-17987
X42780Y-6487
X42780Y-7487
X42780Y-8487
X42780Y-9487
X42780Y-10487
X42780Y-11487
X42780Y-12487
X42780Y-13487
X42780Y-14487
X42780Y-15487
X42780Y-16487
X42780Y-17487
X47500Y-29594
X47500Y-32594
X49997Y-7874
X49997Y-10874
X37891Y-20625
X38891Y-20625
X39891Y-20625
X40891Y-20625
X46250Y-29594
X46250Y-32594
X51247Y-21936
X51247Y-24936
T5
X38095Y-5625
X40655Y-5625
T6
X52872Y-17249
X53372Y-18249
X55372Y-18249
X55872Y-17249
X41625Y-30250
X42125Y-29250
X44125Y-29250
X44625Y-30250
X52872Y-24749
X53372Y-25749
X55372Y-25749
X55872Y-24749
X52872Y-32248
X53372Y-33248
X55372Y-33248
X55872Y-32248
X49125Y-30250
X49625Y-29250
X51625Y-29250
X52125Y-30250
X37875Y-32250
X38375Y-33250
X40375Y-33250
X40875Y-32250
X45372Y-17249
X45872Y-18249
X47872Y-18249
X48372Y-17249
X45372Y-9749
X45872Y-10749
X47872Y-10749
X48372Y-9749
X52872Y-9749
X53372Y-10749
X55372Y-10749
X55872Y-9749
X45372Y-24749
X45872Y-25749
X47872Y-25749
X48372Y-24749
T7
X57110Y-27500
X36641Y-27500
X57110Y-12500
T4
G00X36748Y-22611
M15
G01X36945Y-22611
M16
G05
G00X36748Y-24953
M15
G01X36945Y-24953
M16
G05
G00X37929Y-22611
M15
G01X38126Y-22611
M16
G05
G00X37929Y-24953
M15
G01X38126Y-24953
M16
G05
G00X39504Y-22611
M15
G01X39701Y-22611
M16
G05
G00X39504Y-24953
M15
G01X39701Y-24953
M16
G05
G00X40094Y-23300
M15
G01X40291Y-23300
M16
G05
G00X40094Y-24264
M15
G01X40291Y-24264
M16
G05
T0
M30
