G04 #@! TF.GenerationSoftware,KiCad,Pcbnew,5.1.4+dfsg1-1*
G04 #@! TF.CreationDate,2020-03-28T17:02:21+01:00*
G04 #@! TF.ProjectId,roni4x2split,726f6e69-3478-4327-9370-6c69742e6b69,rev?*
G04 #@! TF.SameCoordinates,Original*
G04 #@! TF.FileFunction,Copper,L2,Bot*
G04 #@! TF.FilePolarity,Positive*
%FSLAX46Y46*%
G04 Gerber Fmt 4.6, Leading zero omitted, Abs format (unit mm)*
G04 Created by KiCad (PCBNEW 5.1.4+dfsg1-1) date 2020-03-28 17:02:21*
%MOMM*%
%LPD*%
G04 APERTURE LIST*
%ADD10C,4.400000*%
%ADD11R,1.600000X1.600000*%
%ADD12C,2.000000*%
%ADD13R,0.950000X1.300000*%
%ADD14R,1.397000X1.397000*%
%ADD15C,1.397000*%
%ADD16C,2.286000*%
%ADD17O,2.500000X1.700000*%
%ADD18R,1.143000X0.635000*%
%ADD19C,1.524000*%
%ADD20C,0.800000*%
%ADD21C,0.250000*%
%ADD22C,0.254000*%
G04 APERTURE END LIST*
D10*
X93067422Y-69850176D03*
X145058178Y-31750080D03*
X145058178Y-69850176D03*
D11*
X146348025Y-25219350D03*
X146348025Y-23219350D03*
X146348025Y-21219350D03*
X146348025Y-19219350D03*
X146348025Y-44438700D03*
X146348025Y-42438700D03*
X146348025Y-40438700D03*
X146348025Y-38438700D03*
X146348025Y-63658050D03*
X146348025Y-61658050D03*
X146348025Y-59658050D03*
X146348025Y-57658050D03*
X146348025Y-82877400D03*
X146348025Y-80877400D03*
X146348025Y-78877400D03*
X146348025Y-76877400D03*
D12*
X103262500Y-14286600D03*
X96762500Y-14286600D03*
D13*
X126992000Y-25586150D03*
X126992000Y-22036150D03*
D14*
X126992000Y-20001150D03*
D15*
X126992000Y-27621150D03*
D13*
X126992000Y-42253700D03*
X126992000Y-38703700D03*
D14*
X126992000Y-36668700D03*
D15*
X126992000Y-44288700D03*
D13*
X126992000Y-61302500D03*
X126992000Y-57752500D03*
D14*
X126992000Y-55717500D03*
D15*
X126992000Y-63337500D03*
X117475296Y-82788324D03*
D14*
X117475296Y-75168324D03*
D13*
X117475296Y-77203324D03*
X117475296Y-80753324D03*
D15*
X130166800Y-27621150D03*
D14*
X130166800Y-20001150D03*
D13*
X130166800Y-22036150D03*
X130166800Y-25586150D03*
D15*
X130166800Y-44288700D03*
D14*
X130166800Y-36668700D03*
D13*
X130166800Y-38703700D03*
X130166800Y-42253700D03*
D15*
X130166800Y-63337500D03*
D14*
X130166800Y-55717500D03*
D13*
X130166800Y-57752500D03*
X130166800Y-61302500D03*
X120650304Y-80753324D03*
X120650304Y-77203324D03*
D14*
X120650304Y-75168324D03*
D15*
X120650304Y-82788324D03*
D16*
X122865000Y-24763600D03*
X116515000Y-27303600D03*
X121595000Y-27303600D03*
X115245000Y-24763600D03*
X115245000Y-43812400D03*
X121595000Y-46352400D03*
X116515000Y-46352400D03*
X122865000Y-43812400D03*
X115245000Y-62861200D03*
X121595000Y-65401200D03*
X116515000Y-65401200D03*
X122865000Y-62861200D03*
X113347776Y-76835200D03*
X106997776Y-74295200D03*
X112077776Y-74295200D03*
X105727776Y-76835200D03*
X134293800Y-24763600D03*
X140643800Y-27303600D03*
X135563800Y-27303600D03*
X141913800Y-24763600D03*
X141913800Y-43812400D03*
X135563800Y-46352400D03*
X140643800Y-46352400D03*
X134293800Y-43812400D03*
X141913800Y-62861200D03*
X135563800Y-65401200D03*
X140643800Y-65401200D03*
X134293800Y-62861200D03*
X141913800Y-81910000D03*
X135563800Y-84450000D03*
X140643800Y-84450000D03*
X134293800Y-81910000D03*
X132397824Y-76835200D03*
X126047824Y-74295200D03*
X131127824Y-74295200D03*
X124777824Y-76835200D03*
X96202752Y-81915200D03*
X102552752Y-84455200D03*
X97472752Y-84455200D03*
X103822752Y-81915200D03*
D17*
X100589290Y-63381400D03*
X102089290Y-59181400D03*
X93589290Y-63381400D03*
X96589290Y-63381400D03*
X93589290Y-57431400D03*
X96589290Y-57431400D03*
X100589290Y-57431400D03*
X102089290Y-61631400D03*
D15*
X96242430Y-52387632D03*
X98782430Y-52387632D03*
X101322430Y-52387632D03*
X103862430Y-52387632D03*
D18*
X103981512Y-49911442D03*
X103981512Y-48910682D03*
X101401818Y-48910682D03*
X101401818Y-49911442D03*
X98822124Y-49911442D03*
X98822124Y-48910682D03*
X96242430Y-48910682D03*
X96242430Y-49911442D03*
D19*
X93441342Y-16476300D03*
X93441342Y-19016300D03*
X93441342Y-21556300D03*
X93441342Y-24096300D03*
X93441342Y-26636300D03*
X93441342Y-29176300D03*
X93441342Y-31716300D03*
X93441342Y-34256300D03*
X93441342Y-36796300D03*
X93441342Y-39336300D03*
X93441342Y-41876300D03*
X93441342Y-44416300D03*
X108661342Y-44416300D03*
X108661342Y-41876300D03*
X108661342Y-39336300D03*
X108661342Y-36796300D03*
X108661342Y-34256300D03*
X108661342Y-31716300D03*
X108661342Y-29176300D03*
X108661342Y-26636300D03*
X108661342Y-24096300D03*
X108661342Y-21556300D03*
X108661342Y-19016300D03*
X108661342Y-16476300D03*
X92114942Y-17746300D03*
X92114942Y-20286300D03*
X92114942Y-22826300D03*
X92114942Y-25366300D03*
X92114942Y-27906300D03*
X92114942Y-30446300D03*
X92114942Y-32986300D03*
X92114942Y-35526300D03*
X92114942Y-38066300D03*
X92114942Y-40606300D03*
X92114942Y-43146300D03*
X92114942Y-45686300D03*
X107354942Y-45686300D03*
X107354942Y-43146300D03*
X107354942Y-40606300D03*
X107354942Y-38066300D03*
X107354942Y-35526300D03*
X107354942Y-32986300D03*
X107354942Y-30446300D03*
X107354942Y-27906300D03*
X107354942Y-25366300D03*
X107354942Y-22826300D03*
X107354942Y-20286300D03*
X107354942Y-17746300D03*
D20*
X116086230Y-29567262D03*
X130175328Y-30361014D03*
X116879982Y-30361014D03*
X117667484Y-31150079D03*
X128984700Y-31154766D03*
X118467486Y-31879776D03*
X125611242Y-31879776D03*
X111919032Y-44648550D03*
X105721846Y-26636300D03*
X105761540Y-29176300D03*
X105801234Y-31716300D03*
X105642490Y-34256300D03*
X105682184Y-36796300D03*
X105721878Y-39336300D03*
X138112500Y-16668750D03*
X105370578Y-19050048D03*
X144462864Y-50800128D03*
X118864362Y-37306344D03*
X142875360Y-75208002D03*
X105563070Y-16476300D03*
X105880590Y-24096300D03*
X98907426Y-24096300D03*
X96792120Y-20286300D03*
X103981512Y-27781320D03*
X103981512Y-46831368D03*
X101487104Y-30446300D03*
X101401818Y-47625120D03*
X105767454Y-44426255D03*
X105761572Y-41876300D03*
X111919032Y-41473542D03*
X106039334Y-21556300D03*
D21*
X146535950Y-19654900D02*
X146594650Y-19596200D01*
X126992000Y-20001150D02*
X126992000Y-22036150D01*
X130166800Y-20001150D02*
X130166800Y-22036150D01*
X126992000Y-20001150D02*
X130166800Y-20001150D01*
X107583712Y-31716300D02*
X108661342Y-31716300D01*
X107016180Y-31716300D02*
X107583712Y-31716300D01*
X105746180Y-32986300D02*
X107016180Y-31716300D01*
X92114942Y-32986300D02*
X105746180Y-32986300D01*
X108695122Y-31750080D02*
X108661342Y-31716300D01*
X144798575Y-19843800D02*
X145423025Y-19219350D01*
X145423025Y-19219350D02*
X146348025Y-19219350D01*
X131272650Y-19843800D02*
X144798575Y-19843800D01*
X130166800Y-20001150D02*
X131115300Y-20001150D01*
X131115300Y-20001150D02*
X131272650Y-19843800D01*
X128190948Y-27936984D02*
X128190948Y-24407874D01*
X126992000Y-23208926D02*
X126992000Y-22036150D01*
X128190948Y-24407874D02*
X126992000Y-23208926D01*
X116086230Y-29567262D02*
X126560670Y-29567262D01*
X126560670Y-29567262D02*
X128190948Y-27936984D01*
X130166800Y-38703700D02*
X130166800Y-36668700D01*
X126992000Y-38703700D02*
X126992000Y-36668700D01*
X126992000Y-36668700D02*
X130166800Y-36668700D01*
X126729400Y-36931300D02*
X126992000Y-36668700D01*
X106932337Y-34256300D02*
X108661342Y-34256300D01*
X92114942Y-35526300D02*
X105662337Y-35526300D01*
X105662337Y-35526300D02*
X106932337Y-34256300D01*
X140295666Y-30559452D02*
X130373766Y-30559452D01*
X130373766Y-30559452D02*
X130175328Y-30361014D01*
X144661302Y-26193816D02*
X140295666Y-30559452D01*
X146348025Y-21219350D02*
X145298025Y-21219350D01*
X144661302Y-21856073D02*
X144661302Y-26193816D01*
X145298025Y-21219350D02*
X144661302Y-21856073D01*
X117445667Y-30361014D02*
X116879982Y-30361014D01*
X130175328Y-30361014D02*
X117445667Y-30361014D01*
X126992000Y-57752500D02*
X126992000Y-55717500D01*
X130166800Y-57752500D02*
X130166800Y-55717500D01*
X126992000Y-55717500D02*
X130166800Y-55717500D01*
X107071250Y-36796300D02*
X107583712Y-36796300D01*
X107583712Y-36796300D02*
X108661342Y-36796300D01*
X92114942Y-38066300D02*
X105801250Y-38066300D01*
X105801250Y-38066300D02*
X107071250Y-36796300D01*
X145111313Y-26777092D02*
X140733639Y-31154766D01*
X145298025Y-23219350D02*
X145111313Y-23406062D01*
X145111313Y-23406062D02*
X145111313Y-26777092D01*
X129550385Y-31154766D02*
X128984700Y-31154766D01*
X140733639Y-31154766D02*
X129550385Y-31154766D01*
X146348025Y-23219350D02*
X145298025Y-23219350D01*
X128419015Y-31154766D02*
X128984700Y-31154766D01*
X117672171Y-31154766D02*
X128419015Y-31154766D01*
X117667484Y-31150079D02*
X117672171Y-31154766D01*
X117475296Y-75168324D02*
X117475296Y-77203324D01*
X120650304Y-75168324D02*
X120650304Y-77203324D01*
X118423796Y-75168324D02*
X120650304Y-75168324D01*
X117475296Y-75168324D02*
X118423796Y-75168324D01*
X107583712Y-39336300D02*
X108661342Y-39336300D01*
X105746180Y-40606300D02*
X107016180Y-39336300D01*
X107016180Y-39336300D02*
X107583712Y-39336300D01*
X92114942Y-40606300D02*
X105746180Y-40606300D01*
X108661342Y-39174968D02*
X108661342Y-39336300D01*
X119033171Y-31879776D02*
X125611242Y-31879776D01*
X118467486Y-31879776D02*
X119033171Y-31879776D01*
X140761284Y-31879776D02*
X125611242Y-31879776D01*
X142081608Y-30559452D02*
X140761284Y-31879776D01*
X142081608Y-30535767D02*
X142081608Y-30559452D01*
X146348025Y-25219350D02*
X146348025Y-26269350D01*
X146348025Y-26269350D02*
X142081608Y-30535767D01*
X116515000Y-26033600D02*
X116515000Y-27303600D01*
X115245000Y-24763600D02*
X116515000Y-26033600D01*
X116515000Y-27303600D02*
X119422358Y-27303600D01*
X119422358Y-27303600D02*
X120890359Y-28771601D01*
X120890359Y-28771601D02*
X122299641Y-28771601D01*
X122299641Y-28771601D02*
X123450092Y-27621150D01*
X123450092Y-27621150D02*
X126004172Y-27621150D01*
X126004172Y-27621150D02*
X126992000Y-27621150D01*
X126992000Y-25586150D02*
X126992000Y-27621150D01*
X116387999Y-46225399D02*
X116515000Y-46352400D01*
X116387999Y-44955399D02*
X116387999Y-46225399D01*
X115245000Y-43812400D02*
X116387999Y-44955399D01*
X126293501Y-44987199D02*
X126992000Y-44288700D01*
X123460299Y-47820401D02*
X126293501Y-44987199D01*
X117983001Y-47820401D02*
X123460299Y-47820401D01*
X116515000Y-46352400D02*
X117983001Y-47820401D01*
X126992000Y-44288700D02*
X126992000Y-42253700D01*
X116515000Y-64131200D02*
X116515000Y-65401200D01*
X115245000Y-62861200D02*
X116515000Y-64131200D01*
X126992000Y-63337500D02*
X126992000Y-61302500D01*
X125009799Y-59145299D02*
X126992000Y-61127500D01*
X123570567Y-59145299D02*
X125009799Y-59145299D01*
X126992000Y-61127500D02*
X126992000Y-61302500D01*
X117314666Y-65401200D02*
X123570567Y-59145299D01*
X116515000Y-65401200D02*
X117314666Y-65401200D01*
X112204777Y-74422201D02*
X112077776Y-74295200D01*
X96241094Y-81954894D02*
X97466200Y-83180000D01*
X97466200Y-83180000D02*
X97466200Y-84450000D01*
X112077776Y-75911646D02*
X113001330Y-76835200D01*
X113001330Y-76835200D02*
X113347776Y-76835200D01*
X112077776Y-74295200D02*
X112077776Y-75911646D01*
X117475296Y-79853324D02*
X117475296Y-80753324D01*
X115600171Y-77978199D02*
X117475296Y-79853324D01*
X113347776Y-76835200D02*
X114490775Y-77978199D01*
X114490775Y-77978199D02*
X115600171Y-77978199D01*
X117475296Y-80753324D02*
X117475296Y-82788324D01*
X117316536Y-82947084D02*
X117475296Y-82788324D01*
X100380110Y-84455200D02*
X101848111Y-85923201D01*
X101848111Y-85923201D02*
X105569469Y-85923201D01*
X97472752Y-84455200D02*
X100380110Y-84455200D01*
X105569469Y-85923201D02*
X108545586Y-82947084D01*
X108545586Y-82947084D02*
X117316536Y-82947084D01*
X133817500Y-25239900D02*
X134293800Y-24763600D01*
X135563800Y-26033600D02*
X135563800Y-27303600D01*
X134293800Y-24763600D02*
X135563800Y-26033600D01*
X130166800Y-25586150D02*
X130166800Y-27621150D01*
X131436250Y-27621150D02*
X130166800Y-27621150D01*
X134293800Y-24763600D02*
X131436250Y-27621150D01*
X134293800Y-45082400D02*
X134293800Y-43812400D01*
X135563800Y-46352400D02*
X134293800Y-45082400D01*
X133817500Y-44288700D02*
X134293800Y-43812400D01*
X130166800Y-44288700D02*
X133817500Y-44288700D01*
X130166800Y-44288700D02*
X130166800Y-42253700D01*
X134420801Y-62988201D02*
X134293800Y-62861200D01*
X134420801Y-64258201D02*
X134420801Y-62988201D01*
X135563800Y-65401200D02*
X134420801Y-64258201D01*
X133817500Y-63337500D02*
X134293800Y-62861200D01*
X130166800Y-63337500D02*
X133817500Y-63337500D01*
X130166800Y-63337500D02*
X130166800Y-61302500D01*
X131254825Y-74422201D02*
X131127824Y-74295200D01*
X131254825Y-75692201D02*
X131254825Y-74422201D01*
X132397824Y-76835200D02*
X131254825Y-75692201D01*
X134420801Y-83307001D02*
X134420801Y-82037001D01*
X134420801Y-82037001D02*
X134293800Y-81910000D01*
X135563800Y-84450000D02*
X134420801Y-83307001D01*
X133817500Y-82386300D02*
X134293800Y-81910000D01*
X120650304Y-80753324D02*
X120650304Y-82788324D01*
X132677354Y-81910000D02*
X134293800Y-81910000D01*
X121375304Y-80753324D02*
X122531980Y-81910000D01*
X122531980Y-81910000D02*
X132677354Y-81910000D01*
X120650304Y-80753324D02*
X121375304Y-80753324D01*
X126047824Y-75565200D02*
X126047824Y-74295200D01*
X124777824Y-76835200D02*
X126047824Y-75565200D01*
X139027354Y-65401200D02*
X140643800Y-65401200D01*
X130310896Y-72826746D02*
X131601808Y-72826746D01*
X126047824Y-74295200D02*
X128842442Y-74295200D01*
X131601808Y-72826746D02*
X139027354Y-65401200D01*
X128842442Y-74295200D02*
X130310896Y-72826746D01*
X106991894Y-44416300D02*
X108661342Y-44416300D01*
X105767454Y-45640740D02*
X106991894Y-44416300D01*
X92114942Y-45686300D02*
X92160502Y-45640740D01*
X92160502Y-45640740D02*
X105767454Y-45640740D01*
X112319031Y-45048549D02*
X111919032Y-44648550D01*
X115675252Y-48404770D02*
X112319031Y-45048549D01*
X138591430Y-48404770D02*
X115675252Y-48404770D01*
X140643800Y-46352400D02*
X138591430Y-48404770D01*
X93441342Y-26636300D02*
X105721846Y-26636300D01*
X109067442Y-27906300D02*
X108432572Y-27906300D01*
X126356132Y-32604778D02*
X118119484Y-32604778D01*
X126378045Y-32582865D02*
X126356132Y-32604778D01*
X139442190Y-32582865D02*
X126378045Y-32582865D01*
X146348025Y-38438700D02*
X145298025Y-38438700D01*
X108432572Y-27906300D02*
X107354942Y-27906300D01*
X118119484Y-32604778D02*
X118097571Y-32582865D01*
X118097571Y-32582865D02*
X113744007Y-32582865D01*
X113744007Y-32582865D02*
X109067442Y-27906300D01*
X145298025Y-38438700D02*
X139442190Y-32582865D01*
X93441342Y-29176300D02*
X105761540Y-29176300D01*
X109027748Y-30446300D02*
X108432572Y-30446300D01*
X145223024Y-39017597D02*
X139238303Y-33032876D01*
X139238303Y-33032876D02*
X126564445Y-33032876D01*
X145223024Y-39498701D02*
X145223024Y-39017597D01*
X146348025Y-40438700D02*
X145473026Y-39563701D01*
X145288024Y-39563701D02*
X145223024Y-39498701D01*
X117911171Y-33032876D02*
X111614324Y-33032876D01*
X145473026Y-39563701D02*
X145288024Y-39563701D01*
X126564445Y-33032876D02*
X126542532Y-33054789D01*
X117933084Y-33054789D02*
X117911171Y-33032876D01*
X126542532Y-33054789D02*
X117933084Y-33054789D01*
X108432572Y-30446300D02*
X107354942Y-30446300D01*
X111614324Y-33032876D02*
X109027748Y-30446300D01*
X93441342Y-31716300D02*
X105801234Y-31716300D01*
X108432572Y-32986300D02*
X107354942Y-32986300D01*
X109980244Y-32986300D02*
X108432572Y-32986300D01*
X110476831Y-33482887D02*
X109980244Y-32986300D01*
X117724771Y-33482887D02*
X110476831Y-33482887D01*
X117746684Y-33504800D02*
X117724771Y-33482887D01*
X145288024Y-41563701D02*
X145223024Y-41498701D01*
X138894562Y-33482887D02*
X126750845Y-33482887D01*
X145223024Y-41498701D02*
X145223024Y-40013712D01*
X146348025Y-42438700D02*
X146348025Y-41563701D01*
X146348025Y-41563701D02*
X145288024Y-41563701D01*
X145101624Y-40013712D02*
X144773013Y-39685101D01*
X144773013Y-39685101D02*
X144773013Y-39361338D01*
X126750845Y-33482887D02*
X126728932Y-33504800D01*
X145223024Y-40013712D02*
X145101624Y-40013712D01*
X144773013Y-39361338D02*
X138894562Y-33482887D01*
X126728932Y-33504800D02*
X117746684Y-33504800D01*
X93441342Y-34256300D02*
X105642490Y-34256300D01*
X108936564Y-35526300D02*
X107354942Y-35526300D01*
X110529966Y-33932898D02*
X108936564Y-35526300D01*
X143307626Y-42448301D02*
X142619367Y-42448301D01*
X142619367Y-42448301D02*
X141883170Y-41712104D01*
X126915332Y-33954811D02*
X117560284Y-33954811D01*
X145298025Y-44438700D02*
X143307626Y-42448301D01*
X146348025Y-44438700D02*
X145298025Y-44438700D01*
X141883170Y-41712104D02*
X141883170Y-37107906D01*
X141883170Y-37107906D02*
X138708162Y-33932898D01*
X138708162Y-33932898D02*
X126937245Y-33932898D01*
X117538371Y-33932898D02*
X110529966Y-33932898D01*
X126937245Y-33932898D02*
X126915332Y-33954811D01*
X117560284Y-33954811D02*
X117538371Y-33932898D01*
X107209663Y-37954801D02*
X108165247Y-37954801D01*
X93441342Y-36796300D02*
X105682184Y-36796300D01*
X138594756Y-48854781D02*
X112279791Y-48854781D01*
X108432572Y-38066300D02*
X107354942Y-38066300D01*
X110728404Y-39794600D02*
X109000104Y-38066300D01*
X146348025Y-56608050D02*
X138594756Y-48854781D01*
X146348025Y-57658050D02*
X146348025Y-56608050D01*
X112279791Y-48854781D02*
X110728404Y-47303394D01*
X110728404Y-47303394D02*
X110728404Y-39794600D01*
X109000104Y-38066300D02*
X108432572Y-38066300D01*
X145605500Y-58991500D02*
X145613949Y-58983051D01*
X145613949Y-58983051D02*
X145673026Y-58983051D01*
X93441342Y-39336300D02*
X105721878Y-39336300D01*
X145058178Y-56356392D02*
X138006578Y-49304792D01*
X145298025Y-59658050D02*
X145058178Y-59418203D01*
X110278393Y-47489793D02*
X110278393Y-41884589D01*
X112093392Y-49304792D02*
X110278393Y-47489793D01*
X110278393Y-41884589D02*
X109000104Y-40606300D01*
X145058178Y-59418203D02*
X145058178Y-56356392D01*
X138006578Y-49304792D02*
X112093392Y-49304792D01*
X109000104Y-40606300D02*
X108432572Y-40606300D01*
X108432572Y-40606300D02*
X107354942Y-40606300D01*
X146348025Y-59658050D02*
X145298025Y-59658050D01*
X107016180Y-24096300D02*
X107583712Y-24096300D01*
X105746180Y-22826300D02*
X107016180Y-24096300D01*
X107583712Y-24096300D02*
X108661342Y-24096300D01*
X92114942Y-22826300D02*
X105746180Y-22826300D01*
X105336830Y-19016300D02*
X105370578Y-19050048D01*
X93441342Y-19016300D02*
X105336830Y-19016300D01*
X93441342Y-16476300D02*
X105563070Y-16476300D01*
X100589290Y-56331400D02*
X100589290Y-57431400D01*
X100298929Y-56041039D02*
X100589290Y-56331400D01*
X100298929Y-49540329D02*
X100298929Y-56041039D01*
X100928576Y-48910682D02*
X100298929Y-49540329D01*
X101401818Y-48910682D02*
X100928576Y-48910682D01*
X93441342Y-24096300D02*
X98907426Y-24096300D01*
X98907426Y-24096300D02*
X105880590Y-24096300D01*
X105746180Y-20286300D02*
X107016180Y-19016300D01*
X107583712Y-19016300D02*
X108661342Y-19016300D01*
X107016180Y-19016300D02*
X107583712Y-19016300D01*
X96792120Y-20286300D02*
X105746180Y-20286300D01*
X92114942Y-20286300D02*
X96792120Y-20286300D01*
X107583712Y-26636300D02*
X108661342Y-26636300D01*
X106912474Y-26636300D02*
X107583712Y-26636300D01*
X105700466Y-27848308D02*
X106912474Y-26636300D01*
X92114942Y-27906300D02*
X92172934Y-27848308D01*
X96904732Y-27848308D02*
X105700466Y-27848308D01*
X92172934Y-27848308D02*
X96904732Y-27848308D01*
X99427436Y-46831368D02*
X103981512Y-46831368D01*
X99143244Y-46831368D02*
X99427436Y-46831368D01*
X96242430Y-48910682D02*
X97063930Y-48910682D01*
X97063930Y-48910682D02*
X99143244Y-46831368D01*
X107583712Y-29176300D02*
X108661342Y-29176300D01*
X107016180Y-29176300D02*
X107583712Y-29176300D01*
X105746180Y-30446300D02*
X107016180Y-29176300D01*
X92114942Y-30446300D02*
X98736838Y-30446300D01*
X98736838Y-30446300D02*
X101487104Y-30446300D01*
X101487104Y-30446300D02*
X105746180Y-30446300D01*
X99643624Y-48910682D02*
X100929186Y-47625120D01*
X100929186Y-47625120D02*
X101401818Y-47625120D01*
X98822124Y-48910682D02*
X99643624Y-48910682D01*
X105757499Y-44416300D02*
X105767454Y-44426255D01*
X93441342Y-44416300D02*
X105757499Y-44416300D01*
X142619367Y-61497101D02*
X141883170Y-60760904D01*
X143137076Y-61497101D02*
X142619367Y-61497101D01*
X146348025Y-63658050D02*
X145298025Y-63658050D01*
X137120658Y-50204814D02*
X111720594Y-50204814D01*
X111720594Y-50204814D02*
X107354942Y-45839162D01*
X141883170Y-54967326D02*
X137120658Y-50204814D01*
X141883170Y-60760904D02*
X141883170Y-54967326D01*
X107354942Y-45839162D02*
X107354942Y-45686300D01*
X145298025Y-63658050D02*
X143137076Y-61497101D01*
X146217800Y-61426550D02*
X146217800Y-61658050D01*
X93441342Y-41876300D02*
X105761572Y-41876300D01*
X107354942Y-43146300D02*
X108945522Y-43146300D01*
X144462864Y-56554830D02*
X144462864Y-60822889D01*
X111906993Y-49754803D02*
X137662837Y-49754803D01*
X145298025Y-61658050D02*
X146348025Y-61658050D01*
X144462864Y-60822889D02*
X145298025Y-61658050D01*
X109828382Y-47676192D02*
X111906993Y-49754803D01*
X137662837Y-49754803D02*
X144462864Y-56554830D01*
X108945522Y-43146300D02*
X109828382Y-44029160D01*
X109828382Y-44029160D02*
X109828382Y-47676192D01*
X103981512Y-52268550D02*
X103862430Y-52387632D01*
X103981512Y-49911442D02*
X103981512Y-52268550D01*
X101401818Y-52308244D02*
X101322430Y-52387632D01*
X101401818Y-49911442D02*
X101401818Y-52308244D01*
X98822124Y-52347938D02*
X98782430Y-52387632D01*
X98822124Y-49911442D02*
X98822124Y-52347938D01*
X96242430Y-49911442D02*
X96242430Y-52387632D01*
X106997776Y-75565200D02*
X106997776Y-74295200D01*
X105727776Y-76835200D02*
X106997776Y-75565200D01*
X103816200Y-81910000D02*
X103281875Y-81375675D01*
X104584777Y-77978199D02*
X105727776Y-76835200D01*
X104190573Y-77978199D02*
X104584777Y-77978199D01*
X103281875Y-78886897D02*
X104190573Y-77978199D01*
X103281875Y-81375675D02*
X103281875Y-78886897D01*
X107016180Y-41876300D02*
X107583712Y-41876300D01*
X107583712Y-41876300D02*
X108661342Y-41876300D01*
X105746180Y-43146300D02*
X107016180Y-41876300D01*
X92114942Y-43146300D02*
X105746180Y-43146300D01*
X120452001Y-66544199D02*
X121595000Y-65401200D01*
X118194901Y-68801299D02*
X120452001Y-66544199D01*
X112491677Y-68801299D02*
X118194901Y-68801299D01*
X106997776Y-74295200D02*
X112491677Y-68801299D01*
X112911222Y-42465732D02*
X111919032Y-41473542D01*
X113776999Y-42465732D02*
X112911222Y-42465732D01*
X114643335Y-42344399D02*
X114539433Y-42448301D01*
X122865000Y-43812400D02*
X117417642Y-43812400D01*
X117417642Y-43812400D02*
X115949641Y-42344399D01*
X115949641Y-42344399D02*
X114643335Y-42344399D01*
X113794430Y-42448301D02*
X113776999Y-42465732D01*
X114539433Y-42448301D02*
X113794430Y-42448301D01*
X93441342Y-21556300D02*
X106039334Y-21556300D01*
X107583712Y-16476300D02*
X108661342Y-16476300D01*
X107016180Y-16476300D02*
X107583712Y-16476300D01*
X105746180Y-17746300D02*
X107016180Y-16476300D01*
X92114942Y-17746300D02*
X105746180Y-17746300D01*
D22*
G36*
X106116937Y-46348027D02*
G01*
X106269822Y-46576835D01*
X106464407Y-46771420D01*
X106693215Y-46924305D01*
X106947452Y-47029614D01*
X107217350Y-47083300D01*
X107492534Y-47083300D01*
X107519012Y-47078033D01*
X111156794Y-50715816D01*
X111180593Y-50744815D01*
X111296318Y-50839788D01*
X111428347Y-50910360D01*
X111571608Y-50953817D01*
X111683261Y-50964814D01*
X111683270Y-50964814D01*
X111720593Y-50968490D01*
X111757916Y-50964814D01*
X136805857Y-50964814D01*
X141123171Y-55282129D01*
X141123170Y-60723581D01*
X141119494Y-60760904D01*
X141123170Y-60798226D01*
X141123170Y-60798236D01*
X141134167Y-60909889D01*
X141175926Y-61047552D01*
X141177624Y-61053150D01*
X141248196Y-61185180D01*
X141264873Y-61205501D01*
X141071601Y-61285557D01*
X140780391Y-61480137D01*
X140532737Y-61727791D01*
X140338157Y-62019001D01*
X140204128Y-62342577D01*
X140135800Y-62686082D01*
X140135800Y-63036318D01*
X140204128Y-63379823D01*
X140317402Y-63653292D01*
X140125177Y-63691528D01*
X139801601Y-63825557D01*
X139510391Y-64020137D01*
X139262737Y-64267791D01*
X139068157Y-64559001D01*
X139035307Y-64638307D01*
X139027354Y-64637524D01*
X138990031Y-64641200D01*
X138990021Y-64641200D01*
X138878368Y-64652197D01*
X138735107Y-64695654D01*
X138603078Y-64766226D01*
X138487353Y-64861199D01*
X138463555Y-64890197D01*
X137160012Y-66193740D01*
X137273472Y-65919823D01*
X137341800Y-65576318D01*
X137341800Y-65226082D01*
X137273472Y-64882577D01*
X137139443Y-64559001D01*
X136944863Y-64267791D01*
X136697209Y-64020137D01*
X136405999Y-63825557D01*
X136082423Y-63691528D01*
X135890198Y-63653292D01*
X136003472Y-63379823D01*
X136071800Y-63036318D01*
X136071800Y-62686082D01*
X136003472Y-62342577D01*
X135869443Y-62019001D01*
X135674863Y-61727791D01*
X135427209Y-61480137D01*
X135135999Y-61285557D01*
X134812423Y-61151528D01*
X134468918Y-61083200D01*
X134301725Y-61083200D01*
X134340588Y-61025038D01*
X134452598Y-60754621D01*
X134509700Y-60467548D01*
X134509700Y-60174852D01*
X134487308Y-60062276D01*
X135474900Y-60062276D01*
X135474900Y-60580124D01*
X135575927Y-61088022D01*
X135774099Y-61566451D01*
X136061800Y-61997026D01*
X136427974Y-62363200D01*
X136858549Y-62650901D01*
X137336978Y-62849073D01*
X137844876Y-62950100D01*
X138362724Y-62950100D01*
X138870622Y-62849073D01*
X139349051Y-62650901D01*
X139779626Y-62363200D01*
X140145800Y-61997026D01*
X140433501Y-61566451D01*
X140631673Y-61088022D01*
X140732700Y-60580124D01*
X140732700Y-60062276D01*
X140631673Y-59554378D01*
X140433501Y-59075949D01*
X140145800Y-58645374D01*
X139779626Y-58279200D01*
X139349051Y-57991499D01*
X138870622Y-57793327D01*
X138362724Y-57692300D01*
X137844876Y-57692300D01*
X137336978Y-57793327D01*
X136858549Y-57991499D01*
X136427974Y-58279200D01*
X136061800Y-58645374D01*
X135774099Y-59075949D01*
X135575927Y-59554378D01*
X135474900Y-60062276D01*
X134487308Y-60062276D01*
X134452598Y-59887779D01*
X134340588Y-59617362D01*
X134177974Y-59373994D01*
X133971006Y-59167026D01*
X133727638Y-59004412D01*
X133457221Y-58892402D01*
X133170148Y-58835300D01*
X132877452Y-58835300D01*
X132590379Y-58892402D01*
X132319962Y-59004412D01*
X132076594Y-59167026D01*
X131869626Y-59373994D01*
X131707012Y-59617362D01*
X131595002Y-59887779D01*
X131537900Y-60174852D01*
X131537900Y-60467548D01*
X131595002Y-60754621D01*
X131707012Y-61025038D01*
X131869626Y-61268406D01*
X132076594Y-61475374D01*
X132319962Y-61637988D01*
X132590379Y-61749998D01*
X132861822Y-61803991D01*
X132718157Y-62019001D01*
X132584128Y-62342577D01*
X132537398Y-62577500D01*
X131262771Y-62577500D01*
X131202597Y-62487443D01*
X131104639Y-62389485D01*
X131172337Y-62306994D01*
X131231302Y-62196680D01*
X131267612Y-62076982D01*
X131279872Y-61952500D01*
X131279872Y-60652500D01*
X131267612Y-60528018D01*
X131231302Y-60408320D01*
X131172337Y-60298006D01*
X131092985Y-60201315D01*
X130996294Y-60121963D01*
X130885980Y-60062998D01*
X130766282Y-60026688D01*
X130641800Y-60014428D01*
X129691800Y-60014428D01*
X129567318Y-60026688D01*
X129447620Y-60062998D01*
X129337306Y-60121963D01*
X129240615Y-60201315D01*
X129161263Y-60298006D01*
X129102298Y-60408320D01*
X129065988Y-60528018D01*
X129053728Y-60652500D01*
X129053728Y-61952500D01*
X129065988Y-62076982D01*
X129102298Y-62196680D01*
X129161263Y-62306994D01*
X129228961Y-62389485D01*
X129131003Y-62487443D01*
X128985068Y-62705851D01*
X128884546Y-62948532D01*
X128833300Y-63206162D01*
X128833300Y-63468838D01*
X128884546Y-63726468D01*
X128985068Y-63969149D01*
X129131003Y-64187557D01*
X129316743Y-64373297D01*
X129535151Y-64519232D01*
X129777832Y-64619754D01*
X130035462Y-64671000D01*
X130298138Y-64671000D01*
X130555768Y-64619754D01*
X130798449Y-64519232D01*
X131016857Y-64373297D01*
X131202597Y-64187557D01*
X131262771Y-64097500D01*
X133015628Y-64097500D01*
X133160391Y-64242263D01*
X133451601Y-64436843D01*
X133713730Y-64545420D01*
X133715255Y-64550447D01*
X133785827Y-64682477D01*
X133825672Y-64731027D01*
X133880800Y-64798202D01*
X133886977Y-64803272D01*
X133854128Y-64882577D01*
X133785800Y-65226082D01*
X133785800Y-65576318D01*
X133854128Y-65919823D01*
X133988157Y-66243399D01*
X134182737Y-66534609D01*
X134430391Y-66782263D01*
X134721601Y-66976843D01*
X135045177Y-67110872D01*
X135388682Y-67179200D01*
X135738918Y-67179200D01*
X136082423Y-67110872D01*
X136356340Y-66997412D01*
X131287007Y-72066746D01*
X130348229Y-72066746D01*
X130310896Y-72063069D01*
X130273563Y-72066746D01*
X130161910Y-72077743D01*
X130018649Y-72121200D01*
X129886620Y-72191772D01*
X129770895Y-72286745D01*
X129747097Y-72315743D01*
X128527641Y-73535200D01*
X127657515Y-73535200D01*
X127623467Y-73453001D01*
X127428887Y-73161791D01*
X127181233Y-72914137D01*
X126890023Y-72719557D01*
X126566447Y-72585528D01*
X126222942Y-72517200D01*
X125872706Y-72517200D01*
X125529201Y-72585528D01*
X125205625Y-72719557D01*
X124914415Y-72914137D01*
X124666761Y-73161791D01*
X124472181Y-73453001D01*
X124338152Y-73776577D01*
X124269824Y-74120082D01*
X124269824Y-74470318D01*
X124338152Y-74813823D01*
X124451426Y-75087292D01*
X124259201Y-75125528D01*
X123935625Y-75259557D01*
X123644415Y-75454137D01*
X123396761Y-75701791D01*
X123202181Y-75993001D01*
X123068152Y-76316577D01*
X122999824Y-76660082D01*
X122999824Y-77010318D01*
X123068152Y-77353823D01*
X123202181Y-77677399D01*
X123345846Y-77892409D01*
X123074403Y-77946402D01*
X122803986Y-78058412D01*
X122560618Y-78221026D01*
X122353650Y-78427994D01*
X122191036Y-78671362D01*
X122079026Y-78941779D01*
X122021924Y-79228852D01*
X122021924Y-79521548D01*
X122079026Y-79808621D01*
X122191036Y-80079038D01*
X122353650Y-80322406D01*
X122560618Y-80529374D01*
X122803986Y-80691988D01*
X123074403Y-80803998D01*
X123361476Y-80861100D01*
X123654172Y-80861100D01*
X123941245Y-80803998D01*
X124211662Y-80691988D01*
X124455030Y-80529374D01*
X124661998Y-80322406D01*
X124824612Y-80079038D01*
X124936622Y-79808621D01*
X124993724Y-79521548D01*
X124993724Y-79228852D01*
X124936622Y-78941779D01*
X124824612Y-78671362D01*
X124785749Y-78613200D01*
X124952942Y-78613200D01*
X125296447Y-78544872D01*
X125620023Y-78410843D01*
X125911233Y-78216263D01*
X126158887Y-77968609D01*
X126353467Y-77677399D01*
X126487496Y-77353823D01*
X126555824Y-77010318D01*
X126555824Y-76660082D01*
X126487496Y-76316577D01*
X126453448Y-76234378D01*
X126558828Y-76128998D01*
X126587825Y-76105201D01*
X126682798Y-75989476D01*
X126705314Y-75947352D01*
X126890023Y-75870843D01*
X127181233Y-75676263D01*
X127428887Y-75428609D01*
X127623467Y-75137399D01*
X127657515Y-75055200D01*
X128805120Y-75055200D01*
X128842442Y-75058876D01*
X128879764Y-75055200D01*
X128879775Y-75055200D01*
X128991428Y-75044203D01*
X129134689Y-75000746D01*
X129266718Y-74930174D01*
X129382443Y-74835201D01*
X129406246Y-74806197D01*
X129414911Y-74797532D01*
X129418152Y-74813823D01*
X129552181Y-75137399D01*
X129746761Y-75428609D01*
X129994415Y-75676263D01*
X130285625Y-75870843D01*
X130547754Y-75979420D01*
X130549279Y-75984447D01*
X130619851Y-76116477D01*
X130659696Y-76165027D01*
X130714824Y-76232202D01*
X130721001Y-76237272D01*
X130688152Y-76316577D01*
X130619824Y-76660082D01*
X130619824Y-77010318D01*
X130688152Y-77353823D01*
X130822181Y-77677399D01*
X131016761Y-77968609D01*
X131264415Y-78216263D01*
X131555625Y-78410843D01*
X131807814Y-78515302D01*
X131707012Y-78666162D01*
X131595002Y-78936579D01*
X131537900Y-79223652D01*
X131537900Y-79516348D01*
X131595002Y-79803421D01*
X131707012Y-80073838D01*
X131869626Y-80317206D01*
X132076594Y-80524174D01*
X132319962Y-80686788D01*
X132590379Y-80798798D01*
X132861822Y-80852791D01*
X132718157Y-81067801D01*
X132684109Y-81150000D01*
X130530850Y-81150000D01*
X130629824Y-81051026D01*
X130917525Y-80620451D01*
X131115697Y-80142022D01*
X131216724Y-79634124D01*
X131216724Y-79116276D01*
X131115697Y-78608378D01*
X130917525Y-78129949D01*
X130629824Y-77699374D01*
X130263650Y-77333200D01*
X129833075Y-77045499D01*
X129354646Y-76847327D01*
X128846748Y-76746300D01*
X128328900Y-76746300D01*
X127821002Y-76847327D01*
X127342573Y-77045499D01*
X126911998Y-77333200D01*
X126545824Y-77699374D01*
X126258123Y-78129949D01*
X126059951Y-78608378D01*
X125958924Y-79116276D01*
X125958924Y-79634124D01*
X126059951Y-80142022D01*
X126258123Y-80620451D01*
X126545824Y-81051026D01*
X126644798Y-81150000D01*
X122846782Y-81150000D01*
X121939108Y-80242327D01*
X121915305Y-80213323D01*
X121799580Y-80118350D01*
X121762926Y-80098758D01*
X121751116Y-79978842D01*
X121714806Y-79859144D01*
X121655841Y-79748830D01*
X121576489Y-79652139D01*
X121479798Y-79572787D01*
X121369484Y-79513822D01*
X121249786Y-79477512D01*
X121125304Y-79465252D01*
X120175304Y-79465252D01*
X120050822Y-79477512D01*
X119931124Y-79513822D01*
X119820810Y-79572787D01*
X119724119Y-79652139D01*
X119644767Y-79748830D01*
X119585802Y-79859144D01*
X119549492Y-79978842D01*
X119537232Y-80103324D01*
X119537232Y-81403324D01*
X119549492Y-81527806D01*
X119585802Y-81647504D01*
X119644767Y-81757818D01*
X119712465Y-81840309D01*
X119614507Y-81938267D01*
X119468572Y-82156675D01*
X119368050Y-82399356D01*
X119316804Y-82656986D01*
X119316804Y-82919662D01*
X119368050Y-83177292D01*
X119468572Y-83419973D01*
X119614507Y-83638381D01*
X119800247Y-83824121D01*
X120018655Y-83970056D01*
X120261336Y-84070578D01*
X120518966Y-84121824D01*
X120781642Y-84121824D01*
X121039272Y-84070578D01*
X121281953Y-83970056D01*
X121500361Y-83824121D01*
X121686101Y-83638381D01*
X121832036Y-83419973D01*
X121932558Y-83177292D01*
X121983804Y-82919662D01*
X121983804Y-82656986D01*
X121932558Y-82399356D01*
X121922675Y-82375497D01*
X121968180Y-82421002D01*
X121991979Y-82450001D01*
X122020977Y-82473799D01*
X122107703Y-82544974D01*
X122213371Y-82601455D01*
X122239733Y-82615546D01*
X122382994Y-82659003D01*
X122494647Y-82670000D01*
X122494657Y-82670000D01*
X122531980Y-82673676D01*
X122569303Y-82670000D01*
X132684109Y-82670000D01*
X132718157Y-82752199D01*
X132912737Y-83043409D01*
X133160391Y-83291063D01*
X133451601Y-83485643D01*
X133713730Y-83594220D01*
X133715255Y-83599247D01*
X133785827Y-83731277D01*
X133796104Y-83743799D01*
X133880800Y-83847002D01*
X133886977Y-83852072D01*
X133854128Y-83931377D01*
X133785800Y-84274882D01*
X133785800Y-84625118D01*
X133854128Y-84968623D01*
X133988157Y-85292199D01*
X134182737Y-85583409D01*
X134430391Y-85831063D01*
X134721601Y-86025643D01*
X135045177Y-86159672D01*
X135388682Y-86228000D01*
X135738918Y-86228000D01*
X136082423Y-86159672D01*
X136405999Y-86025643D01*
X136697209Y-85831063D01*
X136944863Y-85583409D01*
X137139443Y-85292199D01*
X137273472Y-84968623D01*
X137341800Y-84625118D01*
X137341800Y-84274882D01*
X137273472Y-83931377D01*
X137139443Y-83607801D01*
X136944863Y-83316591D01*
X136697209Y-83068937D01*
X136405999Y-82874357D01*
X136082423Y-82740328D01*
X135890198Y-82702092D01*
X136003472Y-82428623D01*
X136071800Y-82085118D01*
X136071800Y-81734882D01*
X136003472Y-81391377D01*
X135869443Y-81067801D01*
X135674863Y-80776591D01*
X135427209Y-80528937D01*
X135135999Y-80334357D01*
X134883810Y-80229898D01*
X134984612Y-80079038D01*
X135096622Y-79808621D01*
X135153724Y-79521548D01*
X135153724Y-79228852D01*
X135130298Y-79111076D01*
X135474900Y-79111076D01*
X135474900Y-79628924D01*
X135575927Y-80136822D01*
X135774099Y-80615251D01*
X136061800Y-81045826D01*
X136427974Y-81412000D01*
X136858549Y-81699701D01*
X137336978Y-81897873D01*
X137844876Y-81998900D01*
X138362724Y-81998900D01*
X138870622Y-81897873D01*
X139349051Y-81699701D01*
X139779626Y-81412000D01*
X140145800Y-81045826D01*
X140433501Y-80615251D01*
X140631673Y-80136822D01*
X140732700Y-79628924D01*
X140732700Y-79111076D01*
X140631673Y-78603178D01*
X140433501Y-78124749D01*
X140145800Y-77694174D01*
X139779626Y-77328000D01*
X139349051Y-77040299D01*
X138870622Y-76842127D01*
X138362724Y-76741100D01*
X137844876Y-76741100D01*
X137336978Y-76842127D01*
X136858549Y-77040299D01*
X136427974Y-77328000D01*
X136061800Y-77694174D01*
X135774099Y-78124749D01*
X135575927Y-78603178D01*
X135474900Y-79111076D01*
X135130298Y-79111076D01*
X135096622Y-78941779D01*
X134984612Y-78671362D01*
X134821998Y-78427994D01*
X134615030Y-78221026D01*
X134371662Y-78058412D01*
X134101245Y-77946402D01*
X133829802Y-77892409D01*
X133973467Y-77677399D01*
X134107496Y-77353823D01*
X134175824Y-77010318D01*
X134175824Y-76660082D01*
X134107496Y-76316577D01*
X133973467Y-75993001D01*
X133778887Y-75701791D01*
X133531233Y-75454137D01*
X133240023Y-75259557D01*
X132916447Y-75125528D01*
X132724222Y-75087292D01*
X132837496Y-74813823D01*
X132905824Y-74470318D01*
X132905824Y-74120082D01*
X132837496Y-73776577D01*
X132703467Y-73453001D01*
X132508887Y-73161791D01*
X132425226Y-73078130D01*
X139144981Y-66358375D01*
X139262737Y-66534609D01*
X139510391Y-66782263D01*
X139801601Y-66976843D01*
X140125177Y-67110872D01*
X140468682Y-67179200D01*
X140818918Y-67179200D01*
X141162423Y-67110872D01*
X141485999Y-66976843D01*
X141777209Y-66782263D01*
X142024863Y-66534609D01*
X142219443Y-66243399D01*
X142353472Y-65919823D01*
X142421800Y-65576318D01*
X142421800Y-65226082D01*
X142353472Y-64882577D01*
X142240198Y-64609108D01*
X142432423Y-64570872D01*
X142755999Y-64436843D01*
X143047209Y-64242263D01*
X143294863Y-63994609D01*
X143489443Y-63703399D01*
X143623472Y-63379823D01*
X143676817Y-63111644D01*
X144734230Y-64169058D01*
X144758024Y-64198051D01*
X144787017Y-64221845D01*
X144787021Y-64221849D01*
X144831317Y-64258201D01*
X144873749Y-64293024D01*
X144909953Y-64312376D01*
X144909953Y-64458050D01*
X144922213Y-64582532D01*
X144958523Y-64702230D01*
X145017488Y-64812544D01*
X145096840Y-64909235D01*
X145193531Y-64988587D01*
X145303845Y-65047552D01*
X145423543Y-65083862D01*
X145548025Y-65096122D01*
X146968201Y-65096122D01*
X146968201Y-67750904D01*
X146865385Y-67648088D01*
X146401054Y-67337832D01*
X145885117Y-67124124D01*
X145337401Y-67015176D01*
X144778955Y-67015176D01*
X144231239Y-67124124D01*
X143715302Y-67337832D01*
X143250971Y-67648088D01*
X142856090Y-68042969D01*
X142545834Y-68507300D01*
X142332126Y-69023237D01*
X142295055Y-69209605D01*
X142163650Y-69078200D01*
X141733075Y-68790499D01*
X141254646Y-68592327D01*
X140746748Y-68491300D01*
X140228900Y-68491300D01*
X139721002Y-68592327D01*
X139242573Y-68790499D01*
X138811998Y-69078200D01*
X138445824Y-69444374D01*
X138158123Y-69874949D01*
X137959951Y-70353378D01*
X137858924Y-70861276D01*
X137858924Y-71379124D01*
X137959951Y-71887022D01*
X138158123Y-72365451D01*
X138445824Y-72796026D01*
X138811998Y-73162200D01*
X139242573Y-73449901D01*
X139721002Y-73648073D01*
X140228900Y-73749100D01*
X140746748Y-73749100D01*
X141254646Y-73648073D01*
X141733075Y-73449901D01*
X142163650Y-73162200D01*
X142529824Y-72796026D01*
X142817525Y-72365451D01*
X143015697Y-71887022D01*
X143027316Y-71828609D01*
X143250971Y-72052264D01*
X143715302Y-72362520D01*
X144231239Y-72576228D01*
X144778955Y-72685176D01*
X145337401Y-72685176D01*
X145885117Y-72576228D01*
X146401054Y-72362520D01*
X146865385Y-72052264D01*
X146968201Y-71949448D01*
X146968201Y-75439328D01*
X145548025Y-75439328D01*
X145423543Y-75451588D01*
X145303845Y-75487898D01*
X145193531Y-75546863D01*
X145096840Y-75626215D01*
X145017488Y-75722906D01*
X144958523Y-75833220D01*
X144922213Y-75952918D01*
X144909953Y-76077400D01*
X144909953Y-77677400D01*
X144922213Y-77801882D01*
X144945121Y-77877400D01*
X144922213Y-77952918D01*
X144909953Y-78077400D01*
X144909953Y-79677400D01*
X144922213Y-79801882D01*
X144945121Y-79877400D01*
X144922213Y-79952918D01*
X144909953Y-80077400D01*
X144909953Y-81677400D01*
X144922213Y-81801882D01*
X144945121Y-81877400D01*
X144922213Y-81952918D01*
X144909953Y-82077400D01*
X144909953Y-83677400D01*
X144922213Y-83801882D01*
X144958523Y-83921580D01*
X145017488Y-84031894D01*
X145096840Y-84128585D01*
X145193531Y-84207937D01*
X145303845Y-84266902D01*
X145423543Y-84303212D01*
X145548025Y-84315472D01*
X146968201Y-84315472D01*
X146968201Y-86481011D01*
X146932317Y-86846983D01*
X146835411Y-87167953D01*
X146678006Y-87463989D01*
X146466100Y-87723813D01*
X146207755Y-87937533D01*
X145912824Y-88097002D01*
X145592542Y-88196146D01*
X145228578Y-88234400D01*
X141568983Y-88234400D01*
X141864106Y-88037204D01*
X142164828Y-87736482D01*
X142401105Y-87382870D01*
X142563854Y-86989957D01*
X142646824Y-86572843D01*
X142646824Y-86147557D01*
X142563854Y-85730443D01*
X142401105Y-85337530D01*
X142277371Y-85152349D01*
X142353472Y-84968623D01*
X142421800Y-84625118D01*
X142421800Y-84274882D01*
X142353472Y-83931377D01*
X142240198Y-83657908D01*
X142432423Y-83619672D01*
X142755999Y-83485643D01*
X143047209Y-83291063D01*
X143294863Y-83043409D01*
X143489443Y-82752199D01*
X143623472Y-82428623D01*
X143691800Y-82085118D01*
X143691800Y-81734882D01*
X143623472Y-81391377D01*
X143489443Y-81067801D01*
X143345778Y-80852791D01*
X143617221Y-80798798D01*
X143887638Y-80686788D01*
X144131006Y-80524174D01*
X144337974Y-80317206D01*
X144500588Y-80073838D01*
X144612598Y-79803421D01*
X144669700Y-79516348D01*
X144669700Y-79223652D01*
X144612598Y-78936579D01*
X144500588Y-78666162D01*
X144337974Y-78422794D01*
X144131006Y-78215826D01*
X143887638Y-78053212D01*
X143617221Y-77941202D01*
X143330148Y-77884100D01*
X143037452Y-77884100D01*
X142750379Y-77941202D01*
X142479962Y-78053212D01*
X142236594Y-78215826D01*
X142029626Y-78422794D01*
X141867012Y-78666162D01*
X141755002Y-78936579D01*
X141697900Y-79223652D01*
X141697900Y-79516348D01*
X141755002Y-79803421D01*
X141867012Y-80073838D01*
X141905875Y-80132000D01*
X141738682Y-80132000D01*
X141395177Y-80200328D01*
X141071601Y-80334357D01*
X140780391Y-80528937D01*
X140532737Y-80776591D01*
X140338157Y-81067801D01*
X140204128Y-81391377D01*
X140135800Y-81734882D01*
X140135800Y-82085118D01*
X140204128Y-82428623D01*
X140317402Y-82702092D01*
X140125177Y-82740328D01*
X139801601Y-82874357D01*
X139510391Y-83068937D01*
X139262737Y-83316591D01*
X139068157Y-83607801D01*
X138934128Y-83931377D01*
X138865800Y-84274882D01*
X138865800Y-84625118D01*
X138916207Y-84878531D01*
X138810820Y-84983918D01*
X138574543Y-85337530D01*
X138411794Y-85730443D01*
X138328824Y-86147557D01*
X138328824Y-86572843D01*
X138411794Y-86989957D01*
X138574543Y-87382870D01*
X138810820Y-87736482D01*
X139111542Y-88037204D01*
X139406665Y-88234400D01*
X122518935Y-88234400D01*
X122814058Y-88037204D01*
X123114780Y-87736482D01*
X123351057Y-87382870D01*
X123513806Y-86989957D01*
X123596776Y-86572843D01*
X123596776Y-86147557D01*
X123513806Y-85730443D01*
X123351057Y-85337530D01*
X123114780Y-84983918D01*
X122814058Y-84683196D01*
X122460446Y-84446919D01*
X122067533Y-84284170D01*
X121650419Y-84201200D01*
X121225133Y-84201200D01*
X120808019Y-84284170D01*
X120415106Y-84446919D01*
X120061494Y-84683196D01*
X119760772Y-84983918D01*
X119524495Y-85337530D01*
X119361746Y-85730443D01*
X119278776Y-86147557D01*
X119278776Y-86572843D01*
X119361746Y-86989957D01*
X119524495Y-87382870D01*
X119760772Y-87736482D01*
X120061494Y-88037204D01*
X120356617Y-88234400D01*
X117768983Y-88234400D01*
X118064106Y-88037204D01*
X118364828Y-87736482D01*
X118601105Y-87382870D01*
X118763854Y-86989957D01*
X118846824Y-86572843D01*
X118846824Y-86147557D01*
X118763854Y-85730443D01*
X118601105Y-85337530D01*
X118364828Y-84983918D01*
X118064106Y-84683196D01*
X117710494Y-84446919D01*
X117317581Y-84284170D01*
X116900467Y-84201200D01*
X116475181Y-84201200D01*
X116058067Y-84284170D01*
X115665154Y-84446919D01*
X115311542Y-84683196D01*
X115010820Y-84983918D01*
X114774543Y-85337530D01*
X114611794Y-85730443D01*
X114528824Y-86147557D01*
X114528824Y-86572843D01*
X114611794Y-86989957D01*
X114774543Y-87382870D01*
X115010820Y-87736482D01*
X115311542Y-88037204D01*
X115606665Y-88234400D01*
X98718935Y-88234400D01*
X99014058Y-88037204D01*
X99314780Y-87736482D01*
X99551057Y-87382870D01*
X99713806Y-86989957D01*
X99796776Y-86572843D01*
X99796776Y-86147557D01*
X99713806Y-85730443D01*
X99551057Y-85337530D01*
X99469318Y-85215200D01*
X100065309Y-85215200D01*
X101284312Y-86434204D01*
X101308110Y-86463202D01*
X101337108Y-86487000D01*
X101423834Y-86558175D01*
X101555864Y-86628747D01*
X101699125Y-86672204D01*
X101810778Y-86683201D01*
X101810788Y-86683201D01*
X101848111Y-86686877D01*
X101885434Y-86683201D01*
X105532147Y-86683201D01*
X105569469Y-86686877D01*
X105606791Y-86683201D01*
X105606802Y-86683201D01*
X105718455Y-86672204D01*
X105861716Y-86628747D01*
X105993745Y-86558175D01*
X106109470Y-86463202D01*
X106133273Y-86434198D01*
X108860388Y-83707084D01*
X116508202Y-83707084D01*
X116625239Y-83824121D01*
X116843647Y-83970056D01*
X117086328Y-84070578D01*
X117343958Y-84121824D01*
X117606634Y-84121824D01*
X117864264Y-84070578D01*
X118106945Y-83970056D01*
X118325353Y-83824121D01*
X118511093Y-83638381D01*
X118657028Y-83419973D01*
X118757550Y-83177292D01*
X118808796Y-82919662D01*
X118808796Y-82656986D01*
X118757550Y-82399356D01*
X118657028Y-82156675D01*
X118511093Y-81938267D01*
X118413135Y-81840309D01*
X118480833Y-81757818D01*
X118539798Y-81647504D01*
X118576108Y-81527806D01*
X118588368Y-81403324D01*
X118588368Y-80103324D01*
X118576108Y-79978842D01*
X118539798Y-79859144D01*
X118480833Y-79748830D01*
X118401481Y-79652139D01*
X118304790Y-79572787D01*
X118194476Y-79513822D01*
X118148057Y-79499741D01*
X118110270Y-79429048D01*
X118015297Y-79313323D01*
X117986300Y-79289526D01*
X117188170Y-78491396D01*
X117950296Y-78491396D01*
X118074778Y-78479136D01*
X118194476Y-78442826D01*
X118304790Y-78383861D01*
X118401481Y-78304509D01*
X118480833Y-78207818D01*
X118539798Y-78097504D01*
X118576108Y-77977806D01*
X118588368Y-77853324D01*
X118588368Y-76553324D01*
X118576108Y-76428842D01*
X118558930Y-76372215D01*
X118624981Y-76318009D01*
X118704333Y-76221318D01*
X118763298Y-76111004D01*
X118799608Y-75991306D01*
X118805811Y-75928324D01*
X119319789Y-75928324D01*
X119325992Y-75991306D01*
X119362302Y-76111004D01*
X119421267Y-76221318D01*
X119500619Y-76318009D01*
X119566670Y-76372215D01*
X119549492Y-76428842D01*
X119537232Y-76553324D01*
X119537232Y-77853324D01*
X119549492Y-77977806D01*
X119585802Y-78097504D01*
X119644767Y-78207818D01*
X119724119Y-78304509D01*
X119820810Y-78383861D01*
X119931124Y-78442826D01*
X120050822Y-78479136D01*
X120175304Y-78491396D01*
X121125304Y-78491396D01*
X121249786Y-78479136D01*
X121369484Y-78442826D01*
X121479798Y-78383861D01*
X121576489Y-78304509D01*
X121655841Y-78207818D01*
X121714806Y-78097504D01*
X121751116Y-77977806D01*
X121763376Y-77853324D01*
X121763376Y-76553324D01*
X121751116Y-76428842D01*
X121733938Y-76372215D01*
X121799989Y-76318009D01*
X121879341Y-76221318D01*
X121938306Y-76111004D01*
X121974616Y-75991306D01*
X121986876Y-75866824D01*
X121986876Y-74469824D01*
X121974616Y-74345342D01*
X121938306Y-74225644D01*
X121879341Y-74115330D01*
X121799989Y-74018639D01*
X121703298Y-73939287D01*
X121592984Y-73880322D01*
X121473286Y-73844012D01*
X121348804Y-73831752D01*
X119951804Y-73831752D01*
X119827322Y-73844012D01*
X119707624Y-73880322D01*
X119597310Y-73939287D01*
X119500619Y-74018639D01*
X119421267Y-74115330D01*
X119362302Y-74225644D01*
X119325992Y-74345342D01*
X119319789Y-74408324D01*
X118805811Y-74408324D01*
X118799608Y-74345342D01*
X118763298Y-74225644D01*
X118704333Y-74115330D01*
X118624981Y-74018639D01*
X118528290Y-73939287D01*
X118417976Y-73880322D01*
X118298278Y-73844012D01*
X118173796Y-73831752D01*
X116776796Y-73831752D01*
X116652314Y-73844012D01*
X116532616Y-73880322D01*
X116422302Y-73939287D01*
X116325611Y-74018639D01*
X116246259Y-74115330D01*
X116187294Y-74225644D01*
X116150984Y-74345342D01*
X116138724Y-74469824D01*
X116138724Y-75866824D01*
X116150984Y-75991306D01*
X116187294Y-76111004D01*
X116246259Y-76221318D01*
X116325611Y-76318009D01*
X116391662Y-76372215D01*
X116374484Y-76428842D01*
X116362224Y-76553324D01*
X116362224Y-77665451D01*
X116163975Y-77467202D01*
X116140172Y-77438198D01*
X116024447Y-77343225D01*
X115892418Y-77272653D01*
X115749157Y-77229196D01*
X115637504Y-77218199D01*
X115637493Y-77218199D01*
X115600171Y-77214523D01*
X115562849Y-77218199D01*
X115084426Y-77218199D01*
X115125776Y-77010318D01*
X115125776Y-76660082D01*
X115057448Y-76316577D01*
X114923419Y-75993001D01*
X114728839Y-75701791D01*
X114481185Y-75454137D01*
X114189975Y-75259557D01*
X113866399Y-75125528D01*
X113674174Y-75087292D01*
X113787448Y-74813823D01*
X113855776Y-74470318D01*
X113855776Y-74120082D01*
X113787448Y-73776577D01*
X113653419Y-73453001D01*
X113458839Y-73161791D01*
X113211185Y-72914137D01*
X112919975Y-72719557D01*
X112596399Y-72585528D01*
X112252894Y-72517200D01*
X111902658Y-72517200D01*
X111559153Y-72585528D01*
X111235577Y-72719557D01*
X110944367Y-72914137D01*
X110696713Y-73161791D01*
X110502133Y-73453001D01*
X110368104Y-73776577D01*
X110299776Y-74120082D01*
X110299776Y-74470318D01*
X110368104Y-74813823D01*
X110502133Y-75137399D01*
X110696713Y-75428609D01*
X110944367Y-75676263D01*
X111235577Y-75870843D01*
X111314883Y-75903693D01*
X111314100Y-75911646D01*
X111317777Y-75948979D01*
X111328774Y-76060632D01*
X111336529Y-76086197D01*
X111372230Y-76203892D01*
X111442802Y-76335922D01*
X111513977Y-76422648D01*
X111537776Y-76451647D01*
X111566774Y-76475445D01*
X111599911Y-76508582D01*
X111569776Y-76660082D01*
X111569776Y-77010318D01*
X111638104Y-77353823D01*
X111772133Y-77677399D01*
X111966713Y-77968609D01*
X112214367Y-78216263D01*
X112505577Y-78410843D01*
X112829153Y-78544872D01*
X113172658Y-78613200D01*
X113339851Y-78613200D01*
X113300988Y-78671362D01*
X113188978Y-78941779D01*
X113131876Y-79228852D01*
X113131876Y-79521548D01*
X113188978Y-79808621D01*
X113300988Y-80079038D01*
X113463602Y-80322406D01*
X113670570Y-80529374D01*
X113913938Y-80691988D01*
X114184355Y-80803998D01*
X114471428Y-80861100D01*
X114764124Y-80861100D01*
X115051197Y-80803998D01*
X115321614Y-80691988D01*
X115564982Y-80529374D01*
X115771950Y-80322406D01*
X115934564Y-80079038D01*
X116046574Y-79808621D01*
X116097876Y-79550706D01*
X116409751Y-79862581D01*
X116374484Y-79978842D01*
X116362224Y-80103324D01*
X116362224Y-81403324D01*
X116374484Y-81527806D01*
X116410794Y-81647504D01*
X116469759Y-81757818D01*
X116537457Y-81840309D01*
X116439499Y-81938267D01*
X116293564Y-82156675D01*
X116280968Y-82187084D01*
X108582908Y-82187084D01*
X108545585Y-82183408D01*
X108508262Y-82187084D01*
X108508253Y-82187084D01*
X108396600Y-82198081D01*
X108267261Y-82237315D01*
X108253339Y-82241538D01*
X108121309Y-82312110D01*
X108094299Y-82334277D01*
X108005585Y-82407083D01*
X107981787Y-82436081D01*
X105254668Y-85163201D01*
X104183981Y-85163201D01*
X104262424Y-84973823D01*
X104330752Y-84630318D01*
X104330752Y-84280082D01*
X104262424Y-83936577D01*
X104149150Y-83663108D01*
X104341375Y-83624872D01*
X104664951Y-83490843D01*
X104956161Y-83296263D01*
X105203815Y-83048609D01*
X105398395Y-82757399D01*
X105532424Y-82433823D01*
X105600752Y-82090318D01*
X105600752Y-81740082D01*
X105532424Y-81396577D01*
X105398395Y-81073001D01*
X105254730Y-80857991D01*
X105526173Y-80803998D01*
X105796590Y-80691988D01*
X106039958Y-80529374D01*
X106246926Y-80322406D01*
X106409540Y-80079038D01*
X106521550Y-79808621D01*
X106578652Y-79521548D01*
X106578652Y-79228852D01*
X106556260Y-79116276D01*
X106908876Y-79116276D01*
X106908876Y-79634124D01*
X107009903Y-80142022D01*
X107208075Y-80620451D01*
X107495776Y-81051026D01*
X107861950Y-81417200D01*
X108292525Y-81704901D01*
X108770954Y-81903073D01*
X109278852Y-82004100D01*
X109796700Y-82004100D01*
X110304598Y-81903073D01*
X110783027Y-81704901D01*
X111213602Y-81417200D01*
X111579776Y-81051026D01*
X111867477Y-80620451D01*
X112065649Y-80142022D01*
X112166676Y-79634124D01*
X112166676Y-79116276D01*
X112065649Y-78608378D01*
X111867477Y-78129949D01*
X111579776Y-77699374D01*
X111213602Y-77333200D01*
X110783027Y-77045499D01*
X110304598Y-76847327D01*
X109796700Y-76746300D01*
X109278852Y-76746300D01*
X108770954Y-76847327D01*
X108292525Y-77045499D01*
X107861950Y-77333200D01*
X107495776Y-77699374D01*
X107208075Y-78129949D01*
X107009903Y-78608378D01*
X106908876Y-79116276D01*
X106556260Y-79116276D01*
X106521550Y-78941779D01*
X106409540Y-78671362D01*
X106307978Y-78519365D01*
X106569975Y-78410843D01*
X106861185Y-78216263D01*
X107108839Y-77968609D01*
X107303419Y-77677399D01*
X107437448Y-77353823D01*
X107505776Y-77010318D01*
X107505776Y-76660082D01*
X107437448Y-76316577D01*
X107403400Y-76234378D01*
X107508780Y-76128998D01*
X107537777Y-76105201D01*
X107632750Y-75989476D01*
X107655266Y-75947352D01*
X107839975Y-75870843D01*
X108131185Y-75676263D01*
X108378839Y-75428609D01*
X108573419Y-75137399D01*
X108707448Y-74813823D01*
X108775776Y-74470318D01*
X108775776Y-74120082D01*
X108707448Y-73776577D01*
X108673400Y-73694377D01*
X112806479Y-69561299D01*
X114567697Y-69561299D01*
X114358123Y-69874949D01*
X114159951Y-70353378D01*
X114058924Y-70861276D01*
X114058924Y-71379124D01*
X114159951Y-71887022D01*
X114358123Y-72365451D01*
X114645824Y-72796026D01*
X115011998Y-73162200D01*
X115442573Y-73449901D01*
X115921002Y-73648073D01*
X116428900Y-73749100D01*
X116946748Y-73749100D01*
X117454646Y-73648073D01*
X117933075Y-73449901D01*
X118363650Y-73162200D01*
X118729824Y-72796026D01*
X119017525Y-72365451D01*
X119062800Y-72256148D01*
X119108075Y-72365451D01*
X119395776Y-72796026D01*
X119761950Y-73162200D01*
X120192525Y-73449901D01*
X120670954Y-73648073D01*
X121178852Y-73749100D01*
X121696700Y-73749100D01*
X122204598Y-73648073D01*
X122683027Y-73449901D01*
X123113602Y-73162200D01*
X123479776Y-72796026D01*
X123767477Y-72365451D01*
X123965649Y-71887022D01*
X124066676Y-71379124D01*
X124066676Y-70861276D01*
X123965649Y-70353378D01*
X123767477Y-69874949D01*
X123479776Y-69444374D01*
X123113602Y-69078200D01*
X122683027Y-68790499D01*
X122204598Y-68592327D01*
X121696700Y-68491300D01*
X121178852Y-68491300D01*
X120670954Y-68592327D01*
X120192525Y-68790499D01*
X119761950Y-69078200D01*
X119395776Y-69444374D01*
X119108075Y-69874949D01*
X119062800Y-69984252D01*
X119017525Y-69874949D01*
X118729824Y-69444374D01*
X118675500Y-69390050D01*
X118734902Y-69341300D01*
X118758705Y-69312297D01*
X120994179Y-67076824D01*
X121076377Y-67110872D01*
X121419882Y-67179200D01*
X121770118Y-67179200D01*
X122113623Y-67110872D01*
X122437199Y-66976843D01*
X122728409Y-66782263D01*
X122976063Y-66534609D01*
X123170643Y-66243399D01*
X123304672Y-65919823D01*
X123373000Y-65576318D01*
X123373000Y-65226082D01*
X123304672Y-64882577D01*
X123191398Y-64609108D01*
X123383623Y-64570872D01*
X123707199Y-64436843D01*
X123998409Y-64242263D01*
X124246063Y-63994609D01*
X124440643Y-63703399D01*
X124574672Y-63379823D01*
X124643000Y-63036318D01*
X124643000Y-62686082D01*
X124574672Y-62342577D01*
X124440643Y-62019001D01*
X124296978Y-61803991D01*
X124568421Y-61749998D01*
X124838838Y-61637988D01*
X125082206Y-61475374D01*
X125289174Y-61268406D01*
X125451788Y-61025038D01*
X125558093Y-60768394D01*
X125878928Y-61089230D01*
X125878928Y-61952500D01*
X125891188Y-62076982D01*
X125927498Y-62196680D01*
X125986463Y-62306994D01*
X126054161Y-62389485D01*
X125956203Y-62487443D01*
X125810268Y-62705851D01*
X125709746Y-62948532D01*
X125658500Y-63206162D01*
X125658500Y-63468838D01*
X125709746Y-63726468D01*
X125810268Y-63969149D01*
X125956203Y-64187557D01*
X126141943Y-64373297D01*
X126360351Y-64519232D01*
X126603032Y-64619754D01*
X126860662Y-64671000D01*
X127123338Y-64671000D01*
X127380968Y-64619754D01*
X127623649Y-64519232D01*
X127842057Y-64373297D01*
X128027797Y-64187557D01*
X128173732Y-63969149D01*
X128274254Y-63726468D01*
X128325500Y-63468838D01*
X128325500Y-63206162D01*
X128274254Y-62948532D01*
X128173732Y-62705851D01*
X128027797Y-62487443D01*
X127929839Y-62389485D01*
X127997537Y-62306994D01*
X128056502Y-62196680D01*
X128092812Y-62076982D01*
X128105072Y-61952500D01*
X128105072Y-60652500D01*
X128092812Y-60528018D01*
X128056502Y-60408320D01*
X127997537Y-60298006D01*
X127918185Y-60201315D01*
X127821494Y-60121963D01*
X127711180Y-60062998D01*
X127591482Y-60026688D01*
X127467000Y-60014428D01*
X126953730Y-60014428D01*
X125573603Y-58634302D01*
X125549800Y-58605298D01*
X125434075Y-58510325D01*
X125302046Y-58439753D01*
X125158785Y-58396296D01*
X125047132Y-58385299D01*
X125047121Y-58385299D01*
X125009799Y-58381623D01*
X124972477Y-58385299D01*
X123607889Y-58385299D01*
X123570566Y-58381623D01*
X123533243Y-58385299D01*
X123533234Y-58385299D01*
X123421581Y-58396296D01*
X123287537Y-58436957D01*
X123278320Y-58439753D01*
X123146290Y-58510325D01*
X123125994Y-58526982D01*
X123030566Y-58605298D01*
X123006768Y-58634296D01*
X121666461Y-59974603D01*
X121582873Y-59554378D01*
X121384701Y-59075949D01*
X121097000Y-58645374D01*
X120730826Y-58279200D01*
X120300251Y-57991499D01*
X119821822Y-57793327D01*
X119313924Y-57692300D01*
X118796076Y-57692300D01*
X118288178Y-57793327D01*
X117809749Y-57991499D01*
X117379174Y-58279200D01*
X117013000Y-58645374D01*
X116725299Y-59075949D01*
X116527127Y-59554378D01*
X116426100Y-60062276D01*
X116426100Y-60580124D01*
X116527127Y-61088022D01*
X116725299Y-61566451D01*
X117013000Y-61997026D01*
X117379174Y-62363200D01*
X117809749Y-62650901D01*
X118288178Y-62849073D01*
X118708404Y-62932661D01*
X117631935Y-64009130D01*
X117357199Y-63825557D01*
X117172490Y-63749048D01*
X117149974Y-63706924D01*
X117055001Y-63591199D01*
X117026004Y-63567402D01*
X116920624Y-63462022D01*
X116954672Y-63379823D01*
X117023000Y-63036318D01*
X117023000Y-62686082D01*
X116954672Y-62342577D01*
X116820643Y-62019001D01*
X116626063Y-61727791D01*
X116378409Y-61480137D01*
X116087199Y-61285557D01*
X115763623Y-61151528D01*
X115420118Y-61083200D01*
X115252925Y-61083200D01*
X115291788Y-61025038D01*
X115403798Y-60754621D01*
X115460900Y-60467548D01*
X115460900Y-60174852D01*
X115403798Y-59887779D01*
X115291788Y-59617362D01*
X115129174Y-59373994D01*
X114922206Y-59167026D01*
X114678838Y-59004412D01*
X114408421Y-58892402D01*
X114121348Y-58835300D01*
X113828652Y-58835300D01*
X113541579Y-58892402D01*
X113271162Y-59004412D01*
X113027794Y-59167026D01*
X112820826Y-59373994D01*
X112658212Y-59617362D01*
X112546202Y-59887779D01*
X112489100Y-60174852D01*
X112489100Y-60467548D01*
X112546202Y-60754621D01*
X112658212Y-61025038D01*
X112820826Y-61268406D01*
X113027794Y-61475374D01*
X113271162Y-61637988D01*
X113541579Y-61749998D01*
X113813022Y-61803991D01*
X113669357Y-62019001D01*
X113535328Y-62342577D01*
X113467000Y-62686082D01*
X113467000Y-63036318D01*
X113535328Y-63379823D01*
X113669357Y-63703399D01*
X113863937Y-63994609D01*
X114111591Y-64242263D01*
X114402801Y-64436843D01*
X114726377Y-64570872D01*
X114918602Y-64609108D01*
X114805328Y-64882577D01*
X114737000Y-65226082D01*
X114737000Y-65576318D01*
X114805328Y-65919823D01*
X114939357Y-66243399D01*
X115133937Y-66534609D01*
X115381591Y-66782263D01*
X115672801Y-66976843D01*
X115996377Y-67110872D01*
X116339882Y-67179200D01*
X116690118Y-67179200D01*
X117033623Y-67110872D01*
X117357199Y-66976843D01*
X117648409Y-66782263D01*
X117896063Y-66534609D01*
X118090643Y-66243399D01*
X118224672Y-65919823D01*
X118293000Y-65576318D01*
X118293000Y-65497667D01*
X121087000Y-62703668D01*
X121087000Y-63036318D01*
X121155328Y-63379823D01*
X121268602Y-63653292D01*
X121076377Y-63691528D01*
X120752801Y-63825557D01*
X120461591Y-64020137D01*
X120213937Y-64267791D01*
X120019357Y-64559001D01*
X119885328Y-64882577D01*
X119817000Y-65226082D01*
X119817000Y-65576318D01*
X119885328Y-65919823D01*
X119919376Y-66002021D01*
X117880100Y-68041299D01*
X112528999Y-68041299D01*
X112491676Y-68037623D01*
X112454353Y-68041299D01*
X112454344Y-68041299D01*
X112342691Y-68052296D01*
X112199430Y-68095753D01*
X112067401Y-68166325D01*
X111951676Y-68261298D01*
X111927878Y-68290296D01*
X107598599Y-72619576D01*
X107516399Y-72585528D01*
X107172894Y-72517200D01*
X106822658Y-72517200D01*
X106479153Y-72585528D01*
X106155577Y-72719557D01*
X105864367Y-72914137D01*
X105616713Y-73161791D01*
X105422133Y-73453001D01*
X105288104Y-73776577D01*
X105219776Y-74120082D01*
X105219776Y-74470318D01*
X105288104Y-74813823D01*
X105401378Y-75087292D01*
X105209153Y-75125528D01*
X104885577Y-75259557D01*
X104594367Y-75454137D01*
X104346713Y-75701791D01*
X104152133Y-75993001D01*
X104018104Y-76316577D01*
X103949776Y-76660082D01*
X103949776Y-77010318D01*
X103996061Y-77243006D01*
X103898326Y-77272653D01*
X103766296Y-77343225D01*
X103727334Y-77375201D01*
X103650572Y-77438198D01*
X103626774Y-77467196D01*
X102770873Y-78323098D01*
X102741875Y-78346896D01*
X102718077Y-78375894D01*
X102718076Y-78375895D01*
X102646901Y-78462621D01*
X102576329Y-78594651D01*
X102554637Y-78666162D01*
X102553116Y-78671176D01*
X102540625Y-78608378D01*
X102342453Y-78129949D01*
X102054752Y-77699374D01*
X101688578Y-77333200D01*
X101258003Y-77045499D01*
X100779574Y-76847327D01*
X100271676Y-76746300D01*
X99753828Y-76746300D01*
X99245930Y-76847327D01*
X98767501Y-77045499D01*
X98336926Y-77333200D01*
X97970752Y-77699374D01*
X97683051Y-78129949D01*
X97484879Y-78608378D01*
X97383852Y-79116276D01*
X97383852Y-79634124D01*
X97484879Y-80142022D01*
X97683051Y-80620451D01*
X97970752Y-81051026D01*
X98336926Y-81417200D01*
X98767501Y-81704901D01*
X99245930Y-81903073D01*
X99753828Y-82004100D01*
X100271676Y-82004100D01*
X100779574Y-81903073D01*
X101258003Y-81704901D01*
X101688578Y-81417200D01*
X102054752Y-81051026D01*
X102342453Y-80620451D01*
X102521875Y-80187287D01*
X102521875Y-80701605D01*
X102441689Y-80781791D01*
X102247109Y-81073001D01*
X102113080Y-81396577D01*
X102044752Y-81740082D01*
X102044752Y-82090318D01*
X102113080Y-82433823D01*
X102226354Y-82707292D01*
X102034129Y-82745528D01*
X101710553Y-82879557D01*
X101419343Y-83074137D01*
X101171689Y-83321791D01*
X100977109Y-83613001D01*
X100869231Y-83873443D01*
X100804386Y-83820226D01*
X100672357Y-83749654D01*
X100529096Y-83706197D01*
X100417443Y-83695200D01*
X100417432Y-83695200D01*
X100380110Y-83691524D01*
X100342788Y-83695200D01*
X99082443Y-83695200D01*
X99048395Y-83613001D01*
X98853815Y-83321791D01*
X98606161Y-83074137D01*
X98314951Y-82879557D01*
X98125397Y-82801042D01*
X98101174Y-82755724D01*
X98006201Y-82639999D01*
X97977204Y-82616202D01*
X97877980Y-82516978D01*
X97912424Y-82433823D01*
X97980752Y-82090318D01*
X97980752Y-81740082D01*
X97912424Y-81396577D01*
X97778395Y-81073001D01*
X97583815Y-80781791D01*
X97336161Y-80534137D01*
X97044951Y-80339557D01*
X96721375Y-80205528D01*
X96377870Y-80137200D01*
X96210677Y-80137200D01*
X96249540Y-80079038D01*
X96361550Y-79808621D01*
X96418652Y-79521548D01*
X96418652Y-79228852D01*
X96361550Y-78941779D01*
X96249540Y-78671362D01*
X96086926Y-78427994D01*
X95879958Y-78221026D01*
X95636590Y-78058412D01*
X95366173Y-77946402D01*
X95079100Y-77889300D01*
X94786404Y-77889300D01*
X94499331Y-77946402D01*
X94228914Y-78058412D01*
X93985546Y-78221026D01*
X93778578Y-78427994D01*
X93615964Y-78671362D01*
X93503954Y-78941779D01*
X93446852Y-79228852D01*
X93446852Y-79521548D01*
X93503954Y-79808621D01*
X93615964Y-80079038D01*
X93778578Y-80322406D01*
X93985546Y-80529374D01*
X94228914Y-80691988D01*
X94499331Y-80803998D01*
X94770774Y-80857991D01*
X94627109Y-81073001D01*
X94493080Y-81396577D01*
X94424752Y-81740082D01*
X94424752Y-82090318D01*
X94493080Y-82433823D01*
X94627109Y-82757399D01*
X94821689Y-83048609D01*
X95069343Y-83296263D01*
X95360553Y-83490843D01*
X95684129Y-83624872D01*
X95876354Y-83663108D01*
X95763080Y-83936577D01*
X95694752Y-84280082D01*
X95694752Y-84630318D01*
X95763080Y-84973823D01*
X95841314Y-85162698D01*
X95724495Y-85337530D01*
X95561746Y-85730443D01*
X95478776Y-86147557D01*
X95478776Y-86572843D01*
X95561746Y-86989957D01*
X95724495Y-87382870D01*
X95960772Y-87736482D01*
X96261494Y-88037204D01*
X96556617Y-88234400D01*
X92896379Y-88234400D01*
X92530417Y-88198517D01*
X92209447Y-88101611D01*
X91913411Y-87944206D01*
X91653587Y-87732300D01*
X91439867Y-87473955D01*
X91280398Y-87179024D01*
X91181254Y-86858742D01*
X91143000Y-86494778D01*
X91143000Y-71935049D01*
X91260215Y-72052264D01*
X91724546Y-72362520D01*
X92240483Y-72576228D01*
X92788199Y-72685176D01*
X93346645Y-72685176D01*
X93894361Y-72576228D01*
X94410298Y-72362520D01*
X94874629Y-72052264D01*
X95098284Y-71828609D01*
X95109903Y-71887022D01*
X95308075Y-72365451D01*
X95595776Y-72796026D01*
X95961950Y-73162200D01*
X96392525Y-73449901D01*
X96870954Y-73648073D01*
X97378852Y-73749100D01*
X97896700Y-73749100D01*
X98404598Y-73648073D01*
X98883027Y-73449901D01*
X99313602Y-73162200D01*
X99679776Y-72796026D01*
X99967477Y-72365451D01*
X100165649Y-71887022D01*
X100266676Y-71379124D01*
X100266676Y-70861276D01*
X100165649Y-70353378D01*
X99967477Y-69874949D01*
X99679776Y-69444374D01*
X99313602Y-69078200D01*
X98883027Y-68790499D01*
X98404598Y-68592327D01*
X97896700Y-68491300D01*
X97378852Y-68491300D01*
X96870954Y-68592327D01*
X96392525Y-68790499D01*
X95961950Y-69078200D01*
X95830545Y-69209605D01*
X95793474Y-69023237D01*
X95579766Y-68507300D01*
X95269510Y-68042969D01*
X94874629Y-67648088D01*
X94410298Y-67337832D01*
X93894361Y-67124124D01*
X93346645Y-67015176D01*
X92788199Y-67015176D01*
X92240483Y-67124124D01*
X91724546Y-67337832D01*
X91260215Y-67648088D01*
X91143000Y-67765303D01*
X91143000Y-62334885D01*
X91204298Y-62375843D01*
X91429054Y-62468940D01*
X91667653Y-62516400D01*
X91910927Y-62516400D01*
X91991225Y-62500428D01*
X91948584Y-62552386D01*
X91810691Y-62810366D01*
X91725777Y-63090289D01*
X91697105Y-63381400D01*
X91725777Y-63672511D01*
X91810691Y-63952434D01*
X91948584Y-64210414D01*
X92134156Y-64436534D01*
X92360276Y-64622106D01*
X92618256Y-64759999D01*
X92898179Y-64844913D01*
X93116340Y-64866400D01*
X94062240Y-64866400D01*
X94280401Y-64844913D01*
X94560324Y-64759999D01*
X94818304Y-64622106D01*
X95044424Y-64436534D01*
X95089914Y-64381105D01*
X95258671Y-64545576D01*
X95503672Y-64704761D01*
X95775021Y-64813090D01*
X96062290Y-64866400D01*
X96462290Y-64866400D01*
X96462290Y-63508400D01*
X96716290Y-63508400D01*
X96716290Y-64866400D01*
X97116290Y-64866400D01*
X97403559Y-64813090D01*
X97674908Y-64704761D01*
X97919909Y-64545576D01*
X98129147Y-64341652D01*
X98294581Y-64100826D01*
X98409853Y-63832353D01*
X98430766Y-63738290D01*
X98309445Y-63508400D01*
X96716290Y-63508400D01*
X96462290Y-63508400D01*
X96442290Y-63508400D01*
X96442290Y-63254400D01*
X96462290Y-63254400D01*
X96462290Y-61896400D01*
X96716290Y-61896400D01*
X96716290Y-63254400D01*
X98309445Y-63254400D01*
X98430766Y-63024510D01*
X98409853Y-62930447D01*
X98294581Y-62661974D01*
X98129147Y-62421148D01*
X97919909Y-62217224D01*
X97674908Y-62058039D01*
X97403559Y-61949710D01*
X97116290Y-61896400D01*
X96716290Y-61896400D01*
X96462290Y-61896400D01*
X96062290Y-61896400D01*
X95775021Y-61949710D01*
X95503672Y-62058039D01*
X95258671Y-62217224D01*
X95089914Y-62381695D01*
X95044424Y-62326266D01*
X94818304Y-62140694D01*
X94560324Y-62002801D01*
X94280401Y-61917887D01*
X94062240Y-61896400D01*
X93116340Y-61896400D01*
X92898179Y-61917887D01*
X92836906Y-61936474D01*
X92883733Y-61866392D01*
X92976830Y-61641636D01*
X93024290Y-61403037D01*
X93024290Y-61159763D01*
X92976830Y-60921164D01*
X92883733Y-60696408D01*
X92748577Y-60494133D01*
X92660844Y-60406400D01*
X92748577Y-60318667D01*
X92883733Y-60116392D01*
X92976830Y-59891636D01*
X93024290Y-59653037D01*
X93024290Y-59409763D01*
X92976830Y-59171164D01*
X92883733Y-58946408D01*
X92836906Y-58876326D01*
X92898179Y-58894913D01*
X93116340Y-58916400D01*
X94062240Y-58916400D01*
X94280401Y-58894913D01*
X94560324Y-58809999D01*
X94818304Y-58672106D01*
X95044424Y-58486534D01*
X95089914Y-58431105D01*
X95258671Y-58595576D01*
X95503672Y-58754761D01*
X95775021Y-58863090D01*
X96062290Y-58916400D01*
X96462290Y-58916400D01*
X96462290Y-57558400D01*
X96716290Y-57558400D01*
X96716290Y-58916400D01*
X97116290Y-58916400D01*
X97403559Y-58863090D01*
X97674908Y-58754761D01*
X97919909Y-58595576D01*
X98129147Y-58391652D01*
X98294581Y-58150826D01*
X98409853Y-57882353D01*
X98430766Y-57788290D01*
X98309445Y-57558400D01*
X96716290Y-57558400D01*
X96462290Y-57558400D01*
X96442290Y-57558400D01*
X96442290Y-57304400D01*
X96462290Y-57304400D01*
X96462290Y-55946400D01*
X96716290Y-55946400D01*
X96716290Y-57304400D01*
X98309445Y-57304400D01*
X98430766Y-57074510D01*
X98409853Y-56980447D01*
X98294581Y-56711974D01*
X98129147Y-56471148D01*
X97919909Y-56267224D01*
X97674908Y-56108039D01*
X97403559Y-55999710D01*
X97116290Y-55946400D01*
X96716290Y-55946400D01*
X96462290Y-55946400D01*
X96062290Y-55946400D01*
X95775021Y-55999710D01*
X95503672Y-56108039D01*
X95258671Y-56267224D01*
X95089914Y-56431695D01*
X95044424Y-56376266D01*
X94818304Y-56190694D01*
X94560324Y-56052801D01*
X94280401Y-55967887D01*
X94062240Y-55946400D01*
X93116340Y-55946400D01*
X92898179Y-55967887D01*
X92618256Y-56052801D01*
X92360276Y-56190694D01*
X92134156Y-56376266D01*
X91948584Y-56602386D01*
X91810691Y-56860366D01*
X91725777Y-57140289D01*
X91697105Y-57431400D01*
X91725777Y-57722511D01*
X91810691Y-58002434D01*
X91948584Y-58260414D01*
X91991225Y-58312372D01*
X91910927Y-58296400D01*
X91667653Y-58296400D01*
X91429054Y-58343860D01*
X91204298Y-58436957D01*
X91143000Y-58477915D01*
X91143000Y-46690013D01*
X91224407Y-46771420D01*
X91453215Y-46924305D01*
X91707452Y-47029614D01*
X91977350Y-47083300D01*
X92252534Y-47083300D01*
X92522432Y-47029614D01*
X92776669Y-46924305D01*
X93005477Y-46771420D01*
X93200062Y-46576835D01*
X93317725Y-46400740D01*
X98499070Y-46400740D01*
X96932976Y-47966835D01*
X96813930Y-47955110D01*
X95670930Y-47955110D01*
X95546448Y-47967370D01*
X95426750Y-48003680D01*
X95316436Y-48062645D01*
X95219745Y-48141997D01*
X95140393Y-48238688D01*
X95081428Y-48349002D01*
X95045118Y-48468700D01*
X95032858Y-48593182D01*
X95032858Y-49228182D01*
X95045118Y-49352664D01*
X95062833Y-49411062D01*
X95045118Y-49469460D01*
X95032858Y-49593942D01*
X95032858Y-50228942D01*
X95045118Y-50353424D01*
X95081428Y-50473122D01*
X95140393Y-50583436D01*
X95219745Y-50680127D01*
X95316436Y-50759479D01*
X95426750Y-50818444D01*
X95482430Y-50835334D01*
X95482431Y-51291661D01*
X95392373Y-51351835D01*
X95206633Y-51537575D01*
X95060698Y-51755983D01*
X94960176Y-51998664D01*
X94908930Y-52256294D01*
X94908930Y-52518970D01*
X94960176Y-52776600D01*
X95060698Y-53019281D01*
X95206633Y-53237689D01*
X95392373Y-53423429D01*
X95610781Y-53569364D01*
X95853462Y-53669886D01*
X96111092Y-53721132D01*
X96373768Y-53721132D01*
X96631398Y-53669886D01*
X96874079Y-53569364D01*
X97092487Y-53423429D01*
X97278227Y-53237689D01*
X97424162Y-53019281D01*
X97512430Y-52806184D01*
X97600698Y-53019281D01*
X97746633Y-53237689D01*
X97932373Y-53423429D01*
X98150781Y-53569364D01*
X98393462Y-53669886D01*
X98651092Y-53721132D01*
X98913768Y-53721132D01*
X99171398Y-53669886D01*
X99414079Y-53569364D01*
X99538930Y-53485942D01*
X99538930Y-56003707D01*
X99535253Y-56041039D01*
X99538930Y-56078372D01*
X99540505Y-56094360D01*
X99360276Y-56190694D01*
X99134156Y-56376266D01*
X98948584Y-56602386D01*
X98810691Y-56860366D01*
X98725777Y-57140289D01*
X98697105Y-57431400D01*
X98725777Y-57722511D01*
X98810691Y-58002434D01*
X98948584Y-58260414D01*
X98991225Y-58312372D01*
X98910927Y-58296400D01*
X98667653Y-58296400D01*
X98429054Y-58343860D01*
X98204298Y-58436957D01*
X98002023Y-58572113D01*
X97830003Y-58744133D01*
X97694847Y-58946408D01*
X97601750Y-59171164D01*
X97554290Y-59409763D01*
X97554290Y-59653037D01*
X97601750Y-59891636D01*
X97694847Y-60116392D01*
X97830003Y-60318667D01*
X97917736Y-60406400D01*
X97830003Y-60494133D01*
X97694847Y-60696408D01*
X97601750Y-60921164D01*
X97554290Y-61159763D01*
X97554290Y-61403037D01*
X97601750Y-61641636D01*
X97694847Y-61866392D01*
X97830003Y-62068667D01*
X98002023Y-62240687D01*
X98204298Y-62375843D01*
X98429054Y-62468940D01*
X98667653Y-62516400D01*
X98910927Y-62516400D01*
X98991225Y-62500428D01*
X98948584Y-62552386D01*
X98810691Y-62810366D01*
X98725777Y-63090289D01*
X98697105Y-63381400D01*
X98725777Y-63672511D01*
X98810691Y-63952434D01*
X98948584Y-64210414D01*
X99134156Y-64436534D01*
X99360276Y-64622106D01*
X99618256Y-64759999D01*
X99898179Y-64844913D01*
X100116340Y-64866400D01*
X101062240Y-64866400D01*
X101280401Y-64844913D01*
X101560324Y-64759999D01*
X101818304Y-64622106D01*
X102044424Y-64436534D01*
X102229996Y-64210414D01*
X102367889Y-63952434D01*
X102452803Y-63672511D01*
X102481475Y-63381400D01*
X102455375Y-63116400D01*
X102562240Y-63116400D01*
X102780401Y-63094913D01*
X103060324Y-63009999D01*
X103318304Y-62872106D01*
X103544424Y-62686534D01*
X103729996Y-62460414D01*
X103867889Y-62202434D01*
X103952803Y-61922511D01*
X103981475Y-61631400D01*
X103952803Y-61340289D01*
X103867889Y-61060366D01*
X103729996Y-60802386D01*
X103544424Y-60576266D01*
X103337442Y-60406400D01*
X103544424Y-60236534D01*
X103729996Y-60010414D01*
X103867889Y-59752434D01*
X103952803Y-59472511D01*
X103981475Y-59181400D01*
X103952803Y-58890289D01*
X103867889Y-58610366D01*
X103729996Y-58352386D01*
X103544424Y-58126266D01*
X103318304Y-57940694D01*
X103060324Y-57802801D01*
X102780401Y-57717887D01*
X102562240Y-57696400D01*
X102455375Y-57696400D01*
X102481475Y-57431400D01*
X102452803Y-57140289D01*
X102367889Y-56860366D01*
X102229996Y-56602386D01*
X102044424Y-56376266D01*
X101818304Y-56190694D01*
X101560324Y-56052801D01*
X101280401Y-55967887D01*
X101255428Y-55965427D01*
X101224264Y-55907124D01*
X101129291Y-55791399D01*
X101100293Y-55767601D01*
X101058929Y-55726237D01*
X101058929Y-55019000D01*
X125655428Y-55019000D01*
X125655428Y-56416000D01*
X125667688Y-56540482D01*
X125703998Y-56660180D01*
X125762963Y-56770494D01*
X125842315Y-56867185D01*
X125908366Y-56921391D01*
X125891188Y-56978018D01*
X125878928Y-57102500D01*
X125878928Y-58402500D01*
X125891188Y-58526982D01*
X125927498Y-58646680D01*
X125986463Y-58756994D01*
X126065815Y-58853685D01*
X126162506Y-58933037D01*
X126272820Y-58992002D01*
X126392518Y-59028312D01*
X126517000Y-59040572D01*
X127467000Y-59040572D01*
X127591482Y-59028312D01*
X127711180Y-58992002D01*
X127821494Y-58933037D01*
X127918185Y-58853685D01*
X127997537Y-58756994D01*
X128056502Y-58646680D01*
X128092812Y-58526982D01*
X128105072Y-58402500D01*
X128105072Y-57102500D01*
X128092812Y-56978018D01*
X128075634Y-56921391D01*
X128141685Y-56867185D01*
X128221037Y-56770494D01*
X128280002Y-56660180D01*
X128316312Y-56540482D01*
X128322515Y-56477500D01*
X128836285Y-56477500D01*
X128842488Y-56540482D01*
X128878798Y-56660180D01*
X128937763Y-56770494D01*
X129017115Y-56867185D01*
X129083166Y-56921391D01*
X129065988Y-56978018D01*
X129053728Y-57102500D01*
X129053728Y-58402500D01*
X129065988Y-58526982D01*
X129102298Y-58646680D01*
X129161263Y-58756994D01*
X129240615Y-58853685D01*
X129337306Y-58933037D01*
X129447620Y-58992002D01*
X129567318Y-59028312D01*
X129691800Y-59040572D01*
X130641800Y-59040572D01*
X130766282Y-59028312D01*
X130885980Y-58992002D01*
X130996294Y-58933037D01*
X131092985Y-58853685D01*
X131172337Y-58756994D01*
X131231302Y-58646680D01*
X131267612Y-58526982D01*
X131279872Y-58402500D01*
X131279872Y-57102500D01*
X131267612Y-56978018D01*
X131250434Y-56921391D01*
X131316485Y-56867185D01*
X131395837Y-56770494D01*
X131454802Y-56660180D01*
X131491112Y-56540482D01*
X131503372Y-56416000D01*
X131503372Y-55019000D01*
X131491112Y-54894518D01*
X131454802Y-54774820D01*
X131395837Y-54664506D01*
X131316485Y-54567815D01*
X131219794Y-54488463D01*
X131109480Y-54429498D01*
X130989782Y-54393188D01*
X130865300Y-54380928D01*
X129468300Y-54380928D01*
X129343818Y-54393188D01*
X129224120Y-54429498D01*
X129113806Y-54488463D01*
X129017115Y-54567815D01*
X128937763Y-54664506D01*
X128878798Y-54774820D01*
X128842488Y-54894518D01*
X128836285Y-54957500D01*
X128322515Y-54957500D01*
X128316312Y-54894518D01*
X128280002Y-54774820D01*
X128221037Y-54664506D01*
X128141685Y-54567815D01*
X128044994Y-54488463D01*
X127934680Y-54429498D01*
X127814982Y-54393188D01*
X127690500Y-54380928D01*
X126293500Y-54380928D01*
X126169018Y-54393188D01*
X126049320Y-54429498D01*
X125939006Y-54488463D01*
X125842315Y-54567815D01*
X125762963Y-54664506D01*
X125703998Y-54774820D01*
X125667688Y-54894518D01*
X125655428Y-55019000D01*
X101058929Y-55019000D01*
X101058929Y-53694843D01*
X101191092Y-53721132D01*
X101453768Y-53721132D01*
X101711398Y-53669886D01*
X101954079Y-53569364D01*
X102172487Y-53423429D01*
X102358227Y-53237689D01*
X102504162Y-53019281D01*
X102592430Y-52806184D01*
X102680698Y-53019281D01*
X102826633Y-53237689D01*
X103012373Y-53423429D01*
X103230781Y-53569364D01*
X103473462Y-53669886D01*
X103731092Y-53721132D01*
X103993768Y-53721132D01*
X104251398Y-53669886D01*
X104494079Y-53569364D01*
X104712487Y-53423429D01*
X104898227Y-53237689D01*
X105044162Y-53019281D01*
X105144684Y-52776600D01*
X105195930Y-52518970D01*
X105195930Y-52256294D01*
X105144684Y-51998664D01*
X105044162Y-51755983D01*
X104898227Y-51537575D01*
X104741512Y-51380860D01*
X104741512Y-50835334D01*
X104797192Y-50818444D01*
X104907506Y-50759479D01*
X105004197Y-50680127D01*
X105083549Y-50583436D01*
X105142514Y-50473122D01*
X105178824Y-50353424D01*
X105191084Y-50228942D01*
X105191084Y-49593942D01*
X105178824Y-49469460D01*
X105161109Y-49411062D01*
X105178824Y-49352664D01*
X105191084Y-49228182D01*
X105188012Y-49196432D01*
X105029262Y-49037682D01*
X104859382Y-49037682D01*
X104797192Y-49004440D01*
X104677494Y-48968130D01*
X104553012Y-48955870D01*
X103410012Y-48955870D01*
X103285530Y-48968130D01*
X103165832Y-49004440D01*
X103103642Y-49037682D01*
X102933762Y-49037682D01*
X102775012Y-49196432D01*
X102771940Y-49228182D01*
X102784200Y-49352664D01*
X102801915Y-49411062D01*
X102784200Y-49469460D01*
X102771940Y-49593942D01*
X102771940Y-50228942D01*
X102784200Y-50353424D01*
X102820510Y-50473122D01*
X102879475Y-50583436D01*
X102958827Y-50680127D01*
X103055518Y-50759479D01*
X103165832Y-50818444D01*
X103221512Y-50835334D01*
X103221513Y-51212093D01*
X103012373Y-51351835D01*
X102826633Y-51537575D01*
X102680698Y-51755983D01*
X102592430Y-51969080D01*
X102504162Y-51755983D01*
X102358227Y-51537575D01*
X102172487Y-51351835D01*
X102161818Y-51344706D01*
X102161818Y-50835334D01*
X102217498Y-50818444D01*
X102327812Y-50759479D01*
X102424503Y-50680127D01*
X102503855Y-50583436D01*
X102562820Y-50473122D01*
X102599130Y-50353424D01*
X102611390Y-50228942D01*
X102611390Y-49593942D01*
X102599130Y-49469460D01*
X102581415Y-49411062D01*
X102599130Y-49352664D01*
X102611390Y-49228182D01*
X102611390Y-48593182D01*
X102771940Y-48593182D01*
X102775012Y-48624932D01*
X102933762Y-48783682D01*
X103854512Y-48783682D01*
X103854512Y-48116932D01*
X104108512Y-48116932D01*
X104108512Y-48783682D01*
X105029262Y-48783682D01*
X105188012Y-48624932D01*
X105191084Y-48593182D01*
X105178824Y-48468700D01*
X105142514Y-48349002D01*
X105083549Y-48238688D01*
X105004197Y-48141997D01*
X104907506Y-48062645D01*
X104797192Y-48003680D01*
X104677494Y-47967370D01*
X104553012Y-47955110D01*
X104267262Y-47958182D01*
X104108512Y-48116932D01*
X103854512Y-48116932D01*
X103695762Y-47958182D01*
X103410012Y-47955110D01*
X103285530Y-47967370D01*
X103165832Y-48003680D01*
X103055518Y-48062645D01*
X102958827Y-48141997D01*
X102879475Y-48238688D01*
X102820510Y-48349002D01*
X102784200Y-48468700D01*
X102771940Y-48593182D01*
X102611390Y-48593182D01*
X102599130Y-48468700D01*
X102562820Y-48349002D01*
X102503855Y-48238688D01*
X102424503Y-48141997D01*
X102337554Y-48070640D01*
X102397044Y-47927018D01*
X102436818Y-47727059D01*
X102436818Y-47591368D01*
X103277801Y-47591368D01*
X103321738Y-47635305D01*
X103491256Y-47748573D01*
X103679614Y-47826594D01*
X103879573Y-47866368D01*
X104083451Y-47866368D01*
X104283410Y-47826594D01*
X104471768Y-47748573D01*
X104641286Y-47635305D01*
X104785449Y-47491142D01*
X104898717Y-47321624D01*
X104976738Y-47133266D01*
X105016512Y-46933307D01*
X105016512Y-46729429D01*
X104976738Y-46529470D01*
X104923416Y-46400740D01*
X105730132Y-46400740D01*
X105767454Y-46404416D01*
X105804776Y-46400740D01*
X105804787Y-46400740D01*
X105916440Y-46389743D01*
X106059701Y-46346286D01*
X106105971Y-46321554D01*
X106116937Y-46348027D01*
X106116937Y-46348027D01*
G37*
X106116937Y-46348027D02*
X106269822Y-46576835D01*
X106464407Y-46771420D01*
X106693215Y-46924305D01*
X106947452Y-47029614D01*
X107217350Y-47083300D01*
X107492534Y-47083300D01*
X107519012Y-47078033D01*
X111156794Y-50715816D01*
X111180593Y-50744815D01*
X111296318Y-50839788D01*
X111428347Y-50910360D01*
X111571608Y-50953817D01*
X111683261Y-50964814D01*
X111683270Y-50964814D01*
X111720593Y-50968490D01*
X111757916Y-50964814D01*
X136805857Y-50964814D01*
X141123171Y-55282129D01*
X141123170Y-60723581D01*
X141119494Y-60760904D01*
X141123170Y-60798226D01*
X141123170Y-60798236D01*
X141134167Y-60909889D01*
X141175926Y-61047552D01*
X141177624Y-61053150D01*
X141248196Y-61185180D01*
X141264873Y-61205501D01*
X141071601Y-61285557D01*
X140780391Y-61480137D01*
X140532737Y-61727791D01*
X140338157Y-62019001D01*
X140204128Y-62342577D01*
X140135800Y-62686082D01*
X140135800Y-63036318D01*
X140204128Y-63379823D01*
X140317402Y-63653292D01*
X140125177Y-63691528D01*
X139801601Y-63825557D01*
X139510391Y-64020137D01*
X139262737Y-64267791D01*
X139068157Y-64559001D01*
X139035307Y-64638307D01*
X139027354Y-64637524D01*
X138990031Y-64641200D01*
X138990021Y-64641200D01*
X138878368Y-64652197D01*
X138735107Y-64695654D01*
X138603078Y-64766226D01*
X138487353Y-64861199D01*
X138463555Y-64890197D01*
X137160012Y-66193740D01*
X137273472Y-65919823D01*
X137341800Y-65576318D01*
X137341800Y-65226082D01*
X137273472Y-64882577D01*
X137139443Y-64559001D01*
X136944863Y-64267791D01*
X136697209Y-64020137D01*
X136405999Y-63825557D01*
X136082423Y-63691528D01*
X135890198Y-63653292D01*
X136003472Y-63379823D01*
X136071800Y-63036318D01*
X136071800Y-62686082D01*
X136003472Y-62342577D01*
X135869443Y-62019001D01*
X135674863Y-61727791D01*
X135427209Y-61480137D01*
X135135999Y-61285557D01*
X134812423Y-61151528D01*
X134468918Y-61083200D01*
X134301725Y-61083200D01*
X134340588Y-61025038D01*
X134452598Y-60754621D01*
X134509700Y-60467548D01*
X134509700Y-60174852D01*
X134487308Y-60062276D01*
X135474900Y-60062276D01*
X135474900Y-60580124D01*
X135575927Y-61088022D01*
X135774099Y-61566451D01*
X136061800Y-61997026D01*
X136427974Y-62363200D01*
X136858549Y-62650901D01*
X137336978Y-62849073D01*
X137844876Y-62950100D01*
X138362724Y-62950100D01*
X138870622Y-62849073D01*
X139349051Y-62650901D01*
X139779626Y-62363200D01*
X140145800Y-61997026D01*
X140433501Y-61566451D01*
X140631673Y-61088022D01*
X140732700Y-60580124D01*
X140732700Y-60062276D01*
X140631673Y-59554378D01*
X140433501Y-59075949D01*
X140145800Y-58645374D01*
X139779626Y-58279200D01*
X139349051Y-57991499D01*
X138870622Y-57793327D01*
X138362724Y-57692300D01*
X137844876Y-57692300D01*
X137336978Y-57793327D01*
X136858549Y-57991499D01*
X136427974Y-58279200D01*
X136061800Y-58645374D01*
X135774099Y-59075949D01*
X135575927Y-59554378D01*
X135474900Y-60062276D01*
X134487308Y-60062276D01*
X134452598Y-59887779D01*
X134340588Y-59617362D01*
X134177974Y-59373994D01*
X133971006Y-59167026D01*
X133727638Y-59004412D01*
X133457221Y-58892402D01*
X133170148Y-58835300D01*
X132877452Y-58835300D01*
X132590379Y-58892402D01*
X132319962Y-59004412D01*
X132076594Y-59167026D01*
X131869626Y-59373994D01*
X131707012Y-59617362D01*
X131595002Y-59887779D01*
X131537900Y-60174852D01*
X131537900Y-60467548D01*
X131595002Y-60754621D01*
X131707012Y-61025038D01*
X131869626Y-61268406D01*
X132076594Y-61475374D01*
X132319962Y-61637988D01*
X132590379Y-61749998D01*
X132861822Y-61803991D01*
X132718157Y-62019001D01*
X132584128Y-62342577D01*
X132537398Y-62577500D01*
X131262771Y-62577500D01*
X131202597Y-62487443D01*
X131104639Y-62389485D01*
X131172337Y-62306994D01*
X131231302Y-62196680D01*
X131267612Y-62076982D01*
X131279872Y-61952500D01*
X131279872Y-60652500D01*
X131267612Y-60528018D01*
X131231302Y-60408320D01*
X131172337Y-60298006D01*
X131092985Y-60201315D01*
X130996294Y-60121963D01*
X130885980Y-60062998D01*
X130766282Y-60026688D01*
X130641800Y-60014428D01*
X129691800Y-60014428D01*
X129567318Y-60026688D01*
X129447620Y-60062998D01*
X129337306Y-60121963D01*
X129240615Y-60201315D01*
X129161263Y-60298006D01*
X129102298Y-60408320D01*
X129065988Y-60528018D01*
X129053728Y-60652500D01*
X129053728Y-61952500D01*
X129065988Y-62076982D01*
X129102298Y-62196680D01*
X129161263Y-62306994D01*
X129228961Y-62389485D01*
X129131003Y-62487443D01*
X128985068Y-62705851D01*
X128884546Y-62948532D01*
X128833300Y-63206162D01*
X128833300Y-63468838D01*
X128884546Y-63726468D01*
X128985068Y-63969149D01*
X129131003Y-64187557D01*
X129316743Y-64373297D01*
X129535151Y-64519232D01*
X129777832Y-64619754D01*
X130035462Y-64671000D01*
X130298138Y-64671000D01*
X130555768Y-64619754D01*
X130798449Y-64519232D01*
X131016857Y-64373297D01*
X131202597Y-64187557D01*
X131262771Y-64097500D01*
X133015628Y-64097500D01*
X133160391Y-64242263D01*
X133451601Y-64436843D01*
X133713730Y-64545420D01*
X133715255Y-64550447D01*
X133785827Y-64682477D01*
X133825672Y-64731027D01*
X133880800Y-64798202D01*
X133886977Y-64803272D01*
X133854128Y-64882577D01*
X133785800Y-65226082D01*
X133785800Y-65576318D01*
X133854128Y-65919823D01*
X133988157Y-66243399D01*
X134182737Y-66534609D01*
X134430391Y-66782263D01*
X134721601Y-66976843D01*
X135045177Y-67110872D01*
X135388682Y-67179200D01*
X135738918Y-67179200D01*
X136082423Y-67110872D01*
X136356340Y-66997412D01*
X131287007Y-72066746D01*
X130348229Y-72066746D01*
X130310896Y-72063069D01*
X130273563Y-72066746D01*
X130161910Y-72077743D01*
X130018649Y-72121200D01*
X129886620Y-72191772D01*
X129770895Y-72286745D01*
X129747097Y-72315743D01*
X128527641Y-73535200D01*
X127657515Y-73535200D01*
X127623467Y-73453001D01*
X127428887Y-73161791D01*
X127181233Y-72914137D01*
X126890023Y-72719557D01*
X126566447Y-72585528D01*
X126222942Y-72517200D01*
X125872706Y-72517200D01*
X125529201Y-72585528D01*
X125205625Y-72719557D01*
X124914415Y-72914137D01*
X124666761Y-73161791D01*
X124472181Y-73453001D01*
X124338152Y-73776577D01*
X124269824Y-74120082D01*
X124269824Y-74470318D01*
X124338152Y-74813823D01*
X124451426Y-75087292D01*
X124259201Y-75125528D01*
X123935625Y-75259557D01*
X123644415Y-75454137D01*
X123396761Y-75701791D01*
X123202181Y-75993001D01*
X123068152Y-76316577D01*
X122999824Y-76660082D01*
X122999824Y-77010318D01*
X123068152Y-77353823D01*
X123202181Y-77677399D01*
X123345846Y-77892409D01*
X123074403Y-77946402D01*
X122803986Y-78058412D01*
X122560618Y-78221026D01*
X122353650Y-78427994D01*
X122191036Y-78671362D01*
X122079026Y-78941779D01*
X122021924Y-79228852D01*
X122021924Y-79521548D01*
X122079026Y-79808621D01*
X122191036Y-80079038D01*
X122353650Y-80322406D01*
X122560618Y-80529374D01*
X122803986Y-80691988D01*
X123074403Y-80803998D01*
X123361476Y-80861100D01*
X123654172Y-80861100D01*
X123941245Y-80803998D01*
X124211662Y-80691988D01*
X124455030Y-80529374D01*
X124661998Y-80322406D01*
X124824612Y-80079038D01*
X124936622Y-79808621D01*
X124993724Y-79521548D01*
X124993724Y-79228852D01*
X124936622Y-78941779D01*
X124824612Y-78671362D01*
X124785749Y-78613200D01*
X124952942Y-78613200D01*
X125296447Y-78544872D01*
X125620023Y-78410843D01*
X125911233Y-78216263D01*
X126158887Y-77968609D01*
X126353467Y-77677399D01*
X126487496Y-77353823D01*
X126555824Y-77010318D01*
X126555824Y-76660082D01*
X126487496Y-76316577D01*
X126453448Y-76234378D01*
X126558828Y-76128998D01*
X126587825Y-76105201D01*
X126682798Y-75989476D01*
X126705314Y-75947352D01*
X126890023Y-75870843D01*
X127181233Y-75676263D01*
X127428887Y-75428609D01*
X127623467Y-75137399D01*
X127657515Y-75055200D01*
X128805120Y-75055200D01*
X128842442Y-75058876D01*
X128879764Y-75055200D01*
X128879775Y-75055200D01*
X128991428Y-75044203D01*
X129134689Y-75000746D01*
X129266718Y-74930174D01*
X129382443Y-74835201D01*
X129406246Y-74806197D01*
X129414911Y-74797532D01*
X129418152Y-74813823D01*
X129552181Y-75137399D01*
X129746761Y-75428609D01*
X129994415Y-75676263D01*
X130285625Y-75870843D01*
X130547754Y-75979420D01*
X130549279Y-75984447D01*
X130619851Y-76116477D01*
X130659696Y-76165027D01*
X130714824Y-76232202D01*
X130721001Y-76237272D01*
X130688152Y-76316577D01*
X130619824Y-76660082D01*
X130619824Y-77010318D01*
X130688152Y-77353823D01*
X130822181Y-77677399D01*
X131016761Y-77968609D01*
X131264415Y-78216263D01*
X131555625Y-78410843D01*
X131807814Y-78515302D01*
X131707012Y-78666162D01*
X131595002Y-78936579D01*
X131537900Y-79223652D01*
X131537900Y-79516348D01*
X131595002Y-79803421D01*
X131707012Y-80073838D01*
X131869626Y-80317206D01*
X132076594Y-80524174D01*
X132319962Y-80686788D01*
X132590379Y-80798798D01*
X132861822Y-80852791D01*
X132718157Y-81067801D01*
X132684109Y-81150000D01*
X130530850Y-81150000D01*
X130629824Y-81051026D01*
X130917525Y-80620451D01*
X131115697Y-80142022D01*
X131216724Y-79634124D01*
X131216724Y-79116276D01*
X131115697Y-78608378D01*
X130917525Y-78129949D01*
X130629824Y-77699374D01*
X130263650Y-77333200D01*
X129833075Y-77045499D01*
X129354646Y-76847327D01*
X128846748Y-76746300D01*
X128328900Y-76746300D01*
X127821002Y-76847327D01*
X127342573Y-77045499D01*
X126911998Y-77333200D01*
X126545824Y-77699374D01*
X126258123Y-78129949D01*
X126059951Y-78608378D01*
X125958924Y-79116276D01*
X125958924Y-79634124D01*
X126059951Y-80142022D01*
X126258123Y-80620451D01*
X126545824Y-81051026D01*
X126644798Y-81150000D01*
X122846782Y-81150000D01*
X121939108Y-80242327D01*
X121915305Y-80213323D01*
X121799580Y-80118350D01*
X121762926Y-80098758D01*
X121751116Y-79978842D01*
X121714806Y-79859144D01*
X121655841Y-79748830D01*
X121576489Y-79652139D01*
X121479798Y-79572787D01*
X121369484Y-79513822D01*
X121249786Y-79477512D01*
X121125304Y-79465252D01*
X120175304Y-79465252D01*
X120050822Y-79477512D01*
X119931124Y-79513822D01*
X119820810Y-79572787D01*
X119724119Y-79652139D01*
X119644767Y-79748830D01*
X119585802Y-79859144D01*
X119549492Y-79978842D01*
X119537232Y-80103324D01*
X119537232Y-81403324D01*
X119549492Y-81527806D01*
X119585802Y-81647504D01*
X119644767Y-81757818D01*
X119712465Y-81840309D01*
X119614507Y-81938267D01*
X119468572Y-82156675D01*
X119368050Y-82399356D01*
X119316804Y-82656986D01*
X119316804Y-82919662D01*
X119368050Y-83177292D01*
X119468572Y-83419973D01*
X119614507Y-83638381D01*
X119800247Y-83824121D01*
X120018655Y-83970056D01*
X120261336Y-84070578D01*
X120518966Y-84121824D01*
X120781642Y-84121824D01*
X121039272Y-84070578D01*
X121281953Y-83970056D01*
X121500361Y-83824121D01*
X121686101Y-83638381D01*
X121832036Y-83419973D01*
X121932558Y-83177292D01*
X121983804Y-82919662D01*
X121983804Y-82656986D01*
X121932558Y-82399356D01*
X121922675Y-82375497D01*
X121968180Y-82421002D01*
X121991979Y-82450001D01*
X122020977Y-82473799D01*
X122107703Y-82544974D01*
X122213371Y-82601455D01*
X122239733Y-82615546D01*
X122382994Y-82659003D01*
X122494647Y-82670000D01*
X122494657Y-82670000D01*
X122531980Y-82673676D01*
X122569303Y-82670000D01*
X132684109Y-82670000D01*
X132718157Y-82752199D01*
X132912737Y-83043409D01*
X133160391Y-83291063D01*
X133451601Y-83485643D01*
X133713730Y-83594220D01*
X133715255Y-83599247D01*
X133785827Y-83731277D01*
X133796104Y-83743799D01*
X133880800Y-83847002D01*
X133886977Y-83852072D01*
X133854128Y-83931377D01*
X133785800Y-84274882D01*
X133785800Y-84625118D01*
X133854128Y-84968623D01*
X133988157Y-85292199D01*
X134182737Y-85583409D01*
X134430391Y-85831063D01*
X134721601Y-86025643D01*
X135045177Y-86159672D01*
X135388682Y-86228000D01*
X135738918Y-86228000D01*
X136082423Y-86159672D01*
X136405999Y-86025643D01*
X136697209Y-85831063D01*
X136944863Y-85583409D01*
X137139443Y-85292199D01*
X137273472Y-84968623D01*
X137341800Y-84625118D01*
X137341800Y-84274882D01*
X137273472Y-83931377D01*
X137139443Y-83607801D01*
X136944863Y-83316591D01*
X136697209Y-83068937D01*
X136405999Y-82874357D01*
X136082423Y-82740328D01*
X135890198Y-82702092D01*
X136003472Y-82428623D01*
X136071800Y-82085118D01*
X136071800Y-81734882D01*
X136003472Y-81391377D01*
X135869443Y-81067801D01*
X135674863Y-80776591D01*
X135427209Y-80528937D01*
X135135999Y-80334357D01*
X134883810Y-80229898D01*
X134984612Y-80079038D01*
X135096622Y-79808621D01*
X135153724Y-79521548D01*
X135153724Y-79228852D01*
X135130298Y-79111076D01*
X135474900Y-79111076D01*
X135474900Y-79628924D01*
X135575927Y-80136822D01*
X135774099Y-80615251D01*
X136061800Y-81045826D01*
X136427974Y-81412000D01*
X136858549Y-81699701D01*
X137336978Y-81897873D01*
X137844876Y-81998900D01*
X138362724Y-81998900D01*
X138870622Y-81897873D01*
X139349051Y-81699701D01*
X139779626Y-81412000D01*
X140145800Y-81045826D01*
X140433501Y-80615251D01*
X140631673Y-80136822D01*
X140732700Y-79628924D01*
X140732700Y-79111076D01*
X140631673Y-78603178D01*
X140433501Y-78124749D01*
X140145800Y-77694174D01*
X139779626Y-77328000D01*
X139349051Y-77040299D01*
X138870622Y-76842127D01*
X138362724Y-76741100D01*
X137844876Y-76741100D01*
X137336978Y-76842127D01*
X136858549Y-77040299D01*
X136427974Y-77328000D01*
X136061800Y-77694174D01*
X135774099Y-78124749D01*
X135575927Y-78603178D01*
X135474900Y-79111076D01*
X135130298Y-79111076D01*
X135096622Y-78941779D01*
X134984612Y-78671362D01*
X134821998Y-78427994D01*
X134615030Y-78221026D01*
X134371662Y-78058412D01*
X134101245Y-77946402D01*
X133829802Y-77892409D01*
X133973467Y-77677399D01*
X134107496Y-77353823D01*
X134175824Y-77010318D01*
X134175824Y-76660082D01*
X134107496Y-76316577D01*
X133973467Y-75993001D01*
X133778887Y-75701791D01*
X133531233Y-75454137D01*
X133240023Y-75259557D01*
X132916447Y-75125528D01*
X132724222Y-75087292D01*
X132837496Y-74813823D01*
X132905824Y-74470318D01*
X132905824Y-74120082D01*
X132837496Y-73776577D01*
X132703467Y-73453001D01*
X132508887Y-73161791D01*
X132425226Y-73078130D01*
X139144981Y-66358375D01*
X139262737Y-66534609D01*
X139510391Y-66782263D01*
X139801601Y-66976843D01*
X140125177Y-67110872D01*
X140468682Y-67179200D01*
X140818918Y-67179200D01*
X141162423Y-67110872D01*
X141485999Y-66976843D01*
X141777209Y-66782263D01*
X142024863Y-66534609D01*
X142219443Y-66243399D01*
X142353472Y-65919823D01*
X142421800Y-65576318D01*
X142421800Y-65226082D01*
X142353472Y-64882577D01*
X142240198Y-64609108D01*
X142432423Y-64570872D01*
X142755999Y-64436843D01*
X143047209Y-64242263D01*
X143294863Y-63994609D01*
X143489443Y-63703399D01*
X143623472Y-63379823D01*
X143676817Y-63111644D01*
X144734230Y-64169058D01*
X144758024Y-64198051D01*
X144787017Y-64221845D01*
X144787021Y-64221849D01*
X144831317Y-64258201D01*
X144873749Y-64293024D01*
X144909953Y-64312376D01*
X144909953Y-64458050D01*
X144922213Y-64582532D01*
X144958523Y-64702230D01*
X145017488Y-64812544D01*
X145096840Y-64909235D01*
X145193531Y-64988587D01*
X145303845Y-65047552D01*
X145423543Y-65083862D01*
X145548025Y-65096122D01*
X146968201Y-65096122D01*
X146968201Y-67750904D01*
X146865385Y-67648088D01*
X146401054Y-67337832D01*
X145885117Y-67124124D01*
X145337401Y-67015176D01*
X144778955Y-67015176D01*
X144231239Y-67124124D01*
X143715302Y-67337832D01*
X143250971Y-67648088D01*
X142856090Y-68042969D01*
X142545834Y-68507300D01*
X142332126Y-69023237D01*
X142295055Y-69209605D01*
X142163650Y-69078200D01*
X141733075Y-68790499D01*
X141254646Y-68592327D01*
X140746748Y-68491300D01*
X140228900Y-68491300D01*
X139721002Y-68592327D01*
X139242573Y-68790499D01*
X138811998Y-69078200D01*
X138445824Y-69444374D01*
X138158123Y-69874949D01*
X137959951Y-70353378D01*
X137858924Y-70861276D01*
X137858924Y-71379124D01*
X137959951Y-71887022D01*
X138158123Y-72365451D01*
X138445824Y-72796026D01*
X138811998Y-73162200D01*
X139242573Y-73449901D01*
X139721002Y-73648073D01*
X140228900Y-73749100D01*
X140746748Y-73749100D01*
X141254646Y-73648073D01*
X141733075Y-73449901D01*
X142163650Y-73162200D01*
X142529824Y-72796026D01*
X142817525Y-72365451D01*
X143015697Y-71887022D01*
X143027316Y-71828609D01*
X143250971Y-72052264D01*
X143715302Y-72362520D01*
X144231239Y-72576228D01*
X144778955Y-72685176D01*
X145337401Y-72685176D01*
X145885117Y-72576228D01*
X146401054Y-72362520D01*
X146865385Y-72052264D01*
X146968201Y-71949448D01*
X146968201Y-75439328D01*
X145548025Y-75439328D01*
X145423543Y-75451588D01*
X145303845Y-75487898D01*
X145193531Y-75546863D01*
X145096840Y-75626215D01*
X145017488Y-75722906D01*
X144958523Y-75833220D01*
X144922213Y-75952918D01*
X144909953Y-76077400D01*
X144909953Y-77677400D01*
X144922213Y-77801882D01*
X144945121Y-77877400D01*
X144922213Y-77952918D01*
X144909953Y-78077400D01*
X144909953Y-79677400D01*
X144922213Y-79801882D01*
X144945121Y-79877400D01*
X144922213Y-79952918D01*
X144909953Y-80077400D01*
X144909953Y-81677400D01*
X144922213Y-81801882D01*
X144945121Y-81877400D01*
X144922213Y-81952918D01*
X144909953Y-82077400D01*
X144909953Y-83677400D01*
X144922213Y-83801882D01*
X144958523Y-83921580D01*
X145017488Y-84031894D01*
X145096840Y-84128585D01*
X145193531Y-84207937D01*
X145303845Y-84266902D01*
X145423543Y-84303212D01*
X145548025Y-84315472D01*
X146968201Y-84315472D01*
X146968201Y-86481011D01*
X146932317Y-86846983D01*
X146835411Y-87167953D01*
X146678006Y-87463989D01*
X146466100Y-87723813D01*
X146207755Y-87937533D01*
X145912824Y-88097002D01*
X145592542Y-88196146D01*
X145228578Y-88234400D01*
X141568983Y-88234400D01*
X141864106Y-88037204D01*
X142164828Y-87736482D01*
X142401105Y-87382870D01*
X142563854Y-86989957D01*
X142646824Y-86572843D01*
X142646824Y-86147557D01*
X142563854Y-85730443D01*
X142401105Y-85337530D01*
X142277371Y-85152349D01*
X142353472Y-84968623D01*
X142421800Y-84625118D01*
X142421800Y-84274882D01*
X142353472Y-83931377D01*
X142240198Y-83657908D01*
X142432423Y-83619672D01*
X142755999Y-83485643D01*
X143047209Y-83291063D01*
X143294863Y-83043409D01*
X143489443Y-82752199D01*
X143623472Y-82428623D01*
X143691800Y-82085118D01*
X143691800Y-81734882D01*
X143623472Y-81391377D01*
X143489443Y-81067801D01*
X143345778Y-80852791D01*
X143617221Y-80798798D01*
X143887638Y-80686788D01*
X144131006Y-80524174D01*
X144337974Y-80317206D01*
X144500588Y-80073838D01*
X144612598Y-79803421D01*
X144669700Y-79516348D01*
X144669700Y-79223652D01*
X144612598Y-78936579D01*
X144500588Y-78666162D01*
X144337974Y-78422794D01*
X144131006Y-78215826D01*
X143887638Y-78053212D01*
X143617221Y-77941202D01*
X143330148Y-77884100D01*
X143037452Y-77884100D01*
X142750379Y-77941202D01*
X142479962Y-78053212D01*
X142236594Y-78215826D01*
X142029626Y-78422794D01*
X141867012Y-78666162D01*
X141755002Y-78936579D01*
X141697900Y-79223652D01*
X141697900Y-79516348D01*
X141755002Y-79803421D01*
X141867012Y-80073838D01*
X141905875Y-80132000D01*
X141738682Y-80132000D01*
X141395177Y-80200328D01*
X141071601Y-80334357D01*
X140780391Y-80528937D01*
X140532737Y-80776591D01*
X140338157Y-81067801D01*
X140204128Y-81391377D01*
X140135800Y-81734882D01*
X140135800Y-82085118D01*
X140204128Y-82428623D01*
X140317402Y-82702092D01*
X140125177Y-82740328D01*
X139801601Y-82874357D01*
X139510391Y-83068937D01*
X139262737Y-83316591D01*
X139068157Y-83607801D01*
X138934128Y-83931377D01*
X138865800Y-84274882D01*
X138865800Y-84625118D01*
X138916207Y-84878531D01*
X138810820Y-84983918D01*
X138574543Y-85337530D01*
X138411794Y-85730443D01*
X138328824Y-86147557D01*
X138328824Y-86572843D01*
X138411794Y-86989957D01*
X138574543Y-87382870D01*
X138810820Y-87736482D01*
X139111542Y-88037204D01*
X139406665Y-88234400D01*
X122518935Y-88234400D01*
X122814058Y-88037204D01*
X123114780Y-87736482D01*
X123351057Y-87382870D01*
X123513806Y-86989957D01*
X123596776Y-86572843D01*
X123596776Y-86147557D01*
X123513806Y-85730443D01*
X123351057Y-85337530D01*
X123114780Y-84983918D01*
X122814058Y-84683196D01*
X122460446Y-84446919D01*
X122067533Y-84284170D01*
X121650419Y-84201200D01*
X121225133Y-84201200D01*
X120808019Y-84284170D01*
X120415106Y-84446919D01*
X120061494Y-84683196D01*
X119760772Y-84983918D01*
X119524495Y-85337530D01*
X119361746Y-85730443D01*
X119278776Y-86147557D01*
X119278776Y-86572843D01*
X119361746Y-86989957D01*
X119524495Y-87382870D01*
X119760772Y-87736482D01*
X120061494Y-88037204D01*
X120356617Y-88234400D01*
X117768983Y-88234400D01*
X118064106Y-88037204D01*
X118364828Y-87736482D01*
X118601105Y-87382870D01*
X118763854Y-86989957D01*
X118846824Y-86572843D01*
X118846824Y-86147557D01*
X118763854Y-85730443D01*
X118601105Y-85337530D01*
X118364828Y-84983918D01*
X118064106Y-84683196D01*
X117710494Y-84446919D01*
X117317581Y-84284170D01*
X116900467Y-84201200D01*
X116475181Y-84201200D01*
X116058067Y-84284170D01*
X115665154Y-84446919D01*
X115311542Y-84683196D01*
X115010820Y-84983918D01*
X114774543Y-85337530D01*
X114611794Y-85730443D01*
X114528824Y-86147557D01*
X114528824Y-86572843D01*
X114611794Y-86989957D01*
X114774543Y-87382870D01*
X115010820Y-87736482D01*
X115311542Y-88037204D01*
X115606665Y-88234400D01*
X98718935Y-88234400D01*
X99014058Y-88037204D01*
X99314780Y-87736482D01*
X99551057Y-87382870D01*
X99713806Y-86989957D01*
X99796776Y-86572843D01*
X99796776Y-86147557D01*
X99713806Y-85730443D01*
X99551057Y-85337530D01*
X99469318Y-85215200D01*
X100065309Y-85215200D01*
X101284312Y-86434204D01*
X101308110Y-86463202D01*
X101337108Y-86487000D01*
X101423834Y-86558175D01*
X101555864Y-86628747D01*
X101699125Y-86672204D01*
X101810778Y-86683201D01*
X101810788Y-86683201D01*
X101848111Y-86686877D01*
X101885434Y-86683201D01*
X105532147Y-86683201D01*
X105569469Y-86686877D01*
X105606791Y-86683201D01*
X105606802Y-86683201D01*
X105718455Y-86672204D01*
X105861716Y-86628747D01*
X105993745Y-86558175D01*
X106109470Y-86463202D01*
X106133273Y-86434198D01*
X108860388Y-83707084D01*
X116508202Y-83707084D01*
X116625239Y-83824121D01*
X116843647Y-83970056D01*
X117086328Y-84070578D01*
X117343958Y-84121824D01*
X117606634Y-84121824D01*
X117864264Y-84070578D01*
X118106945Y-83970056D01*
X118325353Y-83824121D01*
X118511093Y-83638381D01*
X118657028Y-83419973D01*
X118757550Y-83177292D01*
X118808796Y-82919662D01*
X118808796Y-82656986D01*
X118757550Y-82399356D01*
X118657028Y-82156675D01*
X118511093Y-81938267D01*
X118413135Y-81840309D01*
X118480833Y-81757818D01*
X118539798Y-81647504D01*
X118576108Y-81527806D01*
X118588368Y-81403324D01*
X118588368Y-80103324D01*
X118576108Y-79978842D01*
X118539798Y-79859144D01*
X118480833Y-79748830D01*
X118401481Y-79652139D01*
X118304790Y-79572787D01*
X118194476Y-79513822D01*
X118148057Y-79499741D01*
X118110270Y-79429048D01*
X118015297Y-79313323D01*
X117986300Y-79289526D01*
X117188170Y-78491396D01*
X117950296Y-78491396D01*
X118074778Y-78479136D01*
X118194476Y-78442826D01*
X118304790Y-78383861D01*
X118401481Y-78304509D01*
X118480833Y-78207818D01*
X118539798Y-78097504D01*
X118576108Y-77977806D01*
X118588368Y-77853324D01*
X118588368Y-76553324D01*
X118576108Y-76428842D01*
X118558930Y-76372215D01*
X118624981Y-76318009D01*
X118704333Y-76221318D01*
X118763298Y-76111004D01*
X118799608Y-75991306D01*
X118805811Y-75928324D01*
X119319789Y-75928324D01*
X119325992Y-75991306D01*
X119362302Y-76111004D01*
X119421267Y-76221318D01*
X119500619Y-76318009D01*
X119566670Y-76372215D01*
X119549492Y-76428842D01*
X119537232Y-76553324D01*
X119537232Y-77853324D01*
X119549492Y-77977806D01*
X119585802Y-78097504D01*
X119644767Y-78207818D01*
X119724119Y-78304509D01*
X119820810Y-78383861D01*
X119931124Y-78442826D01*
X120050822Y-78479136D01*
X120175304Y-78491396D01*
X121125304Y-78491396D01*
X121249786Y-78479136D01*
X121369484Y-78442826D01*
X121479798Y-78383861D01*
X121576489Y-78304509D01*
X121655841Y-78207818D01*
X121714806Y-78097504D01*
X121751116Y-77977806D01*
X121763376Y-77853324D01*
X121763376Y-76553324D01*
X121751116Y-76428842D01*
X121733938Y-76372215D01*
X121799989Y-76318009D01*
X121879341Y-76221318D01*
X121938306Y-76111004D01*
X121974616Y-75991306D01*
X121986876Y-75866824D01*
X121986876Y-74469824D01*
X121974616Y-74345342D01*
X121938306Y-74225644D01*
X121879341Y-74115330D01*
X121799989Y-74018639D01*
X121703298Y-73939287D01*
X121592984Y-73880322D01*
X121473286Y-73844012D01*
X121348804Y-73831752D01*
X119951804Y-73831752D01*
X119827322Y-73844012D01*
X119707624Y-73880322D01*
X119597310Y-73939287D01*
X119500619Y-74018639D01*
X119421267Y-74115330D01*
X119362302Y-74225644D01*
X119325992Y-74345342D01*
X119319789Y-74408324D01*
X118805811Y-74408324D01*
X118799608Y-74345342D01*
X118763298Y-74225644D01*
X118704333Y-74115330D01*
X118624981Y-74018639D01*
X118528290Y-73939287D01*
X118417976Y-73880322D01*
X118298278Y-73844012D01*
X118173796Y-73831752D01*
X116776796Y-73831752D01*
X116652314Y-73844012D01*
X116532616Y-73880322D01*
X116422302Y-73939287D01*
X116325611Y-74018639D01*
X116246259Y-74115330D01*
X116187294Y-74225644D01*
X116150984Y-74345342D01*
X116138724Y-74469824D01*
X116138724Y-75866824D01*
X116150984Y-75991306D01*
X116187294Y-76111004D01*
X116246259Y-76221318D01*
X116325611Y-76318009D01*
X116391662Y-76372215D01*
X116374484Y-76428842D01*
X116362224Y-76553324D01*
X116362224Y-77665451D01*
X116163975Y-77467202D01*
X116140172Y-77438198D01*
X116024447Y-77343225D01*
X115892418Y-77272653D01*
X115749157Y-77229196D01*
X115637504Y-77218199D01*
X115637493Y-77218199D01*
X115600171Y-77214523D01*
X115562849Y-77218199D01*
X115084426Y-77218199D01*
X115125776Y-77010318D01*
X115125776Y-76660082D01*
X115057448Y-76316577D01*
X114923419Y-75993001D01*
X114728839Y-75701791D01*
X114481185Y-75454137D01*
X114189975Y-75259557D01*
X113866399Y-75125528D01*
X113674174Y-75087292D01*
X113787448Y-74813823D01*
X113855776Y-74470318D01*
X113855776Y-74120082D01*
X113787448Y-73776577D01*
X113653419Y-73453001D01*
X113458839Y-73161791D01*
X113211185Y-72914137D01*
X112919975Y-72719557D01*
X112596399Y-72585528D01*
X112252894Y-72517200D01*
X111902658Y-72517200D01*
X111559153Y-72585528D01*
X111235577Y-72719557D01*
X110944367Y-72914137D01*
X110696713Y-73161791D01*
X110502133Y-73453001D01*
X110368104Y-73776577D01*
X110299776Y-74120082D01*
X110299776Y-74470318D01*
X110368104Y-74813823D01*
X110502133Y-75137399D01*
X110696713Y-75428609D01*
X110944367Y-75676263D01*
X111235577Y-75870843D01*
X111314883Y-75903693D01*
X111314100Y-75911646D01*
X111317777Y-75948979D01*
X111328774Y-76060632D01*
X111336529Y-76086197D01*
X111372230Y-76203892D01*
X111442802Y-76335922D01*
X111513977Y-76422648D01*
X111537776Y-76451647D01*
X111566774Y-76475445D01*
X111599911Y-76508582D01*
X111569776Y-76660082D01*
X111569776Y-77010318D01*
X111638104Y-77353823D01*
X111772133Y-77677399D01*
X111966713Y-77968609D01*
X112214367Y-78216263D01*
X112505577Y-78410843D01*
X112829153Y-78544872D01*
X113172658Y-78613200D01*
X113339851Y-78613200D01*
X113300988Y-78671362D01*
X113188978Y-78941779D01*
X113131876Y-79228852D01*
X113131876Y-79521548D01*
X113188978Y-79808621D01*
X113300988Y-80079038D01*
X113463602Y-80322406D01*
X113670570Y-80529374D01*
X113913938Y-80691988D01*
X114184355Y-80803998D01*
X114471428Y-80861100D01*
X114764124Y-80861100D01*
X115051197Y-80803998D01*
X115321614Y-80691988D01*
X115564982Y-80529374D01*
X115771950Y-80322406D01*
X115934564Y-80079038D01*
X116046574Y-79808621D01*
X116097876Y-79550706D01*
X116409751Y-79862581D01*
X116374484Y-79978842D01*
X116362224Y-80103324D01*
X116362224Y-81403324D01*
X116374484Y-81527806D01*
X116410794Y-81647504D01*
X116469759Y-81757818D01*
X116537457Y-81840309D01*
X116439499Y-81938267D01*
X116293564Y-82156675D01*
X116280968Y-82187084D01*
X108582908Y-82187084D01*
X108545585Y-82183408D01*
X108508262Y-82187084D01*
X108508253Y-82187084D01*
X108396600Y-82198081D01*
X108267261Y-82237315D01*
X108253339Y-82241538D01*
X108121309Y-82312110D01*
X108094299Y-82334277D01*
X108005585Y-82407083D01*
X107981787Y-82436081D01*
X105254668Y-85163201D01*
X104183981Y-85163201D01*
X104262424Y-84973823D01*
X104330752Y-84630318D01*
X104330752Y-84280082D01*
X104262424Y-83936577D01*
X104149150Y-83663108D01*
X104341375Y-83624872D01*
X104664951Y-83490843D01*
X104956161Y-83296263D01*
X105203815Y-83048609D01*
X105398395Y-82757399D01*
X105532424Y-82433823D01*
X105600752Y-82090318D01*
X105600752Y-81740082D01*
X105532424Y-81396577D01*
X105398395Y-81073001D01*
X105254730Y-80857991D01*
X105526173Y-80803998D01*
X105796590Y-80691988D01*
X106039958Y-80529374D01*
X106246926Y-80322406D01*
X106409540Y-80079038D01*
X106521550Y-79808621D01*
X106578652Y-79521548D01*
X106578652Y-79228852D01*
X106556260Y-79116276D01*
X106908876Y-79116276D01*
X106908876Y-79634124D01*
X107009903Y-80142022D01*
X107208075Y-80620451D01*
X107495776Y-81051026D01*
X107861950Y-81417200D01*
X108292525Y-81704901D01*
X108770954Y-81903073D01*
X109278852Y-82004100D01*
X109796700Y-82004100D01*
X110304598Y-81903073D01*
X110783027Y-81704901D01*
X111213602Y-81417200D01*
X111579776Y-81051026D01*
X111867477Y-80620451D01*
X112065649Y-80142022D01*
X112166676Y-79634124D01*
X112166676Y-79116276D01*
X112065649Y-78608378D01*
X111867477Y-78129949D01*
X111579776Y-77699374D01*
X111213602Y-77333200D01*
X110783027Y-77045499D01*
X110304598Y-76847327D01*
X109796700Y-76746300D01*
X109278852Y-76746300D01*
X108770954Y-76847327D01*
X108292525Y-77045499D01*
X107861950Y-77333200D01*
X107495776Y-77699374D01*
X107208075Y-78129949D01*
X107009903Y-78608378D01*
X106908876Y-79116276D01*
X106556260Y-79116276D01*
X106521550Y-78941779D01*
X106409540Y-78671362D01*
X106307978Y-78519365D01*
X106569975Y-78410843D01*
X106861185Y-78216263D01*
X107108839Y-77968609D01*
X107303419Y-77677399D01*
X107437448Y-77353823D01*
X107505776Y-77010318D01*
X107505776Y-76660082D01*
X107437448Y-76316577D01*
X107403400Y-76234378D01*
X107508780Y-76128998D01*
X107537777Y-76105201D01*
X107632750Y-75989476D01*
X107655266Y-75947352D01*
X107839975Y-75870843D01*
X108131185Y-75676263D01*
X108378839Y-75428609D01*
X108573419Y-75137399D01*
X108707448Y-74813823D01*
X108775776Y-74470318D01*
X108775776Y-74120082D01*
X108707448Y-73776577D01*
X108673400Y-73694377D01*
X112806479Y-69561299D01*
X114567697Y-69561299D01*
X114358123Y-69874949D01*
X114159951Y-70353378D01*
X114058924Y-70861276D01*
X114058924Y-71379124D01*
X114159951Y-71887022D01*
X114358123Y-72365451D01*
X114645824Y-72796026D01*
X115011998Y-73162200D01*
X115442573Y-73449901D01*
X115921002Y-73648073D01*
X116428900Y-73749100D01*
X116946748Y-73749100D01*
X117454646Y-73648073D01*
X117933075Y-73449901D01*
X118363650Y-73162200D01*
X118729824Y-72796026D01*
X119017525Y-72365451D01*
X119062800Y-72256148D01*
X119108075Y-72365451D01*
X119395776Y-72796026D01*
X119761950Y-73162200D01*
X120192525Y-73449901D01*
X120670954Y-73648073D01*
X121178852Y-73749100D01*
X121696700Y-73749100D01*
X122204598Y-73648073D01*
X122683027Y-73449901D01*
X123113602Y-73162200D01*
X123479776Y-72796026D01*
X123767477Y-72365451D01*
X123965649Y-71887022D01*
X124066676Y-71379124D01*
X124066676Y-70861276D01*
X123965649Y-70353378D01*
X123767477Y-69874949D01*
X123479776Y-69444374D01*
X123113602Y-69078200D01*
X122683027Y-68790499D01*
X122204598Y-68592327D01*
X121696700Y-68491300D01*
X121178852Y-68491300D01*
X120670954Y-68592327D01*
X120192525Y-68790499D01*
X119761950Y-69078200D01*
X119395776Y-69444374D01*
X119108075Y-69874949D01*
X119062800Y-69984252D01*
X119017525Y-69874949D01*
X118729824Y-69444374D01*
X118675500Y-69390050D01*
X118734902Y-69341300D01*
X118758705Y-69312297D01*
X120994179Y-67076824D01*
X121076377Y-67110872D01*
X121419882Y-67179200D01*
X121770118Y-67179200D01*
X122113623Y-67110872D01*
X122437199Y-66976843D01*
X122728409Y-66782263D01*
X122976063Y-66534609D01*
X123170643Y-66243399D01*
X123304672Y-65919823D01*
X123373000Y-65576318D01*
X123373000Y-65226082D01*
X123304672Y-64882577D01*
X123191398Y-64609108D01*
X123383623Y-64570872D01*
X123707199Y-64436843D01*
X123998409Y-64242263D01*
X124246063Y-63994609D01*
X124440643Y-63703399D01*
X124574672Y-63379823D01*
X124643000Y-63036318D01*
X124643000Y-62686082D01*
X124574672Y-62342577D01*
X124440643Y-62019001D01*
X124296978Y-61803991D01*
X124568421Y-61749998D01*
X124838838Y-61637988D01*
X125082206Y-61475374D01*
X125289174Y-61268406D01*
X125451788Y-61025038D01*
X125558093Y-60768394D01*
X125878928Y-61089230D01*
X125878928Y-61952500D01*
X125891188Y-62076982D01*
X125927498Y-62196680D01*
X125986463Y-62306994D01*
X126054161Y-62389485D01*
X125956203Y-62487443D01*
X125810268Y-62705851D01*
X125709746Y-62948532D01*
X125658500Y-63206162D01*
X125658500Y-63468838D01*
X125709746Y-63726468D01*
X125810268Y-63969149D01*
X125956203Y-64187557D01*
X126141943Y-64373297D01*
X126360351Y-64519232D01*
X126603032Y-64619754D01*
X126860662Y-64671000D01*
X127123338Y-64671000D01*
X127380968Y-64619754D01*
X127623649Y-64519232D01*
X127842057Y-64373297D01*
X128027797Y-64187557D01*
X128173732Y-63969149D01*
X128274254Y-63726468D01*
X128325500Y-63468838D01*
X128325500Y-63206162D01*
X128274254Y-62948532D01*
X128173732Y-62705851D01*
X128027797Y-62487443D01*
X127929839Y-62389485D01*
X127997537Y-62306994D01*
X128056502Y-62196680D01*
X128092812Y-62076982D01*
X128105072Y-61952500D01*
X128105072Y-60652500D01*
X128092812Y-60528018D01*
X128056502Y-60408320D01*
X127997537Y-60298006D01*
X127918185Y-60201315D01*
X127821494Y-60121963D01*
X127711180Y-60062998D01*
X127591482Y-60026688D01*
X127467000Y-60014428D01*
X126953730Y-60014428D01*
X125573603Y-58634302D01*
X125549800Y-58605298D01*
X125434075Y-58510325D01*
X125302046Y-58439753D01*
X125158785Y-58396296D01*
X125047132Y-58385299D01*
X125047121Y-58385299D01*
X125009799Y-58381623D01*
X124972477Y-58385299D01*
X123607889Y-58385299D01*
X123570566Y-58381623D01*
X123533243Y-58385299D01*
X123533234Y-58385299D01*
X123421581Y-58396296D01*
X123287537Y-58436957D01*
X123278320Y-58439753D01*
X123146290Y-58510325D01*
X123125994Y-58526982D01*
X123030566Y-58605298D01*
X123006768Y-58634296D01*
X121666461Y-59974603D01*
X121582873Y-59554378D01*
X121384701Y-59075949D01*
X121097000Y-58645374D01*
X120730826Y-58279200D01*
X120300251Y-57991499D01*
X119821822Y-57793327D01*
X119313924Y-57692300D01*
X118796076Y-57692300D01*
X118288178Y-57793327D01*
X117809749Y-57991499D01*
X117379174Y-58279200D01*
X117013000Y-58645374D01*
X116725299Y-59075949D01*
X116527127Y-59554378D01*
X116426100Y-60062276D01*
X116426100Y-60580124D01*
X116527127Y-61088022D01*
X116725299Y-61566451D01*
X117013000Y-61997026D01*
X117379174Y-62363200D01*
X117809749Y-62650901D01*
X118288178Y-62849073D01*
X118708404Y-62932661D01*
X117631935Y-64009130D01*
X117357199Y-63825557D01*
X117172490Y-63749048D01*
X117149974Y-63706924D01*
X117055001Y-63591199D01*
X117026004Y-63567402D01*
X116920624Y-63462022D01*
X116954672Y-63379823D01*
X117023000Y-63036318D01*
X117023000Y-62686082D01*
X116954672Y-62342577D01*
X116820643Y-62019001D01*
X116626063Y-61727791D01*
X116378409Y-61480137D01*
X116087199Y-61285557D01*
X115763623Y-61151528D01*
X115420118Y-61083200D01*
X115252925Y-61083200D01*
X115291788Y-61025038D01*
X115403798Y-60754621D01*
X115460900Y-60467548D01*
X115460900Y-60174852D01*
X115403798Y-59887779D01*
X115291788Y-59617362D01*
X115129174Y-59373994D01*
X114922206Y-59167026D01*
X114678838Y-59004412D01*
X114408421Y-58892402D01*
X114121348Y-58835300D01*
X113828652Y-58835300D01*
X113541579Y-58892402D01*
X113271162Y-59004412D01*
X113027794Y-59167026D01*
X112820826Y-59373994D01*
X112658212Y-59617362D01*
X112546202Y-59887779D01*
X112489100Y-60174852D01*
X112489100Y-60467548D01*
X112546202Y-60754621D01*
X112658212Y-61025038D01*
X112820826Y-61268406D01*
X113027794Y-61475374D01*
X113271162Y-61637988D01*
X113541579Y-61749998D01*
X113813022Y-61803991D01*
X113669357Y-62019001D01*
X113535328Y-62342577D01*
X113467000Y-62686082D01*
X113467000Y-63036318D01*
X113535328Y-63379823D01*
X113669357Y-63703399D01*
X113863937Y-63994609D01*
X114111591Y-64242263D01*
X114402801Y-64436843D01*
X114726377Y-64570872D01*
X114918602Y-64609108D01*
X114805328Y-64882577D01*
X114737000Y-65226082D01*
X114737000Y-65576318D01*
X114805328Y-65919823D01*
X114939357Y-66243399D01*
X115133937Y-66534609D01*
X115381591Y-66782263D01*
X115672801Y-66976843D01*
X115996377Y-67110872D01*
X116339882Y-67179200D01*
X116690118Y-67179200D01*
X117033623Y-67110872D01*
X117357199Y-66976843D01*
X117648409Y-66782263D01*
X117896063Y-66534609D01*
X118090643Y-66243399D01*
X118224672Y-65919823D01*
X118293000Y-65576318D01*
X118293000Y-65497667D01*
X121087000Y-62703668D01*
X121087000Y-63036318D01*
X121155328Y-63379823D01*
X121268602Y-63653292D01*
X121076377Y-63691528D01*
X120752801Y-63825557D01*
X120461591Y-64020137D01*
X120213937Y-64267791D01*
X120019357Y-64559001D01*
X119885328Y-64882577D01*
X119817000Y-65226082D01*
X119817000Y-65576318D01*
X119885328Y-65919823D01*
X119919376Y-66002021D01*
X117880100Y-68041299D01*
X112528999Y-68041299D01*
X112491676Y-68037623D01*
X112454353Y-68041299D01*
X112454344Y-68041299D01*
X112342691Y-68052296D01*
X112199430Y-68095753D01*
X112067401Y-68166325D01*
X111951676Y-68261298D01*
X111927878Y-68290296D01*
X107598599Y-72619576D01*
X107516399Y-72585528D01*
X107172894Y-72517200D01*
X106822658Y-72517200D01*
X106479153Y-72585528D01*
X106155577Y-72719557D01*
X105864367Y-72914137D01*
X105616713Y-73161791D01*
X105422133Y-73453001D01*
X105288104Y-73776577D01*
X105219776Y-74120082D01*
X105219776Y-74470318D01*
X105288104Y-74813823D01*
X105401378Y-75087292D01*
X105209153Y-75125528D01*
X104885577Y-75259557D01*
X104594367Y-75454137D01*
X104346713Y-75701791D01*
X104152133Y-75993001D01*
X104018104Y-76316577D01*
X103949776Y-76660082D01*
X103949776Y-77010318D01*
X103996061Y-77243006D01*
X103898326Y-77272653D01*
X103766296Y-77343225D01*
X103727334Y-77375201D01*
X103650572Y-77438198D01*
X103626774Y-77467196D01*
X102770873Y-78323098D01*
X102741875Y-78346896D01*
X102718077Y-78375894D01*
X102718076Y-78375895D01*
X102646901Y-78462621D01*
X102576329Y-78594651D01*
X102554637Y-78666162D01*
X102553116Y-78671176D01*
X102540625Y-78608378D01*
X102342453Y-78129949D01*
X102054752Y-77699374D01*
X101688578Y-77333200D01*
X101258003Y-77045499D01*
X100779574Y-76847327D01*
X100271676Y-76746300D01*
X99753828Y-76746300D01*
X99245930Y-76847327D01*
X98767501Y-77045499D01*
X98336926Y-77333200D01*
X97970752Y-77699374D01*
X97683051Y-78129949D01*
X97484879Y-78608378D01*
X97383852Y-79116276D01*
X97383852Y-79634124D01*
X97484879Y-80142022D01*
X97683051Y-80620451D01*
X97970752Y-81051026D01*
X98336926Y-81417200D01*
X98767501Y-81704901D01*
X99245930Y-81903073D01*
X99753828Y-82004100D01*
X100271676Y-82004100D01*
X100779574Y-81903073D01*
X101258003Y-81704901D01*
X101688578Y-81417200D01*
X102054752Y-81051026D01*
X102342453Y-80620451D01*
X102521875Y-80187287D01*
X102521875Y-80701605D01*
X102441689Y-80781791D01*
X102247109Y-81073001D01*
X102113080Y-81396577D01*
X102044752Y-81740082D01*
X102044752Y-82090318D01*
X102113080Y-82433823D01*
X102226354Y-82707292D01*
X102034129Y-82745528D01*
X101710553Y-82879557D01*
X101419343Y-83074137D01*
X101171689Y-83321791D01*
X100977109Y-83613001D01*
X100869231Y-83873443D01*
X100804386Y-83820226D01*
X100672357Y-83749654D01*
X100529096Y-83706197D01*
X100417443Y-83695200D01*
X100417432Y-83695200D01*
X100380110Y-83691524D01*
X100342788Y-83695200D01*
X99082443Y-83695200D01*
X99048395Y-83613001D01*
X98853815Y-83321791D01*
X98606161Y-83074137D01*
X98314951Y-82879557D01*
X98125397Y-82801042D01*
X98101174Y-82755724D01*
X98006201Y-82639999D01*
X97977204Y-82616202D01*
X97877980Y-82516978D01*
X97912424Y-82433823D01*
X97980752Y-82090318D01*
X97980752Y-81740082D01*
X97912424Y-81396577D01*
X97778395Y-81073001D01*
X97583815Y-80781791D01*
X97336161Y-80534137D01*
X97044951Y-80339557D01*
X96721375Y-80205528D01*
X96377870Y-80137200D01*
X96210677Y-80137200D01*
X96249540Y-80079038D01*
X96361550Y-79808621D01*
X96418652Y-79521548D01*
X96418652Y-79228852D01*
X96361550Y-78941779D01*
X96249540Y-78671362D01*
X96086926Y-78427994D01*
X95879958Y-78221026D01*
X95636590Y-78058412D01*
X95366173Y-77946402D01*
X95079100Y-77889300D01*
X94786404Y-77889300D01*
X94499331Y-77946402D01*
X94228914Y-78058412D01*
X93985546Y-78221026D01*
X93778578Y-78427994D01*
X93615964Y-78671362D01*
X93503954Y-78941779D01*
X93446852Y-79228852D01*
X93446852Y-79521548D01*
X93503954Y-79808621D01*
X93615964Y-80079038D01*
X93778578Y-80322406D01*
X93985546Y-80529374D01*
X94228914Y-80691988D01*
X94499331Y-80803998D01*
X94770774Y-80857991D01*
X94627109Y-81073001D01*
X94493080Y-81396577D01*
X94424752Y-81740082D01*
X94424752Y-82090318D01*
X94493080Y-82433823D01*
X94627109Y-82757399D01*
X94821689Y-83048609D01*
X95069343Y-83296263D01*
X95360553Y-83490843D01*
X95684129Y-83624872D01*
X95876354Y-83663108D01*
X95763080Y-83936577D01*
X95694752Y-84280082D01*
X95694752Y-84630318D01*
X95763080Y-84973823D01*
X95841314Y-85162698D01*
X95724495Y-85337530D01*
X95561746Y-85730443D01*
X95478776Y-86147557D01*
X95478776Y-86572843D01*
X95561746Y-86989957D01*
X95724495Y-87382870D01*
X95960772Y-87736482D01*
X96261494Y-88037204D01*
X96556617Y-88234400D01*
X92896379Y-88234400D01*
X92530417Y-88198517D01*
X92209447Y-88101611D01*
X91913411Y-87944206D01*
X91653587Y-87732300D01*
X91439867Y-87473955D01*
X91280398Y-87179024D01*
X91181254Y-86858742D01*
X91143000Y-86494778D01*
X91143000Y-71935049D01*
X91260215Y-72052264D01*
X91724546Y-72362520D01*
X92240483Y-72576228D01*
X92788199Y-72685176D01*
X93346645Y-72685176D01*
X93894361Y-72576228D01*
X94410298Y-72362520D01*
X94874629Y-72052264D01*
X95098284Y-71828609D01*
X95109903Y-71887022D01*
X95308075Y-72365451D01*
X95595776Y-72796026D01*
X95961950Y-73162200D01*
X96392525Y-73449901D01*
X96870954Y-73648073D01*
X97378852Y-73749100D01*
X97896700Y-73749100D01*
X98404598Y-73648073D01*
X98883027Y-73449901D01*
X99313602Y-73162200D01*
X99679776Y-72796026D01*
X99967477Y-72365451D01*
X100165649Y-71887022D01*
X100266676Y-71379124D01*
X100266676Y-70861276D01*
X100165649Y-70353378D01*
X99967477Y-69874949D01*
X99679776Y-69444374D01*
X99313602Y-69078200D01*
X98883027Y-68790499D01*
X98404598Y-68592327D01*
X97896700Y-68491300D01*
X97378852Y-68491300D01*
X96870954Y-68592327D01*
X96392525Y-68790499D01*
X95961950Y-69078200D01*
X95830545Y-69209605D01*
X95793474Y-69023237D01*
X95579766Y-68507300D01*
X95269510Y-68042969D01*
X94874629Y-67648088D01*
X94410298Y-67337832D01*
X93894361Y-67124124D01*
X93346645Y-67015176D01*
X92788199Y-67015176D01*
X92240483Y-67124124D01*
X91724546Y-67337832D01*
X91260215Y-67648088D01*
X91143000Y-67765303D01*
X91143000Y-62334885D01*
X91204298Y-62375843D01*
X91429054Y-62468940D01*
X91667653Y-62516400D01*
X91910927Y-62516400D01*
X91991225Y-62500428D01*
X91948584Y-62552386D01*
X91810691Y-62810366D01*
X91725777Y-63090289D01*
X91697105Y-63381400D01*
X91725777Y-63672511D01*
X91810691Y-63952434D01*
X91948584Y-64210414D01*
X92134156Y-64436534D01*
X92360276Y-64622106D01*
X92618256Y-64759999D01*
X92898179Y-64844913D01*
X93116340Y-64866400D01*
X94062240Y-64866400D01*
X94280401Y-64844913D01*
X94560324Y-64759999D01*
X94818304Y-64622106D01*
X95044424Y-64436534D01*
X95089914Y-64381105D01*
X95258671Y-64545576D01*
X95503672Y-64704761D01*
X95775021Y-64813090D01*
X96062290Y-64866400D01*
X96462290Y-64866400D01*
X96462290Y-63508400D01*
X96716290Y-63508400D01*
X96716290Y-64866400D01*
X97116290Y-64866400D01*
X97403559Y-64813090D01*
X97674908Y-64704761D01*
X97919909Y-64545576D01*
X98129147Y-64341652D01*
X98294581Y-64100826D01*
X98409853Y-63832353D01*
X98430766Y-63738290D01*
X98309445Y-63508400D01*
X96716290Y-63508400D01*
X96462290Y-63508400D01*
X96442290Y-63508400D01*
X96442290Y-63254400D01*
X96462290Y-63254400D01*
X96462290Y-61896400D01*
X96716290Y-61896400D01*
X96716290Y-63254400D01*
X98309445Y-63254400D01*
X98430766Y-63024510D01*
X98409853Y-62930447D01*
X98294581Y-62661974D01*
X98129147Y-62421148D01*
X97919909Y-62217224D01*
X97674908Y-62058039D01*
X97403559Y-61949710D01*
X97116290Y-61896400D01*
X96716290Y-61896400D01*
X96462290Y-61896400D01*
X96062290Y-61896400D01*
X95775021Y-61949710D01*
X95503672Y-62058039D01*
X95258671Y-62217224D01*
X95089914Y-62381695D01*
X95044424Y-62326266D01*
X94818304Y-62140694D01*
X94560324Y-62002801D01*
X94280401Y-61917887D01*
X94062240Y-61896400D01*
X93116340Y-61896400D01*
X92898179Y-61917887D01*
X92836906Y-61936474D01*
X92883733Y-61866392D01*
X92976830Y-61641636D01*
X93024290Y-61403037D01*
X93024290Y-61159763D01*
X92976830Y-60921164D01*
X92883733Y-60696408D01*
X92748577Y-60494133D01*
X92660844Y-60406400D01*
X92748577Y-60318667D01*
X92883733Y-60116392D01*
X92976830Y-59891636D01*
X93024290Y-59653037D01*
X93024290Y-59409763D01*
X92976830Y-59171164D01*
X92883733Y-58946408D01*
X92836906Y-58876326D01*
X92898179Y-58894913D01*
X93116340Y-58916400D01*
X94062240Y-58916400D01*
X94280401Y-58894913D01*
X94560324Y-58809999D01*
X94818304Y-58672106D01*
X95044424Y-58486534D01*
X95089914Y-58431105D01*
X95258671Y-58595576D01*
X95503672Y-58754761D01*
X95775021Y-58863090D01*
X96062290Y-58916400D01*
X96462290Y-58916400D01*
X96462290Y-57558400D01*
X96716290Y-57558400D01*
X96716290Y-58916400D01*
X97116290Y-58916400D01*
X97403559Y-58863090D01*
X97674908Y-58754761D01*
X97919909Y-58595576D01*
X98129147Y-58391652D01*
X98294581Y-58150826D01*
X98409853Y-57882353D01*
X98430766Y-57788290D01*
X98309445Y-57558400D01*
X96716290Y-57558400D01*
X96462290Y-57558400D01*
X96442290Y-57558400D01*
X96442290Y-57304400D01*
X96462290Y-57304400D01*
X96462290Y-55946400D01*
X96716290Y-55946400D01*
X96716290Y-57304400D01*
X98309445Y-57304400D01*
X98430766Y-57074510D01*
X98409853Y-56980447D01*
X98294581Y-56711974D01*
X98129147Y-56471148D01*
X97919909Y-56267224D01*
X97674908Y-56108039D01*
X97403559Y-55999710D01*
X97116290Y-55946400D01*
X96716290Y-55946400D01*
X96462290Y-55946400D01*
X96062290Y-55946400D01*
X95775021Y-55999710D01*
X95503672Y-56108039D01*
X95258671Y-56267224D01*
X95089914Y-56431695D01*
X95044424Y-56376266D01*
X94818304Y-56190694D01*
X94560324Y-56052801D01*
X94280401Y-55967887D01*
X94062240Y-55946400D01*
X93116340Y-55946400D01*
X92898179Y-55967887D01*
X92618256Y-56052801D01*
X92360276Y-56190694D01*
X92134156Y-56376266D01*
X91948584Y-56602386D01*
X91810691Y-56860366D01*
X91725777Y-57140289D01*
X91697105Y-57431400D01*
X91725777Y-57722511D01*
X91810691Y-58002434D01*
X91948584Y-58260414D01*
X91991225Y-58312372D01*
X91910927Y-58296400D01*
X91667653Y-58296400D01*
X91429054Y-58343860D01*
X91204298Y-58436957D01*
X91143000Y-58477915D01*
X91143000Y-46690013D01*
X91224407Y-46771420D01*
X91453215Y-46924305D01*
X91707452Y-47029614D01*
X91977350Y-47083300D01*
X92252534Y-47083300D01*
X92522432Y-47029614D01*
X92776669Y-46924305D01*
X93005477Y-46771420D01*
X93200062Y-46576835D01*
X93317725Y-46400740D01*
X98499070Y-46400740D01*
X96932976Y-47966835D01*
X96813930Y-47955110D01*
X95670930Y-47955110D01*
X95546448Y-47967370D01*
X95426750Y-48003680D01*
X95316436Y-48062645D01*
X95219745Y-48141997D01*
X95140393Y-48238688D01*
X95081428Y-48349002D01*
X95045118Y-48468700D01*
X95032858Y-48593182D01*
X95032858Y-49228182D01*
X95045118Y-49352664D01*
X95062833Y-49411062D01*
X95045118Y-49469460D01*
X95032858Y-49593942D01*
X95032858Y-50228942D01*
X95045118Y-50353424D01*
X95081428Y-50473122D01*
X95140393Y-50583436D01*
X95219745Y-50680127D01*
X95316436Y-50759479D01*
X95426750Y-50818444D01*
X95482430Y-50835334D01*
X95482431Y-51291661D01*
X95392373Y-51351835D01*
X95206633Y-51537575D01*
X95060698Y-51755983D01*
X94960176Y-51998664D01*
X94908930Y-52256294D01*
X94908930Y-52518970D01*
X94960176Y-52776600D01*
X95060698Y-53019281D01*
X95206633Y-53237689D01*
X95392373Y-53423429D01*
X95610781Y-53569364D01*
X95853462Y-53669886D01*
X96111092Y-53721132D01*
X96373768Y-53721132D01*
X96631398Y-53669886D01*
X96874079Y-53569364D01*
X97092487Y-53423429D01*
X97278227Y-53237689D01*
X97424162Y-53019281D01*
X97512430Y-52806184D01*
X97600698Y-53019281D01*
X97746633Y-53237689D01*
X97932373Y-53423429D01*
X98150781Y-53569364D01*
X98393462Y-53669886D01*
X98651092Y-53721132D01*
X98913768Y-53721132D01*
X99171398Y-53669886D01*
X99414079Y-53569364D01*
X99538930Y-53485942D01*
X99538930Y-56003707D01*
X99535253Y-56041039D01*
X99538930Y-56078372D01*
X99540505Y-56094360D01*
X99360276Y-56190694D01*
X99134156Y-56376266D01*
X98948584Y-56602386D01*
X98810691Y-56860366D01*
X98725777Y-57140289D01*
X98697105Y-57431400D01*
X98725777Y-57722511D01*
X98810691Y-58002434D01*
X98948584Y-58260414D01*
X98991225Y-58312372D01*
X98910927Y-58296400D01*
X98667653Y-58296400D01*
X98429054Y-58343860D01*
X98204298Y-58436957D01*
X98002023Y-58572113D01*
X97830003Y-58744133D01*
X97694847Y-58946408D01*
X97601750Y-59171164D01*
X97554290Y-59409763D01*
X97554290Y-59653037D01*
X97601750Y-59891636D01*
X97694847Y-60116392D01*
X97830003Y-60318667D01*
X97917736Y-60406400D01*
X97830003Y-60494133D01*
X97694847Y-60696408D01*
X97601750Y-60921164D01*
X97554290Y-61159763D01*
X97554290Y-61403037D01*
X97601750Y-61641636D01*
X97694847Y-61866392D01*
X97830003Y-62068667D01*
X98002023Y-62240687D01*
X98204298Y-62375843D01*
X98429054Y-62468940D01*
X98667653Y-62516400D01*
X98910927Y-62516400D01*
X98991225Y-62500428D01*
X98948584Y-62552386D01*
X98810691Y-62810366D01*
X98725777Y-63090289D01*
X98697105Y-63381400D01*
X98725777Y-63672511D01*
X98810691Y-63952434D01*
X98948584Y-64210414D01*
X99134156Y-64436534D01*
X99360276Y-64622106D01*
X99618256Y-64759999D01*
X99898179Y-64844913D01*
X100116340Y-64866400D01*
X101062240Y-64866400D01*
X101280401Y-64844913D01*
X101560324Y-64759999D01*
X101818304Y-64622106D01*
X102044424Y-64436534D01*
X102229996Y-64210414D01*
X102367889Y-63952434D01*
X102452803Y-63672511D01*
X102481475Y-63381400D01*
X102455375Y-63116400D01*
X102562240Y-63116400D01*
X102780401Y-63094913D01*
X103060324Y-63009999D01*
X103318304Y-62872106D01*
X103544424Y-62686534D01*
X103729996Y-62460414D01*
X103867889Y-62202434D01*
X103952803Y-61922511D01*
X103981475Y-61631400D01*
X103952803Y-61340289D01*
X103867889Y-61060366D01*
X103729996Y-60802386D01*
X103544424Y-60576266D01*
X103337442Y-60406400D01*
X103544424Y-60236534D01*
X103729996Y-60010414D01*
X103867889Y-59752434D01*
X103952803Y-59472511D01*
X103981475Y-59181400D01*
X103952803Y-58890289D01*
X103867889Y-58610366D01*
X103729996Y-58352386D01*
X103544424Y-58126266D01*
X103318304Y-57940694D01*
X103060324Y-57802801D01*
X102780401Y-57717887D01*
X102562240Y-57696400D01*
X102455375Y-57696400D01*
X102481475Y-57431400D01*
X102452803Y-57140289D01*
X102367889Y-56860366D01*
X102229996Y-56602386D01*
X102044424Y-56376266D01*
X101818304Y-56190694D01*
X101560324Y-56052801D01*
X101280401Y-55967887D01*
X101255428Y-55965427D01*
X101224264Y-55907124D01*
X101129291Y-55791399D01*
X101100293Y-55767601D01*
X101058929Y-55726237D01*
X101058929Y-55019000D01*
X125655428Y-55019000D01*
X125655428Y-56416000D01*
X125667688Y-56540482D01*
X125703998Y-56660180D01*
X125762963Y-56770494D01*
X125842315Y-56867185D01*
X125908366Y-56921391D01*
X125891188Y-56978018D01*
X125878928Y-57102500D01*
X125878928Y-58402500D01*
X125891188Y-58526982D01*
X125927498Y-58646680D01*
X125986463Y-58756994D01*
X126065815Y-58853685D01*
X126162506Y-58933037D01*
X126272820Y-58992002D01*
X126392518Y-59028312D01*
X126517000Y-59040572D01*
X127467000Y-59040572D01*
X127591482Y-59028312D01*
X127711180Y-58992002D01*
X127821494Y-58933037D01*
X127918185Y-58853685D01*
X127997537Y-58756994D01*
X128056502Y-58646680D01*
X128092812Y-58526982D01*
X128105072Y-58402500D01*
X128105072Y-57102500D01*
X128092812Y-56978018D01*
X128075634Y-56921391D01*
X128141685Y-56867185D01*
X128221037Y-56770494D01*
X128280002Y-56660180D01*
X128316312Y-56540482D01*
X128322515Y-56477500D01*
X128836285Y-56477500D01*
X128842488Y-56540482D01*
X128878798Y-56660180D01*
X128937763Y-56770494D01*
X129017115Y-56867185D01*
X129083166Y-56921391D01*
X129065988Y-56978018D01*
X129053728Y-57102500D01*
X129053728Y-58402500D01*
X129065988Y-58526982D01*
X129102298Y-58646680D01*
X129161263Y-58756994D01*
X129240615Y-58853685D01*
X129337306Y-58933037D01*
X129447620Y-58992002D01*
X129567318Y-59028312D01*
X129691800Y-59040572D01*
X130641800Y-59040572D01*
X130766282Y-59028312D01*
X130885980Y-58992002D01*
X130996294Y-58933037D01*
X131092985Y-58853685D01*
X131172337Y-58756994D01*
X131231302Y-58646680D01*
X131267612Y-58526982D01*
X131279872Y-58402500D01*
X131279872Y-57102500D01*
X131267612Y-56978018D01*
X131250434Y-56921391D01*
X131316485Y-56867185D01*
X131395837Y-56770494D01*
X131454802Y-56660180D01*
X131491112Y-56540482D01*
X131503372Y-56416000D01*
X131503372Y-55019000D01*
X131491112Y-54894518D01*
X131454802Y-54774820D01*
X131395837Y-54664506D01*
X131316485Y-54567815D01*
X131219794Y-54488463D01*
X131109480Y-54429498D01*
X130989782Y-54393188D01*
X130865300Y-54380928D01*
X129468300Y-54380928D01*
X129343818Y-54393188D01*
X129224120Y-54429498D01*
X129113806Y-54488463D01*
X129017115Y-54567815D01*
X128937763Y-54664506D01*
X128878798Y-54774820D01*
X128842488Y-54894518D01*
X128836285Y-54957500D01*
X128322515Y-54957500D01*
X128316312Y-54894518D01*
X128280002Y-54774820D01*
X128221037Y-54664506D01*
X128141685Y-54567815D01*
X128044994Y-54488463D01*
X127934680Y-54429498D01*
X127814982Y-54393188D01*
X127690500Y-54380928D01*
X126293500Y-54380928D01*
X126169018Y-54393188D01*
X126049320Y-54429498D01*
X125939006Y-54488463D01*
X125842315Y-54567815D01*
X125762963Y-54664506D01*
X125703998Y-54774820D01*
X125667688Y-54894518D01*
X125655428Y-55019000D01*
X101058929Y-55019000D01*
X101058929Y-53694843D01*
X101191092Y-53721132D01*
X101453768Y-53721132D01*
X101711398Y-53669886D01*
X101954079Y-53569364D01*
X102172487Y-53423429D01*
X102358227Y-53237689D01*
X102504162Y-53019281D01*
X102592430Y-52806184D01*
X102680698Y-53019281D01*
X102826633Y-53237689D01*
X103012373Y-53423429D01*
X103230781Y-53569364D01*
X103473462Y-53669886D01*
X103731092Y-53721132D01*
X103993768Y-53721132D01*
X104251398Y-53669886D01*
X104494079Y-53569364D01*
X104712487Y-53423429D01*
X104898227Y-53237689D01*
X105044162Y-53019281D01*
X105144684Y-52776600D01*
X105195930Y-52518970D01*
X105195930Y-52256294D01*
X105144684Y-51998664D01*
X105044162Y-51755983D01*
X104898227Y-51537575D01*
X104741512Y-51380860D01*
X104741512Y-50835334D01*
X104797192Y-50818444D01*
X104907506Y-50759479D01*
X105004197Y-50680127D01*
X105083549Y-50583436D01*
X105142514Y-50473122D01*
X105178824Y-50353424D01*
X105191084Y-50228942D01*
X105191084Y-49593942D01*
X105178824Y-49469460D01*
X105161109Y-49411062D01*
X105178824Y-49352664D01*
X105191084Y-49228182D01*
X105188012Y-49196432D01*
X105029262Y-49037682D01*
X104859382Y-49037682D01*
X104797192Y-49004440D01*
X104677494Y-48968130D01*
X104553012Y-48955870D01*
X103410012Y-48955870D01*
X103285530Y-48968130D01*
X103165832Y-49004440D01*
X103103642Y-49037682D01*
X102933762Y-49037682D01*
X102775012Y-49196432D01*
X102771940Y-49228182D01*
X102784200Y-49352664D01*
X102801915Y-49411062D01*
X102784200Y-49469460D01*
X102771940Y-49593942D01*
X102771940Y-50228942D01*
X102784200Y-50353424D01*
X102820510Y-50473122D01*
X102879475Y-50583436D01*
X102958827Y-50680127D01*
X103055518Y-50759479D01*
X103165832Y-50818444D01*
X103221512Y-50835334D01*
X103221513Y-51212093D01*
X103012373Y-51351835D01*
X102826633Y-51537575D01*
X102680698Y-51755983D01*
X102592430Y-51969080D01*
X102504162Y-51755983D01*
X102358227Y-51537575D01*
X102172487Y-51351835D01*
X102161818Y-51344706D01*
X102161818Y-50835334D01*
X102217498Y-50818444D01*
X102327812Y-50759479D01*
X102424503Y-50680127D01*
X102503855Y-50583436D01*
X102562820Y-50473122D01*
X102599130Y-50353424D01*
X102611390Y-50228942D01*
X102611390Y-49593942D01*
X102599130Y-49469460D01*
X102581415Y-49411062D01*
X102599130Y-49352664D01*
X102611390Y-49228182D01*
X102611390Y-48593182D01*
X102771940Y-48593182D01*
X102775012Y-48624932D01*
X102933762Y-48783682D01*
X103854512Y-48783682D01*
X103854512Y-48116932D01*
X104108512Y-48116932D01*
X104108512Y-48783682D01*
X105029262Y-48783682D01*
X105188012Y-48624932D01*
X105191084Y-48593182D01*
X105178824Y-48468700D01*
X105142514Y-48349002D01*
X105083549Y-48238688D01*
X105004197Y-48141997D01*
X104907506Y-48062645D01*
X104797192Y-48003680D01*
X104677494Y-47967370D01*
X104553012Y-47955110D01*
X104267262Y-47958182D01*
X104108512Y-48116932D01*
X103854512Y-48116932D01*
X103695762Y-47958182D01*
X103410012Y-47955110D01*
X103285530Y-47967370D01*
X103165832Y-48003680D01*
X103055518Y-48062645D01*
X102958827Y-48141997D01*
X102879475Y-48238688D01*
X102820510Y-48349002D01*
X102784200Y-48468700D01*
X102771940Y-48593182D01*
X102611390Y-48593182D01*
X102599130Y-48468700D01*
X102562820Y-48349002D01*
X102503855Y-48238688D01*
X102424503Y-48141997D01*
X102337554Y-48070640D01*
X102397044Y-47927018D01*
X102436818Y-47727059D01*
X102436818Y-47591368D01*
X103277801Y-47591368D01*
X103321738Y-47635305D01*
X103491256Y-47748573D01*
X103679614Y-47826594D01*
X103879573Y-47866368D01*
X104083451Y-47866368D01*
X104283410Y-47826594D01*
X104471768Y-47748573D01*
X104641286Y-47635305D01*
X104785449Y-47491142D01*
X104898717Y-47321624D01*
X104976738Y-47133266D01*
X105016512Y-46933307D01*
X105016512Y-46729429D01*
X104976738Y-46529470D01*
X104923416Y-46400740D01*
X105730132Y-46400740D01*
X105767454Y-46404416D01*
X105804776Y-46400740D01*
X105804787Y-46400740D01*
X105916440Y-46389743D01*
X106059701Y-46346286D01*
X106105971Y-46321554D01*
X106116937Y-46348027D01*
G36*
X144734226Y-44949703D02*
G01*
X144758024Y-44978701D01*
X144873749Y-45073674D01*
X144909953Y-45093026D01*
X144909953Y-45238700D01*
X144922213Y-45363182D01*
X144958523Y-45482880D01*
X145017488Y-45593194D01*
X145096840Y-45689885D01*
X145193531Y-45769237D01*
X145303845Y-45828202D01*
X145423543Y-45864512D01*
X145548025Y-45876772D01*
X146968200Y-45876772D01*
X146968201Y-56165742D01*
X146888026Y-56068049D01*
X146859028Y-56044251D01*
X139442889Y-48628113D01*
X140042978Y-48028024D01*
X140125177Y-48062072D01*
X140468682Y-48130400D01*
X140818918Y-48130400D01*
X141162423Y-48062072D01*
X141485999Y-47928043D01*
X141777209Y-47733463D01*
X142024863Y-47485809D01*
X142219443Y-47194599D01*
X142353472Y-46871023D01*
X142421800Y-46527518D01*
X142421800Y-46177282D01*
X142353472Y-45833777D01*
X142240198Y-45560308D01*
X142432423Y-45522072D01*
X142755999Y-45388043D01*
X143047209Y-45193463D01*
X143294863Y-44945809D01*
X143489443Y-44654599D01*
X143623472Y-44331023D01*
X143691800Y-43987518D01*
X143691800Y-43907276D01*
X144734226Y-44949703D01*
X144734226Y-44949703D01*
G37*
X144734226Y-44949703D02*
X144758024Y-44978701D01*
X144873749Y-45073674D01*
X144909953Y-45093026D01*
X144909953Y-45238700D01*
X144922213Y-45363182D01*
X144958523Y-45482880D01*
X145017488Y-45593194D01*
X145096840Y-45689885D01*
X145193531Y-45769237D01*
X145303845Y-45828202D01*
X145423543Y-45864512D01*
X145548025Y-45876772D01*
X146968200Y-45876772D01*
X146968201Y-56165742D01*
X146888026Y-56068049D01*
X146859028Y-56044251D01*
X139442889Y-48628113D01*
X140042978Y-48028024D01*
X140125177Y-48062072D01*
X140468682Y-48130400D01*
X140818918Y-48130400D01*
X141162423Y-48062072D01*
X141485999Y-47928043D01*
X141777209Y-47733463D01*
X142024863Y-47485809D01*
X142219443Y-47194599D01*
X142353472Y-46871023D01*
X142421800Y-46527518D01*
X142421800Y-46177282D01*
X142353472Y-45833777D01*
X142240198Y-45560308D01*
X142432423Y-45522072D01*
X142755999Y-45388043D01*
X143047209Y-45193463D01*
X143294863Y-44945809D01*
X143489443Y-44654599D01*
X143623472Y-44331023D01*
X143691800Y-43987518D01*
X143691800Y-43907276D01*
X144734226Y-44949703D01*
G36*
X117411298Y-34703814D02*
G01*
X117522951Y-34714811D01*
X117522959Y-34714811D01*
X117560284Y-34718487D01*
X117597609Y-34714811D01*
X126878010Y-34714811D01*
X126915332Y-34718487D01*
X126952654Y-34714811D01*
X126952665Y-34714811D01*
X127064318Y-34703814D01*
X127100304Y-34692898D01*
X138393361Y-34692898D01*
X141123171Y-37422710D01*
X141123170Y-41674781D01*
X141119494Y-41712104D01*
X141123170Y-41749426D01*
X141123170Y-41749436D01*
X141134167Y-41861089D01*
X141177305Y-42003300D01*
X141177624Y-42004350D01*
X141248196Y-42136380D01*
X141264873Y-42156701D01*
X141071601Y-42236757D01*
X140780391Y-42431337D01*
X140532737Y-42678991D01*
X140338157Y-42970201D01*
X140204128Y-43293777D01*
X140135800Y-43637282D01*
X140135800Y-43987518D01*
X140204128Y-44331023D01*
X140317402Y-44604492D01*
X140125177Y-44642728D01*
X139801601Y-44776757D01*
X139510391Y-44971337D01*
X139262737Y-45218991D01*
X139068157Y-45510201D01*
X138934128Y-45833777D01*
X138865800Y-46177282D01*
X138865800Y-46527518D01*
X138934128Y-46871023D01*
X138968176Y-46953222D01*
X138276629Y-47644770D01*
X136785902Y-47644770D01*
X136944863Y-47485809D01*
X137139443Y-47194599D01*
X137273472Y-46871023D01*
X137341800Y-46527518D01*
X137341800Y-46177282D01*
X137273472Y-45833777D01*
X137139443Y-45510201D01*
X136944863Y-45218991D01*
X136697209Y-44971337D01*
X136405999Y-44776757D01*
X136082423Y-44642728D01*
X135890198Y-44604492D01*
X136003472Y-44331023D01*
X136071800Y-43987518D01*
X136071800Y-43637282D01*
X136003472Y-43293777D01*
X135869443Y-42970201D01*
X135674863Y-42678991D01*
X135427209Y-42431337D01*
X135135999Y-42236757D01*
X134812423Y-42102728D01*
X134468918Y-42034400D01*
X134301725Y-42034400D01*
X134340588Y-41976238D01*
X134452598Y-41705821D01*
X134509700Y-41418748D01*
X134509700Y-41126052D01*
X134487308Y-41013476D01*
X135474900Y-41013476D01*
X135474900Y-41531324D01*
X135575927Y-42039222D01*
X135774099Y-42517651D01*
X136061800Y-42948226D01*
X136427974Y-43314400D01*
X136858549Y-43602101D01*
X137336978Y-43800273D01*
X137844876Y-43901300D01*
X138362724Y-43901300D01*
X138870622Y-43800273D01*
X139349051Y-43602101D01*
X139779626Y-43314400D01*
X140145800Y-42948226D01*
X140433501Y-42517651D01*
X140631673Y-42039222D01*
X140732700Y-41531324D01*
X140732700Y-41013476D01*
X140631673Y-40505578D01*
X140433501Y-40027149D01*
X140145800Y-39596574D01*
X139779626Y-39230400D01*
X139349051Y-38942699D01*
X138870622Y-38744527D01*
X138362724Y-38643500D01*
X137844876Y-38643500D01*
X137336978Y-38744527D01*
X136858549Y-38942699D01*
X136427974Y-39230400D01*
X136061800Y-39596574D01*
X135774099Y-40027149D01*
X135575927Y-40505578D01*
X135474900Y-41013476D01*
X134487308Y-41013476D01*
X134452598Y-40838979D01*
X134340588Y-40568562D01*
X134177974Y-40325194D01*
X133971006Y-40118226D01*
X133727638Y-39955612D01*
X133457221Y-39843602D01*
X133170148Y-39786500D01*
X132877452Y-39786500D01*
X132590379Y-39843602D01*
X132319962Y-39955612D01*
X132076594Y-40118226D01*
X131869626Y-40325194D01*
X131707012Y-40568562D01*
X131595002Y-40838979D01*
X131537900Y-41126052D01*
X131537900Y-41418748D01*
X131595002Y-41705821D01*
X131707012Y-41976238D01*
X131869626Y-42219606D01*
X132076594Y-42426574D01*
X132319962Y-42589188D01*
X132590379Y-42701198D01*
X132861822Y-42755191D01*
X132718157Y-42970201D01*
X132584128Y-43293777D01*
X132537398Y-43528700D01*
X131262771Y-43528700D01*
X131202597Y-43438643D01*
X131104639Y-43340685D01*
X131172337Y-43258194D01*
X131231302Y-43147880D01*
X131267612Y-43028182D01*
X131279872Y-42903700D01*
X131279872Y-41603700D01*
X131267612Y-41479218D01*
X131231302Y-41359520D01*
X131172337Y-41249206D01*
X131092985Y-41152515D01*
X130996294Y-41073163D01*
X130885980Y-41014198D01*
X130766282Y-40977888D01*
X130641800Y-40965628D01*
X129691800Y-40965628D01*
X129567318Y-40977888D01*
X129447620Y-41014198D01*
X129337306Y-41073163D01*
X129240615Y-41152515D01*
X129161263Y-41249206D01*
X129102298Y-41359520D01*
X129065988Y-41479218D01*
X129053728Y-41603700D01*
X129053728Y-42903700D01*
X129065988Y-43028182D01*
X129102298Y-43147880D01*
X129161263Y-43258194D01*
X129228961Y-43340685D01*
X129131003Y-43438643D01*
X128985068Y-43657051D01*
X128884546Y-43899732D01*
X128833300Y-44157362D01*
X128833300Y-44420038D01*
X128884546Y-44677668D01*
X128985068Y-44920349D01*
X129131003Y-45138757D01*
X129316743Y-45324497D01*
X129535151Y-45470432D01*
X129777832Y-45570954D01*
X130035462Y-45622200D01*
X130298138Y-45622200D01*
X130555768Y-45570954D01*
X130798449Y-45470432D01*
X131016857Y-45324497D01*
X131202597Y-45138757D01*
X131262771Y-45048700D01*
X133015628Y-45048700D01*
X133160391Y-45193463D01*
X133451601Y-45388043D01*
X133636310Y-45464552D01*
X133658826Y-45506676D01*
X133693321Y-45548708D01*
X133753799Y-45622401D01*
X133782803Y-45646204D01*
X133888176Y-45751577D01*
X133854128Y-45833777D01*
X133785800Y-46177282D01*
X133785800Y-46527518D01*
X133854128Y-46871023D01*
X133988157Y-47194599D01*
X134182737Y-47485809D01*
X134341698Y-47644770D01*
X124710731Y-47644770D01*
X126754432Y-45601070D01*
X126860662Y-45622200D01*
X127123338Y-45622200D01*
X127380968Y-45570954D01*
X127623649Y-45470432D01*
X127842057Y-45324497D01*
X128027797Y-45138757D01*
X128173732Y-44920349D01*
X128274254Y-44677668D01*
X128325500Y-44420038D01*
X128325500Y-44157362D01*
X128274254Y-43899732D01*
X128173732Y-43657051D01*
X128027797Y-43438643D01*
X127929839Y-43340685D01*
X127997537Y-43258194D01*
X128056502Y-43147880D01*
X128092812Y-43028182D01*
X128105072Y-42903700D01*
X128105072Y-41603700D01*
X128092812Y-41479218D01*
X128056502Y-41359520D01*
X127997537Y-41249206D01*
X127918185Y-41152515D01*
X127821494Y-41073163D01*
X127711180Y-41014198D01*
X127591482Y-40977888D01*
X127467000Y-40965628D01*
X126517000Y-40965628D01*
X126392518Y-40977888D01*
X126272820Y-41014198D01*
X126162506Y-41073163D01*
X126065815Y-41152515D01*
X125986463Y-41249206D01*
X125927498Y-41359520D01*
X125891188Y-41479218D01*
X125878928Y-41603700D01*
X125878928Y-42903700D01*
X125891188Y-43028182D01*
X125927498Y-43147880D01*
X125986463Y-43258194D01*
X126054161Y-43340685D01*
X125956203Y-43438643D01*
X125810268Y-43657051D01*
X125709746Y-43899732D01*
X125658500Y-44157362D01*
X125658500Y-44420038D01*
X125679630Y-44526268D01*
X123283315Y-46922584D01*
X123304672Y-46871023D01*
X123373000Y-46527518D01*
X123373000Y-46177282D01*
X123304672Y-45833777D01*
X123191398Y-45560308D01*
X123383623Y-45522072D01*
X123707199Y-45388043D01*
X123998409Y-45193463D01*
X124246063Y-44945809D01*
X124440643Y-44654599D01*
X124574672Y-44331023D01*
X124643000Y-43987518D01*
X124643000Y-43637282D01*
X124574672Y-43293777D01*
X124440643Y-42970201D01*
X124296978Y-42755191D01*
X124568421Y-42701198D01*
X124838838Y-42589188D01*
X125082206Y-42426574D01*
X125289174Y-42219606D01*
X125451788Y-41976238D01*
X125563798Y-41705821D01*
X125620900Y-41418748D01*
X125620900Y-41126052D01*
X125563798Y-40838979D01*
X125451788Y-40568562D01*
X125289174Y-40325194D01*
X125082206Y-40118226D01*
X124838838Y-39955612D01*
X124568421Y-39843602D01*
X124281348Y-39786500D01*
X123988652Y-39786500D01*
X123701579Y-39843602D01*
X123431162Y-39955612D01*
X123187794Y-40118226D01*
X122980826Y-40325194D01*
X122818212Y-40568562D01*
X122706202Y-40838979D01*
X122649100Y-41126052D01*
X122649100Y-41418748D01*
X122706202Y-41705821D01*
X122818212Y-41976238D01*
X122857075Y-42034400D01*
X122689882Y-42034400D01*
X122346377Y-42102728D01*
X122022801Y-42236757D01*
X121731591Y-42431337D01*
X121483937Y-42678991D01*
X121289357Y-42970201D01*
X121255309Y-43052400D01*
X120992826Y-43052400D01*
X121097000Y-42948226D01*
X121384701Y-42517651D01*
X121582873Y-42039222D01*
X121683900Y-41531324D01*
X121683900Y-41013476D01*
X121582873Y-40505578D01*
X121384701Y-40027149D01*
X121097000Y-39596574D01*
X120730826Y-39230400D01*
X120300251Y-38942699D01*
X119821822Y-38744527D01*
X119313924Y-38643500D01*
X118796076Y-38643500D01*
X118288178Y-38744527D01*
X117809749Y-38942699D01*
X117379174Y-39230400D01*
X117013000Y-39596574D01*
X116725299Y-40027149D01*
X116527127Y-40505578D01*
X116426100Y-41013476D01*
X116426100Y-41531324D01*
X116478618Y-41795351D01*
X116373917Y-41709425D01*
X116241888Y-41638853D01*
X116098627Y-41595396D01*
X115986974Y-41584399D01*
X115986963Y-41584399D01*
X115949641Y-41580723D01*
X115912319Y-41584399D01*
X115427950Y-41584399D01*
X115460900Y-41418748D01*
X115460900Y-41126052D01*
X115403798Y-40838979D01*
X115291788Y-40568562D01*
X115129174Y-40325194D01*
X114922206Y-40118226D01*
X114678838Y-39955612D01*
X114408421Y-39843602D01*
X114121348Y-39786500D01*
X113828652Y-39786500D01*
X113541579Y-39843602D01*
X113271162Y-39955612D01*
X113027794Y-40118226D01*
X112820826Y-40325194D01*
X112658212Y-40568562D01*
X112605360Y-40696159D01*
X112578806Y-40669605D01*
X112409288Y-40556337D01*
X112220930Y-40478316D01*
X112020971Y-40438542D01*
X111817093Y-40438542D01*
X111617134Y-40478316D01*
X111488404Y-40531638D01*
X111488404Y-39831922D01*
X111492080Y-39794599D01*
X111488404Y-39757276D01*
X111488404Y-39757267D01*
X111477407Y-39645614D01*
X111433950Y-39502353D01*
X111363378Y-39370324D01*
X111268405Y-39254599D01*
X111239407Y-39230801D01*
X109720951Y-37712346D01*
X109746462Y-37686835D01*
X109899347Y-37458027D01*
X110004656Y-37203790D01*
X110058342Y-36933892D01*
X110058342Y-36658708D01*
X110004656Y-36388810D01*
X109899347Y-36134573D01*
X109789517Y-35970200D01*
X125655428Y-35970200D01*
X125655428Y-37367200D01*
X125667688Y-37491682D01*
X125703998Y-37611380D01*
X125762963Y-37721694D01*
X125842315Y-37818385D01*
X125908366Y-37872591D01*
X125891188Y-37929218D01*
X125878928Y-38053700D01*
X125878928Y-39353700D01*
X125891188Y-39478182D01*
X125927498Y-39597880D01*
X125986463Y-39708194D01*
X126065815Y-39804885D01*
X126162506Y-39884237D01*
X126272820Y-39943202D01*
X126392518Y-39979512D01*
X126517000Y-39991772D01*
X127467000Y-39991772D01*
X127591482Y-39979512D01*
X127711180Y-39943202D01*
X127821494Y-39884237D01*
X127918185Y-39804885D01*
X127997537Y-39708194D01*
X128056502Y-39597880D01*
X128092812Y-39478182D01*
X128105072Y-39353700D01*
X128105072Y-38053700D01*
X128092812Y-37929218D01*
X128075634Y-37872591D01*
X128141685Y-37818385D01*
X128221037Y-37721694D01*
X128280002Y-37611380D01*
X128316312Y-37491682D01*
X128322515Y-37428700D01*
X128836285Y-37428700D01*
X128842488Y-37491682D01*
X128878798Y-37611380D01*
X128937763Y-37721694D01*
X129017115Y-37818385D01*
X129083166Y-37872591D01*
X129065988Y-37929218D01*
X129053728Y-38053700D01*
X129053728Y-39353700D01*
X129065988Y-39478182D01*
X129102298Y-39597880D01*
X129161263Y-39708194D01*
X129240615Y-39804885D01*
X129337306Y-39884237D01*
X129447620Y-39943202D01*
X129567318Y-39979512D01*
X129691800Y-39991772D01*
X130641800Y-39991772D01*
X130766282Y-39979512D01*
X130885980Y-39943202D01*
X130996294Y-39884237D01*
X131092985Y-39804885D01*
X131172337Y-39708194D01*
X131231302Y-39597880D01*
X131267612Y-39478182D01*
X131279872Y-39353700D01*
X131279872Y-38053700D01*
X131267612Y-37929218D01*
X131250434Y-37872591D01*
X131316485Y-37818385D01*
X131395837Y-37721694D01*
X131454802Y-37611380D01*
X131491112Y-37491682D01*
X131503372Y-37367200D01*
X131503372Y-35970200D01*
X131491112Y-35845718D01*
X131454802Y-35726020D01*
X131395837Y-35615706D01*
X131316485Y-35519015D01*
X131219794Y-35439663D01*
X131109480Y-35380698D01*
X130989782Y-35344388D01*
X130865300Y-35332128D01*
X129468300Y-35332128D01*
X129343818Y-35344388D01*
X129224120Y-35380698D01*
X129113806Y-35439663D01*
X129017115Y-35519015D01*
X128937763Y-35615706D01*
X128878798Y-35726020D01*
X128842488Y-35845718D01*
X128836285Y-35908700D01*
X128322515Y-35908700D01*
X128316312Y-35845718D01*
X128280002Y-35726020D01*
X128221037Y-35615706D01*
X128141685Y-35519015D01*
X128044994Y-35439663D01*
X127934680Y-35380698D01*
X127814982Y-35344388D01*
X127690500Y-35332128D01*
X126293500Y-35332128D01*
X126169018Y-35344388D01*
X126049320Y-35380698D01*
X125939006Y-35439663D01*
X125842315Y-35519015D01*
X125762963Y-35615706D01*
X125703998Y-35726020D01*
X125667688Y-35845718D01*
X125655428Y-35970200D01*
X109789517Y-35970200D01*
X109746462Y-35905765D01*
X109689181Y-35848484D01*
X110844768Y-34692898D01*
X117375312Y-34692898D01*
X117411298Y-34703814D01*
X117411298Y-34703814D01*
G37*
X117411298Y-34703814D02*
X117522951Y-34714811D01*
X117522959Y-34714811D01*
X117560284Y-34718487D01*
X117597609Y-34714811D01*
X126878010Y-34714811D01*
X126915332Y-34718487D01*
X126952654Y-34714811D01*
X126952665Y-34714811D01*
X127064318Y-34703814D01*
X127100304Y-34692898D01*
X138393361Y-34692898D01*
X141123171Y-37422710D01*
X141123170Y-41674781D01*
X141119494Y-41712104D01*
X141123170Y-41749426D01*
X141123170Y-41749436D01*
X141134167Y-41861089D01*
X141177305Y-42003300D01*
X141177624Y-42004350D01*
X141248196Y-42136380D01*
X141264873Y-42156701D01*
X141071601Y-42236757D01*
X140780391Y-42431337D01*
X140532737Y-42678991D01*
X140338157Y-42970201D01*
X140204128Y-43293777D01*
X140135800Y-43637282D01*
X140135800Y-43987518D01*
X140204128Y-44331023D01*
X140317402Y-44604492D01*
X140125177Y-44642728D01*
X139801601Y-44776757D01*
X139510391Y-44971337D01*
X139262737Y-45218991D01*
X139068157Y-45510201D01*
X138934128Y-45833777D01*
X138865800Y-46177282D01*
X138865800Y-46527518D01*
X138934128Y-46871023D01*
X138968176Y-46953222D01*
X138276629Y-47644770D01*
X136785902Y-47644770D01*
X136944863Y-47485809D01*
X137139443Y-47194599D01*
X137273472Y-46871023D01*
X137341800Y-46527518D01*
X137341800Y-46177282D01*
X137273472Y-45833777D01*
X137139443Y-45510201D01*
X136944863Y-45218991D01*
X136697209Y-44971337D01*
X136405999Y-44776757D01*
X136082423Y-44642728D01*
X135890198Y-44604492D01*
X136003472Y-44331023D01*
X136071800Y-43987518D01*
X136071800Y-43637282D01*
X136003472Y-43293777D01*
X135869443Y-42970201D01*
X135674863Y-42678991D01*
X135427209Y-42431337D01*
X135135999Y-42236757D01*
X134812423Y-42102728D01*
X134468918Y-42034400D01*
X134301725Y-42034400D01*
X134340588Y-41976238D01*
X134452598Y-41705821D01*
X134509700Y-41418748D01*
X134509700Y-41126052D01*
X134487308Y-41013476D01*
X135474900Y-41013476D01*
X135474900Y-41531324D01*
X135575927Y-42039222D01*
X135774099Y-42517651D01*
X136061800Y-42948226D01*
X136427974Y-43314400D01*
X136858549Y-43602101D01*
X137336978Y-43800273D01*
X137844876Y-43901300D01*
X138362724Y-43901300D01*
X138870622Y-43800273D01*
X139349051Y-43602101D01*
X139779626Y-43314400D01*
X140145800Y-42948226D01*
X140433501Y-42517651D01*
X140631673Y-42039222D01*
X140732700Y-41531324D01*
X140732700Y-41013476D01*
X140631673Y-40505578D01*
X140433501Y-40027149D01*
X140145800Y-39596574D01*
X139779626Y-39230400D01*
X139349051Y-38942699D01*
X138870622Y-38744527D01*
X138362724Y-38643500D01*
X137844876Y-38643500D01*
X137336978Y-38744527D01*
X136858549Y-38942699D01*
X136427974Y-39230400D01*
X136061800Y-39596574D01*
X135774099Y-40027149D01*
X135575927Y-40505578D01*
X135474900Y-41013476D01*
X134487308Y-41013476D01*
X134452598Y-40838979D01*
X134340588Y-40568562D01*
X134177974Y-40325194D01*
X133971006Y-40118226D01*
X133727638Y-39955612D01*
X133457221Y-39843602D01*
X133170148Y-39786500D01*
X132877452Y-39786500D01*
X132590379Y-39843602D01*
X132319962Y-39955612D01*
X132076594Y-40118226D01*
X131869626Y-40325194D01*
X131707012Y-40568562D01*
X131595002Y-40838979D01*
X131537900Y-41126052D01*
X131537900Y-41418748D01*
X131595002Y-41705821D01*
X131707012Y-41976238D01*
X131869626Y-42219606D01*
X132076594Y-42426574D01*
X132319962Y-42589188D01*
X132590379Y-42701198D01*
X132861822Y-42755191D01*
X132718157Y-42970201D01*
X132584128Y-43293777D01*
X132537398Y-43528700D01*
X131262771Y-43528700D01*
X131202597Y-43438643D01*
X131104639Y-43340685D01*
X131172337Y-43258194D01*
X131231302Y-43147880D01*
X131267612Y-43028182D01*
X131279872Y-42903700D01*
X131279872Y-41603700D01*
X131267612Y-41479218D01*
X131231302Y-41359520D01*
X131172337Y-41249206D01*
X131092985Y-41152515D01*
X130996294Y-41073163D01*
X130885980Y-41014198D01*
X130766282Y-40977888D01*
X130641800Y-40965628D01*
X129691800Y-40965628D01*
X129567318Y-40977888D01*
X129447620Y-41014198D01*
X129337306Y-41073163D01*
X129240615Y-41152515D01*
X129161263Y-41249206D01*
X129102298Y-41359520D01*
X129065988Y-41479218D01*
X129053728Y-41603700D01*
X129053728Y-42903700D01*
X129065988Y-43028182D01*
X129102298Y-43147880D01*
X129161263Y-43258194D01*
X129228961Y-43340685D01*
X129131003Y-43438643D01*
X128985068Y-43657051D01*
X128884546Y-43899732D01*
X128833300Y-44157362D01*
X128833300Y-44420038D01*
X128884546Y-44677668D01*
X128985068Y-44920349D01*
X129131003Y-45138757D01*
X129316743Y-45324497D01*
X129535151Y-45470432D01*
X129777832Y-45570954D01*
X130035462Y-45622200D01*
X130298138Y-45622200D01*
X130555768Y-45570954D01*
X130798449Y-45470432D01*
X131016857Y-45324497D01*
X131202597Y-45138757D01*
X131262771Y-45048700D01*
X133015628Y-45048700D01*
X133160391Y-45193463D01*
X133451601Y-45388043D01*
X133636310Y-45464552D01*
X133658826Y-45506676D01*
X133693321Y-45548708D01*
X133753799Y-45622401D01*
X133782803Y-45646204D01*
X133888176Y-45751577D01*
X133854128Y-45833777D01*
X133785800Y-46177282D01*
X133785800Y-46527518D01*
X133854128Y-46871023D01*
X133988157Y-47194599D01*
X134182737Y-47485809D01*
X134341698Y-47644770D01*
X124710731Y-47644770D01*
X126754432Y-45601070D01*
X126860662Y-45622200D01*
X127123338Y-45622200D01*
X127380968Y-45570954D01*
X127623649Y-45470432D01*
X127842057Y-45324497D01*
X128027797Y-45138757D01*
X128173732Y-44920349D01*
X128274254Y-44677668D01*
X128325500Y-44420038D01*
X128325500Y-44157362D01*
X128274254Y-43899732D01*
X128173732Y-43657051D01*
X128027797Y-43438643D01*
X127929839Y-43340685D01*
X127997537Y-43258194D01*
X128056502Y-43147880D01*
X128092812Y-43028182D01*
X128105072Y-42903700D01*
X128105072Y-41603700D01*
X128092812Y-41479218D01*
X128056502Y-41359520D01*
X127997537Y-41249206D01*
X127918185Y-41152515D01*
X127821494Y-41073163D01*
X127711180Y-41014198D01*
X127591482Y-40977888D01*
X127467000Y-40965628D01*
X126517000Y-40965628D01*
X126392518Y-40977888D01*
X126272820Y-41014198D01*
X126162506Y-41073163D01*
X126065815Y-41152515D01*
X125986463Y-41249206D01*
X125927498Y-41359520D01*
X125891188Y-41479218D01*
X125878928Y-41603700D01*
X125878928Y-42903700D01*
X125891188Y-43028182D01*
X125927498Y-43147880D01*
X125986463Y-43258194D01*
X126054161Y-43340685D01*
X125956203Y-43438643D01*
X125810268Y-43657051D01*
X125709746Y-43899732D01*
X125658500Y-44157362D01*
X125658500Y-44420038D01*
X125679630Y-44526268D01*
X123283315Y-46922584D01*
X123304672Y-46871023D01*
X123373000Y-46527518D01*
X123373000Y-46177282D01*
X123304672Y-45833777D01*
X123191398Y-45560308D01*
X123383623Y-45522072D01*
X123707199Y-45388043D01*
X123998409Y-45193463D01*
X124246063Y-44945809D01*
X124440643Y-44654599D01*
X124574672Y-44331023D01*
X124643000Y-43987518D01*
X124643000Y-43637282D01*
X124574672Y-43293777D01*
X124440643Y-42970201D01*
X124296978Y-42755191D01*
X124568421Y-42701198D01*
X124838838Y-42589188D01*
X125082206Y-42426574D01*
X125289174Y-42219606D01*
X125451788Y-41976238D01*
X125563798Y-41705821D01*
X125620900Y-41418748D01*
X125620900Y-41126052D01*
X125563798Y-40838979D01*
X125451788Y-40568562D01*
X125289174Y-40325194D01*
X125082206Y-40118226D01*
X124838838Y-39955612D01*
X124568421Y-39843602D01*
X124281348Y-39786500D01*
X123988652Y-39786500D01*
X123701579Y-39843602D01*
X123431162Y-39955612D01*
X123187794Y-40118226D01*
X122980826Y-40325194D01*
X122818212Y-40568562D01*
X122706202Y-40838979D01*
X122649100Y-41126052D01*
X122649100Y-41418748D01*
X122706202Y-41705821D01*
X122818212Y-41976238D01*
X122857075Y-42034400D01*
X122689882Y-42034400D01*
X122346377Y-42102728D01*
X122022801Y-42236757D01*
X121731591Y-42431337D01*
X121483937Y-42678991D01*
X121289357Y-42970201D01*
X121255309Y-43052400D01*
X120992826Y-43052400D01*
X121097000Y-42948226D01*
X121384701Y-42517651D01*
X121582873Y-42039222D01*
X121683900Y-41531324D01*
X121683900Y-41013476D01*
X121582873Y-40505578D01*
X121384701Y-40027149D01*
X121097000Y-39596574D01*
X120730826Y-39230400D01*
X120300251Y-38942699D01*
X119821822Y-38744527D01*
X119313924Y-38643500D01*
X118796076Y-38643500D01*
X118288178Y-38744527D01*
X117809749Y-38942699D01*
X117379174Y-39230400D01*
X117013000Y-39596574D01*
X116725299Y-40027149D01*
X116527127Y-40505578D01*
X116426100Y-41013476D01*
X116426100Y-41531324D01*
X116478618Y-41795351D01*
X116373917Y-41709425D01*
X116241888Y-41638853D01*
X116098627Y-41595396D01*
X115986974Y-41584399D01*
X115986963Y-41584399D01*
X115949641Y-41580723D01*
X115912319Y-41584399D01*
X115427950Y-41584399D01*
X115460900Y-41418748D01*
X115460900Y-41126052D01*
X115403798Y-40838979D01*
X115291788Y-40568562D01*
X115129174Y-40325194D01*
X114922206Y-40118226D01*
X114678838Y-39955612D01*
X114408421Y-39843602D01*
X114121348Y-39786500D01*
X113828652Y-39786500D01*
X113541579Y-39843602D01*
X113271162Y-39955612D01*
X113027794Y-40118226D01*
X112820826Y-40325194D01*
X112658212Y-40568562D01*
X112605360Y-40696159D01*
X112578806Y-40669605D01*
X112409288Y-40556337D01*
X112220930Y-40478316D01*
X112020971Y-40438542D01*
X111817093Y-40438542D01*
X111617134Y-40478316D01*
X111488404Y-40531638D01*
X111488404Y-39831922D01*
X111492080Y-39794599D01*
X111488404Y-39757276D01*
X111488404Y-39757267D01*
X111477407Y-39645614D01*
X111433950Y-39502353D01*
X111363378Y-39370324D01*
X111268405Y-39254599D01*
X111239407Y-39230801D01*
X109720951Y-37712346D01*
X109746462Y-37686835D01*
X109899347Y-37458027D01*
X110004656Y-37203790D01*
X110058342Y-36933892D01*
X110058342Y-36658708D01*
X110004656Y-36388810D01*
X109899347Y-36134573D01*
X109789517Y-35970200D01*
X125655428Y-35970200D01*
X125655428Y-37367200D01*
X125667688Y-37491682D01*
X125703998Y-37611380D01*
X125762963Y-37721694D01*
X125842315Y-37818385D01*
X125908366Y-37872591D01*
X125891188Y-37929218D01*
X125878928Y-38053700D01*
X125878928Y-39353700D01*
X125891188Y-39478182D01*
X125927498Y-39597880D01*
X125986463Y-39708194D01*
X126065815Y-39804885D01*
X126162506Y-39884237D01*
X126272820Y-39943202D01*
X126392518Y-39979512D01*
X126517000Y-39991772D01*
X127467000Y-39991772D01*
X127591482Y-39979512D01*
X127711180Y-39943202D01*
X127821494Y-39884237D01*
X127918185Y-39804885D01*
X127997537Y-39708194D01*
X128056502Y-39597880D01*
X128092812Y-39478182D01*
X128105072Y-39353700D01*
X128105072Y-38053700D01*
X128092812Y-37929218D01*
X128075634Y-37872591D01*
X128141685Y-37818385D01*
X128221037Y-37721694D01*
X128280002Y-37611380D01*
X128316312Y-37491682D01*
X128322515Y-37428700D01*
X128836285Y-37428700D01*
X128842488Y-37491682D01*
X128878798Y-37611380D01*
X128937763Y-37721694D01*
X129017115Y-37818385D01*
X129083166Y-37872591D01*
X129065988Y-37929218D01*
X129053728Y-38053700D01*
X129053728Y-39353700D01*
X129065988Y-39478182D01*
X129102298Y-39597880D01*
X129161263Y-39708194D01*
X129240615Y-39804885D01*
X129337306Y-39884237D01*
X129447620Y-39943202D01*
X129567318Y-39979512D01*
X129691800Y-39991772D01*
X130641800Y-39991772D01*
X130766282Y-39979512D01*
X130885980Y-39943202D01*
X130996294Y-39884237D01*
X131092985Y-39804885D01*
X131172337Y-39708194D01*
X131231302Y-39597880D01*
X131267612Y-39478182D01*
X131279872Y-39353700D01*
X131279872Y-38053700D01*
X131267612Y-37929218D01*
X131250434Y-37872591D01*
X131316485Y-37818385D01*
X131395837Y-37721694D01*
X131454802Y-37611380D01*
X131491112Y-37491682D01*
X131503372Y-37367200D01*
X131503372Y-35970200D01*
X131491112Y-35845718D01*
X131454802Y-35726020D01*
X131395837Y-35615706D01*
X131316485Y-35519015D01*
X131219794Y-35439663D01*
X131109480Y-35380698D01*
X130989782Y-35344388D01*
X130865300Y-35332128D01*
X129468300Y-35332128D01*
X129343818Y-35344388D01*
X129224120Y-35380698D01*
X129113806Y-35439663D01*
X129017115Y-35519015D01*
X128937763Y-35615706D01*
X128878798Y-35726020D01*
X128842488Y-35845718D01*
X128836285Y-35908700D01*
X128322515Y-35908700D01*
X128316312Y-35845718D01*
X128280002Y-35726020D01*
X128221037Y-35615706D01*
X128141685Y-35519015D01*
X128044994Y-35439663D01*
X127934680Y-35380698D01*
X127814982Y-35344388D01*
X127690500Y-35332128D01*
X126293500Y-35332128D01*
X126169018Y-35344388D01*
X126049320Y-35380698D01*
X125939006Y-35439663D01*
X125842315Y-35519015D01*
X125762963Y-35615706D01*
X125703998Y-35726020D01*
X125667688Y-35845718D01*
X125655428Y-35970200D01*
X109789517Y-35970200D01*
X109746462Y-35905765D01*
X109689181Y-35848484D01*
X110844768Y-34692898D01*
X117375312Y-34692898D01*
X117411298Y-34703814D01*
G36*
X145580783Y-13395083D02*
G01*
X145901755Y-13491989D01*
X146197793Y-13649396D01*
X146457614Y-13861302D01*
X146671333Y-14119645D01*
X146830801Y-14414575D01*
X146929946Y-14734859D01*
X146968200Y-15098814D01*
X146968200Y-17781278D01*
X145548025Y-17781278D01*
X145423543Y-17793538D01*
X145303845Y-17829848D01*
X145193531Y-17888813D01*
X145096840Y-17968165D01*
X145017488Y-18064856D01*
X144958523Y-18175170D01*
X144922213Y-18294868D01*
X144909953Y-18419350D01*
X144909953Y-18657249D01*
X144883024Y-18679349D01*
X144859225Y-18708348D01*
X144483774Y-19083800D01*
X131462486Y-19083800D01*
X131454802Y-19058470D01*
X131395837Y-18948156D01*
X131316485Y-18851465D01*
X131219794Y-18772113D01*
X131109480Y-18713148D01*
X130989782Y-18676838D01*
X130865300Y-18664578D01*
X129468300Y-18664578D01*
X129343818Y-18676838D01*
X129224120Y-18713148D01*
X129113806Y-18772113D01*
X129017115Y-18851465D01*
X128937763Y-18948156D01*
X128878798Y-19058470D01*
X128842488Y-19178168D01*
X128836285Y-19241150D01*
X128322515Y-19241150D01*
X128316312Y-19178168D01*
X128280002Y-19058470D01*
X128221037Y-18948156D01*
X128141685Y-18851465D01*
X128044994Y-18772113D01*
X127934680Y-18713148D01*
X127814982Y-18676838D01*
X127690500Y-18664578D01*
X126293500Y-18664578D01*
X126169018Y-18676838D01*
X126049320Y-18713148D01*
X125939006Y-18772113D01*
X125842315Y-18851465D01*
X125762963Y-18948156D01*
X125703998Y-19058470D01*
X125667688Y-19178168D01*
X125655428Y-19302650D01*
X125655428Y-20699650D01*
X125667688Y-20824132D01*
X125703998Y-20943830D01*
X125762963Y-21054144D01*
X125842315Y-21150835D01*
X125908366Y-21205041D01*
X125891188Y-21261668D01*
X125878928Y-21386150D01*
X125878928Y-22686150D01*
X125891188Y-22810632D01*
X125927498Y-22930330D01*
X125986463Y-23040644D01*
X126065815Y-23137335D01*
X126162506Y-23216687D01*
X126232788Y-23254254D01*
X126242997Y-23357911D01*
X126274367Y-23461326D01*
X126286454Y-23501172D01*
X126357026Y-23633202D01*
X126388887Y-23672024D01*
X126451999Y-23748927D01*
X126481003Y-23772730D01*
X127006351Y-24298078D01*
X126517000Y-24298078D01*
X126392518Y-24310338D01*
X126272820Y-24346648D01*
X126162506Y-24405613D01*
X126065815Y-24484965D01*
X125986463Y-24581656D01*
X125927498Y-24691970D01*
X125891188Y-24811668D01*
X125878928Y-24936150D01*
X125878928Y-26236150D01*
X125891188Y-26360632D01*
X125927498Y-26480330D01*
X125986463Y-26590644D01*
X126054161Y-26673135D01*
X125956203Y-26771093D01*
X125896029Y-26861150D01*
X123487414Y-26861150D01*
X123450091Y-26857474D01*
X123412768Y-26861150D01*
X123412759Y-26861150D01*
X123321610Y-26870128D01*
X123304672Y-26784977D01*
X123191398Y-26511508D01*
X123383623Y-26473272D01*
X123707199Y-26339243D01*
X123998409Y-26144663D01*
X124246063Y-25897009D01*
X124440643Y-25605799D01*
X124574672Y-25282223D01*
X124643000Y-24938718D01*
X124643000Y-24588482D01*
X124574672Y-24244977D01*
X124440643Y-23921401D01*
X124296978Y-23706391D01*
X124568421Y-23652398D01*
X124838838Y-23540388D01*
X125082206Y-23377774D01*
X125289174Y-23170806D01*
X125451788Y-22927438D01*
X125563798Y-22657021D01*
X125620900Y-22369948D01*
X125620900Y-22077252D01*
X125563798Y-21790179D01*
X125451788Y-21519762D01*
X125289174Y-21276394D01*
X125082206Y-21069426D01*
X124838838Y-20906812D01*
X124568421Y-20794802D01*
X124281348Y-20737700D01*
X123988652Y-20737700D01*
X123701579Y-20794802D01*
X123431162Y-20906812D01*
X123187794Y-21069426D01*
X122980826Y-21276394D01*
X122818212Y-21519762D01*
X122706202Y-21790179D01*
X122649100Y-22077252D01*
X122649100Y-22369948D01*
X122706202Y-22657021D01*
X122818212Y-22927438D01*
X122857075Y-22985600D01*
X122689882Y-22985600D01*
X122346377Y-23053928D01*
X122022801Y-23187957D01*
X121731591Y-23382537D01*
X121483937Y-23630191D01*
X121289357Y-23921401D01*
X121155328Y-24244977D01*
X121087000Y-24588482D01*
X121087000Y-24938718D01*
X121155328Y-25282223D01*
X121268602Y-25555692D01*
X121076377Y-25593928D01*
X120752801Y-25727957D01*
X120461591Y-25922537D01*
X120213937Y-26170191D01*
X120019357Y-26461401D01*
X119911479Y-26721843D01*
X119846634Y-26668626D01*
X119714605Y-26598054D01*
X119571344Y-26554597D01*
X119459691Y-26543600D01*
X119459680Y-26543600D01*
X119422358Y-26539924D01*
X119385036Y-26543600D01*
X118124691Y-26543600D01*
X118090643Y-26461401D01*
X117896063Y-26170191D01*
X117648409Y-25922537D01*
X117357199Y-25727957D01*
X117172490Y-25651448D01*
X117149974Y-25609324D01*
X117055001Y-25493599D01*
X117026004Y-25469802D01*
X116920624Y-25364422D01*
X116954672Y-25282223D01*
X117023000Y-24938718D01*
X117023000Y-24588482D01*
X116954672Y-24244977D01*
X116820643Y-23921401D01*
X116626063Y-23630191D01*
X116378409Y-23382537D01*
X116087199Y-23187957D01*
X115763623Y-23053928D01*
X115420118Y-22985600D01*
X115252925Y-22985600D01*
X115291788Y-22927438D01*
X115403798Y-22657021D01*
X115460900Y-22369948D01*
X115460900Y-22077252D01*
X115438508Y-21964676D01*
X116426100Y-21964676D01*
X116426100Y-22482524D01*
X116527127Y-22990422D01*
X116725299Y-23468851D01*
X117013000Y-23899426D01*
X117379174Y-24265600D01*
X117809749Y-24553301D01*
X118288178Y-24751473D01*
X118796076Y-24852500D01*
X119313924Y-24852500D01*
X119821822Y-24751473D01*
X120300251Y-24553301D01*
X120730826Y-24265600D01*
X121097000Y-23899426D01*
X121384701Y-23468851D01*
X121582873Y-22990422D01*
X121683900Y-22482524D01*
X121683900Y-21964676D01*
X121582873Y-21456778D01*
X121384701Y-20978349D01*
X121097000Y-20547774D01*
X120730826Y-20181600D01*
X120300251Y-19893899D01*
X119821822Y-19695727D01*
X119313924Y-19594700D01*
X118796076Y-19594700D01*
X118288178Y-19695727D01*
X117809749Y-19893899D01*
X117379174Y-20181600D01*
X117013000Y-20547774D01*
X116725299Y-20978349D01*
X116527127Y-21456778D01*
X116426100Y-21964676D01*
X115438508Y-21964676D01*
X115403798Y-21790179D01*
X115291788Y-21519762D01*
X115129174Y-21276394D01*
X114922206Y-21069426D01*
X114678838Y-20906812D01*
X114408421Y-20794802D01*
X114121348Y-20737700D01*
X113828652Y-20737700D01*
X113541579Y-20794802D01*
X113271162Y-20906812D01*
X113027794Y-21069426D01*
X112820826Y-21276394D01*
X112658212Y-21519762D01*
X112546202Y-21790179D01*
X112489100Y-22077252D01*
X112489100Y-22369948D01*
X112546202Y-22657021D01*
X112658212Y-22927438D01*
X112820826Y-23170806D01*
X113027794Y-23377774D01*
X113271162Y-23540388D01*
X113541579Y-23652398D01*
X113813022Y-23706391D01*
X113669357Y-23921401D01*
X113535328Y-24244977D01*
X113467000Y-24588482D01*
X113467000Y-24938718D01*
X113535328Y-25282223D01*
X113669357Y-25605799D01*
X113863937Y-25897009D01*
X114111591Y-26144663D01*
X114402801Y-26339243D01*
X114726377Y-26473272D01*
X114918602Y-26511508D01*
X114805328Y-26784977D01*
X114737000Y-27128482D01*
X114737000Y-27478718D01*
X114805328Y-27822223D01*
X114939357Y-28145799D01*
X115133937Y-28437009D01*
X115381591Y-28684663D01*
X115462887Y-28738983D01*
X115426456Y-28763325D01*
X115282293Y-28907488D01*
X115169025Y-29077006D01*
X115091004Y-29265364D01*
X115051230Y-29465323D01*
X115051230Y-29669201D01*
X115091004Y-29869160D01*
X115169025Y-30057518D01*
X115282293Y-30227036D01*
X115426456Y-30371199D01*
X115595974Y-30484467D01*
X115784332Y-30562488D01*
X115868095Y-30579149D01*
X115884756Y-30662912D01*
X115962777Y-30851270D01*
X116076045Y-31020788D01*
X116220208Y-31164951D01*
X116389726Y-31278219D01*
X116578084Y-31356240D01*
X116656310Y-31371800D01*
X116672258Y-31451977D01*
X116750279Y-31640335D01*
X116863547Y-31809853D01*
X116876559Y-31822865D01*
X114058809Y-31822865D01*
X109752997Y-27517054D01*
X109899347Y-27298027D01*
X110004656Y-27043790D01*
X110058342Y-26773892D01*
X110058342Y-26498708D01*
X110004656Y-26228810D01*
X109899347Y-25974573D01*
X109746462Y-25745765D01*
X109551877Y-25551180D01*
X109323069Y-25398295D01*
X109251399Y-25368608D01*
X109264365Y-25363936D01*
X109380322Y-25301956D01*
X109447302Y-25061865D01*
X108661342Y-24275905D01*
X108647200Y-24290048D01*
X108467595Y-24110443D01*
X108481737Y-24096300D01*
X108840947Y-24096300D01*
X109626907Y-24882260D01*
X109866998Y-24815280D01*
X109984098Y-24566252D01*
X110050365Y-24299165D01*
X110063252Y-24024283D01*
X110022264Y-23752167D01*
X109928978Y-23493277D01*
X109866998Y-23377320D01*
X109626907Y-23310340D01*
X108840947Y-24096300D01*
X108481737Y-24096300D01*
X108467595Y-24082158D01*
X108647200Y-23902553D01*
X108661342Y-23916695D01*
X109447302Y-23130735D01*
X109380322Y-22890644D01*
X109249698Y-22829221D01*
X109264365Y-22823936D01*
X109380322Y-22761956D01*
X109447302Y-22521865D01*
X108661342Y-21735905D01*
X108647200Y-21750048D01*
X108467595Y-21570443D01*
X108481737Y-21556300D01*
X108840947Y-21556300D01*
X109626907Y-22342260D01*
X109866998Y-22275280D01*
X109984098Y-22026252D01*
X110050365Y-21759165D01*
X110063252Y-21484283D01*
X110022264Y-21212167D01*
X109928978Y-20953277D01*
X109866998Y-20837320D01*
X109626907Y-20770340D01*
X108840947Y-21556300D01*
X108481737Y-21556300D01*
X107695777Y-20770340D01*
X107667317Y-20778280D01*
X107354942Y-20465905D01*
X107340800Y-20480048D01*
X107161195Y-20300443D01*
X107175337Y-20286300D01*
X107161195Y-20272158D01*
X107340800Y-20092553D01*
X107354942Y-20106695D01*
X107369085Y-20092553D01*
X107548690Y-20272158D01*
X107534547Y-20286300D01*
X108320507Y-21072260D01*
X108348967Y-21064320D01*
X108661342Y-21376695D01*
X109447302Y-20590735D01*
X109380322Y-20350644D01*
X109244582Y-20286815D01*
X109323069Y-20254305D01*
X109551877Y-20101420D01*
X109746462Y-19906835D01*
X109899347Y-19678027D01*
X110004656Y-19423790D01*
X110058342Y-19153892D01*
X110058342Y-18878708D01*
X110004656Y-18608810D01*
X109899347Y-18354573D01*
X109746462Y-18125765D01*
X109551877Y-17931180D01*
X109323069Y-17778295D01*
X109245827Y-17746300D01*
X109323069Y-17714305D01*
X109551877Y-17561420D01*
X109746462Y-17366835D01*
X109899347Y-17138027D01*
X110004656Y-16883790D01*
X110058342Y-16613892D01*
X110058342Y-16338708D01*
X110004656Y-16068810D01*
X109899347Y-15814573D01*
X109746462Y-15585765D01*
X109551877Y-15391180D01*
X109323069Y-15238295D01*
X109068832Y-15132986D01*
X108798934Y-15079300D01*
X108523750Y-15079300D01*
X108253852Y-15132986D01*
X107999615Y-15238295D01*
X107770807Y-15391180D01*
X107576222Y-15585765D01*
X107489001Y-15716300D01*
X107053502Y-15716300D01*
X107016179Y-15712624D01*
X106978856Y-15716300D01*
X106978847Y-15716300D01*
X106867194Y-15727297D01*
X106723933Y-15770754D01*
X106591904Y-15841326D01*
X106476179Y-15936299D01*
X106460115Y-15955873D01*
X106367007Y-15816526D01*
X106222844Y-15672363D01*
X106053326Y-15559095D01*
X105864968Y-15481074D01*
X105665009Y-15441300D01*
X105461131Y-15441300D01*
X105261172Y-15481074D01*
X105072814Y-15559095D01*
X104903296Y-15672363D01*
X104859359Y-15716300D01*
X104065725Y-15716300D01*
X104304752Y-15556587D01*
X104532487Y-15328852D01*
X104711418Y-15061063D01*
X104834668Y-14763512D01*
X104897500Y-14447633D01*
X104897500Y-14125567D01*
X104834668Y-13809688D01*
X104711418Y-13512137D01*
X104609229Y-13359200D01*
X145214821Y-13359200D01*
X145580783Y-13395083D01*
X145580783Y-13395083D01*
G37*
X145580783Y-13395083D02*
X145901755Y-13491989D01*
X146197793Y-13649396D01*
X146457614Y-13861302D01*
X146671333Y-14119645D01*
X146830801Y-14414575D01*
X146929946Y-14734859D01*
X146968200Y-15098814D01*
X146968200Y-17781278D01*
X145548025Y-17781278D01*
X145423543Y-17793538D01*
X145303845Y-17829848D01*
X145193531Y-17888813D01*
X145096840Y-17968165D01*
X145017488Y-18064856D01*
X144958523Y-18175170D01*
X144922213Y-18294868D01*
X144909953Y-18419350D01*
X144909953Y-18657249D01*
X144883024Y-18679349D01*
X144859225Y-18708348D01*
X144483774Y-19083800D01*
X131462486Y-19083800D01*
X131454802Y-19058470D01*
X131395837Y-18948156D01*
X131316485Y-18851465D01*
X131219794Y-18772113D01*
X131109480Y-18713148D01*
X130989782Y-18676838D01*
X130865300Y-18664578D01*
X129468300Y-18664578D01*
X129343818Y-18676838D01*
X129224120Y-18713148D01*
X129113806Y-18772113D01*
X129017115Y-18851465D01*
X128937763Y-18948156D01*
X128878798Y-19058470D01*
X128842488Y-19178168D01*
X128836285Y-19241150D01*
X128322515Y-19241150D01*
X128316312Y-19178168D01*
X128280002Y-19058470D01*
X128221037Y-18948156D01*
X128141685Y-18851465D01*
X128044994Y-18772113D01*
X127934680Y-18713148D01*
X127814982Y-18676838D01*
X127690500Y-18664578D01*
X126293500Y-18664578D01*
X126169018Y-18676838D01*
X126049320Y-18713148D01*
X125939006Y-18772113D01*
X125842315Y-18851465D01*
X125762963Y-18948156D01*
X125703998Y-19058470D01*
X125667688Y-19178168D01*
X125655428Y-19302650D01*
X125655428Y-20699650D01*
X125667688Y-20824132D01*
X125703998Y-20943830D01*
X125762963Y-21054144D01*
X125842315Y-21150835D01*
X125908366Y-21205041D01*
X125891188Y-21261668D01*
X125878928Y-21386150D01*
X125878928Y-22686150D01*
X125891188Y-22810632D01*
X125927498Y-22930330D01*
X125986463Y-23040644D01*
X126065815Y-23137335D01*
X126162506Y-23216687D01*
X126232788Y-23254254D01*
X126242997Y-23357911D01*
X126274367Y-23461326D01*
X126286454Y-23501172D01*
X126357026Y-23633202D01*
X126388887Y-23672024D01*
X126451999Y-23748927D01*
X126481003Y-23772730D01*
X127006351Y-24298078D01*
X126517000Y-24298078D01*
X126392518Y-24310338D01*
X126272820Y-24346648D01*
X126162506Y-24405613D01*
X126065815Y-24484965D01*
X125986463Y-24581656D01*
X125927498Y-24691970D01*
X125891188Y-24811668D01*
X125878928Y-24936150D01*
X125878928Y-26236150D01*
X125891188Y-26360632D01*
X125927498Y-26480330D01*
X125986463Y-26590644D01*
X126054161Y-26673135D01*
X125956203Y-26771093D01*
X125896029Y-26861150D01*
X123487414Y-26861150D01*
X123450091Y-26857474D01*
X123412768Y-26861150D01*
X123412759Y-26861150D01*
X123321610Y-26870128D01*
X123304672Y-26784977D01*
X123191398Y-26511508D01*
X123383623Y-26473272D01*
X123707199Y-26339243D01*
X123998409Y-26144663D01*
X124246063Y-25897009D01*
X124440643Y-25605799D01*
X124574672Y-25282223D01*
X124643000Y-24938718D01*
X124643000Y-24588482D01*
X124574672Y-24244977D01*
X124440643Y-23921401D01*
X124296978Y-23706391D01*
X124568421Y-23652398D01*
X124838838Y-23540388D01*
X125082206Y-23377774D01*
X125289174Y-23170806D01*
X125451788Y-22927438D01*
X125563798Y-22657021D01*
X125620900Y-22369948D01*
X125620900Y-22077252D01*
X125563798Y-21790179D01*
X125451788Y-21519762D01*
X125289174Y-21276394D01*
X125082206Y-21069426D01*
X124838838Y-20906812D01*
X124568421Y-20794802D01*
X124281348Y-20737700D01*
X123988652Y-20737700D01*
X123701579Y-20794802D01*
X123431162Y-20906812D01*
X123187794Y-21069426D01*
X122980826Y-21276394D01*
X122818212Y-21519762D01*
X122706202Y-21790179D01*
X122649100Y-22077252D01*
X122649100Y-22369948D01*
X122706202Y-22657021D01*
X122818212Y-22927438D01*
X122857075Y-22985600D01*
X122689882Y-22985600D01*
X122346377Y-23053928D01*
X122022801Y-23187957D01*
X121731591Y-23382537D01*
X121483937Y-23630191D01*
X121289357Y-23921401D01*
X121155328Y-24244977D01*
X121087000Y-24588482D01*
X121087000Y-24938718D01*
X121155328Y-25282223D01*
X121268602Y-25555692D01*
X121076377Y-25593928D01*
X120752801Y-25727957D01*
X120461591Y-25922537D01*
X120213937Y-26170191D01*
X120019357Y-26461401D01*
X119911479Y-26721843D01*
X119846634Y-26668626D01*
X119714605Y-26598054D01*
X119571344Y-26554597D01*
X119459691Y-26543600D01*
X119459680Y-26543600D01*
X119422358Y-26539924D01*
X119385036Y-26543600D01*
X118124691Y-26543600D01*
X118090643Y-26461401D01*
X117896063Y-26170191D01*
X117648409Y-25922537D01*
X117357199Y-25727957D01*
X117172490Y-25651448D01*
X117149974Y-25609324D01*
X117055001Y-25493599D01*
X117026004Y-25469802D01*
X116920624Y-25364422D01*
X116954672Y-25282223D01*
X117023000Y-24938718D01*
X117023000Y-24588482D01*
X116954672Y-24244977D01*
X116820643Y-23921401D01*
X116626063Y-23630191D01*
X116378409Y-23382537D01*
X116087199Y-23187957D01*
X115763623Y-23053928D01*
X115420118Y-22985600D01*
X115252925Y-22985600D01*
X115291788Y-22927438D01*
X115403798Y-22657021D01*
X115460900Y-22369948D01*
X115460900Y-22077252D01*
X115438508Y-21964676D01*
X116426100Y-21964676D01*
X116426100Y-22482524D01*
X116527127Y-22990422D01*
X116725299Y-23468851D01*
X117013000Y-23899426D01*
X117379174Y-24265600D01*
X117809749Y-24553301D01*
X118288178Y-24751473D01*
X118796076Y-24852500D01*
X119313924Y-24852500D01*
X119821822Y-24751473D01*
X120300251Y-24553301D01*
X120730826Y-24265600D01*
X121097000Y-23899426D01*
X121384701Y-23468851D01*
X121582873Y-22990422D01*
X121683900Y-22482524D01*
X121683900Y-21964676D01*
X121582873Y-21456778D01*
X121384701Y-20978349D01*
X121097000Y-20547774D01*
X120730826Y-20181600D01*
X120300251Y-19893899D01*
X119821822Y-19695727D01*
X119313924Y-19594700D01*
X118796076Y-19594700D01*
X118288178Y-19695727D01*
X117809749Y-19893899D01*
X117379174Y-20181600D01*
X117013000Y-20547774D01*
X116725299Y-20978349D01*
X116527127Y-21456778D01*
X116426100Y-21964676D01*
X115438508Y-21964676D01*
X115403798Y-21790179D01*
X115291788Y-21519762D01*
X115129174Y-21276394D01*
X114922206Y-21069426D01*
X114678838Y-20906812D01*
X114408421Y-20794802D01*
X114121348Y-20737700D01*
X113828652Y-20737700D01*
X113541579Y-20794802D01*
X113271162Y-20906812D01*
X113027794Y-21069426D01*
X112820826Y-21276394D01*
X112658212Y-21519762D01*
X112546202Y-21790179D01*
X112489100Y-22077252D01*
X112489100Y-22369948D01*
X112546202Y-22657021D01*
X112658212Y-22927438D01*
X112820826Y-23170806D01*
X113027794Y-23377774D01*
X113271162Y-23540388D01*
X113541579Y-23652398D01*
X113813022Y-23706391D01*
X113669357Y-23921401D01*
X113535328Y-24244977D01*
X113467000Y-24588482D01*
X113467000Y-24938718D01*
X113535328Y-25282223D01*
X113669357Y-25605799D01*
X113863937Y-25897009D01*
X114111591Y-26144663D01*
X114402801Y-26339243D01*
X114726377Y-26473272D01*
X114918602Y-26511508D01*
X114805328Y-26784977D01*
X114737000Y-27128482D01*
X114737000Y-27478718D01*
X114805328Y-27822223D01*
X114939357Y-28145799D01*
X115133937Y-28437009D01*
X115381591Y-28684663D01*
X115462887Y-28738983D01*
X115426456Y-28763325D01*
X115282293Y-28907488D01*
X115169025Y-29077006D01*
X115091004Y-29265364D01*
X115051230Y-29465323D01*
X115051230Y-29669201D01*
X115091004Y-29869160D01*
X115169025Y-30057518D01*
X115282293Y-30227036D01*
X115426456Y-30371199D01*
X115595974Y-30484467D01*
X115784332Y-30562488D01*
X115868095Y-30579149D01*
X115884756Y-30662912D01*
X115962777Y-30851270D01*
X116076045Y-31020788D01*
X116220208Y-31164951D01*
X116389726Y-31278219D01*
X116578084Y-31356240D01*
X116656310Y-31371800D01*
X116672258Y-31451977D01*
X116750279Y-31640335D01*
X116863547Y-31809853D01*
X116876559Y-31822865D01*
X114058809Y-31822865D01*
X109752997Y-27517054D01*
X109899347Y-27298027D01*
X110004656Y-27043790D01*
X110058342Y-26773892D01*
X110058342Y-26498708D01*
X110004656Y-26228810D01*
X109899347Y-25974573D01*
X109746462Y-25745765D01*
X109551877Y-25551180D01*
X109323069Y-25398295D01*
X109251399Y-25368608D01*
X109264365Y-25363936D01*
X109380322Y-25301956D01*
X109447302Y-25061865D01*
X108661342Y-24275905D01*
X108647200Y-24290048D01*
X108467595Y-24110443D01*
X108481737Y-24096300D01*
X108840947Y-24096300D01*
X109626907Y-24882260D01*
X109866998Y-24815280D01*
X109984098Y-24566252D01*
X110050365Y-24299165D01*
X110063252Y-24024283D01*
X110022264Y-23752167D01*
X109928978Y-23493277D01*
X109866998Y-23377320D01*
X109626907Y-23310340D01*
X108840947Y-24096300D01*
X108481737Y-24096300D01*
X108467595Y-24082158D01*
X108647200Y-23902553D01*
X108661342Y-23916695D01*
X109447302Y-23130735D01*
X109380322Y-22890644D01*
X109249698Y-22829221D01*
X109264365Y-22823936D01*
X109380322Y-22761956D01*
X109447302Y-22521865D01*
X108661342Y-21735905D01*
X108647200Y-21750048D01*
X108467595Y-21570443D01*
X108481737Y-21556300D01*
X108840947Y-21556300D01*
X109626907Y-22342260D01*
X109866998Y-22275280D01*
X109984098Y-22026252D01*
X110050365Y-21759165D01*
X110063252Y-21484283D01*
X110022264Y-21212167D01*
X109928978Y-20953277D01*
X109866998Y-20837320D01*
X109626907Y-20770340D01*
X108840947Y-21556300D01*
X108481737Y-21556300D01*
X107695777Y-20770340D01*
X107667317Y-20778280D01*
X107354942Y-20465905D01*
X107340800Y-20480048D01*
X107161195Y-20300443D01*
X107175337Y-20286300D01*
X107161195Y-20272158D01*
X107340800Y-20092553D01*
X107354942Y-20106695D01*
X107369085Y-20092553D01*
X107548690Y-20272158D01*
X107534547Y-20286300D01*
X108320507Y-21072260D01*
X108348967Y-21064320D01*
X108661342Y-21376695D01*
X109447302Y-20590735D01*
X109380322Y-20350644D01*
X109244582Y-20286815D01*
X109323069Y-20254305D01*
X109551877Y-20101420D01*
X109746462Y-19906835D01*
X109899347Y-19678027D01*
X110004656Y-19423790D01*
X110058342Y-19153892D01*
X110058342Y-18878708D01*
X110004656Y-18608810D01*
X109899347Y-18354573D01*
X109746462Y-18125765D01*
X109551877Y-17931180D01*
X109323069Y-17778295D01*
X109245827Y-17746300D01*
X109323069Y-17714305D01*
X109551877Y-17561420D01*
X109746462Y-17366835D01*
X109899347Y-17138027D01*
X110004656Y-16883790D01*
X110058342Y-16613892D01*
X110058342Y-16338708D01*
X110004656Y-16068810D01*
X109899347Y-15814573D01*
X109746462Y-15585765D01*
X109551877Y-15391180D01*
X109323069Y-15238295D01*
X109068832Y-15132986D01*
X108798934Y-15079300D01*
X108523750Y-15079300D01*
X108253852Y-15132986D01*
X107999615Y-15238295D01*
X107770807Y-15391180D01*
X107576222Y-15585765D01*
X107489001Y-15716300D01*
X107053502Y-15716300D01*
X107016179Y-15712624D01*
X106978856Y-15716300D01*
X106978847Y-15716300D01*
X106867194Y-15727297D01*
X106723933Y-15770754D01*
X106591904Y-15841326D01*
X106476179Y-15936299D01*
X106460115Y-15955873D01*
X106367007Y-15816526D01*
X106222844Y-15672363D01*
X106053326Y-15559095D01*
X105864968Y-15481074D01*
X105665009Y-15441300D01*
X105461131Y-15441300D01*
X105261172Y-15481074D01*
X105072814Y-15559095D01*
X104903296Y-15672363D01*
X104859359Y-15716300D01*
X104065725Y-15716300D01*
X104304752Y-15556587D01*
X104532487Y-15328852D01*
X104711418Y-15061063D01*
X104834668Y-14763512D01*
X104897500Y-14447633D01*
X104897500Y-14125567D01*
X104834668Y-13809688D01*
X104711418Y-13512137D01*
X104609229Y-13359200D01*
X145214821Y-13359200D01*
X145580783Y-13395083D01*
G36*
X92308690Y-25352158D02*
G01*
X92294547Y-25366300D01*
X92308690Y-25380443D01*
X92129085Y-25560048D01*
X92114942Y-25545905D01*
X92100800Y-25560048D01*
X91921195Y-25380443D01*
X91935337Y-25366300D01*
X91921195Y-25352158D01*
X92100800Y-25172553D01*
X92114942Y-25186695D01*
X92129085Y-25172553D01*
X92308690Y-25352158D01*
X92308690Y-25352158D01*
G37*
X92308690Y-25352158D02*
X92294547Y-25366300D01*
X92308690Y-25380443D01*
X92129085Y-25560048D01*
X92114942Y-25545905D01*
X92100800Y-25560048D01*
X91921195Y-25380443D01*
X91935337Y-25366300D01*
X91921195Y-25352158D01*
X92100800Y-25172553D01*
X92114942Y-25186695D01*
X92129085Y-25172553D01*
X92308690Y-25352158D01*
G36*
X105379560Y-22360237D02*
G01*
X105549078Y-22473505D01*
X105737436Y-22551526D01*
X105937395Y-22591300D01*
X105977318Y-22591300D01*
X105957942Y-22688708D01*
X105957942Y-22963892D01*
X105977318Y-23061300D01*
X105778651Y-23061300D01*
X105578692Y-23101074D01*
X105390334Y-23179095D01*
X105220816Y-23292363D01*
X105176879Y-23336300D01*
X99611137Y-23336300D01*
X99567200Y-23292363D01*
X99397682Y-23179095D01*
X99209324Y-23101074D01*
X99009365Y-23061300D01*
X98805487Y-23061300D01*
X98605528Y-23101074D01*
X98417170Y-23179095D01*
X98247652Y-23292363D01*
X98203715Y-23336300D01*
X94613683Y-23336300D01*
X94526462Y-23205765D01*
X94331877Y-23011180D01*
X94103069Y-22858295D01*
X94025827Y-22826300D01*
X94103069Y-22794305D01*
X94331877Y-22641420D01*
X94526462Y-22446835D01*
X94613683Y-22316300D01*
X105335623Y-22316300D01*
X105379560Y-22360237D01*
X105379560Y-22360237D01*
G37*
X105379560Y-22360237D02*
X105549078Y-22473505D01*
X105737436Y-22551526D01*
X105937395Y-22591300D01*
X105977318Y-22591300D01*
X105957942Y-22688708D01*
X105957942Y-22963892D01*
X105977318Y-23061300D01*
X105778651Y-23061300D01*
X105578692Y-23101074D01*
X105390334Y-23179095D01*
X105220816Y-23292363D01*
X105176879Y-23336300D01*
X99611137Y-23336300D01*
X99567200Y-23292363D01*
X99397682Y-23179095D01*
X99209324Y-23101074D01*
X99009365Y-23061300D01*
X98805487Y-23061300D01*
X98605528Y-23101074D01*
X98417170Y-23179095D01*
X98247652Y-23292363D01*
X98203715Y-23336300D01*
X94613683Y-23336300D01*
X94526462Y-23205765D01*
X94331877Y-23011180D01*
X94103069Y-22858295D01*
X94025827Y-22826300D01*
X94103069Y-22794305D01*
X94331877Y-22641420D01*
X94526462Y-22446835D01*
X94613683Y-22316300D01*
X105335623Y-22316300D01*
X105379560Y-22360237D01*
G36*
X92308690Y-22812158D02*
G01*
X92294547Y-22826300D01*
X92308690Y-22840443D01*
X92129085Y-23020048D01*
X92114942Y-23005905D01*
X92100800Y-23020048D01*
X91921195Y-22840443D01*
X91935337Y-22826300D01*
X91921195Y-22812158D01*
X92100800Y-22632553D01*
X92114942Y-22646695D01*
X92129085Y-22632553D01*
X92308690Y-22812158D01*
X92308690Y-22812158D01*
G37*
X92308690Y-22812158D02*
X92294547Y-22826300D01*
X92308690Y-22840443D01*
X92129085Y-23020048D01*
X92114942Y-23005905D01*
X92100800Y-23020048D01*
X91921195Y-22840443D01*
X91935337Y-22826300D01*
X91921195Y-22812158D01*
X92100800Y-22632553D01*
X92114942Y-22646695D01*
X92129085Y-22632553D01*
X92308690Y-22812158D01*
G36*
X106269822Y-18636835D02*
G01*
X106295333Y-18662346D01*
X105431379Y-19526300D01*
X97495831Y-19526300D01*
X97451894Y-19482363D01*
X97282376Y-19369095D01*
X97094018Y-19291074D01*
X96894059Y-19251300D01*
X96690181Y-19251300D01*
X96490222Y-19291074D01*
X96301864Y-19369095D01*
X96132346Y-19482363D01*
X96088409Y-19526300D01*
X94745266Y-19526300D01*
X94764098Y-19486252D01*
X94830365Y-19219165D01*
X94843252Y-18944283D01*
X94802264Y-18672167D01*
X94742497Y-18506300D01*
X105708858Y-18506300D01*
X105746180Y-18509976D01*
X105783502Y-18506300D01*
X105783513Y-18506300D01*
X105895166Y-18495303D01*
X106038427Y-18451846D01*
X106117850Y-18409393D01*
X106269822Y-18636835D01*
X106269822Y-18636835D01*
G37*
X106269822Y-18636835D02*
X106295333Y-18662346D01*
X105431379Y-19526300D01*
X97495831Y-19526300D01*
X97451894Y-19482363D01*
X97282376Y-19369095D01*
X97094018Y-19291074D01*
X96894059Y-19251300D01*
X96690181Y-19251300D01*
X96490222Y-19291074D01*
X96301864Y-19369095D01*
X96132346Y-19482363D01*
X96088409Y-19526300D01*
X94745266Y-19526300D01*
X94764098Y-19486252D01*
X94830365Y-19219165D01*
X94843252Y-18944283D01*
X94802264Y-18672167D01*
X94742497Y-18506300D01*
X105708858Y-18506300D01*
X105746180Y-18509976D01*
X105783502Y-18506300D01*
X105783513Y-18506300D01*
X105895166Y-18495303D01*
X106038427Y-18451846D01*
X106117850Y-18409393D01*
X106269822Y-18636835D01*
G36*
X93635090Y-19002158D02*
G01*
X93620947Y-19016300D01*
X93635090Y-19030443D01*
X93455485Y-19210048D01*
X93441342Y-19195905D01*
X93427200Y-19210048D01*
X93247595Y-19030443D01*
X93261737Y-19016300D01*
X93247595Y-19002158D01*
X93427200Y-18822553D01*
X93441342Y-18836695D01*
X93455485Y-18822553D01*
X93635090Y-19002158D01*
X93635090Y-19002158D01*
G37*
X93635090Y-19002158D02*
X93620947Y-19016300D01*
X93635090Y-19030443D01*
X93455485Y-19210048D01*
X93441342Y-19195905D01*
X93427200Y-19210048D01*
X93247595Y-19030443D01*
X93261737Y-19016300D01*
X93247595Y-19002158D01*
X93427200Y-18822553D01*
X93441342Y-18836695D01*
X93455485Y-18822553D01*
X93635090Y-19002158D01*
G36*
X95362686Y-13426556D02*
G01*
X95221796Y-13716171D01*
X95140116Y-14027708D01*
X95120782Y-14349195D01*
X95164539Y-14668275D01*
X95269705Y-14972688D01*
X95362686Y-15146644D01*
X95627087Y-15242408D01*
X96582895Y-14286600D01*
X96568753Y-14272458D01*
X96748358Y-14092853D01*
X96762500Y-14106995D01*
X96776643Y-14092853D01*
X96956248Y-14272458D01*
X96942105Y-14286600D01*
X97897913Y-15242408D01*
X98162314Y-15146644D01*
X98303204Y-14857029D01*
X98384884Y-14545492D01*
X98404218Y-14224005D01*
X98360461Y-13904925D01*
X98255295Y-13600512D01*
X98162314Y-13426556D01*
X97976346Y-13359200D01*
X101915771Y-13359200D01*
X101813582Y-13512137D01*
X101690332Y-13809688D01*
X101627500Y-14125567D01*
X101627500Y-14447633D01*
X101690332Y-14763512D01*
X101813582Y-15061063D01*
X101992513Y-15328852D01*
X102220248Y-15556587D01*
X102459275Y-15716300D01*
X97566631Y-15716300D01*
X97622544Y-15686414D01*
X97718308Y-15422013D01*
X96762500Y-14466205D01*
X95806692Y-15422013D01*
X95902456Y-15686414D01*
X95963890Y-15716300D01*
X94613683Y-15716300D01*
X94526462Y-15585765D01*
X94331877Y-15391180D01*
X94103069Y-15238295D01*
X93848832Y-15132986D01*
X93578934Y-15079300D01*
X93303750Y-15079300D01*
X93033852Y-15132986D01*
X92779615Y-15238295D01*
X92550807Y-15391180D01*
X92356222Y-15585765D01*
X92203337Y-15814573D01*
X92098028Y-16068810D01*
X92044342Y-16338708D01*
X92044342Y-16349300D01*
X91977350Y-16349300D01*
X91707452Y-16402986D01*
X91453215Y-16508295D01*
X91224407Y-16661180D01*
X91143000Y-16742587D01*
X91143000Y-15112579D01*
X91178883Y-14746617D01*
X91275789Y-14425645D01*
X91433196Y-14129607D01*
X91645102Y-13869786D01*
X91903445Y-13656067D01*
X92198375Y-13496599D01*
X92518659Y-13397454D01*
X92882614Y-13359200D01*
X95548654Y-13359200D01*
X95362686Y-13426556D01*
X95362686Y-13426556D01*
G37*
X95362686Y-13426556D02*
X95221796Y-13716171D01*
X95140116Y-14027708D01*
X95120782Y-14349195D01*
X95164539Y-14668275D01*
X95269705Y-14972688D01*
X95362686Y-15146644D01*
X95627087Y-15242408D01*
X96582895Y-14286600D01*
X96568753Y-14272458D01*
X96748358Y-14092853D01*
X96762500Y-14106995D01*
X96776643Y-14092853D01*
X96956248Y-14272458D01*
X96942105Y-14286600D01*
X97897913Y-15242408D01*
X98162314Y-15146644D01*
X98303204Y-14857029D01*
X98384884Y-14545492D01*
X98404218Y-14224005D01*
X98360461Y-13904925D01*
X98255295Y-13600512D01*
X98162314Y-13426556D01*
X97976346Y-13359200D01*
X101915771Y-13359200D01*
X101813582Y-13512137D01*
X101690332Y-13809688D01*
X101627500Y-14125567D01*
X101627500Y-14447633D01*
X101690332Y-14763512D01*
X101813582Y-15061063D01*
X101992513Y-15328852D01*
X102220248Y-15556587D01*
X102459275Y-15716300D01*
X97566631Y-15716300D01*
X97622544Y-15686414D01*
X97718308Y-15422013D01*
X96762500Y-14466205D01*
X95806692Y-15422013D01*
X95902456Y-15686414D01*
X95963890Y-15716300D01*
X94613683Y-15716300D01*
X94526462Y-15585765D01*
X94331877Y-15391180D01*
X94103069Y-15238295D01*
X93848832Y-15132986D01*
X93578934Y-15079300D01*
X93303750Y-15079300D01*
X93033852Y-15132986D01*
X92779615Y-15238295D01*
X92550807Y-15391180D01*
X92356222Y-15585765D01*
X92203337Y-15814573D01*
X92098028Y-16068810D01*
X92044342Y-16338708D01*
X92044342Y-16349300D01*
X91977350Y-16349300D01*
X91707452Y-16402986D01*
X91453215Y-16508295D01*
X91224407Y-16661180D01*
X91143000Y-16742587D01*
X91143000Y-15112579D01*
X91178883Y-14746617D01*
X91275789Y-14425645D01*
X91433196Y-14129607D01*
X91645102Y-13869786D01*
X91903445Y-13656067D01*
X92198375Y-13496599D01*
X92518659Y-13397454D01*
X92882614Y-13359200D01*
X95548654Y-13359200D01*
X95362686Y-13426556D01*
M02*
