M48
INCH,TZ
T1C0.0472
T2C0.0670
T3C0.1200
T4C0.1570
%
G90
G05
T1
X36138Y-23438
X36138Y-24127
X38893Y-23438
X38893Y-24127
T2
X52372Y-23749
X56372Y-23749
X52372Y-31248
X56372Y-31248
X48625Y-31250
X52625Y-31250
X37375Y-31250
X41375Y-31250
X44872Y-16249
X48872Y-16249
X44872Y-8749
X48872Y-8749
X52372Y-8749
X56372Y-8749
X44872Y-23749
X48872Y-23749
X52372Y-16249
X56372Y-16249
X41125Y-31250
X45125Y-31250
T3
X45940Y-34000
X55310Y-34000
X38440Y-34000
X47810Y-34000
T4
X54372Y-23749
X54372Y-31248
X50625Y-31250
X39375Y-31250
X46872Y-16249
X45940Y-28000
X55310Y-28000
X46872Y-8749
X54372Y-8749
X46872Y-23749
X38440Y-28000
X47810Y-28000
X54372Y-16249
X43125Y-31250
T0
M30
